<?xml version="1.0" encoding="UTF-8" standalone="no"?>
<svg
   xmlns:dc="http://purl.org/dc/elements/1.1/"
   xmlns:cc="http://creativecommons.org/ns#"
   xmlns:rdf="http://www.w3.org/1999/02/22-rdf-syntax-ns#"
   xmlns:svg="http://www.w3.org/2000/svg"
   xmlns="http://www.w3.org/2000/svg"
   xmlns:sodipodi="http://sodipodi.sourceforge.net/DTD/sodipodi-0.dtd"
   xmlns:inkscape="http://www.inkscape.org/namespaces/inkscape"
   version="1.1"
   viewBox="0.0 0.0 600.0 371.0"
   fill="none"
   stroke="none"
   stroke-linecap="square"
   stroke-miterlimit="10"
   width="600"
   height="371"
   id="svg38"
   sodipodi:docname="candidatos_por_sexo.svg"
   inkscape:version="1.0.1 (3bc2e813f5, 2020-09-07)">
  <metadata
     id="metadata44">
    <rdf:RDF>
      <cc:Work
         rdf:about="">
        <dc:format>image/svg+xml</dc:format>
        <dc:type
           rdf:resource="http://purl.org/dc/dcmitype/StillImage" />
      </cc:Work>
    </rdf:RDF>
  </metadata>
  <defs
     id="defs42" />
  <sodipodi:namedview
     pagecolor="#ffffff"
     bordercolor="#666666"
     borderopacity="1"
     objecttolerance="10"
     gridtolerance="10"
     guidetolerance="10"
     inkscape:pageopacity="0"
     inkscape:pageshadow="2"
     inkscape:window-width="1366"
     inkscape:window-height="704"
     id="namedview40"
     showgrid="false"
     inkscape:zoom="1.0978262"
     inkscape:cx="305.54083"
     inkscape:cy="201.27741"
     inkscape:window-x="0"
     inkscape:window-y="27"
     inkscape:window-maximized="1"
     inkscape:current-layer="svg38"
     inkscape:document-rotation="0" />
  <path
     fill="#ffffff"
     d="M0 0L600.0 0L600.0 371.0L0 371.0L0 0Z"
     fill-rule="nonzero"
     id="path2" />
  <path
     fill="#2e5dab"
     d="M448.76666 214.84084C448.76666 233.12064 441.8927 251.0784 428.83572 266.90918L428.83572 244.59416C441.8927 228.7634 448.76666 210.80563 448.76666 192.52583Z"
     fill-rule="nonzero"
     id="path4" />
  <path
     fill="#2e5dab"
     d="M300.0 140.4575C341.08078 140.4575 374.38333 163.76929 374.38333 192.52583L374.38333 214.84084C374.38333 186.08429 341.08078 162.7725 300.0 162.7725Z"
     fill-rule="nonzero"
     id="path6" />
  <path
     fill="#4285f4"
     d="M300.0 88.38917C353.1492 88.38917 402.2611 108.2375 428.83572 140.4575C455.4103 172.67749 455.4103 212.37418 428.83572 244.59416L364.41785 218.56C377.70517 202.45 377.70517 182.60167 364.41785 166.49167C351.13055 150.38167 326.57462 140.4575 300.0 140.4575Z"
     fill-rule="nonzero"
     id="path8" />
  <path
     fill="#a42f25"
     d="M428.83572 266.90918C395.1694 307.72742 326.5347 327.62802 261.49637 315.42914C196.45802 303.23026 151.23334 261.9737 151.23334 214.84084L151.23334 192.52583C151.23334 239.65868 196.45802 280.91525 261.49637 293.11414C326.5347 305.31302 395.1694 285.4124 428.83572 244.59416Z"
     fill-rule="nonzero"
     id="path10" />
  <path
     fill="#a42f25"
     d="M225.61667 192.52583C225.61667 163.76929 258.91922 140.4575 300.0 140.4575L300.0 162.7725C258.91922 162.7725 225.61667 186.08429 225.61667 214.84084Z"
     fill-rule="nonzero"
     id="path12" />
  <path
     fill="#ea4335"
     d="M428.83572 244.59416C392.73795 288.36038 316.9604 307.6669 249.1188 290.3823C181.2772 273.09766 140.95682 224.21179 153.49344 174.44269C166.03006 124.6736 227.80449 88.38917 300.0 88.38917L300.0 140.4575C263.90225 140.4575 233.01503 158.59972 226.74672 183.48427C220.47841 208.3688 240.63861 232.81175 274.5594 241.45406C308.4802 250.09637 346.369 240.4431 364.41785 218.56Z"
     fill-rule="nonzero"
     id="path14" />
  <path
     fill="#000000"
     d="M389.32147 155.8683L391.22772 155.66518Q391.32147 156.32143 391.7121 156.69643Q392.11835 157.07143 392.6496 157.07143Q393.24335 157.07143 393.66522 156.58705Q394.0871 156.10268 394.0871 155.1183Q394.0871 154.19643 393.66522 153.7433Q393.25897 153.27455 392.5871 153.27455Q391.75897 153.27455 391.10272 154.00893L389.55585 153.77455L390.54022 148.5558L395.61835 148.5558L395.61835 150.35268L391.99335 150.35268L391.69647 152.0558Q392.3371 151.7433 393.00897 151.7433Q394.2746 151.7433 395.16522 152.6808Q396.05585 153.60268 396.05585 155.08705Q396.05585 156.32143 395.3371 157.29018Q394.36835 158.6183 392.63397 158.6183Q391.24335 158.6183 390.36835 157.88393Q389.49335 157.13393 389.32147 155.8683ZM403.7746 156.66518L403.7746 158.44643L397.04022 158.44643Q397.1496 157.4308 397.69647 156.52455Q398.24335 155.6183 399.86835 154.1183Q401.16522 152.91518 401.4621 152.47768Q401.85272 151.88393 401.85272 151.3058Q401.85272 150.66518 401.50897 150.32143Q401.16522 149.97768 400.55585 149.97768Q399.94647 149.97768 399.5871 150.33705Q399.24335 150.69643 399.18085 151.54018L397.2746 151.35268Q397.44647 149.75893 398.3371 149.07143Q399.24335 148.38393 400.60272 148.38393Q402.0871 148.38393 402.93085 149.1808Q403.7746 149.97768 403.7746 151.16518Q403.7746 151.85268 403.5246 152.46205Q403.29022 153.07143 402.7746 153.7433Q402.41522 154.1808 401.50897 155.02455Q400.60272 155.85268 400.35272 156.13393Q400.11835 156.39955 399.9621 156.66518L403.7746 156.66518Z"
     fill-rule="nonzero"
     id="path16" />
  <path
     fill="#000000"
     d="M196.88884 236.57709L194.96696 236.57709L194.96696 229.34271Q193.90446 230.32709 192.48259 230.79584L192.48259 229.04584Q193.23259 228.81146 194.10759 228.12396Q194.99821 227.43646 195.32634 226.51459L196.88884 226.51459L196.88884 236.57709ZM203.21696 226.51459Q204.67009 226.51459 205.49821 227.54584Q206.46696 228.78021 206.46696 231.63959Q206.46696 234.48334 205.48259 235.71771Q204.67009 236.74896 203.21696 236.74896Q201.74821 236.74896 200.85759 235.62396Q199.96696 234.49896 199.96696 231.60834Q199.96696 228.78021 200.95134 227.54584Q201.76384 226.51459 203.21696 226.51459ZM203.21696 228.10834Q202.87321 228.10834 202.59196 228.32709Q202.32634 228.54584 202.17009 229.12396Q201.96696 229.87396 201.96696 231.63959Q201.96696 233.40521 202.13884 234.06146Q202.32634 234.71771 202.59196 234.93646Q202.87321 235.15521 203.21696 235.15521Q203.56071 235.15521 203.82634 234.93646Q204.10759 234.71771 204.26384 234.13959Q204.46696 233.40521 204.46696 231.63959Q204.46696 229.87396 204.27946 229.21771Q204.10759 228.54584 203.82634 228.32709Q203.56071 228.10834 203.21696 228.10834ZM211.73259 236.57709L211.73259 234.56146L207.63884 234.56146L207.63884 232.87396L211.98259 226.51459L213.59196 226.51459L213.59196 232.87396L214.84196 232.87396L214.84196 234.56146L213.59196 234.56146L213.59196 236.57709L211.73259 236.57709ZM211.73259 232.87396L211.73259 229.45209L209.43571 232.87396L211.73259 232.87396Z"
     fill-rule="nonzero"
     id="path18" />
  <path
     fill="#1a1a1a"
     d="M21.6125 228.9595L23.8 235.147L25.9875 228.9595L28.284374 228.9595L28.284374 237.49075L26.51875 237.49075L26.51875 235.16263L26.70625 231.13138L24.39375 237.49075L23.190624 237.49075L20.89375 231.13138L21.065624 235.16263L21.065624 237.49075L19.315624 237.49075L19.315624 228.9595L21.6125 228.9595ZM35.128124 235.72513L32.05 235.72513L31.45625 237.49075L29.596874 237.49075L32.76875 228.9595L34.39375 228.9595L37.596874 237.49075L35.721874 237.49075L35.128124 235.72513ZM32.51875 234.30325L34.659374 234.30325L33.58125 231.11575L32.51875 234.30325ZM42.7375 235.25638Q42.7375 234.75638 42.378124 234.49075Q42.034374 234.22513 41.1125 233.92825Q40.20625 233.63138 39.675 233.3345Q38.221874 232.55325 38.221874 231.22513Q38.221874 230.53763 38.6125 229.99075Q39.003124 229.44388 39.721874 229.147Q40.45625 228.8345 41.3625 228.8345Q42.284374 228.8345 42.9875 229.17825Q43.70625 229.50638 44.096874 230.11575Q44.503124 230.7095 44.503124 231.47513L42.7375 231.47513Q42.7375 230.897 42.3625 230.56888Q42.003124 230.24075 41.33125 230.24075Q40.690624 230.24075 40.33125 230.522Q39.971874 230.78763 39.971874 231.22513Q39.971874 231.647 40.39375 231.92825Q40.815624 232.2095 41.628124 232.4595Q43.128124 232.91263 43.815624 233.5845Q44.503124 234.24075 44.503124 235.24075Q44.503124 236.35013 43.659374 236.99075Q42.83125 237.61575 41.409374 237.61575Q40.425 237.61575 39.6125 237.25638Q38.8 236.88138 38.378124 236.25638Q37.95625 235.63138 37.95625 234.80325L39.721874 234.80325Q39.721874 236.22513 41.409374 236.22513Q42.034374 236.22513 42.378124 235.97513Q42.7375 235.7095 42.7375 235.25638ZM52.003124 234.647Q51.909374 236.022 50.9875 236.81888Q50.08125 237.61575 48.58125 237.61575Q46.940624 237.61575 45.9875 236.50638Q45.05 235.397 45.05 233.47513L45.05 232.94388Q45.05 231.72513 45.4875 230.78763Q45.925 229.85013 46.721874 229.35013Q47.534374 228.8345 48.596874 228.8345Q50.08125 228.8345 50.971874 229.63138Q51.878124 230.42825 52.01875 231.85013L50.26875 231.85013Q50.20625 231.022 49.8 230.66263Q49.409374 230.28763 48.596874 230.28763Q47.721874 230.28763 47.284374 230.91263Q46.846874 231.53763 46.83125 232.86575L46.83125 233.50638Q46.83125 234.897 47.253124 235.53763Q47.675 236.17825 48.58125 236.17825Q49.39375 236.17825 49.784374 235.80325Q50.190624 235.42825 50.253124 234.647L52.003124 234.647ZM59.76875 228.9595L59.76875 234.5845Q59.76875 235.97513 58.89375 236.80325Q58.01875 237.61575 56.503124 237.61575Q55.003124 237.61575 54.128124 236.81888Q53.253124 236.022 53.2375 234.647L53.2375 228.9595L54.9875 228.9595L54.9875 234.5845Q54.9875 235.42825 55.378124 235.81888Q55.784374 236.19388 56.503124 236.19388Q57.9875 236.19388 58.003124 234.63138L58.003124 228.9595L59.76875 228.9595ZM63.065624 236.0845L66.8 236.0845L66.8 237.49075L61.315624 237.49075L61.315624 228.9595L63.065624 228.9595L63.065624 236.0845ZM70.175 237.49075L68.425 237.49075L68.425 228.9595L70.175 228.9595L70.175 237.49075ZM79.25313 237.49075L77.4875 237.49075L74.06563 231.88138L74.06563 237.49075L72.31563 237.49075L72.31563 228.9595L74.06563 228.9595L77.50313 234.5845L77.50313 228.9595L79.25313 228.9595L79.25313 237.49075ZM87.31563 233.41263Q87.31563 234.67825 86.8625 235.63138Q86.425 236.56888 85.59688 237.10013Q84.76875 237.61575 83.70625 237.61575Q82.64375 237.61575 81.8 237.10013Q80.97188 236.5845 80.51875 235.647Q80.06563 234.69388 80.05 233.4595L80.05 233.03763Q80.05 231.78763 80.50313 230.8345Q80.95625 229.86575 81.78438 229.35013Q82.62813 228.8345 83.69063 228.8345Q84.75313 228.8345 85.58125 229.35013Q86.40938 229.86575 86.8625 230.8345Q87.31563 231.78763 87.31563 233.03763L87.31563 233.41263ZM85.53438 233.03763Q85.53438 231.69388 85.05 230.99075Q84.58125 230.28763 83.69063 230.28763Q82.8 230.28763 82.31563 230.99075Q81.84688 231.67825 81.83125 233.00638L81.83125 233.41263Q81.83125 234.72513 82.31563 235.44388Q82.8 236.16263 83.70625 236.16263Q84.58125 236.16263 85.05 235.47513Q85.53438 234.772 85.53438 233.44388L85.53438 233.03763Z"
     fill-rule="nonzero"
     id="path20" />
  <path
     fill="#9e9e9e"
     d="M23.721874 246.86575L23.721874 248.272L23.565624 248.272Q22.409374 248.28763 21.70625 248.86575Q21.01875 249.44388 20.878124 250.47513Q21.55 249.78763 22.58125 249.78763Q23.70625 249.78763 24.3625 250.5845Q25.01875 251.38138 25.01875 252.67825Q25.01875 253.50638 24.659374 254.17825Q24.3 254.85013 23.628124 255.24075Q22.971874 255.61575 22.14375 255.61575Q20.8 255.61575 19.971874 254.67825Q19.14375 253.72513 19.14375 252.16263L19.14375 251.55325Q19.14375 250.16263 19.659374 249.10013Q20.190624 248.03763 21.159374 247.4595Q22.14375 246.88138 23.440624 246.86575L23.721874 246.86575ZM22.065624 251.147Q21.659374 251.147 21.315624 251.36575Q20.9875 251.56888 20.83125 251.92825L20.83125 252.44388Q20.83125 253.28763 21.159374 253.772Q21.503124 254.24075 22.1125 254.24075Q22.659374 254.24075 22.9875 253.81888Q23.33125 253.38138 23.33125 252.69388Q23.33125 251.99075 22.9875 251.56888Q22.64375 251.147 22.065624 251.147ZM30.721874 246.86575L30.721874 248.272L30.565624 248.272Q29.409374 248.28763 28.70625 248.86575Q28.01875 249.44388 27.878124 250.47513Q28.55 249.78763 29.58125 249.78763Q30.70625 249.78763 31.3625 250.5845Q32.01875 251.38138 32.01875 252.67825Q32.01875 253.50638 31.659374 254.17825Q31.3 254.85013 30.628124 255.24075Q29.971874 255.61575 29.14375 255.61575Q27.8 255.61575 26.971874 254.67825Q26.14375 253.72513 26.14375 252.16263L26.14375 251.55325Q26.14375 250.16263 26.659374 249.10013Q27.190624 248.03763 28.159374 247.4595Q29.14375 246.88138 30.440624 246.86575L30.721874 246.86575ZM29.065624 251.147Q28.659374 251.147 28.315624 251.36575Q27.9875 251.56888 27.83125 251.92825L27.83125 252.44388Q27.83125 253.28763 28.159374 253.772Q28.503124 254.24075 29.1125 254.24075Q29.659374 254.24075 29.9875 253.81888Q30.33125 253.38138 30.33125 252.69388Q30.33125 251.99075 29.9875 251.56888Q29.64375 251.147 29.065624 251.147ZM33.64375 257.63138L32.753124 257.16263L32.971874 256.78763Q33.3625 256.06888 33.378124 255.36575L33.378124 254.05325L34.8 254.05325L34.8 255.22513Q34.784374 255.86575 34.45625 256.522Q34.14375 257.19388 33.64375 257.63138ZM41.925 247.91263L38.628124 255.49075L36.846874 255.49075L40.14375 248.3345L35.909374 248.3345L35.909374 246.9595L41.925 246.9595L41.925 247.91263ZM43.1125 248.60013Q43.1125 247.81888 43.6125 247.3345Q44.128124 246.8345 44.95625 246.8345Q45.784374 246.8345 46.3 247.31888Q46.815624 247.80325 46.815624 248.63138L46.815624 249.05325Q46.815624 249.8345 46.3 250.31888Q45.784374 250.80325 44.971874 250.80325Q44.128124 250.80325 43.6125 250.31888Q43.1125 249.8345 43.1125 249.022L43.1125 248.60013ZM44.2375 249.05325Q44.2375 249.397 44.440624 249.61575Q44.64375 249.8345 44.971874 249.8345Q45.3 249.8345 45.4875 249.61575Q45.675 249.397 45.675 249.03763L45.675 248.60013Q45.675 248.24075 45.4875 248.03763Q45.3 247.81888 44.95625 247.81888Q44.628124 247.81888 44.425 248.03763Q44.2375 248.24075 44.2375 248.61575L44.2375 249.05325ZM47.190624 253.397Q47.190624 252.60013 47.70625 252.13138Q48.221874 251.647 49.034374 251.647Q49.8625 251.647 50.378124 252.13138Q50.89375 252.60013 50.89375 253.42825L50.89375 253.85013Q50.89375 254.647 50.39375 255.13138Q49.89375 255.61575 49.05 255.61575Q48.20625 255.61575 47.690624 255.13138Q47.190624 254.63138 47.190624 253.8345L47.190624 253.397ZM48.315624 253.85013Q48.315624 254.17825 48.51875 254.41263Q48.7375 254.63138 49.05 254.63138Q49.76875 254.63138 49.76875 253.85013L49.76875 253.397Q49.76875 253.05325 49.565624 252.8345Q49.3625 252.61575 49.034374 252.61575Q48.70625 252.61575 48.503124 252.8345Q48.315624 253.05325 48.315624 253.41263L48.315624 253.85013ZM45.3 254.85013L44.471874 254.41263L48.64375 247.74075L49.471874 248.17825L45.3 254.85013Z"
     fill-rule="nonzero"
     id="path22" />
  <path
     stroke="#757575"
     stroke-width="1.0"
     stroke-linecap="butt"
     d="M18.55 241.99075L145.23334 241.99075L177.60608 241.99075"
     fill-rule="nonzero"
     id="path24" />
  <path
     fill="#9e9e9e"
     d="M179.60608 241.99075C179.60608 240.88618 178.71065 239.99075 177.60608 239.99075C176.50151 239.99075 175.60608 240.88618 175.60608 241.99075C175.60608 243.09532 176.50151 243.99075 177.60608 243.99075C178.71065 243.99075 179.60608 243.09532 179.60608 241.99075"
     fill-rule="nonzero"
     id="path26" />
  <path
     fill="#1a1a1a"
     d="M530.34064 135.07654L526.96564 135.07654L526.96564 138.56091L525.21564 138.56091L525.21564 130.02966L530.7625 130.02966L530.7625 131.45154L526.96564 131.45154L526.96564 133.65466L530.34064 133.65466L530.34064 135.07654ZM537.34064 134.85779L533.96564 134.85779L533.96564 137.15466L537.9344 137.15466L537.9344 138.56091L532.21564 138.56091L532.21564 130.02966L537.91876 130.02966L537.91876 131.45154L533.96564 131.45154L533.96564 133.48279L537.34064 133.48279L537.34064 134.85779ZM541.5125 130.02966L543.7 136.21716L545.8875 130.02966L548.1844 130.02966L548.1844 138.56091L546.41876 138.56091L546.41876 136.23279L546.60626 132.20154L544.29376 138.56091L543.09064 138.56091L540.79376 132.20154L540.96564 136.23279L540.96564 138.56091L539.21564 138.56091L539.21564 130.02966L541.5125 130.02966ZM552.075 138.56091L550.325 138.56091L550.325 130.02966L552.075 130.02966L552.075 138.56091ZM561.15314 138.56091L559.3875 138.56091L555.96564 132.95154L555.96564 138.56091L554.21564 138.56091L554.21564 130.02966L555.96564 130.02966L559.40314 135.65466L559.40314 130.02966L561.15314 130.02966L561.15314 138.56091ZM564.075 138.56091L562.325 138.56091L562.325 130.02966L564.075 130.02966L564.075 138.56091ZM573.15314 138.56091L571.3875 138.56091L567.96564 132.95154L567.96564 138.56091L566.21564 138.56091L566.21564 130.02966L567.96564 130.02966L571.40314 135.65466L571.40314 130.02966L573.15314 130.02966L573.15314 138.56091ZM581.21564 134.48279Q581.21564 135.74841 580.7625 136.70154Q580.325 137.63904 579.4969 138.17029Q578.66876 138.68591 577.60626 138.68591Q576.54376 138.68591 575.7 138.17029Q574.8719 137.65466 574.41876 136.71716Q573.96564 135.76404 573.95 134.52966L573.95 134.10779Q573.95 132.85779 574.40314 131.90466Q574.85626 130.93591 575.6844 130.42029Q576.52814 129.90466 577.59064 129.90466Q578.65314 129.90466 579.48126 130.42029Q580.3094 130.93591 580.7625 131.90466Q581.21564 132.85779 581.21564 134.10779L581.21564 134.48279ZM579.4344 134.10779Q579.4344 132.76404 578.95 132.06091Q578.48126 131.35779 577.59064 131.35779Q576.7 131.35779 576.21564 132.06091Q575.7469 132.74841 575.73126 134.07654L575.73126 134.48279Q575.73126 135.79529 576.21564 136.51404Q576.7 137.23279 577.60626 137.23279Q578.48126 137.23279 578.95 136.54529Q579.4344 135.84216 579.4344 134.51404L579.4344 134.10779Z"
     fill-rule="nonzero"
     id="path28" />
  <path
     fill="#9e9e9e"
     d="M550.7469 151.54529L551.65314 151.54529Q552.29376 151.54529 552.60626 151.23279Q552.91876 150.90466 552.91876 150.37341Q552.91876 149.85779 552.60626 149.57654Q552.3094 149.27966 551.7625 149.27966Q551.27814 149.27966 550.95 149.54529Q550.6219 149.81091 550.6219 150.23279L548.9344 150.23279Q548.9344 149.57654 549.29376 149.04529Q549.65314 148.51404 550.29376 148.21716Q550.95 147.90466 551.73126 147.90466Q553.075 147.90466 553.84064 148.56091Q554.6219 149.20154 554.6219 150.34216Q554.6219 150.93591 554.2625 151.43591Q553.90314 151.92029 553.325 152.17029Q554.04376 152.43591 554.3875 152.95154Q554.7469 153.46716 554.7469 154.17029Q554.7469 155.31091 553.91876 155.99841Q553.09064 156.68591 551.73126 156.68591Q550.45 156.68591 549.6375 156.01404Q548.825 155.32654 548.825 154.21716L550.5125 154.21716Q550.5125 154.70154 550.8719 155.01404Q551.2469 155.31091 551.7625 155.31091Q552.3719 155.31091 552.71564 154.99841Q553.0594 154.67029 553.0594 154.13904Q553.0594 152.87341 551.65314 152.87341L550.7469 152.87341L550.7469 151.54529ZM557.7469 151.54529L558.65314 151.54529Q559.29376 151.54529 559.60626 151.23279Q559.91876 150.90466 559.91876 150.37341Q559.91876 149.85779 559.60626 149.57654Q559.3094 149.27966 558.7625 149.27966Q558.27814 149.27966 557.95 149.54529Q557.6219 149.81091 557.6219 150.23279L555.9344 150.23279Q555.9344 149.57654 556.29376 149.04529Q556.65314 148.51404 557.29376 148.21716Q557.95 147.90466 558.73126 147.90466Q560.075 147.90466 560.84064 148.56091Q561.6219 149.20154 561.6219 150.34216Q561.6219 150.93591 561.2625 151.43591Q560.90314 151.92029 560.325 152.17029Q561.04376 152.43591 561.3875 152.95154Q561.7469 153.46716 561.7469 154.17029Q561.7469 155.31091 560.91876 155.99841Q560.09064 156.68591 558.73126 156.68591Q557.45 156.68591 556.6375 156.01404Q555.825 155.32654 555.825 154.21716L557.5125 154.21716Q557.5125 154.70154 557.8719 155.01404Q558.2469 155.31091 558.7625 155.31091Q559.3719 155.31091 559.71564 154.99841Q560.0594 154.67029 560.0594 154.13904Q560.0594 152.87341 558.65314 152.87341L557.7469 152.87341L557.7469 151.54529ZM563.54376 158.70154L562.65314 158.23279L562.8719 157.85779Q563.2625 157.13904 563.27814 156.43591L563.27814 155.12341L564.7 155.12341L564.7 156.29529Q564.6844 156.93591 564.35626 157.59216Q564.04376 158.26404 563.54376 158.70154ZM567.7469 151.54529L568.65314 151.54529Q569.29376 151.54529 569.60626 151.23279Q569.91876 150.90466 569.91876 150.37341Q569.91876 149.85779 569.60626 149.57654Q569.3094 149.27966 568.7625 149.27966Q568.27814 149.27966 567.95 149.54529Q567.6219 149.81091 567.6219 150.23279L565.9344 150.23279Q565.9344 149.57654 566.29376 149.04529Q566.65314 148.51404 567.29376 148.21716Q567.95 147.90466 568.73126 147.90466Q570.075 147.90466 570.84064 148.56091Q571.6219 149.20154 571.6219 150.34216Q571.6219 150.93591 571.2625 151.43591Q570.90314 151.92029 570.325 152.17029Q571.04376 152.43591 571.3875 152.95154Q571.7469 153.46716 571.7469 154.17029Q571.7469 155.31091 570.91876 155.99841Q570.09064 156.68591 568.73126 156.68591Q567.45 156.68591 566.6375 156.01404Q565.825 155.32654 565.825 154.21716L567.5125 154.21716Q567.5125 154.70154 567.8719 155.01404Q568.2469 155.31091 568.7625 155.31091Q569.3719 155.31091 569.71564 154.99841Q570.0594 154.67029 570.0594 154.13904Q570.0594 152.87341 568.65314 152.87341L567.7469 152.87341L567.7469 151.54529ZM573.0125 149.67029Q573.0125 148.88904 573.5125 148.40466Q574.02814 147.90466 574.85626 147.90466Q575.6844 147.90466 576.2 148.38904Q576.71564 148.87341 576.71564 149.70154L576.71564 150.12341Q576.71564 150.90466 576.2 151.38904Q575.6844 151.87341 574.8719 151.87341Q574.02814 151.87341 573.5125 151.38904Q573.0125 150.90466 573.0125 150.09216L573.0125 149.67029ZM574.1375 150.12341Q574.1375 150.46716 574.34064 150.68591Q574.54376 150.90466 574.8719 150.90466Q575.2 150.90466 575.3875 150.68591Q575.575 150.46716 575.575 150.10779L575.575 149.67029Q575.575 149.31091 575.3875 149.10779Q575.2 148.88904 574.85626 148.88904Q574.52814 148.88904 574.325 149.10779Q574.1375 149.31091 574.1375 149.68591L574.1375 150.12341ZM577.09064 154.46716Q577.09064 153.67029 577.60626 153.20154Q578.1219 152.71716 578.9344 152.71716Q579.7625 152.71716 580.27814 153.20154Q580.79376 153.67029 580.79376 154.49841L580.79376 154.92029Q580.79376 155.71716 580.29376 156.20154Q579.79376 156.68591 578.95 156.68591Q578.10626 156.68591 577.59064 156.20154Q577.09064 155.70154 577.09064 154.90466L577.09064 154.46716ZM578.21564 154.92029Q578.21564 155.24841 578.41876 155.48279Q578.6375 155.70154 578.95 155.70154Q579.66876 155.70154 579.66876 154.92029L579.66876 154.46716Q579.66876 154.12341 579.46564 153.90466Q579.2625 153.68591 578.9344 153.68591Q578.60626 153.68591 578.40314 153.90466Q578.21564 154.12341 578.21564 154.48279L578.21564 154.92029ZM575.2 155.92029L574.3719 155.48279L578.54376 148.81091L579.3719 149.24841L575.2 155.92029Z"
     fill-rule="nonzero"
     id="path30" />
  <path
     stroke="#757575"
     stroke-width="1.0"
     stroke-linecap="butt"
     d="M581.45 143.06091L454.76666 143.06091L422.39392 143.06091"
     fill-rule="nonzero"
     id="path32" />
  <path
     fill="#9e9e9e"
     d="M424.39392 143.06091C424.39392 141.95634 423.4985 141.06091 422.39392 141.06091C421.28937 141.06091 420.39392 141.95634 420.39392 143.06091C420.39392 144.16548 421.28937 145.06091 422.39392 145.06091C423.4985 145.06091 424.39392 144.16548 424.39392 143.06091"
     fill-rule="nonzero"
     id="path34" />
  <path
     fill="#757575"
     d="M212.10938 32.284374L214.92188 33.175Q214.28125 35.51875 212.78125 36.659374Q211.28125 37.8 208.96875 37.8Q206.125 37.8 204.28125 35.846874Q202.45312 33.89375 202.45312 30.51875Q202.45312 26.940624 204.29688 24.971874Q206.14062 22.9875 209.14062 22.9875Q211.78125 22.9875 213.42188 24.534374Q214.39062 25.45625 214.875 27.175L212.01562 27.8625Q211.76562 26.753124 210.95312 26.1125Q210.15625 25.45625 209.0 25.45625Q207.40625 25.45625 206.40625 26.596874Q205.42188 27.7375 205.42188 30.3Q205.42188 33.01875 206.39062 34.175Q207.375 35.315624 208.9375 35.315624Q210.09375 35.315624 210.92188 34.596874Q211.75 33.8625 212.10938 32.284374ZM218.98438 30.346874L216.5 29.89375Q216.92188 28.39375 217.9375 27.675Q218.96875 26.940624 220.98438 26.940624Q222.82812 26.940624 223.71875 27.378124Q224.625 27.815624 224.98438 28.4875Q225.35938 29.14375 225.35938 30.940624L225.32812 34.14375Q225.32812 35.503124 225.45312 36.159374Q225.59375 36.8 225.95312 37.55L223.23438 37.55Q223.125 37.26875 222.96875 36.7375Q222.90625 36.4875 222.875 36.409374Q222.17188 37.096874 221.35938 37.440624Q220.5625 37.784374 219.65625 37.784374Q218.0625 37.784374 217.14062 36.925Q216.21875 36.05 216.21875 34.721874Q216.21875 33.83125 216.625 33.14375Q217.04688 32.45625 217.79688 32.096874Q218.5625 31.721874 220.0 31.45625Q221.92188 31.096874 222.65625 30.784374L222.65625 30.503124Q222.65625 29.721874 222.26562 29.39375Q221.875 29.05 220.79688 29.05Q220.0625 29.05 219.64062 29.33125Q219.23438 29.6125 218.98438 30.346874ZM222.65625 32.565624Q222.125 32.7375 220.98438 32.9875Q219.84375 33.2375 219.5 33.471874Q218.95312 33.846874 218.95312 34.440624Q218.95312 35.003124 219.375 35.425Q219.8125 35.846874 220.48438 35.846874Q221.21875 35.846874 221.89062 35.3625Q222.39062 34.9875 222.54688 34.45625Q222.65625 34.096874 222.65625 33.1125L222.65625 32.565624ZM237.375 37.55L234.625 37.55L234.625 32.253124Q234.625 30.58125 234.45312 30.096874Q234.28125 29.596874 233.875 29.33125Q233.48438 29.05 232.92188 29.05Q232.21875 29.05 231.64062 29.440624Q231.07812 29.83125 230.85938 30.471874Q230.65625 31.1125 230.65625 32.846874L230.65625 37.55L227.92188 37.55L227.92188 27.175L230.46875 27.175L230.46875 28.70625Q231.82812 26.940624 233.89062 26.940624Q234.79688 26.940624 235.54688 27.26875Q236.29688 27.596874 236.67188 28.1125Q237.0625 28.6125 237.21875 29.26875Q237.375 29.909374 237.375 31.096874L237.375 37.55ZM249.45312 37.55L246.90625 37.55L246.90625 36.01875Q246.26562 36.909374 245.39062 37.346874Q244.53125 37.784374 243.65625 37.784374Q241.875 37.784374 240.59375 36.346874Q239.32812 34.909374 239.32812 32.33125Q239.32812 29.690624 240.5625 28.315624Q241.79688 26.940624 243.70312 26.940624Q245.4375 26.940624 246.70312 28.39375L246.70312 23.2375L249.45312 23.2375L249.45312 37.55ZM242.125 32.14375Q242.125 33.8 242.57812 34.534374Q243.25 35.6125 244.4375 35.6125Q245.39062 35.6125 246.04688 34.815624Q246.71875 34.003124 246.71875 32.409374Q246.71875 30.6125 246.0625 29.83125Q245.42188 29.05 244.42188 29.05Q243.4375 29.05 242.78125 29.83125Q242.125 30.596874 242.125 32.14375ZM251.9375 25.76875L251.9375 23.2375L254.6875 23.2375L254.6875 25.76875L251.9375 25.76875ZM251.9375 37.55L251.9375 27.175L254.6875 27.175L254.6875 37.55L251.9375 37.55ZM267.45312 37.55L264.90625 37.55L264.90625 36.01875Q264.26562 36.909374 263.39062 37.346874Q262.53125 37.784374 261.65625 37.784374Q259.875 37.784374 258.59375 36.346874Q257.32812 34.909374 257.32812 32.33125Q257.32812 29.690624 258.5625 28.315624Q259.79688 26.940624 261.70312 26.940624Q263.4375 26.940624 264.70312 28.39375L264.70312 23.2375L267.45312 23.2375L267.45312 37.55ZM260.125 32.14375Q260.125 33.8 260.57812 34.534374Q261.25 35.6125 262.4375 35.6125Q263.39062 35.6125 264.04688 34.815624Q264.71875 34.003124 264.71875 32.409374Q264.71875 30.6125 264.0625 29.83125Q263.42188 29.05 262.42188 29.05Q261.4375 29.05 260.78125 29.83125Q260.125 30.596874 260.125 32.14375ZM271.98438 30.346874L269.5 29.89375Q269.92188 28.39375 270.9375 27.675Q271.96875 26.940624 273.98438 26.940624Q275.82812 26.940624 276.71875 27.378124Q277.625 27.815624 277.98438 28.4875Q278.35938 29.14375 278.35938 30.940624L278.32812 34.14375Q278.32812 35.503124 278.45312 36.159374Q278.59375 36.8 278.95312 37.55L276.23438 37.55Q276.125 37.26875 275.96875 36.7375Q275.90625 36.4875 275.875 36.409374Q275.17188 37.096874 274.35938 37.440624Q273.5625 37.784374 272.65625 37.784374Q271.0625 37.784374 270.14062 36.925Q269.21875 36.05 269.21875 34.721874Q269.21875 33.83125 269.625 33.14375Q270.04688 32.45625 270.79688 32.096874Q271.5625 31.721874 273.0 31.45625Q274.92188 31.096874 275.65625 30.784374L275.65625 30.503124Q275.65625 29.721874 275.26562 29.39375Q274.875 29.05 273.79688 29.05Q273.0625 29.05 272.64062 29.33125Q272.23438 29.6125 271.98438 30.346874ZM275.65625 32.565624Q275.125 32.7375 273.98438 32.9875Q272.84375 33.2375 272.5 33.471874Q271.95312 33.846874 271.95312 34.440624Q271.95312 35.003124 272.375 35.425Q272.8125 35.846874 273.48438 35.846874Q274.21875 35.846874 274.89062 35.3625Q275.39062 34.9875 275.54688 34.45625Q275.65625 34.096874 275.65625 33.1125L275.65625 32.565624ZM285.6875 27.175L285.6875 29.3625L283.8125 29.3625L283.8125 33.55Q283.8125 34.815624 283.85938 35.034374Q283.92188 35.2375 284.10938 35.378124Q284.3125 35.503124 284.57812 35.503124Q284.95312 35.503124 285.6875 35.2375L285.92188 37.378124Q284.95312 37.784374 283.75 37.784374Q283.0 37.784374 282.40625 37.534374Q281.8125 37.284374 281.53125 36.89375Q281.26562 36.4875 281.15625 35.815624Q281.0625 35.346874 281.0625 33.89375L281.0625 29.3625L279.79688 29.3625L279.79688 27.175L281.0625 27.175L281.0625 25.1125L283.8125 23.51875L283.8125 27.175L285.6875 27.175ZM287.29688 32.221874Q287.29688 30.846874 287.96875 29.565624Q288.65625 28.284374 289.89062 27.6125Q291.125 26.940624 292.64062 26.940624Q295.0 26.940624 296.5 28.471874Q298.0 30.003124 298.0 32.33125Q298.0 34.690624 296.48438 36.2375Q294.96875 37.784374 292.65625 37.784374Q291.23438 37.784374 289.9375 37.14375Q288.65625 36.4875 287.96875 35.253124Q287.29688 34.003124 287.29688 32.221874ZM290.10938 32.3625Q290.10938 33.909374 290.84375 34.7375Q291.57812 35.55 292.65625 35.55Q293.73438 35.55 294.45312 34.7375Q295.1875 33.909374 295.1875 32.346874Q295.1875 30.815624 294.45312 30.003124Q293.73438 29.175 292.65625 29.175Q291.57812 29.175 290.84375 30.003124Q290.10938 30.815624 290.10938 32.3625ZM298.96875 34.596874L301.71875 34.175Q301.90625 34.971874 302.4375 35.39375Q302.96875 35.8 303.9375 35.8Q305.0 35.8 305.54688 35.409374Q305.90625 35.14375 305.90625 34.675Q305.90625 34.3625 305.70312 34.159374Q305.5 33.971874 304.79688 33.8Q301.46875 33.065624 300.57812 32.45625Q299.34375 31.628124 299.34375 30.128124Q299.34375 28.784374 300.40625 27.8625Q301.48438 26.940624 303.71875 26.940624Q305.84375 26.940624 306.875 27.64375Q307.92188 28.33125 308.3125 29.690624L305.71875 30.159374Q305.54688 29.565624 305.07812 29.2375Q304.625 28.909374 303.76562 28.909374Q302.6875 28.909374 302.21875 29.221874Q301.90625 29.440624 301.90625 29.76875Q301.90625 30.065624 302.17188 30.26875Q302.54688 30.55 304.73438 31.05Q306.92188 31.55 307.79688 32.26875Q308.65625 33.003124 308.65625 34.3Q308.65625 35.7375 307.46875 36.76875Q306.28125 37.784374 303.9375 37.784374Q301.82812 37.784374 300.57812 36.925Q299.34375 36.065624 298.96875 34.596874ZM316.85938 27.175L319.42188 27.175L319.42188 28.70625Q319.92188 27.925 320.76562 27.440624Q321.60938 26.940624 322.65625 26.940624Q324.45312 26.940624 325.70312 28.3625Q326.96875 29.76875 326.96875 32.3Q326.96875 34.909374 325.70312 36.346874Q324.4375 37.784374 322.625 37.784374Q321.76562 37.784374 321.0625 37.440624Q320.375 37.096874 319.60938 36.26875L319.60938 41.503124L316.85938 41.503124L316.85938 27.175ZM319.57812 32.190624Q319.57812 33.940624 320.26562 34.784374Q320.95312 35.6125 321.95312 35.6125Q322.90625 35.6125 323.54688 34.846874Q324.1875 34.065624 324.1875 32.33125Q324.1875 30.690624 323.53125 29.909374Q322.875 29.1125 321.90625 29.1125Q320.90625 29.1125 320.23438 29.89375Q319.57812 30.659374 319.57812 32.190624ZM328.29688 32.221874Q328.29688 30.846874 328.96875 29.565624Q329.65625 28.284374 330.89062 27.6125Q332.125 26.940624 333.64062 26.940624Q336.0 26.940624 337.5 28.471874Q339.0 30.003124 339.0 32.33125Q339.0 34.690624 337.48438 36.2375Q335.96875 37.784374 333.65625 37.784374Q332.23438 37.784374 330.9375 37.14375Q329.65625 36.4875 328.96875 35.253124Q328.29688 34.003124 328.29688 32.221874ZM331.10938 32.3625Q331.10938 33.909374 331.84375 34.7375Q332.57812 35.55 333.65625 35.55Q334.73438 35.55 335.45312 34.7375Q336.1875 33.909374 336.1875 32.346874Q336.1875 30.815624 335.45312 30.003124Q334.73438 29.175 333.65625 29.175Q332.57812 29.175 331.84375 30.003124Q331.10938 30.815624 331.10938 32.3625ZM343.5625 37.55L340.8125 37.55L340.8125 27.175L343.375 27.175L343.375 28.659374Q344.01562 27.6125 344.53125 27.284374Q345.0625 26.940624 345.73438 26.940624Q346.67188 26.940624 347.53125 27.45625L346.6875 29.846874Q346.0 29.409374 345.40625 29.409374Q344.82812 29.409374 344.42188 29.721874Q344.01562 30.034374 343.78125 30.878124Q343.5625 31.70625 343.5625 34.346874L343.5625 37.55ZM353.96875 34.596874L356.71875 34.175Q356.90625 34.971874 357.4375 35.39375Q357.96875 35.8 358.9375 35.8Q360.0 35.8 360.54688 35.409374Q360.90625 35.14375 360.90625 34.675Q360.90625 34.3625 360.70312 34.159374Q360.5 33.971874 359.79688 33.8Q356.46875 33.065624 355.57812 32.45625Q354.34375 31.628124 354.34375 30.128124Q354.34375 28.784374 355.40625 27.8625Q356.48438 26.940624 358.71875 26.940624Q360.84375 26.940624 361.875 27.64375Q362.92188 28.33125 363.3125 29.690624L360.71875 30.159374Q360.54688 29.565624 360.07812 29.2375Q359.625 28.909374 358.76562 28.909374Q357.6875 28.909374 357.21875 29.221874Q356.90625 29.440624 356.90625 29.76875Q356.90625 30.065624 357.17188 30.26875Q357.54688 30.55 359.73438 31.05Q361.92188 31.55 362.79688 32.26875Q363.65625 33.003124 363.65625 34.3Q363.65625 35.7375 362.46875 36.76875Q361.28125 37.784374 358.9375 37.784374Q356.82812 37.784374 355.57812 36.925Q354.34375 36.065624 353.96875 34.596874ZM371.9375 34.253124L374.67188 34.70625Q374.15625 36.20625 373.01562 37.003124Q371.875 37.784374 370.17188 37.784374Q367.45312 37.784374 366.15625 36.01875Q365.14062 34.596874 365.14062 32.440624Q365.14062 29.8625 366.48438 28.409374Q367.82812 26.940624 369.89062 26.940624Q372.20312 26.940624 373.53125 28.471874Q374.875 30.003124 374.82812 33.159374L367.95312 33.159374Q367.98438 34.378124 368.60938 35.065624Q369.25 35.7375 370.1875 35.7375Q370.84375 35.7375 371.28125 35.39375Q371.71875 35.034374 371.9375 34.253124ZM372.09375 31.471874Q372.0625 30.284374 371.46875 29.675Q370.89062 29.05 370.0625 29.05Q369.15625 29.05 368.57812 29.690624Q367.98438 30.346874 368.0 31.471874L372.09375 31.471874ZM375.625 37.55L379.35938 32.20625L375.78125 27.175L379.125 27.175L380.95312 30.034374L382.89062 27.175L386.10938 27.175L382.59375 32.096874L386.4375 37.55L383.0625 37.55L380.95312 34.33125L378.82812 37.55L375.625 37.55ZM387.29688 32.221874Q387.29688 30.846874 387.96875 29.565624Q388.65625 28.284374 389.89062 27.6125Q391.125 26.940624 392.64062 26.940624Q395.0 26.940624 396.5 28.471874Q398.0 30.003124 398.0 32.33125Q398.0 34.690624 396.48438 36.2375Q394.96875 37.784374 392.65625 37.784374Q391.23438 37.784374 389.9375 37.14375Q388.65625 36.4875 387.96875 35.253124Q387.29688 34.003124 387.29688 32.221874ZM390.10938 32.3625Q390.10938 33.909374 390.84375 34.7375Q391.57812 35.55 392.65625 35.55Q393.73438 35.55 394.45312 34.7375Q395.1875 33.909374 395.1875 32.346874Q395.1875 30.815624 394.45312 30.003124Q393.73438 29.175 392.65625 29.175Q391.57812 29.175 390.84375 30.003124Q390.10938 30.815624 390.10938 32.3625Z"
     fill-rule="nonzero"
     id="path36" />
  <text
     xml:space="preserve"
     style="font-style:normal;font-variant:normal;font-weight:normal;font-stretch:normal;font-size:12.8508px;line-height:1.25;font-family:Georgia;-inkscape-font-specification:Georgia;letter-spacing:0px;word-spacing:0px;opacity:0.338129;fill:#000000;stroke-width:0.150595"
     x="114.92197"
     y="341.44534"
     id="text897"
     transform="scale(1.0229029,0.9776099)"><tspan
       sodipodi:role="line"
       id="tspan895"
       x="114.92197"
       y="341.44534"
       style="font-style:normal;font-variant:normal;font-weight:normal;font-stretch:normal;font-family:'Andale Mono';-inkscape-font-specification:'Andale Mono';fill:#000000;stroke-width:0.150595">fonte: jhoonb.github.io/maracaju-eleicao-2020</tspan></text>
</svg>
