<?xml version="1.0" encoding="UTF-8" standalone="no"?>
<svg
   xmlns:dc="http://purl.org/dc/elements/1.1/"
   xmlns:cc="http://creativecommons.org/ns#"
   xmlns:rdf="http://www.w3.org/1999/02/22-rdf-syntax-ns#"
   xmlns:svg="http://www.w3.org/2000/svg"
   xmlns="http://www.w3.org/2000/svg"
   xmlns:sodipodi="http://sodipodi.sourceforge.net/DTD/sodipodi-0.dtd"
   xmlns:inkscape="http://www.inkscape.org/namespaces/inkscape"
   version="1.1"
   viewBox="0.0 0.0 778.0 484.0"
   fill="none"
   stroke="none"
   stroke-linecap="square"
   stroke-miterlimit="10"
   width="778"
   height="484"
   id="svg175"
   sodipodi:docname="Candidatos_por_cor_raca_fem_masc.svg"
   inkscape:version="1.0.1 (3bc2e813f5, 2020-09-07)">
  <metadata
     id="metadata181">
    <rdf:RDF>
      <cc:Work
         rdf:about="">
        <dc:format>image/svg+xml</dc:format>
        <dc:type
           rdf:resource="http://purl.org/dc/dcmitype/StillImage" />
      </cc:Work>
    </rdf:RDF>
  </metadata>
  <defs
     id="defs179" />
  <sodipodi:namedview
     pagecolor="#ffffff"
     bordercolor="#666666"
     borderopacity="1"
     objecttolerance="10"
     gridtolerance="10"
     guidetolerance="10"
     inkscape:pageopacity="0"
     inkscape:pageshadow="2"
     inkscape:window-width="1366"
     inkscape:window-height="704"
     id="namedview177"
     showgrid="false"
     inkscape:zoom="0.84151551"
     inkscape:cx="242.44158"
     inkscape:cy="289.47193"
     inkscape:window-x="0"
     inkscape:window-y="27"
     inkscape:window-maximized="1"
     inkscape:current-layer="svg175" />
  <path
     fill="#ffffff"
     d="M0 0L778.0 0L778.0 484.0L0 484.0L0 0Z"
     fill-rule="nonzero"
     id="path2" />
  <path
     stroke="#333333"
     stroke-width="1.0"
     stroke-linecap="butt"
     d="M75.5 389.5L753.5 389.5"
     fill-rule="nonzero"
     id="path4" />
  <path
     fill="#eeeeee"
     d="M57.5 407.5L75.5 390.5L753.5 390.5L735.5 407.5Z"
     fill-rule="nonzero"
     id="path6" />
  <path
     stroke="#cccccc"
     stroke-width="1.0"
     stroke-linecap="butt"
     d="M75.5 294.5L753.5 294.5"
     fill-rule="nonzero"
     id="path8" />
  <path
     stroke="#cccccc"
     stroke-width="1.0"
     stroke-linecap="butt"
     d="M75.5 198.5L753.5 198.5"
     fill-rule="nonzero"
     id="path10" />
  <path
     stroke="#cccccc"
     stroke-width="1.0"
     stroke-linecap="butt"
     d="M75.5 102.5L753.5 102.5"
     fill-rule="nonzero"
     id="path12" />
  <path
     stroke="#e6e6e6"
     stroke-width="1.0"
     stroke-linecap="butt"
     d="M75.5 357.5L753.5 357.5"
     fill-rule="nonzero"
     id="path14" />
  <path
     stroke="#e6e6e6"
     stroke-width="1.0"
     stroke-linecap="butt"
     d="M75.5 326.5L753.5 326.5"
     fill-rule="nonzero"
     id="path16" />
  <path
     stroke="#e6e6e6"
     stroke-width="1.0"
     stroke-linecap="butt"
     d="M75.5 262.5L753.5 262.5"
     fill-rule="nonzero"
     id="path18" />
  <path
     stroke="#e6e6e6"
     stroke-width="1.0"
     stroke-linecap="butt"
     d="M75.5 230.5L753.5 230.5"
     fill-rule="nonzero"
     id="path20" />
  <path
     stroke="#e6e6e6"
     stroke-width="1.0"
     stroke-linecap="butt"
     d="M75.5 166.5L753.5 166.5"
     fill-rule="nonzero"
     id="path22" />
  <path
     stroke="#e6e6e6"
     stroke-width="1.0"
     stroke-linecap="butt"
     d="M75.5 134.5L753.5 134.5"
     fill-rule="nonzero"
     id="path24" />
  <path
     stroke="#000000"
     stroke-width="1.0"
     stroke-linecap="butt"
     d="M57.5 407.5L57.5 102.5"
     fill-rule="nonzero"
     id="path26" />
  <clipPath
     id="id_0">
    <path
       d="M57.2 102.96667L753.8 102.96667L753.8 407.8L57.2 407.8L57.2 102.96667Z"
       clip-rule="nonzero"
       id="path28" />
  </clipPath>
  <path
     fill="#2b569f"
     clip-path="url(#id_0)"
     d="M171.0 122.0L171.0 390.0L158.0 403.0L158.0 135.0Z"
     fill-rule="nonzero"
     id="path31" />
  <path
     fill="#689df6"
     clip-path="url(#id_0)"
     d="M158.0 135.0L107.0 135.0L120.0 122.0L171.0 122.0Z"
     fill-rule="nonzero"
     id="path33" />
  <path
     stroke="#000000"
     stroke-width="2.0"
     stroke-linecap="butt"
     stroke-opacity="0.0"
     clip-path="url(#id_0)"
     d="M158.0 403.0L107.0 403.0L107.0 135.0L158.0 135.0Z"
     fill-rule="nonzero"
     id="path35" />
  <path
     fill="#4285f4"
     clip-path="url(#id_0)"
     d="M158.0 403.0L107.0 403.0L107.0 135.0L158.0 135.0Z"
     fill-rule="nonzero"
     id="path37" />
  <path
     fill="#2b569f"
     clip-path="url(#id_0)"
     d="M331.0 199.0L331.0 390.0L318.0 403.0L318.0 212.0Z"
     fill-rule="nonzero"
     id="path39" />
  <path
     fill="#689df6"
     clip-path="url(#id_0)"
     d="M318.0 212.0L267.0 212.0L280.0 199.0L331.0 199.0Z"
     fill-rule="nonzero"
     id="path41" />
  <path
     stroke="#000000"
     stroke-width="2.0"
     stroke-linecap="butt"
     stroke-opacity="0.0"
     clip-path="url(#id_0)"
     d="M318.0 403.0L267.0 403.0L267.0 212.0L318.0 212.0Z"
     fill-rule="nonzero"
     id="path43" />
  <path
     fill="#4285f4"
     clip-path="url(#id_0)"
     d="M318.0 403.0L267.0 403.0L267.0 212.0L318.0 212.0Z"
     fill-rule="nonzero"
     id="path45" />
  <path
     fill="#2b569f"
     clip-path="url(#id_0)"
     d="M491.0 356.0L491.0 390.0L478.0 403.0L478.0 369.0Z"
     fill-rule="nonzero"
     id="path47" />
  <path
     fill="#689df6"
     clip-path="url(#id_0)"
     d="M478.0 369.0L427.0 369.0L440.0 356.0L491.0 356.0Z"
     fill-rule="nonzero"
     id="path49" />
  <path
     stroke="#000000"
     stroke-width="2.0"
     stroke-linecap="butt"
     stroke-opacity="0.0"
     clip-path="url(#id_0)"
     d="M478.0 403.0L427.0 403.0L427.0 369.0L478.0 369.0Z"
     fill-rule="nonzero"
     id="path51" />
  <path
     fill="#4285f4"
     clip-path="url(#id_0)"
     d="M478.0 403.0L427.0 403.0L427.0 369.0L478.0 369.0Z"
     fill-rule="nonzero"
     id="path53" />
  <path
     fill="#2b569f"
     clip-path="url(#id_0)"
     d="M651.0 385.0L651.0 390.0L638.0 403.0L638.0 398.0Z"
     fill-rule="nonzero"
     id="path55" />
  <path
     fill="#689df6"
     clip-path="url(#id_0)"
     d="M638.0 398.0L587.0 398.0L600.0 385.0L651.0 385.0Z"
     fill-rule="nonzero"
     id="path57" />
  <path
     stroke="#000000"
     stroke-width="2.0"
     stroke-linecap="butt"
     stroke-opacity="0.0"
     clip-path="url(#id_0)"
     d="M638.0 403.0L587.0 403.0L587.0 398.0L638.0 398.0Z"
     fill-rule="nonzero"
     id="path59" />
  <path
     fill="#4285f4"
     clip-path="url(#id_0)"
     d="M638.0 403.0L587.0 403.0L587.0 398.0L638.0 398.0Z"
     fill-rule="nonzero"
     id="path61" />
  <path
     fill="#982c22"
     clip-path="url(#id_0)"
     d="M223.0 246.0L223.0 390.0L210.0 403.0L210.0 259.0Z"
     fill-rule="nonzero"
     id="path63" />
  <path
     fill="#ee695d"
     clip-path="url(#id_0)"
     d="M210.0 259.0L159.0 259.0L172.0 246.0L223.0 246.0Z"
     fill-rule="nonzero"
     id="path65" />
  <path
     stroke="#000000"
     stroke-width="2.0"
     stroke-linecap="butt"
     stroke-opacity="0.0"
     clip-path="url(#id_0)"
     d="M210.0 403.0L159.0 403.0L159.0 259.0L210.0 259.0Z"
     fill-rule="nonzero"
     id="path67" />
  <path
     fill="#ea4335"
     clip-path="url(#id_0)"
     d="M210.0 403.0L159.0 403.0L159.0 259.0L210.0 259.0Z"
     fill-rule="nonzero"
     id="path69" />
  <path
     fill="#982c22"
     clip-path="url(#id_0)"
     d="M383.0 309.0L383.0 390.0L370.0 403.0L370.0 322.0Z"
     fill-rule="nonzero"
     id="path71" />
  <path
     fill="#ee695d"
     clip-path="url(#id_0)"
     d="M370.0 322.0L319.0 322.0L332.0 309.0L383.0 309.0Z"
     fill-rule="nonzero"
     id="path73" />
  <path
     stroke="#000000"
     stroke-width="2.0"
     stroke-linecap="butt"
     stroke-opacity="0.0"
     clip-path="url(#id_0)"
     d="M370.0 403.0L319.0 403.0L319.0 322.0L370.0 322.0Z"
     fill-rule="nonzero"
     id="path75" />
  <path
     fill="#ea4335"
     clip-path="url(#id_0)"
     d="M370.0 403.0L319.0 403.0L319.0 322.0L370.0 322.0Z"
     fill-rule="nonzero"
     id="path77" />
  <path
     fill="#982c22"
     clip-path="url(#id_0)"
     d="M543.0 366.0L543.0 390.0L530.0 403.0L530.0 379.0Z"
     fill-rule="nonzero"
     id="path79" />
  <path
     fill="#ee695d"
     clip-path="url(#id_0)"
     d="M530.0 379.0L479.0 379.0L492.0 366.0L543.0 366.0Z"
     fill-rule="nonzero"
     id="path81" />
  <path
     stroke="#000000"
     stroke-width="2.0"
     stroke-linecap="butt"
     stroke-opacity="0.0"
     clip-path="url(#id_0)"
     d="M530.0 403.0L479.0 403.0L479.0 379.0L530.0 379.0Z"
     fill-rule="nonzero"
     id="path83" />
  <path
     fill="#ea4335"
     clip-path="url(#id_0)"
     d="M530.0 403.0L479.0 403.0L479.0 379.0L530.0 379.0Z"
     fill-rule="nonzero"
     id="path85" />
  <path
     fill="#982c22"
     clip-path="url(#id_0)"
     d="M703.0 390.0L703.0 390.0L690.0 403.0L690.0 403.0Z"
     fill-rule="nonzero"
     id="path87" />
  <path
     fill="#ee695d"
     clip-path="url(#id_0)"
     d="M690.0 403.0L639.0 403.0L652.0 390.0L703.0 390.0Z"
     fill-rule="nonzero"
     id="path89" />
  <path
     stroke="#000000"
     stroke-width="2.0"
     stroke-linecap="butt"
     stroke-opacity="0.0"
     clip-path="url(#id_0)"
     d="M690.0 403.0L639.0 403.0L639.0 403.0L690.0 403.0Z"
     fill-rule="nonzero"
     id="path91" />
  <path
     fill="#ea4335"
     clip-path="url(#id_0)"
     d="M690.0 403.0L639.0 403.0L639.0 403.0L690.0 403.0Z"
     fill-rule="nonzero"
     id="path93" />
  <path
     stroke="#000000"
     stroke-width="1.0"
     stroke-linecap="butt"
     d="M54.5 357.5L60.5 357.5"
     fill-rule="nonzero"
     id="path95" />
  <path
     stroke="#000000"
     stroke-width="1.0"
     stroke-linecap="butt"
     d="M54.5 326.5L60.5 326.5"
     fill-rule="nonzero"
     id="path97" />
  <path
     stroke="#000000"
     stroke-width="1.0"
     stroke-linecap="butt"
     d="M54.5 262.5L60.5 262.5"
     fill-rule="nonzero"
     id="path99" />
  <path
     stroke="#000000"
     stroke-width="1.0"
     stroke-linecap="butt"
     d="M54.5 230.5L60.5 230.5"
     fill-rule="nonzero"
     id="path101" />
  <path
     stroke="#000000"
     stroke-width="1.0"
     stroke-linecap="butt"
     d="M54.5 166.5L60.5 166.5"
     fill-rule="nonzero"
     id="path103" />
  <path
     stroke="#000000"
     stroke-width="1.0"
     stroke-linecap="butt"
     d="M54.5 134.5L60.5 134.5"
     fill-rule="nonzero"
     id="path105" />
  <path
     stroke="#000000"
     stroke-width="1.0"
     stroke-linecap="butt"
     d="M51.5 389.5L63.5 389.5"
     fill-rule="nonzero"
     id="path107" />
  <path
     stroke="#000000"
     stroke-width="1.0"
     stroke-linecap="butt"
     d="M51.5 294.5L63.5 294.5"
     fill-rule="nonzero"
     id="path109" />
  <path
     stroke="#000000"
     stroke-width="1.0"
     stroke-linecap="butt"
     d="M51.5 198.5L63.5 198.5"
     fill-rule="nonzero"
     id="path111" />
  <path
     stroke="#000000"
     stroke-width="1.0"
     stroke-linecap="butt"
     d="M51.5 102.5L63.5 102.5"
     fill-rule="nonzero"
     id="path113" />
  <path
     stroke="#4285f4"
     stroke-width="3.0"
     stroke-linejoin="round"
     stroke-linecap="round"
     d="M126.828125 147.68576L127.328125 143.35764L132.10938 143.35764L132.10938 144.76389L128.71875 144.76389L128.5 146.60764Q129.10938 146.27951 129.78125 146.27951Q131.0 146.27951 131.6875 147.04514Q132.39062 147.79514 132.39062 149.15451Q132.39062 149.98264 132.03125 150.63889Q131.6875 151.27951 131.03125 151.65451Q130.39062 152.01389 129.5 152.01389Q128.73438 152.01389 128.0625 151.70139Q127.40625 151.37326 127.015625 150.81076Q126.640625 150.24826 126.609375 149.51389L128.29688 149.51389Q128.34375 150.04514 128.65625 150.34201Q128.98438 150.63889 129.5 150.63889Q130.07812 150.63889 130.375 150.23264Q130.6875 149.81076 130.6875 149.06076Q130.6875 148.32639 130.32812 147.95139Q129.98438 147.56076 129.32812 147.56076Q128.71875 147.56076 128.34375 147.87326L128.1875 148.02951L126.828125 147.68576ZM138.17188 143.26389L138.17188 144.67014L138.01562 144.67014Q136.85938 144.68576 136.15625 145.26389Q135.46875 145.84201 135.32812 146.87326Q136.0 146.18576 137.03125 146.18576Q138.15625 146.18576 138.8125 146.98264Q139.46875 147.77951 139.46875 149.07639Q139.46875 149.90451 139.10938 150.57639Q138.75 151.24826 138.07812 151.63889Q137.42188 152.01389 136.59375 152.01389Q135.25 152.01389 134.42188 151.07639Q133.59375 150.12326 133.59375 148.56076L133.59375 147.95139Q133.59375 146.56076 134.10938 145.49826Q134.64062 144.43576 135.60938 143.85764Q136.59375 143.27951 137.89062 143.26389L138.17188 143.26389ZM136.51562 147.54514Q136.10938 147.54514 135.76562 147.76389Q135.4375 147.96701 135.28125 148.32639L135.28125 148.84201Q135.28125 149.68576 135.60938 150.17014Q135.95312 150.63889 136.5625 150.63889Q137.10938 150.63889 137.4375 150.21701Q137.78125 149.77951 137.78125 149.09201Q137.78125 148.38889 137.4375 147.96701Q137.09375 147.54514 136.51562 147.54514Z"
     fill-rule="nonzero"
     id="path115" />
  <path
     fill="#ffffff"
     d="M126.828125 147.68576L127.328125 143.35764L132.10938 143.35764L132.10938 144.76389L128.71875 144.76389L128.5 146.60764Q129.10938 146.27951 129.78125 146.27951Q131.0 146.27951 131.6875 147.04514Q132.39062 147.79514 132.39062 149.15451Q132.39062 149.98264 132.03125 150.63889Q131.6875 151.27951 131.03125 151.65451Q130.39062 152.01389 129.5 152.01389Q128.73438 152.01389 128.0625 151.70139Q127.40625 151.37326 127.015625 150.81076Q126.640625 150.24826 126.609375 149.51389L128.29688 149.51389Q128.34375 150.04514 128.65625 150.34201Q128.98438 150.63889 129.5 150.63889Q130.07812 150.63889 130.375 150.23264Q130.6875 149.81076 130.6875 149.06076Q130.6875 148.32639 130.32812 147.95139Q129.98438 147.56076 129.32812 147.56076Q128.71875 147.56076 128.34375 147.87326L128.1875 148.02951L126.828125 147.68576ZM138.17188 143.26389L138.17188 144.67014L138.01562 144.67014Q136.85938 144.68576 136.15625 145.26389Q135.46875 145.84201 135.32812 146.87326Q136.0 146.18576 137.03125 146.18576Q138.15625 146.18576 138.8125 146.98264Q139.46875 147.77951 139.46875 149.07639Q139.46875 149.90451 139.10938 150.57639Q138.75 151.24826 138.07812 151.63889Q137.42188 152.01389 136.59375 152.01389Q135.25 152.01389 134.42188 151.07639Q133.59375 150.12326 133.59375 148.56076L133.59375 147.95139Q133.59375 146.56076 134.10938 145.49826Q134.64062 144.43576 135.60938 143.85764Q136.59375 143.27951 137.89062 143.26389L138.17188 143.26389ZM136.51562 147.54514Q136.10938 147.54514 135.76562 147.76389Q135.4375 147.96701 135.28125 148.32639L135.28125 148.84201Q135.28125 149.68576 135.60938 150.17014Q135.95312 150.63889 136.5625 150.63889Q137.10938 150.63889 137.4375 150.21701Q137.78125 149.77951 137.78125 149.09201Q137.78125 148.38889 137.4375 147.96701Q137.09375 147.54514 136.51562 147.54514Z"
     fill-rule="nonzero"
     id="path117" />
  <path
     stroke="#4285f4"
     stroke-width="3.0"
     stroke-linejoin="round"
     stroke-linecap="round"
     d="M291.59375 225.15903L292.5625 225.15903L292.5625 226.53403L291.59375 226.53403L291.59375 228.37778L289.89062 228.37778L289.89062 226.53403L286.40625 226.53403L286.32812 225.47153L289.875 219.84653L291.59375 219.84653L291.59375 225.15903ZM288.01562 225.15903L289.89062 225.15903L289.89062 222.15903L289.78125 222.34653L288.01562 225.15903ZM299.32812 224.84653Q299.32812 226.61215 298.59375 227.56528Q297.85938 228.50278 296.45312 228.50278Q295.04688 228.50278 294.3125 227.5809Q293.57812 226.65903 293.5625 224.94028L293.5625 223.36215Q293.5625 221.5809 294.29688 220.65903Q295.04688 219.72153 296.4375 219.72153Q297.82812 219.72153 298.5625 220.6434Q299.3125 221.56528 299.32812 223.28403L299.32812 224.84653ZM297.625 223.12778Q297.625 222.06528 297.32812 221.5809Q297.04688 221.09653 296.4375 221.09653Q295.84375 221.09653 295.54688 221.56528Q295.26562 222.0184 295.25 223.00278L295.25 225.06528Q295.25 226.11215 295.53125 226.62778Q295.8125 227.12778 296.45312 227.12778Q297.0625 227.12778 297.34375 226.6434Q297.625 226.15903 297.625 225.15903L297.625 223.12778Z"
     fill-rule="nonzero"
     id="path119" />
  <path
     fill="#ffffff"
     d="M291.59375 225.15903L292.5625 225.15903L292.5625 226.53403L291.59375 226.53403L291.59375 228.37778L289.89062 228.37778L289.89062 226.53403L286.40625 226.53403L286.32812 225.47153L289.875 219.84653L291.59375 219.84653L291.59375 225.15903ZM288.01562 225.15903L289.89062 225.15903L289.89062 222.15903L289.78125 222.34653L288.01562 225.15903ZM299.32812 224.84653Q299.32812 226.61215 298.59375 227.56528Q297.85938 228.50278 296.45312 228.50278Q295.04688 228.50278 294.3125 227.5809Q293.57812 226.65903 293.5625 224.94028L293.5625 223.36215Q293.5625 221.5809 294.29688 220.65903Q295.04688 219.72153 296.4375 219.72153Q297.82812 219.72153 298.5625 220.6434Q299.3125 221.56528 299.32812 223.28403L299.32812 224.84653ZM297.625 223.12778Q297.625 222.06528 297.32812 221.5809Q297.04688 221.09653 296.4375 221.09653Q295.84375 221.09653 295.54688 221.56528Q295.26562 222.0184 295.25 223.00278L295.25 225.06528Q295.25 226.11215 295.53125 226.62778Q295.8125 227.12778 296.45312 227.12778Q297.0625 227.12778 297.34375 226.6434Q297.625 226.15903 297.625 225.15903L297.625 223.12778Z"
     fill-rule="nonzero"
     id="path121" />
  <path
     stroke="#4285f4"
     stroke-width="3.0"
     stroke-linejoin="round"
     stroke-linecap="round"
     d="M455.875 378.55798L452.57812 386.1361L450.79688 386.1361L454.09375 378.97986L449.85938 378.97986L449.85938 377.60486L455.875 377.60486L455.875 378.55798Z"
     fill-rule="nonzero"
     id="path123" />
  <path
     fill="#ffffff"
     d="M455.875 378.55798L452.57812 386.1361L450.79688 386.1361L454.09375 378.97986L449.85938 378.97986L449.85938 377.60486L455.875 377.60486L455.875 378.55798Z"
     fill-rule="nonzero"
     id="path125" />
  <path
     stroke="#ffffff"
     stroke-width="3.0"
     stroke-linejoin="round"
     stroke-linecap="round"
     d="M614.1875 383.01944L612.5 383.01944L612.5 376.4882L610.4844 377.1132L610.4844 375.7382L614.0156 374.47256L614.1875 374.47256L614.1875 383.01944Z"
     fill-rule="nonzero"
     id="path127" />
  <path
     fill="#4285f4"
     d="M614.1875 383.01944L612.5 383.01944L612.5 376.4882L610.4844 377.1132L610.4844 375.7382L614.0156 374.47256L614.1875 374.47256L614.1875 383.01944Z"
     fill-rule="nonzero"
     id="path129" />
  <path
     stroke="#ea4335"
     stroke-width="3.0"
     stroke-linejoin="round"
     stroke-linecap="round"
     d="M180.29688 271.1677L181.20312 271.1677Q181.84375 271.1677 182.15625 270.8552Q182.46875 270.52707 182.46875 269.99582Q182.46875 269.4802 182.15625 269.19894Q181.85938 268.90207 181.3125 268.90207Q180.82812 268.90207 180.5 269.1677Q180.17188 269.43332 180.17188 269.8552L178.48438 269.8552Q178.48438 269.19894 178.84375 268.6677Q179.20312 268.13644 179.84375 267.83957Q180.5 267.52707 181.28125 267.52707Q182.625 267.52707 183.39062 268.18332Q184.17188 268.82394 184.17188 269.96457Q184.17188 270.55832 183.8125 271.05832Q183.45312 271.5427 182.875 271.7927Q183.59375 272.05832 183.9375 272.57394Q184.29688 273.08957 184.29688 273.7927Q184.29688 274.93332 183.46875 275.62082Q182.64062 276.30832 181.28125 276.30832Q180.0 276.30832 179.1875 275.63644Q178.375 274.94894 178.375 273.83957L180.0625 273.83957Q180.0625 274.32394 180.42188 274.63644Q180.79688 274.93332 181.3125 274.93332Q181.92188 274.93332 182.26562 274.62082Q182.60938 274.2927 182.60938 273.76144Q182.60938 272.49582 181.20312 272.49582L180.29688 272.49582L180.29688 271.1677ZM191.32812 272.65207Q191.32812 274.4177 190.59375 275.37082Q189.85938 276.30832 188.45312 276.30832Q187.04688 276.30832 186.3125 275.38644Q185.57812 274.46457 185.5625 272.74582L185.5625 271.1677Q185.5625 269.38644 186.29688 268.46457Q187.04688 267.52707 188.4375 267.52707Q189.82812 267.52707 190.5625 268.44894Q191.3125 269.37082 191.32812 271.08957L191.32812 272.65207ZM189.625 270.93332Q189.625 269.87082 189.32812 269.38644Q189.04688 268.90207 188.4375 268.90207Q187.84375 268.90207 187.54688 269.37082Q187.26562 269.82394 187.25 270.80832L187.25 272.87082Q187.25 273.9177 187.53125 274.43332Q187.8125 274.93332 188.45312 274.93332Q189.0625 274.93332 189.34375 274.44894Q189.625 273.96457 189.625 272.96457L189.625 270.93332Z"
     fill-rule="nonzero"
     id="path131" />
  <path
     fill="#ffffff"
     d="M180.29688 271.1677L181.20312 271.1677Q181.84375 271.1677 182.15625 270.8552Q182.46875 270.52707 182.46875 269.99582Q182.46875 269.4802 182.15625 269.19894Q181.85938 268.90207 181.3125 268.90207Q180.82812 268.90207 180.5 269.1677Q180.17188 269.43332 180.17188 269.8552L178.48438 269.8552Q178.48438 269.19894 178.84375 268.6677Q179.20312 268.13644 179.84375 267.83957Q180.5 267.52707 181.28125 267.52707Q182.625 267.52707 183.39062 268.18332Q184.17188 268.82394 184.17188 269.96457Q184.17188 270.55832 183.8125 271.05832Q183.45312 271.5427 182.875 271.7927Q183.59375 272.05832 183.9375 272.57394Q184.29688 273.08957 184.29688 273.7927Q184.29688 274.93332 183.46875 275.62082Q182.64062 276.30832 181.28125 276.30832Q180.0 276.30832 179.1875 275.63644Q178.375 274.94894 178.375 273.83957L180.0625 273.83957Q180.0625 274.32394 180.42188 274.63644Q180.79688 274.93332 181.3125 274.93332Q181.92188 274.93332 182.26562 274.62082Q182.60938 274.2927 182.60938 273.76144Q182.60938 272.49582 181.20312 272.49582L180.29688 272.49582L180.29688 271.1677ZM191.32812 272.65207Q191.32812 274.4177 190.59375 275.37082Q189.85938 276.30832 188.45312 276.30832Q187.04688 276.30832 186.3125 275.38644Q185.57812 274.46457 185.5625 272.74582L185.5625 271.1677Q185.5625 269.38644 186.29688 268.46457Q187.04688 267.52707 188.4375 267.52707Q189.82812 267.52707 190.5625 268.44894Q191.3125 269.37082 191.32812 271.08957L191.32812 272.65207ZM189.625 270.93332Q189.625 269.87082 189.32812 269.38644Q189.04688 268.90207 188.4375 268.90207Q187.84375 268.90207 187.54688 269.37082Q187.26562 269.82394 187.25 270.80832L187.25 272.87082Q187.25 273.9177 187.53125 274.43332Q187.8125 274.93332 188.45312 274.93332Q189.0625 274.93332 189.34375 274.44894Q189.625 273.96457 189.625 272.96457L189.625 270.93332Z"
     fill-rule="nonzero"
     id="path133" />
  <path
     stroke="#ea4335"
     stroke-width="3.0"
     stroke-linejoin="round"
     stroke-linecap="round"
     d="M342.6875 338.33057L341.0 338.33057L341.0 331.79932L338.98438 332.42432L338.98438 331.04932L342.51562 329.7837L342.6875 329.7837L342.6875 338.33057ZM351.375 330.75244L348.07812 338.33057L346.29688 338.33057L349.59375 331.17432L345.35938 331.17432L345.35938 329.79932L351.375 329.79932L351.375 330.75244Z"
     fill-rule="nonzero"
     id="path135" />
  <path
     fill="#ffffff"
     d="M342.6875 338.33057L341.0 338.33057L341.0 331.79932L338.98438 332.42432L338.98438 331.04932L342.51562 329.7837L342.6875 329.7837L342.6875 338.33057ZM351.375 330.75244L348.07812 338.33057L346.29688 338.33057L349.59375 331.17432L345.35938 331.17432L345.35938 329.79932L351.375 329.79932L351.375 330.75244Z"
     fill-rule="nonzero"
     id="path137" />
  <path
     stroke="#ea4335"
     stroke-width="3.0"
     stroke-linejoin="round"
     stroke-linecap="round"
     d="M502.32812 391.14548L502.82812 386.81735L507.60938 386.81735L507.60938 388.2236L504.21875 388.2236L504.0 390.06735Q504.60938 389.73923 505.28125 389.73923Q506.5 389.73923 507.1875 390.50485Q507.89062 391.25485 507.89062 392.61423Q507.89062 393.44235 507.53125 394.0986Q507.1875 394.73923 506.53125 395.11423Q505.89062 395.4736 505.0 395.4736Q504.23438 395.4736 503.5625 395.1611Q502.90625 394.83298 502.51562 394.27048Q502.14062 393.70798 502.10938 392.9736L503.79688 392.9736Q503.84375 393.50485 504.15625 393.80173Q504.48438 394.0986 505.0 394.0986Q505.57812 394.0986 505.875 393.69235Q506.1875 393.27048 506.1875 392.52048Q506.1875 391.7861 505.82812 391.4111Q505.48438 391.02048 504.82812 391.02048Q504.21875 391.02048 503.84375 391.33298L503.6875 391.48923L502.32812 391.14548Z"
     fill-rule="nonzero"
     id="path139" />
  <path
     fill="#ffffff"
     d="M502.32812 391.14548L502.82812 386.81735L507.60938 386.81735L507.60938 388.2236L504.21875 388.2236L504.0 390.06735Q504.60938 389.73923 505.28125 389.73923Q506.5 389.73923 507.1875 390.50485Q507.89062 391.25485 507.89062 392.61423Q507.89062 393.44235 507.53125 394.0986Q507.1875 394.73923 506.53125 395.11423Q505.89062 395.4736 505.0 395.4736Q504.23438 395.4736 503.5625 395.1611Q502.90625 394.83298 502.51562 394.27048Q502.14062 393.70798 502.10938 392.9736L503.79688 392.9736Q503.84375 393.50485 504.15625 393.80173Q504.48438 394.0986 505.0 394.0986Q505.57812 394.0986 505.875 393.69235Q506.1875 393.27048 506.1875 392.52048Q506.1875 391.7861 505.82812 391.4111Q505.48438 391.02048 504.82812 391.02048Q504.21875 391.02048 503.84375 391.33298L503.6875 391.48923L502.32812 391.14548Z"
     fill-rule="nonzero"
     id="path141" />
  <path
     stroke="#ffffff"
     stroke-width="3.0"
     stroke-linejoin="round"
     stroke-linecap="round"
     d="M667.8281 384.26874Q667.8281 386.03436 667.09375 386.9875Q666.3594 387.925 664.9531 387.925Q663.5469 387.925 662.8125 387.0031Q662.0781 386.08124 662.0625 384.3625L662.0625 382.78436Q662.0625 381.0031 662.7969 380.08124Q663.5469 379.14374 664.9375 379.14374Q666.3281 379.14374 667.0625 380.0656Q667.8125 380.9875 667.8281 382.70624L667.8281 384.26874ZM666.125 382.55Q666.125 381.4875 665.8281 381.0031Q665.5469 380.51874 664.9375 380.51874Q664.34375 380.51874 664.0469 380.9875Q663.7656 381.4406 663.75 382.425L663.75 384.4875Q663.75 385.53436 664.03125 386.05Q664.3125 386.55 664.9531 386.55Q665.5625 386.55 665.84375 386.0656Q666.125 385.58124 666.125 384.58124L666.125 382.55Z"
     fill-rule="nonzero"
     id="path143" />
  <path
     fill="#ea4335"
     d="M667.8281 384.26874Q667.8281 386.03436 667.09375 386.9875Q666.3594 387.925 664.9531 387.925Q663.5469 387.925 662.8125 387.0031Q662.0781 386.08124 662.0625 384.3625L662.0625 382.78436Q662.0625 381.0031 662.7969 380.08124Q663.5469 379.14374 664.9375 379.14374Q666.3281 379.14374 667.0625 380.0656Q667.8125 380.9875 667.8281 382.70624L667.8281 384.26874ZM666.125 382.55Q666.125 381.4875 665.8281 381.0031Q665.5469 380.51874 664.9375 380.51874Q664.34375 380.51874 664.0469 380.9875Q663.7656 381.4406 663.75 382.425L663.75 384.4875Q663.75 385.53436 664.03125 386.05Q664.3125 386.55 664.9531 386.55Q665.5625 386.55 665.84375 386.0656Q666.125 385.58124 666.125 384.58124L666.125 382.55Z"
     fill-rule="nonzero"
     id="path145" />
  <path
     fill="#000000"
     d="M380.5625 453.78436L381.6875 454.08124Q381.32812 455.47186 380.40625 456.20624Q379.48438 456.9406 378.14062 456.9406Q376.75 456.9406 375.875 456.3781Q375.0 455.8156 374.54688 454.7531Q374.09375 453.675 374.09375 452.4406Q374.09375 451.09686 374.60938 450.09686Q375.125 449.09686 376.0625 448.58124Q377.01562 448.0656 378.15625 448.0656Q379.4375 448.0656 380.3125 448.72186Q381.20312 449.3781 381.54688 450.5656L380.42188 450.83124Q380.125 449.89374 379.54688 449.47186Q378.98438 449.03436 378.125 449.03436Q377.14062 449.03436 376.46875 449.51874Q375.8125 449.9875 375.53125 450.78436Q375.26562 451.58124 375.26562 452.4406Q375.26562 453.53436 375.57812 454.34686Q375.90625 455.15936 376.57812 455.5656Q377.25 455.97186 378.04688 455.97186Q379.0 455.97186 379.65625 455.425Q380.32812 454.8781 380.5625 453.78436ZM383.07812 452.6125Q383.07812 450.47186 384.21875 449.26874Q385.375 448.05 387.1875 448.05Q388.39062 448.05 389.34375 448.6281Q390.29688 449.1906 390.79688 450.20624Q391.29688 451.22186 391.29688 452.51874Q391.29688 453.8156 390.76562 454.84686Q390.23438 455.8781 389.26562 456.40936Q388.3125 456.9406 387.1875 456.9406Q385.96875 456.9406 385.01562 456.3625Q384.0625 455.76874 383.5625 454.76874Q383.07812 453.7531 383.07812 452.6125ZM384.25 452.6281Q384.25 454.1906 385.07812 455.08124Q385.92188 455.97186 387.1875 455.97186Q388.46875 455.97186 389.29688 455.08124Q390.125 454.175 390.125 452.5031Q390.125 451.45624 389.76562 450.675Q389.42188 449.89374 388.73438 449.47186Q388.04688 449.03436 387.20312 449.03436Q386.0 449.03436 385.125 449.8625Q384.25 450.6906 384.25 452.6281ZM392.4375 456.8L392.4375 448.20624L396.25 448.20624Q397.40625 448.20624 398.0 448.4406Q398.59375 448.675 398.95312 449.26874Q399.3125 449.84686 399.3125 450.55Q399.3125 451.47186 398.71875 452.09686Q398.125 452.72186 396.89062 452.89374Q397.34375 453.1125 397.57812 453.3156Q398.07812 453.76874 398.51562 454.45624L400.01562 456.8L398.57812 456.8L397.45312 455.01874Q396.95312 454.2375 396.625 453.83124Q396.3125 453.425 396.04688 453.26874Q395.79688 453.09686 395.53125 453.01874Q395.34375 452.9875 394.90625 452.9875L393.57812 452.9875L393.57812 456.8L392.4375 456.8ZM393.57812 452.0031L396.03125 452.0031Q396.79688 452.0031 397.23438 451.84686Q397.6875 451.675 397.90625 451.33124Q398.14062 450.97186 398.14062 450.55Q398.14062 449.9406 397.6875 449.55Q397.25 449.15936 396.29688 449.15936L393.57812 449.15936L393.57812 452.0031ZM400.5 456.9406L402.98438 448.0656L403.82812 448.0656L401.34375 456.9406L400.5 456.9406ZM404.4375 456.8L404.4375 448.20624L408.25 448.20624Q409.40625 448.20624 410.0 448.4406Q410.59375 448.675 410.95312 449.26874Q411.3125 449.84686 411.3125 450.55Q411.3125 451.47186 410.71875 452.09686Q410.125 452.72186 408.89062 452.89374Q409.34375 453.1125 409.57812 453.3156Q410.07812 453.76874 410.51562 454.45624L412.01562 456.8L410.57812 456.8L409.45312 455.01874Q408.95312 454.2375 408.625 453.83124Q408.3125 453.425 408.04688 453.26874Q407.79688 453.09686 407.53125 453.01874Q407.34375 452.9875 406.90625 452.9875L405.57812 452.9875L405.57812 456.8L404.4375 456.8ZM405.57812 452.0031L408.03125 452.0031Q408.79688 452.0031 409.23438 451.84686Q409.6875 451.675 409.90625 451.33124Q410.14062 450.97186 410.14062 450.55Q410.14062 449.9406 409.6875 449.55Q409.25 449.15936 408.29688 449.15936L405.57812 449.15936L405.57812 452.0031ZM412.48438 456.8L415.78125 448.20624L417.0 448.20624L420.51562 456.8L419.23438 456.8L418.21875 454.1906L414.64062 454.1906L413.6875 456.8L412.48438 456.8ZM414.96875 453.26874L417.875 453.26874L416.98438 450.89374Q416.5625 449.8156 416.375 449.1125Q416.20312 449.9406 415.90625 450.7531L414.96875 453.26874ZM427.5625 453.78436L428.6875 454.08124Q428.32812 455.47186 427.40625 456.20624Q426.48438 456.9406 425.14062 456.9406Q423.75 456.9406 422.875 456.3781Q422.0 455.8156 421.54688 454.7531Q421.09375 453.675 421.09375 452.4406Q421.09375 451.09686 421.60938 450.09686Q422.125 449.09686 423.0625 448.58124Q424.01562 448.0656 425.15625 448.0656Q426.4375 448.0656 427.3125 448.72186Q428.20312 449.3781 428.54688 450.5656L427.42188 450.83124Q427.125 449.89374 426.54688 449.47186Q425.98438 449.03436 425.125 449.03436Q424.14062 449.03436 423.46875 449.51874Q422.8125 449.9875 422.53125 450.78436Q422.26562 451.58124 422.26562 452.4406Q422.26562 453.53436 422.57812 454.34686Q422.90625 455.15936 423.57812 455.5656Q424.25 455.97186 425.04688 455.97186Q426.0 455.97186 426.65625 455.425Q427.32812 454.8781 427.5625 453.78436ZM423.76562 457.70624L424.07812 456.65936L424.85938 456.65936L424.65625 457.3Q425.15625 457.34686 425.40625 457.59686Q425.67188 457.84686 425.67188 458.15936Q425.67188 458.59686 425.25 458.925Q424.82812 459.26874 423.96875 459.26874Q423.48438 459.26874 423.125 459.1906L423.1875 458.51874Q423.5625 458.53436 423.75 458.53436Q424.29688 458.53436 424.51562 458.3781Q424.6875 458.26874 424.6875 458.09686Q424.6875 457.9875 424.60938 457.90936Q424.54688 457.83124 424.35938 457.76874Q424.1875 457.70624 423.76562 457.70624ZM429.48438 456.8L432.78125 448.20624L434.0 448.20624L437.51562 456.8L436.23438 456.8L435.21875 454.1906L431.64062 454.1906L430.6875 456.8L429.48438 456.8ZM431.96875 453.26874L434.875 453.26874L433.98438 450.89374Q433.5625 449.8156 433.375 449.1125Q433.20312 449.9406 432.90625 450.7531L431.96875 453.26874Z"
     fill-rule="nonzero"
     id="path147" />
  <path
     fill="#000000"
     d="M44.528126 390.76874Q44.528126 392.53436 43.79375 393.4875Q43.059376 394.425 41.653126 394.425Q40.246876 394.425 39.5125 393.5031Q38.778126 392.58124 38.7625 390.8625L38.7625 389.28436Q38.7625 387.5031 39.496876 386.58124Q40.246876 385.64374 41.6375 385.64374Q43.028126 385.64374 43.7625 386.5656Q44.5125 387.4875 44.528126 389.20624L44.528126 390.76874ZM42.825 389.05Q42.825 387.9875 42.528126 387.5031Q42.246876 387.01874 41.6375 387.01874Q41.04375 387.01874 40.746876 387.4875Q40.465626 387.9406 40.45 388.925L40.45 390.9875Q40.45 392.03436 40.73125 392.55Q41.0125 393.05 41.653126 393.05Q42.2625 393.05 42.54375 392.5656Q42.825 392.08124 42.825 391.08124L42.825 389.05Z"
     fill-rule="nonzero"
     id="path149" />
  <path
     fill="#000000"
     d="M37.621876 298.6889L31.778126 298.6889L31.778126 297.53265L34.54375 294.57953Q35.10625 293.97015 35.371876 293.5014Q35.653126 293.03265 35.653126 292.6264Q35.653126 292.04828 35.35625 291.73578Q35.075 291.40765 34.54375 291.40765Q33.965626 291.40765 33.6375 291.79828Q33.309376 292.1889 33.309376 292.84515L31.60625 292.84515Q31.60625 292.0639 31.98125 291.42328Q32.35625 290.76703 33.028126 290.40765Q33.715626 290.03265 34.575 290.03265Q35.8875 290.03265 36.621876 290.67328Q37.35625 291.29828 37.35625 292.45453Q37.35625 293.09515 37.028126 293.7514Q36.7 294.40765 35.903126 295.28265L33.965626 297.32953L37.621876 297.32953L37.621876 298.6889ZM44.528126 295.15765Q44.528126 296.92328 43.79375 297.8764Q43.059376 298.8139 41.653126 298.8139Q40.246876 298.8139 39.5125 297.89203Q38.778126 296.97015 38.7625 295.2514L38.7625 293.67328Q38.7625 291.89203 39.496876 290.97015Q40.246876 290.03265 41.6375 290.03265Q43.028126 290.03265 43.7625 290.95453Q44.5125 291.8764 44.528126 293.59515L44.528126 295.15765ZM42.825 293.4389Q42.825 292.3764 42.528126 291.89203Q42.246876 291.40765 41.6375 291.40765Q41.04375 291.40765 40.746876 291.8764Q40.465626 292.32953 40.45 293.3139L40.45 295.3764Q40.45 296.42328 40.73125 296.9389Q41.0125 297.4389 41.653126 297.4389Q42.2625 297.4389 42.54375 296.95453Q42.825 296.47015 42.825 295.47015L42.825 293.4389Z"
     fill-rule="nonzero"
     id="path151" />
  <path
     fill="#000000"
     d="M36.79375 199.85902L37.7625 199.85902L37.7625 201.23402L36.79375 201.23402L36.79375 203.07777L35.090626 203.07777L35.090626 201.23402L31.60625 201.23402L31.528126 200.17152L35.075 194.54652L36.79375 194.54652L36.79375 199.85902ZM33.215626 199.85902L35.090626 199.85902L35.090626 196.85902L34.98125 197.04652L33.215626 199.85902ZM44.528126 199.54652Q44.528126 201.31215 43.79375 202.26527Q43.059376 203.20277 41.653126 203.20277Q40.246876 203.20277 39.5125 202.2809Q38.778126 201.35902 38.7625 199.64027L38.7625 198.06215Q38.7625 196.2809 39.496876 195.35902Q40.246876 194.42152 41.6375 194.42152Q43.028126 194.42152 43.7625 195.3434Q44.5125 196.26527 44.528126 197.98402L44.528126 199.54652ZM42.825 197.82777Q42.825 196.76527 42.528126 196.2809Q42.246876 195.79652 41.6375 195.79652Q41.04375 195.79652 40.746876 196.26527Q40.465626 196.7184 40.45 197.70277L40.45 199.76527Q40.45 200.81215 40.73125 201.32777Q41.0125 201.82777 41.653126 201.82777Q42.2625 201.82777 42.54375 201.3434Q42.825 200.85902 42.825 199.85902L42.825 197.82777Z"
     fill-rule="nonzero"
     id="path153" />
  <path
     fill="#000000"
     d="M36.371876 98.84167L36.371876 100.24792L36.215626 100.24792Q35.059376 100.26354 34.35625 100.84167Q33.66875 101.41979 33.528126 102.45104Q34.2 101.76354 35.23125 101.76354Q36.35625 101.76354 37.0125 102.56042Q37.66875 103.35729 37.66875 104.65417Q37.66875 105.48229 37.309376 106.15417Q36.95 106.82604 36.278126 107.21667Q35.621876 107.59167 34.79375 107.59167Q33.45 107.59167 32.621876 106.65417Q31.79375 105.70104 31.79375 104.13854L31.79375 103.52917Q31.79375 102.13854 32.309376 101.07604Q32.840626 100.01354 33.809376 99.43542Q34.79375 98.85729 36.090626 98.84167L36.371876 98.84167ZM34.715626 103.12292Q34.309376 103.12292 33.965626 103.34167Q33.6375 103.54479 33.48125 103.90417L33.48125 104.41979Q33.48125 105.26354 33.809376 105.74792Q34.153126 106.21667 34.7625 106.21667Q35.309376 106.21667 35.6375 105.79479Q35.98125 105.35729 35.98125 104.66979Q35.98125 103.96667 35.6375 103.54479Q35.29375 103.12292 34.715626 103.12292ZM44.528126 103.93542Q44.528126 105.70104 43.79375 106.65417Q43.059376 107.59167 41.653126 107.59167Q40.246876 107.59167 39.5125 106.66979Q38.778126 105.74792 38.7625 104.02917L38.7625 102.45104Q38.7625 100.66979 39.496876 99.74792Q40.246876 98.81042 41.6375 98.81042Q43.028126 98.81042 43.7625 99.73229Q44.5125 100.65417 44.528126 102.37292L44.528126 103.93542ZM42.825 102.21667Q42.825 101.15417 42.528126 100.66979Q42.246876 100.18542 41.6375 100.18542Q41.04375 100.18542 40.746876 100.65417Q40.465626 101.10729 40.45 102.09167L40.45 104.15417Q40.45 105.20104 40.73125 105.71667Q41.0125 106.21667 41.653126 106.21667Q42.2625 106.21667 42.54375 105.73229Q42.825 105.24792 42.825 104.24792L42.825 102.21667Z"
     fill-rule="nonzero"
     id="path155" />
  <path
     fill="#000000"
     d="M132.6681 416.20624L136.1056 416.20624Q137.12123 416.20624 137.62123 416.3Q138.12123 416.3781 138.51186 416.65936Q138.9181 416.925 139.18373 417.3781Q139.44936 417.8156 139.44936 418.3781Q139.44936 418.97186 139.12123 419.4875Q138.7931 419.9875 138.24623 420.2375Q139.02748 420.45624 139.44936 421.01874Q139.87123 421.5656 139.87123 422.3156Q139.87123 422.89374 139.58998 423.45624Q139.32436 424.0031 138.8556 424.33124Q138.38686 424.65936 137.68373 424.7375Q137.26186 424.78436 135.58998 424.8L132.6681 424.8L132.6681 416.20624ZM134.40248 417.64374L134.40248 419.6281L135.5431 419.6281Q136.55873 419.6281 136.80873 419.59686Q137.24623 419.55 137.49623 419.3Q137.76186 419.03436 137.76186 418.6125Q137.76186 418.22186 137.5431 417.97186Q137.32436 417.72186 136.88686 417.675Q136.62123 417.64374 135.40248 417.64374L134.40248 417.64374ZM134.40248 421.05L134.40248 423.34686L136.01186 423.34686Q136.94936 423.34686 137.19936 423.3Q137.58998 423.22186 137.82436 422.95624Q138.07436 422.6906 138.07436 422.22186Q138.07436 421.84686 137.88686 421.58124Q137.69936 421.3 137.33998 421.175Q136.99623 421.05 135.80873 421.05L134.40248 421.05ZM141.6681 424.8L141.6681 416.20624L145.32436 416.20624Q146.69936 416.20624 147.32436 416.4406Q147.94936 416.675 148.32436 417.26874Q148.69936 417.8625 148.69936 418.6125Q148.69936 419.58124 148.12123 420.22186Q147.55873 420.84686 146.43373 421.0031Q146.99623 421.33124 147.3556 421.7375Q147.7306 422.1281 148.33998 423.1281L149.40248 424.8L147.32436 424.8L146.07436 422.925Q145.40248 421.925 145.15248 421.675Q144.90248 421.40936 144.62123 421.3156Q144.3556 421.20624 143.76186 421.20624L143.40248 421.20624L143.40248 424.8L141.6681 424.8ZM143.40248 419.84686L144.68373 419.84686Q145.93373 419.84686 146.24623 419.7375Q146.55873 419.6281 146.7306 419.3781Q146.9181 419.1125 146.9181 418.72186Q146.9181 418.3 146.68373 418.03436Q146.44936 417.76874 146.02748 417.6906Q145.80873 417.65936 144.76186 417.65936L143.40248 417.65936L143.40248 419.84686ZM158.4181 424.8L156.52748 424.8L155.77748 422.84686L152.33998 422.84686L151.63686 424.8L149.7931 424.8L153.13686 416.20624L154.9806 416.20624L158.4181 424.8ZM155.21498 421.39374L154.0431 418.20624L152.87123 421.39374L155.21498 421.39374ZM159.68373 424.8L159.68373 416.20624L161.37123 416.20624L164.88686 421.9406L164.88686 416.20624L166.49623 416.20624L166.49623 424.8L164.76186 424.8L161.2931 419.1906L161.2931 424.8L159.68373 424.8ZM174.1681 421.64374L175.83998 422.175Q175.46498 423.58124 174.55873 424.26874Q173.65248 424.9406 172.27748 424.9406Q170.55873 424.9406 169.44936 423.78436Q168.3556 422.6125 168.3556 420.58124Q168.3556 418.4406 169.46498 417.2531Q170.57436 416.0656 172.38686 416.0656Q173.96498 416.0656 174.94936 416.9875Q175.52748 417.55 175.82436 418.58124L174.1056 418.9875Q173.94936 418.3156 173.46498 417.9406Q172.9806 417.55 172.2931 417.55Q171.33998 417.55 170.74623 418.2375Q170.15248 418.90936 170.15248 420.45624Q170.15248 422.08124 170.7306 422.76874Q171.32436 423.45624 172.26186 423.45624Q172.94936 423.45624 173.44936 423.01874Q173.94936 422.58124 174.1681 421.64374ZM185.4181 424.8L183.52748 424.8L182.77748 422.84686L179.33998 422.84686L178.63686 424.8L176.7931 424.8L180.13686 416.20624L181.9806 416.20624L185.4181 424.8ZM182.21498 421.39374L181.0431 418.20624L179.87123 421.39374L182.21498 421.39374Z"
     fill-rule="nonzero"
     id="path157" />
  <path
     fill="#000000"
     d="M297.80603 424.8L297.80603 416.20624L300.58728 416.20624Q302.1654 416.20624 302.64978 416.33124Q303.38416 416.53436 303.88416 417.1906Q304.38416 417.83124 304.38416 418.84686Q304.38416 419.64374 304.08728 420.1906Q303.80603 420.72186 303.36853 421.03436Q302.93103 421.33124 302.46228 421.4406Q301.8529 421.5656 300.6654 421.5656L299.5404 421.5656L299.5404 424.8L297.80603 424.8ZM299.5404 417.65936L299.5404 420.09686L300.49353 420.09686Q301.50916 420.09686 301.8529 419.97186Q302.21228 419.83124 302.39978 419.55Q302.6029 419.2531 302.6029 418.8781Q302.6029 418.40936 302.32166 418.1125Q302.0404 417.8 301.61853 417.72186Q301.32166 417.65936 300.38416 417.65936L299.5404 417.65936ZM313.55603 424.8L311.6654 424.8L310.9154 422.84686L307.4779 422.84686L306.77478 424.8L304.93103 424.8L308.27478 416.20624L310.11853 416.20624L313.55603 424.8ZM310.3529 421.39374L309.18103 418.20624L308.00916 421.39374L310.3529 421.39374ZM314.80603 424.8L314.80603 416.20624L318.46228 416.20624Q319.83728 416.20624 320.46228 416.4406Q321.08728 416.675 321.46228 417.26874Q321.83728 417.8625 321.83728 418.6125Q321.83728 419.58124 321.25916 420.22186Q320.69666 420.84686 319.57166 421.0031Q320.13416 421.33124 320.49353 421.7375Q320.86853 422.1281 321.4779 423.1281L322.5404 424.8L320.46228 424.8L319.21228 422.925Q318.5404 421.925 318.2904 421.675Q318.0404 421.40936 317.75916 421.3156Q317.49353 421.20624 316.89978 421.20624L316.5404 421.20624L316.5404 424.8L314.80603 424.8ZM316.5404 419.84686L317.82166 419.84686Q319.07166 419.84686 319.38416 419.7375Q319.69666 419.6281 319.86853 419.3781Q320.05603 419.1125 320.05603 418.72186Q320.05603 418.3 319.82166 418.03436Q319.58728 417.76874 319.1654 417.6906Q318.94666 417.65936 317.89978 417.65936L316.5404 417.65936L316.5404 419.84686ZM323.80603 416.20624L326.96228 416.20624Q328.0404 416.20624 328.6029 416.3781Q329.3529 416.59686 329.88416 417.175Q330.43103 417.7375 330.71228 418.5656Q330.99353 419.3781 330.99353 420.58124Q330.99353 421.64374 330.74353 422.40936Q330.4154 423.34686 329.82166 423.925Q329.36853 424.3781 328.6029 424.6125Q328.02478 424.8 327.05603 424.8L323.80603 424.8L323.80603 416.20624ZM325.5404 417.65936L325.5404 423.34686L326.82166 423.34686Q327.55603 423.34686 327.88416 423.26874Q328.30603 423.15936 328.57166 422.90936Q328.8529 422.65936 329.02478 422.08124Q329.21228 421.5031 329.21228 420.5031Q329.21228 419.51874 329.02478 418.9875Q328.8529 418.4406 328.5404 418.14374Q328.2279 417.84686 327.74353 417.7375Q327.36853 417.65936 326.30603 417.65936L325.5404 417.65936ZM340.55603 424.8L338.6654 424.8L337.9154 422.84686L334.4779 422.84686L333.77478 424.8L331.93103 424.8L335.27478 416.20624L337.11853 416.20624L340.55603 424.8ZM337.3529 421.39374L336.18103 418.20624L335.00916 421.39374L337.3529 421.39374Z"
     fill-rule="nonzero"
     id="path159" />
  <path
     fill="#000000"
     d="M459.44397 424.8L459.44397 416.20624L462.22522 416.20624Q463.80334 416.20624 464.28772 416.33124Q465.0221 416.53436 465.5221 417.1906Q466.0221 417.83124 466.0221 418.84686Q466.0221 419.64374 465.72522 420.1906Q465.44397 420.72186 465.00647 421.03436Q464.56897 421.33124 464.10022 421.4406Q463.49084 421.5656 462.30334 421.5656L461.17834 421.5656L461.17834 424.8L459.44397 424.8ZM461.17834 417.65936L461.17834 420.09686L462.13147 420.09686Q463.1471 420.09686 463.49084 419.97186Q463.85022 419.83124 464.03772 419.55Q464.24084 419.2531 464.24084 418.8781Q464.24084 418.40936 463.9596 418.1125Q463.67834 417.8 463.25647 417.72186Q462.9596 417.65936 462.0221 417.65936L461.17834 417.65936ZM467.44397 424.8L467.44397 416.20624L471.10022 416.20624Q472.47522 416.20624 473.10022 416.4406Q473.72522 416.675 474.10022 417.26874Q474.47522 417.8625 474.47522 418.6125Q474.47522 419.58124 473.8971 420.22186Q473.3346 420.84686 472.2096 421.0031Q472.7721 421.33124 473.13147 421.7375Q473.50647 422.1281 474.11584 423.1281L475.17834 424.8L473.10022 424.8L471.85022 422.925Q471.17834 421.925 470.92834 421.675Q470.67834 421.40936 470.3971 421.3156Q470.13147 421.20624 469.53772 421.20624L469.17834 421.20624L469.17834 424.8L467.44397 424.8ZM469.17834 419.84686L470.4596 419.84686Q471.7096 419.84686 472.0221 419.7375Q472.3346 419.6281 472.50647 419.3781Q472.69397 419.1125 472.69397 418.72186Q472.69397 418.3 472.4596 418.03436Q472.22522 417.76874 471.80334 417.6906Q471.5846 417.65936 470.53772 417.65936L469.17834 417.65936L469.17834 419.84686ZM476.44397 424.8L476.44397 416.20624L482.81897 416.20624L482.81897 417.65936L478.17834 417.65936L478.17834 419.5656L482.49084 419.5656L482.49084 421.01874L478.17834 421.01874L478.17834 423.34686L482.97522 423.34686L482.97522 424.8L476.44397 424.8ZM486.38147 424.8L486.38147 417.65936L483.8346 417.65936L483.8346 416.20624L490.6471 416.20624L490.6471 417.65936L488.11584 417.65936L488.11584 424.8L486.38147 424.8ZM499.19397 424.8L497.30334 424.8L496.55334 422.84686L493.11584 422.84686L492.41272 424.8L490.56897 424.8L493.91272 416.20624L495.75647 416.20624L499.19397 424.8ZM495.99084 421.39374L494.81897 418.20624L493.6471 421.39374L495.99084 421.39374Z"
     fill-rule="nonzero"
     id="path161" />
  <path
     fill="#000000"
     d="M610.53503 424.8L610.53503 416.20624L612.2694 416.20624L612.2694 424.8L610.53503 424.8ZM613.59753 424.8L613.59753 416.20624L615.28503 416.20624L618.80066 421.9406L618.80066 416.20624L620.41003 416.20624L620.41003 424.8L618.67566 424.8L615.2069 419.1906L615.2069 424.8L613.59753 424.8ZM622.5819 416.20624L625.73816 416.20624Q626.8163 416.20624 627.3788 416.3781Q628.1288 416.59686 628.66003 417.175Q629.2069 417.7375 629.48816 418.5656Q629.7694 419.3781 629.7694 420.58124Q629.7694 421.64374 629.5194 422.40936Q629.1913 423.34686 628.59753 423.925Q628.1444 424.3781 627.3788 424.6125Q626.80066 424.8 625.8319 424.8L622.5819 424.8L622.5819 416.20624ZM624.3163 417.65936L624.3163 423.34686L625.59753 423.34686Q626.3319 423.34686 626.66003 423.26874Q627.0819 423.15936 627.34753 422.90936Q627.6288 422.65936 627.80066 422.08124Q627.98816 421.5031 627.98816 420.5031Q627.98816 419.51874 627.80066 418.9875Q627.6288 418.4406 627.3163 418.14374Q627.0038 417.84686 626.5194 417.7375Q626.1444 417.65936 625.0819 417.65936L624.3163 417.65936ZM631.53503 424.8L631.53503 416.20624L633.2694 416.20624L633.2694 424.8L631.53503 424.8ZM631.80066 415.8156L632.61316 414.0656L634.4569 414.0656L632.84753 415.8156L631.80066 415.8156ZM638.5819 421.64374L638.5819 420.1906L642.3163 420.1906L642.3163 423.6125Q641.7694 424.14374 640.73816 424.55Q639.7069 424.9406 638.6444 424.9406Q637.30066 424.9406 636.28503 424.3781Q635.28503 423.8156 634.78503 422.76874Q634.28503 421.70624 634.28503 420.47186Q634.28503 419.1281 634.84753 418.09686Q635.41003 417.05 636.48816 416.4875Q637.3163 416.0656 638.55066 416.0656Q640.1444 416.0656 641.03503 416.7375Q641.9413 417.40936 642.2069 418.58124L640.48816 418.90936Q640.30066 418.28436 639.80066 417.925Q639.30066 417.55 638.55066 417.55Q637.41003 417.55 636.73816 418.26874Q636.0663 418.9875 636.0663 420.40936Q636.0663 421.9406 636.73816 422.70624Q637.42566 423.45624 638.53503 423.45624Q639.0819 423.45624 639.6288 423.2531Q640.17566 423.03436 640.5663 422.7375L640.5663 421.64374L638.5819 421.64374ZM643.5819 424.8L643.5819 416.20624L649.9569 416.20624L649.9569 417.65936L645.3163 417.65936L645.3163 419.5656L649.6288 419.5656L649.6288 421.01874L645.3163 421.01874L645.3163 423.34686L650.11316 423.34686L650.11316 424.8L643.5819 424.8ZM651.59753 424.8L651.59753 416.20624L653.28503 416.20624L656.80066 421.9406L656.80066 416.20624L658.41003 416.20624L658.41003 424.8L656.67566 424.8L653.2069 419.1906L653.2069 424.8L651.59753 424.8ZM668.3319 424.8L666.4413 424.8L665.6913 422.84686L662.2538 422.84686L661.55066 424.8L659.7069 424.8L663.05066 416.20624L664.8944 416.20624L668.3319 424.8ZM665.1288 421.39374L663.9569 418.20624L662.78503 421.39374L665.1288 421.39374Z"
     fill-rule="nonzero"
     id="path163" />
  <path
     fill="#4285f4"
     d="M310.0 66.833336C310.0 66.28105 310.44772 65.833336 311.0 65.833336L321.0 65.833336C321.55228 65.833336 322.0 66.28105 322.0 66.833336L322.0 76.833336C322.0 77.38562 321.55228 77.833336 321.0 77.833336L311.0 77.833336C310.44772 77.833336 310.0 77.38562 310.0 76.833336Z"
     fill-rule="nonzero"
     id="path165" />
  <path
     fill="#1a1a1a"
     d="M332.23438 69.989586L332.29688 70.708336Q332.96875 69.88021 334.10938 69.88021Q335.34375 69.88021 335.79688 70.84896Q336.46875 69.88021 337.70312 69.88021Q338.73438 69.88021 339.23438 70.489586Q339.73438 71.083336 339.73438 72.28646L339.73438 76.333336L338.04688 76.333336L338.04688 72.28646Q338.04688 71.75521 337.82812 71.50521Q337.625 71.25521 337.07812 71.25521Q336.32812 71.25521 336.03125 71.97396L336.03125 76.333336L334.34375 76.333336L334.34375 72.302086Q334.34375 71.739586 334.125 71.50521Q333.90625 71.25521 333.39062 71.25521Q332.67188 71.25521 332.34375 71.84896L332.34375 76.333336L330.65625 76.333336L330.65625 69.989586L332.23438 69.989586ZM344.32812 76.333336Q344.20312 76.09896 344.15625 75.770836Q343.54688 76.458336 342.5625 76.458336Q341.625 76.458336 341.01562 75.91146Q340.40625 75.364586 340.40625 74.552086Q340.40625 73.53646 341.14062 73.00521Q341.89062 72.458336 343.3125 72.458336L344.07812 72.458336L344.07812 72.09896Q344.07812 71.66146 343.85938 71.395836Q343.64062 71.13021 343.14062 71.13021Q342.71875 71.13021 342.46875 71.333336Q342.23438 71.53646 342.23438 71.895836L340.54688 71.895836Q340.54688 71.34896 340.875 70.88021Q341.21875 70.41146 341.84375 70.145836Q342.46875 69.88021 343.23438 69.88021Q344.40625 69.88021 345.09375 70.47396Q345.78125 71.052086 345.78125 72.114586L345.78125 74.864586Q345.79688 75.770836 346.03125 76.239586L346.03125 76.333336L344.32812 76.333336ZM342.92188 75.16146Q343.29688 75.16146 343.60938 74.989586Q343.9375 74.81771 344.07812 74.53646L344.07812 73.44271L343.45312 73.44271Q342.1875 73.44271 342.09375 74.333336L342.09375 74.427086Q342.09375 74.739586 342.3125 74.958336Q342.53125 75.16146 342.92188 75.16146ZM350.07812 74.583336Q350.07812 74.270836 349.76562 74.09896Q349.46875 73.91146 348.79688 73.770836Q346.53125 73.302086 346.53125 71.84896Q346.53125 71.00521 347.21875 70.44271Q347.92188 69.88021 349.0625 69.88021Q350.26562 69.88021 350.98438 70.44271Q351.71875 71.00521 351.71875 71.927086L350.01562 71.927086Q350.01562 71.552086 349.78125 71.31771Q349.54688 71.083336 349.04688 71.083336Q348.625 71.083336 348.39062 71.28646Q348.15625 71.47396 348.15625 71.770836Q348.15625 72.052086 348.42188 72.22396Q348.6875 72.395836 349.3125 72.520836Q349.95312 72.645836 350.39062 72.802086Q351.73438 73.302086 351.73438 74.50521Q351.73438 75.38021 350.98438 75.927086Q350.25 76.458336 349.0625 76.458336Q348.26562 76.458336 347.64062 76.177086Q347.03125 75.88021 346.67188 75.395836Q346.32812 74.895836 346.32812 74.31771L347.9375 74.31771Q347.95312 74.770836 348.26562 75.020836Q348.57812 75.25521 349.09375 75.25521Q349.59375 75.25521 349.82812 75.06771Q350.07812 74.88021 350.07812 74.583336ZM355.28125 75.083336Q355.75 75.083336 356.04688 74.833336Q356.34375 74.56771 356.35938 74.145836L357.9375 74.145836Q357.9375 74.78646 357.59375 75.333336Q357.25 75.864586 356.64062 76.16146Q356.04688 76.458336 355.3125 76.458336Q353.95312 76.458336 353.17188 75.59896Q352.39062 74.72396 352.39062 73.19271L352.39062 73.083336Q352.39062 71.614586 353.17188 70.75521Q353.95312 69.88021 355.3125 69.88021Q356.5 69.88021 357.21875 70.552086Q357.9375 71.22396 357.9375 72.34896L356.35938 72.34896Q356.34375 71.864586 356.04688 71.552086Q355.75 71.239586 355.28125 71.239586Q354.6875 71.239586 354.375 71.677086Q354.07812 72.114586 354.07812 73.06771L354.07812 73.25521Q354.07812 74.22396 354.375 74.66146Q354.67188 75.083336 355.28125 75.083336ZM362.45312 75.69271Q361.82812 76.458336 360.71875 76.458336Q359.6875 76.458336 359.15625 75.864586Q358.625 75.270836 358.60938 74.145836L358.60938 69.989586L360.29688 69.989586L360.29688 74.083336Q360.29688 75.083336 361.20312 75.083336Q362.0625 75.083336 362.39062 74.47396L362.39062 69.989586L364.09375 69.989586L364.09375 76.333336L362.5 76.333336L362.45312 75.69271ZM367.4375 76.333336L365.73438 76.333336L365.73438 67.333336L367.4375 67.333336L367.4375 76.333336ZM370.4375 76.333336L368.73438 76.333336L368.73438 69.989586L370.4375 69.989586L370.4375 76.333336ZM368.64062 68.34896Q368.64062 67.97396 368.89062 67.72396Q369.15625 67.47396 369.59375 67.47396Q370.01562 67.47396 370.26562 67.72396Q370.53125 67.97396 370.53125 68.34896Q370.53125 68.739586 370.26562 68.989586Q370.01562 69.22396 369.57812 69.22396Q369.15625 69.22396 368.89062 68.989586Q368.64062 68.739586 368.64062 68.34896ZM373.20312 69.989586L373.26562 70.72396Q373.9375 69.88021 375.07812 69.88021Q376.09375 69.88021 376.57812 70.47396Q377.07812 71.052086 377.09375 72.239586L377.09375 76.333336L375.39062 76.333336L375.39062 72.270836Q375.39062 71.739586 375.15625 71.50521Q374.92188 71.25521 374.375 71.25521Q373.67188 71.25521 373.3125 71.864586L373.3125 76.333336L371.60938 76.333336L371.60938 69.989586L373.20312 69.989586ZM378.39062 73.09896Q378.39062 72.16146 378.75 71.427086Q379.10938 70.677086 379.79688 70.28646Q380.48438 69.88021 381.375 69.88021Q382.67188 69.88021 383.46875 70.66146Q384.28125 71.44271 384.375 72.78646L384.39062 73.22396Q384.39062 74.69271 383.57812 75.583336Q382.76562 76.458336 381.39062 76.458336Q380.01562 76.458336 379.20312 75.583336Q378.39062 74.69271 378.39062 73.177086L378.39062 73.09896ZM380.07812 73.22396Q380.07812 74.13021 380.42188 74.614586Q380.76562 75.083336 381.39062 75.083336Q382.01562 75.083336 382.35938 74.614586Q382.70312 74.145836 382.70312 73.09896Q382.70312 72.22396 382.35938 71.739586Q382.01562 71.239586 381.375 71.239586Q380.76562 71.239586 380.42188 71.72396Q380.07812 72.208336 380.07812 73.22396Z"
     fill-rule="nonzero"
     id="path167" />
  <path
     fill="#ea4335"
     d="M401.0 66.833336C401.0 66.28105 401.44772 65.833336 402.0 65.833336L412.0 65.833336C412.55228 65.833336 413.0 66.28105 413.0 66.833336L413.0 76.833336C413.0 77.38562 412.55228 77.833336 412.0 77.833336L402.0 77.833336C401.44772 77.833336 401.0 77.38562 401.0 76.833336Z"
     fill-rule="nonzero"
     id="path169" />
  <path
     fill="#1a1a1a"
     d="M422.10938 76.333336L422.10938 71.239586L421.17188 71.239586L421.17188 69.989586L422.10938 69.989586L422.10938 69.458336Q422.10938 68.38021 422.71875 67.802086Q423.34375 67.208336 424.4375 67.208336Q424.79688 67.208336 425.29688 67.333336L425.28125 68.645836Q425.07812 68.583336 424.76562 68.583336Q423.8125 68.583336 423.8125 69.489586L423.8125 69.989586L425.07812 69.989586L425.07812 71.239586L423.8125 71.239586L423.8125 76.333336L422.10938 76.333336ZM428.5625 76.458336Q427.17188 76.458336 426.29688 75.59896Q425.42188 74.739586 425.42188 73.31771L425.42188 73.145836Q425.42188 72.19271 425.78125 71.44271Q426.15625 70.69271 426.82812 70.28646Q427.51562 69.88021 428.375 69.88021Q429.6875 69.88021 430.42188 70.708336Q431.17188 71.520836 431.17188 73.020836L431.17188 73.708336L427.14062 73.708336Q427.21875 74.333336 427.625 74.708336Q428.04688 75.083336 428.6875 75.083336Q429.65625 75.083336 430.20312 74.38021L431.04688 75.302086Q430.65625 75.84896 430.0 76.16146Q429.35938 76.458336 428.5625 76.458336ZM428.375 71.239586Q427.875 71.239586 427.5625 71.583336Q427.25 71.927086 427.15625 72.552086L429.51562 72.552086L429.51562 72.427086Q429.5 71.864586 429.20312 71.552086Q428.92188 71.239586 428.375 71.239586ZM433.23438 69.989586L433.29688 70.708336Q433.96875 69.88021 435.10938 69.88021Q436.34375 69.88021 436.79688 70.84896Q437.46875 69.88021 438.70312 69.88021Q439.73438 69.88021 440.23438 70.489586Q440.73438 71.083336 440.73438 72.28646L440.73438 76.333336L439.04688 76.333336L439.04688 72.28646Q439.04688 71.75521 438.82812 71.50521Q438.625 71.25521 438.07812 71.25521Q437.32812 71.25521 437.03125 71.97396L437.03125 76.333336L435.34375 76.333336L435.34375 72.302086Q435.34375 71.739586 435.125 71.50521Q434.90625 71.25521 434.39062 71.25521Q433.67188 71.25521 433.34375 71.84896L433.34375 76.333336L431.65625 76.333336L431.65625 69.989586L433.23438 69.989586ZM443.4375 76.333336L441.73438 76.333336L441.73438 69.989586L443.4375 69.989586L443.4375 76.333336ZM441.64062 68.34896Q441.64062 67.97396 441.89062 67.72396Q442.15625 67.47396 442.59375 67.47396Q443.01562 67.47396 443.26562 67.72396Q443.53125 67.97396 443.53125 68.34896Q443.53125 68.739586 443.26562 68.989586Q443.01562 69.22396 442.57812 69.22396Q442.15625 69.22396 441.89062 68.989586Q441.64062 68.739586 441.64062 68.34896ZM446.20312 69.989586L446.26562 70.72396Q446.9375 69.88021 448.07812 69.88021Q449.09375 69.88021 449.57812 70.47396Q450.07812 71.052086 450.09375 72.239586L450.09375 76.333336L448.39062 76.333336L448.39062 72.270836Q448.39062 71.739586 448.15625 71.50521Q447.92188 71.25521 447.375 71.25521Q446.67188 71.25521 446.3125 71.864586L446.3125 76.333336L444.60938 76.333336L444.60938 69.989586L446.20312 69.989586ZM453.4375 76.333336L451.73438 76.333336L451.73438 69.989586L453.4375 69.989586L453.4375 76.333336ZM451.64062 68.34896Q451.64062 67.97396 451.89062 67.72396Q452.15625 67.47396 452.59375 67.47396Q453.01562 67.47396 453.26562 67.72396Q453.53125 67.97396 453.53125 68.34896Q453.53125 68.739586 453.26562 68.989586Q453.01562 69.22396 452.57812 69.22396Q452.15625 69.22396 451.89062 68.989586Q451.64062 68.739586 451.64062 68.34896ZM456.20312 69.989586L456.26562 70.72396Q456.9375 69.88021 458.07812 69.88021Q459.09375 69.88021 459.57812 70.47396Q460.07812 71.052086 460.09375 72.239586L460.09375 76.333336L458.39062 76.333336L458.39062 72.270836Q458.39062 71.739586 458.15625 71.50521Q457.92188 71.25521 457.375 71.25521Q456.67188 71.25521 456.3125 71.864586L456.3125 76.333336L454.60938 76.333336L454.60938 69.989586L456.20312 69.989586ZM461.39062 73.09896Q461.39062 72.16146 461.75 71.427086Q462.10938 70.677086 462.79688 70.28646Q463.48438 69.88021 464.375 69.88021Q465.67188 69.88021 466.46875 70.66146Q467.28125 71.44271 467.375 72.78646L467.39062 73.22396Q467.39062 74.69271 466.57812 75.583336Q465.76562 76.458336 464.39062 76.458336Q463.01562 76.458336 462.20312 75.583336Q461.39062 74.69271 461.39062 73.177086L461.39062 73.09896ZM463.07812 73.22396Q463.07812 74.13021 463.42188 74.614586Q463.76562 75.083336 464.39062 75.083336Q465.01562 75.083336 465.35938 74.614586Q465.70312 74.145836 465.70312 73.09896Q465.70312 72.22396 465.35938 71.739586Q465.01562 71.239586 464.375 71.239586Q463.76562 71.239586 463.42188 71.72396Q463.07812 72.208336 463.07812 73.22396Z"
     fill-rule="nonzero"
     id="path171" />
  <path
     fill="#757575"
     d="M189.9375 38.465626Q189.76562 40.7625 188.23438 42.090626Q186.70312 43.403126 184.20312 43.403126Q181.46875 43.403126 179.90625 41.559376Q178.34375 39.715626 178.34375 36.496876L178.34375 35.6375Q178.34375 33.575 179.0625 32.0125Q179.78125 30.45 181.125 29.621876Q182.46875 28.778126 184.25 28.778126Q186.70312 28.778126 188.20312 30.10625Q189.71875 31.41875 189.95312 33.809376L187.01562 33.809376Q186.92188 32.434376 186.25 31.809376Q185.59375 31.184376 184.25 31.184376Q182.78125 31.184376 182.04688 32.246876Q181.32812 33.29375 181.3125 35.496876L181.3125 36.575Q181.3125 38.871876 182.0 39.934376Q182.70312 40.996876 184.20312 40.996876Q185.5625 40.996876 186.23438 40.3875Q186.90625 39.7625 187.0 38.465626L189.9375 38.465626ZM197.70312 43.2Q197.51562 42.825 197.42188 42.246876Q196.40625 43.403126 194.76562 43.403126Q193.20312 43.403126 192.1875 42.496876Q191.17188 41.590626 191.17188 40.23125Q191.17188 38.54375 192.40625 37.653126Q193.65625 36.746876 196.01562 36.746876L197.3125 36.746876L197.3125 36.1375Q197.3125 35.403126 196.9375 34.965626Q196.5625 34.528126 195.75 34.528126Q195.03125 34.528126 194.625 34.871876Q194.21875 35.215626 194.21875 35.809376L191.40625 35.809376Q191.40625 34.8875 191.96875 34.10625Q192.53125 33.325 193.5625 32.8875Q194.60938 32.434376 195.89062 32.434376Q197.84375 32.434376 198.98438 33.41875Q200.14062 34.403126 200.14062 36.184376L200.14062 40.7625Q200.15625 42.2625 200.5625 43.028126L200.5625 43.2L197.70312 43.2ZM195.375 41.23125Q196.0 41.23125 196.51562 40.965626Q197.04688 40.684376 197.3125 40.215626L197.3125 38.3875L196.25 38.3875Q194.14062 38.3875 194.0 39.85625L193.98438 40.028126Q193.98438 40.559376 194.35938 40.903126Q194.73438 41.23125 195.375 41.23125ZM205.1875 32.6375L205.26562 33.85625Q206.40625 32.434376 208.3125 32.434376Q209.98438 32.434376 210.79688 33.41875Q211.625 34.403126 211.64062 36.371876L211.64062 43.2L208.82812 43.2L208.82812 36.434376Q208.82812 35.54375 208.4375 35.1375Q208.04688 34.73125 207.14062 34.73125Q205.9375 34.73125 205.34375 35.746876L205.34375 43.2L202.53125 43.2L202.53125 32.6375L205.1875 32.6375ZM213.14062 37.840626Q213.14062 35.371876 214.25 33.903126Q215.35938 32.434376 217.28125 32.434376Q218.82812 32.434376 219.82812 33.590626L219.82812 28.2L222.67188 28.2L222.67188 43.2L220.125 43.2L219.98438 42.075Q218.92188 43.403126 217.26562 43.403126Q215.40625 43.403126 214.26562 41.934376Q213.14062 40.45 213.14062 37.840626ZM215.96875 38.04375Q215.96875 39.528126 216.48438 40.325Q217.0 41.10625 217.98438 41.10625Q219.29688 41.10625 219.82812 40.0125L219.82812 35.840626Q219.3125 34.73125 218.01562 34.73125Q215.96875 34.73125 215.96875 38.04375ZM227.5625 43.2L224.73438 43.2L224.73438 32.6375L227.5625 32.6375L227.5625 43.2ZM224.5625 29.903126Q224.5625 29.2625 224.98438 28.85625Q225.42188 28.45 226.14062 28.45Q226.875 28.45 227.29688 28.85625Q227.73438 29.2625 227.73438 29.903126Q227.73438 30.54375 227.29688 30.95Q226.85938 31.35625 226.14062 31.35625Q225.4375 31.35625 225.0 30.95Q224.5625 30.54375 224.5625 29.903126ZM229.14062 37.840626Q229.14062 35.371876 230.25 33.903126Q231.35938 32.434376 233.28125 32.434376Q234.82812 32.434376 235.82812 33.590626L235.82812 28.2L238.67188 28.2L238.67188 43.2L236.125 43.2L235.98438 42.075Q234.92188 43.403126 233.26562 43.403126Q231.40625 43.403126 230.26562 41.934376Q229.14062 40.45 229.14062 37.840626ZM231.96875 38.04375Q231.96875 39.528126 232.48438 40.325Q233.0 41.10625 233.98438 41.10625Q235.29688 41.10625 235.82812 40.0125L235.82812 35.840626Q235.3125 34.73125 234.01562 34.73125Q231.96875 34.73125 231.96875 38.04375ZM246.70312 43.2Q246.51562 42.825 246.42188 42.246876Q245.40625 43.403126 243.76562 43.403126Q242.20312 43.403126 241.1875 42.496876Q240.17188 41.590626 240.17188 40.23125Q240.17188 38.54375 241.40625 37.653126Q242.65625 36.746876 245.01562 36.746876L246.3125 36.746876L246.3125 36.1375Q246.3125 35.403126 245.9375 34.965626Q245.5625 34.528126 244.75 34.528126Q244.03125 34.528126 243.625 34.871876Q243.21875 35.215626 243.21875 35.809376L240.40625 35.809376Q240.40625 34.8875 240.96875 34.10625Q241.53125 33.325 242.5625 32.8875Q243.60938 32.434376 244.89062 32.434376Q246.84375 32.434376 247.98438 33.41875Q249.14062 34.403126 249.14062 36.184376L249.14062 40.7625Q249.15625 42.2625 249.5625 43.028126L249.5625 43.2L246.70312 43.2ZM244.375 41.23125Q245.0 41.23125 245.51562 40.965626Q246.04688 40.684376 246.3125 40.215626L246.3125 38.3875L245.25 38.3875Q243.14062 38.3875 243.0 39.85625L242.98438 40.028126Q242.98438 40.559376 243.35938 40.903126Q243.73438 41.23125 244.375 41.23125ZM254.96875 30.028126L254.96875 32.6375L256.76562 32.6375L256.76562 34.7L254.96875 34.7L254.96875 39.98125Q254.96875 40.559376 255.1875 40.825Q255.40625 41.075 256.04688 41.075Q256.51562 41.075 256.875 40.996876L256.875 43.1375Q256.04688 43.403126 255.17188 43.403126Q252.20312 43.403126 252.14062 40.403126L252.14062 34.7L250.59375 34.7L250.59375 32.6375L252.14062 32.6375L252.14062 30.028126L254.96875 30.028126ZM258.14062 37.825Q258.14062 36.246876 258.75 35.0125Q259.35938 33.778126 260.48438 33.10625Q261.625 32.434376 263.14062 32.434376Q265.28125 32.434376 266.625 33.746876Q267.98438 35.059376 268.14062 37.29375L268.15625 38.028126Q268.15625 40.45 266.79688 41.934376Q265.4375 43.403126 263.15625 43.403126Q260.875 43.403126 259.5 41.934376Q258.14062 40.465626 258.14062 37.95L258.14062 37.825ZM260.96875 38.028126Q260.96875 39.528126 261.53125 40.325Q262.09375 41.121876 263.15625 41.121876Q264.1875 41.121876 264.75 40.340626Q265.32812 39.54375 265.32812 37.825Q265.32812 36.340626 264.75 35.528126Q264.1875 34.715626 263.14062 34.715626Q262.09375 34.715626 261.53125 35.528126Q260.96875 36.340626 260.96875 38.028126ZM275.3125 40.278126Q275.3125 39.7625 274.79688 39.465626Q274.28125 39.16875 273.15625 38.934376Q269.375 38.1375 269.375 35.73125Q269.375 34.325 270.54688 33.3875Q271.71875 32.434376 273.59375 32.434376Q275.60938 32.434376 276.8125 33.3875Q278.01562 34.325 278.01562 35.840626L275.20312 35.840626Q275.20312 35.246876 274.8125 34.85625Q274.42188 34.45 273.59375 34.45Q272.875 34.45 272.48438 34.778126Q272.09375 35.090626 272.09375 35.590626Q272.09375 36.059376 272.53125 36.35625Q272.98438 36.6375 274.03125 36.85625Q275.09375 37.059376 275.8125 37.325Q278.04688 38.1375 278.04688 40.16875Q278.04688 41.60625 276.8125 42.5125Q275.57812 43.403126 273.60938 43.403126Q272.28125 43.403126 271.25 42.934376Q270.21875 42.45 269.625 41.621876Q269.04688 40.79375 269.04688 39.840626L271.71875 39.840626Q271.76562 40.590626 272.28125 40.996876Q272.79688 41.3875 273.67188 41.3875Q274.48438 41.3875 274.89062 41.090626Q275.3125 40.778126 275.3125 40.278126ZM294.09375 38.0125Q294.09375 40.45 292.98438 41.934376Q291.875 43.403126 290.0 43.403126Q288.39062 43.403126 287.40625 42.278126L287.40625 47.2625L284.57812 47.2625L284.57812 32.6375L287.20312 32.6375L287.29688 33.66875Q288.32812 32.434376 289.96875 32.434376Q291.92188 32.434376 293.0 33.8875Q294.09375 35.325 294.09375 37.871876L294.09375 38.0125ZM291.28125 37.809376Q291.28125 36.340626 290.75 35.54375Q290.23438 34.73125 289.23438 34.73125Q287.90625 34.73125 287.40625 35.746876L287.40625 40.075Q287.92188 41.121876 289.25 41.121876Q291.28125 41.121876 291.28125 37.809376ZM295.14062 37.825Q295.14062 36.246876 295.75 35.0125Q296.35938 33.778126 297.48438 33.10625Q298.625 32.434376 300.14062 32.434376Q302.28125 32.434376 303.625 33.746876Q304.98438 35.059376 305.14062 37.29375L305.15625 38.028126Q305.15625 40.45 303.79688 41.934376Q302.4375 43.403126 300.15625 43.403126Q297.875 43.403126 296.5 41.934376Q295.14062 40.465626 295.14062 37.95L295.14062 37.825ZM297.96875 38.028126Q297.96875 39.528126 298.53125 40.325Q299.09375 41.121876 300.15625 41.121876Q301.1875 41.121876 301.75 40.340626Q302.32812 39.54375 302.32812 37.825Q302.32812 36.340626 301.75 35.528126Q301.1875 34.715626 300.14062 34.715626Q299.09375 34.715626 298.53125 35.528126Q297.96875 36.340626 297.96875 38.028126ZM312.51562 35.278126Q311.95312 35.2 311.5 35.2Q309.90625 35.2 309.40625 36.278126L309.40625 43.2L306.57812 43.2L306.57812 32.6375L309.25 32.6375L309.32812 33.8875Q310.17188 32.434376 311.6875 32.434376Q312.15625 32.434376 312.5625 32.559376L312.51562 35.278126ZM324.51562 35.278126Q323.95312 35.2 323.5 35.2Q321.90625 35.2 321.40625 36.278126L321.40625 43.2L318.57812 43.2L318.57812 32.6375L321.25 32.6375L321.32812 33.8875Q322.17188 32.434376 323.6875 32.434376Q324.15625 32.434376 324.5625 32.559376L324.51562 35.278126ZM331.70312 43.2Q331.51562 42.825 331.42188 42.246876Q330.40625 43.403126 328.76562 43.403126Q327.20312 43.403126 326.1875 42.496876Q325.17188 41.590626 325.17188 40.23125Q325.17188 38.54375 326.40625 37.653126Q327.65625 36.746876 330.01562 36.746876L331.3125 36.746876L331.3125 36.1375Q331.3125 35.403126 330.9375 34.965626Q330.5625 34.528126 329.75 34.528126Q329.03125 34.528126 328.625 34.871876Q328.21875 35.215626 328.21875 35.809376L325.40625 35.809376Q325.40625 34.8875 325.96875 34.10625Q326.53125 33.325 327.5625 32.8875Q328.60938 32.434376 329.89062 32.434376Q331.84375 32.434376 332.98438 33.41875Q334.14062 34.403126 334.14062 36.184376L334.14062 40.7625Q334.15625 42.2625 334.5625 43.028126L334.5625 43.2L331.70312 43.2ZM329.375 41.23125Q330.0 41.23125 330.51562 40.965626Q331.04688 40.684376 331.3125 40.215626L331.3125 38.3875L330.25 38.3875Q328.14062 38.3875 328.0 39.85625L327.98438 40.028126Q327.98438 40.559376 328.35938 40.903126Q328.73438 41.23125 329.375 41.23125ZM340.98438 41.121876Q341.76562 41.121876 342.25 40.7Q342.73438 40.2625 342.75 39.54375L345.40625 39.54375Q345.39062 40.621876 344.8125 41.5125Q344.23438 42.403126 343.23438 42.903126Q342.23438 43.403126 341.03125 43.403126Q338.76562 43.403126 337.45312 41.965626Q336.14062 40.5125 336.14062 37.98125L336.14062 37.79375Q336.14062 35.340626 337.4375 33.8875Q338.75 32.434376 341.01562 32.434376Q342.98438 32.434376 344.1875 33.575Q345.39062 34.7 345.40625 36.575L342.75 36.575Q342.73438 35.746876 342.25 35.23125Q341.76562 34.715626 340.95312 34.715626Q339.96875 34.715626 339.46875 35.434376Q338.96875 36.153126 338.96875 37.7625L338.96875 38.059376Q338.96875 39.7 339.46875 40.41875Q339.96875 41.121876 340.98438 41.121876ZM341.875 43.1375L341.76562 43.7Q343.23438 43.965626 343.23438 45.3875Q343.23438 46.465626 342.32812 47.090626Q341.4375 47.715626 339.8125 47.715626L339.75 46.075Q340.84375 46.075 340.84375 45.29375Q340.84375 44.8875 340.51562 44.73125Q340.1875 44.575 339.45312 44.528126L339.76562 43.1375L341.875 43.1375ZM352.70312 43.2Q352.51562 42.825 352.42188 42.246876Q351.40625 43.403126 349.76562 43.403126Q348.20312 43.403126 347.1875 42.496876Q346.17188 41.590626 346.17188 40.23125Q346.17188 38.54375 347.40625 37.653126Q348.65625 36.746876 351.01562 36.746876L352.3125 36.746876L352.3125 36.1375Q352.3125 35.403126 351.9375 34.965626Q351.5625 34.528126 350.75 34.528126Q350.03125 34.528126 349.625 34.871876Q349.21875 35.215626 349.21875 35.809376L346.40625 35.809376Q346.40625 34.8875 346.96875 34.10625Q347.53125 33.325 348.5625 32.8875Q349.60938 32.434376 350.89062 32.434376Q352.84375 32.434376 353.98438 33.41875Q355.14062 34.403126 355.14062 36.184376L355.14062 40.7625Q355.15625 42.2625 355.5625 43.028126L355.5625 43.2L352.70312 43.2ZM350.375 41.23125Q351.0 41.23125 351.51562 40.965626Q352.04688 40.684376 352.3125 40.215626L352.3125 38.3875L351.25 38.3875Q349.14062 38.3875 349.0 39.85625L348.98438 40.028126Q348.98438 40.559376 349.35938 40.903126Q349.73438 41.23125 350.375 41.23125ZM358.46875 44.41875L356.375 44.41875L361.60938 28.98125L363.70312 28.98125L358.46875 44.41875ZM368.98438 41.121876Q369.76562 41.121876 370.25 40.7Q370.73438 40.2625 370.75 39.54375L373.40625 39.54375Q373.39062 40.621876 372.8125 41.5125Q372.23438 42.403126 371.23438 42.903126Q370.23438 43.403126 369.03125 43.403126Q366.76562 43.403126 365.45312 41.965626Q364.14062 40.5125 364.14062 37.98125L364.14062 37.79375Q364.14062 35.340626 365.4375 33.8875Q366.75 32.434376 369.01562 32.434376Q370.98438 32.434376 372.1875 33.575Q373.39062 34.7 373.40625 36.575L370.75 36.575Q370.73438 35.746876 370.25 35.23125Q369.76562 34.715626 368.95312 34.715626Q367.96875 34.715626 367.46875 35.434376Q366.96875 36.153126 366.96875 37.7625L366.96875 38.059376Q366.96875 39.7 367.46875 40.41875Q367.96875 41.121876 368.98438 41.121876ZM374.14062 37.825Q374.14062 36.246876 374.75 35.0125Q375.35938 33.778126 376.48438 33.10625Q377.625 32.434376 379.14062 32.434376Q381.28125 32.434376 382.625 33.746876Q383.98438 35.059376 384.14062 37.29375L384.15625 38.028126Q384.15625 40.45 382.79688 41.934376Q381.4375 43.403126 379.15625 43.403126Q376.875 43.403126 375.5 41.934376Q374.14062 40.465626 374.14062 37.95L374.14062 37.825ZM376.96875 38.028126Q376.96875 39.528126 377.53125 40.325Q378.09375 41.121876 379.15625 41.121876Q380.1875 41.121876 380.75 40.340626Q381.32812 39.54375 381.32812 37.825Q381.32812 36.340626 380.75 35.528126Q380.1875 34.715626 379.14062 34.715626Q378.09375 34.715626 377.53125 35.528126Q376.96875 36.340626 376.96875 38.028126ZM391.51562 35.278126Q390.95312 35.2 390.5 35.2Q388.90625 35.2 388.40625 36.278126L388.40625 43.2L385.57812 43.2L385.57812 32.6375L388.25 32.6375L388.32812 33.8875Q389.17188 32.434376 390.6875 32.434376Q391.15625 32.434376 391.5625 32.559376L391.51562 35.278126ZM397.71875 37.41875Q397.71875 35.184376 398.3125 33.16875Q398.90625 31.1375 400.0625 29.590626Q401.23438 28.028126 402.57812 27.41875L403.125 28.934376Q401.70312 29.996876 400.90625 32.2Q400.10938 34.403126 400.10938 37.35625L400.10938 37.66875Q400.10938 40.621876 400.89062 42.840626Q401.6875 45.059376 403.125 46.153126L402.57812 47.6375Q401.25 47.04375 400.10938 45.528126Q398.96875 44.028126 398.35938 42.059376Q397.75 40.090626 397.71875 37.934376L397.71875 37.41875ZM407.23438 32.6375L407.3125 33.809376Q408.4375 32.434376 410.35938 32.434376Q412.39062 32.434376 413.15625 34.04375Q414.26562 32.434376 416.32812 32.434376Q418.04688 32.434376 418.89062 33.434376Q419.73438 34.434376 419.73438 36.45L419.73438 43.2L416.90625 43.2L416.90625 36.465626Q416.90625 35.559376 416.54688 35.153126Q416.20312 34.73125 415.3125 34.73125Q414.03125 34.73125 413.54688 35.95L413.5625 43.2L410.73438 43.2L410.73438 36.465626Q410.73438 35.559376 410.375 35.153126Q410.01562 34.73125 409.14062 34.73125Q407.9375 34.73125 407.40625 35.73125L407.40625 43.2L404.57812 43.2L404.57812 32.6375L407.23438 32.6375ZM427.70312 43.2Q427.51562 42.825 427.42188 42.246876Q426.40625 43.403126 424.76562 43.403126Q423.20312 43.403126 422.1875 42.496876Q421.17188 41.590626 421.17188 40.23125Q421.17188 38.54375 422.40625 37.653126Q423.65625 36.746876 426.01562 36.746876L427.3125 36.746876L427.3125 36.1375Q427.3125 35.403126 426.9375 34.965626Q426.5625 34.528126 425.75 34.528126Q425.03125 34.528126 424.625 34.871876Q424.21875 35.215626 424.21875 35.809376L421.40625 35.809376Q421.40625 34.8875 421.96875 34.10625Q422.53125 33.325 423.5625 32.8875Q424.60938 32.434376 425.89062 32.434376Q427.84375 32.434376 428.98438 33.41875Q430.14062 34.403126 430.14062 36.184376L430.14062 40.7625Q430.15625 42.2625 430.5625 43.028126L430.5625 43.2L427.70312 43.2ZM425.375 41.23125Q426.0 41.23125 426.51562 40.965626Q427.04688 40.684376 427.3125 40.215626L427.3125 38.3875L426.25 38.3875Q424.14062 38.3875 424.0 39.85625L423.98438 40.028126Q423.98438 40.559376 424.35938 40.903126Q424.73438 41.23125 425.375 41.23125ZM438.3125 40.278126Q438.3125 39.7625 437.79688 39.465626Q437.28125 39.16875 436.15625 38.934376Q432.375 38.1375 432.375 35.73125Q432.375 34.325 433.54688 33.3875Q434.71875 32.434376 436.59375 32.434376Q438.60938 32.434376 439.8125 33.3875Q441.01562 34.325 441.01562 35.840626L438.20312 35.840626Q438.20312 35.246876 437.8125 34.85625Q437.42188 34.45 436.59375 34.45Q435.875 34.45 435.48438 34.778126Q435.09375 35.090626 435.09375 35.590626Q435.09375 36.059376 435.53125 36.35625Q435.98438 36.6375 437.03125 36.85625Q438.09375 37.059376 438.8125 37.325Q441.04688 38.1375 441.04688 40.16875Q441.04688 41.60625 439.8125 42.5125Q438.57812 43.403126 436.60938 43.403126Q435.28125 43.403126 434.25 42.934376Q433.21875 42.45 432.625 41.621876Q432.04688 40.79375 432.04688 39.840626L434.71875 39.840626Q434.76562 40.590626 435.28125 40.996876Q435.79688 41.3875 436.67188 41.3875Q437.48438 41.3875 437.89062 41.090626Q438.3125 40.778126 438.3125 40.278126ZM446.98438 41.121876Q447.76562 41.121876 448.25 40.7Q448.73438 40.2625 448.75 39.54375L451.40625 39.54375Q451.39062 40.621876 450.8125 41.5125Q450.23438 42.403126 449.23438 42.903126Q448.23438 43.403126 447.03125 43.403126Q444.76562 43.403126 443.45312 41.965626Q442.14062 40.5125 442.14062 37.98125L442.14062 37.79375Q442.14062 35.340626 443.4375 33.8875Q444.75 32.434376 447.01562 32.434376Q448.98438 32.434376 450.1875 33.575Q451.39062 34.7 451.40625 36.575L448.75 36.575Q448.73438 35.746876 448.25 35.23125Q447.76562 34.715626 446.95312 34.715626Q445.96875 34.715626 445.46875 35.434376Q444.96875 36.153126 444.96875 37.7625L444.96875 38.059376Q444.96875 39.7 445.46875 40.41875Q445.96875 41.121876 446.98438 41.121876ZM458.90625 42.121876Q457.875 43.403126 456.01562 43.403126Q454.32812 43.403126 453.42188 42.41875Q452.53125 41.434376 452.51562 39.559376L452.51562 32.6375L455.34375 32.6375L455.34375 39.465626Q455.34375 41.10625 456.84375 41.10625Q458.28125 41.10625 458.8125 40.10625L458.8125 32.6375L461.64062 32.6375L461.64062 43.2L458.98438 43.2L458.90625 42.121876ZM466.5625 43.2L463.73438 43.2L463.73438 28.2L466.5625 28.2L466.5625 43.2ZM471.5625 43.2L468.73438 43.2L468.73438 32.6375L471.5625 32.6375L471.5625 43.2ZM468.5625 29.903126Q468.5625 29.2625 468.98438 28.85625Q469.42188 28.45 470.14062 28.45Q470.875 28.45 471.29688 28.85625Q471.73438 29.2625 471.73438 29.903126Q471.73438 30.54375 471.29688 30.95Q470.85938 31.35625 470.14062 31.35625Q469.4375 31.35625 469.0 30.95Q468.5625 30.54375 468.5625 29.903126ZM476.1875 32.6375L476.26562 33.85625Q477.40625 32.434376 479.3125 32.434376Q480.98438 32.434376 481.79688 33.41875Q482.625 34.403126 482.64062 36.371876L482.64062 43.2L479.82812 43.2L479.82812 36.434376Q479.82812 35.54375 479.4375 35.1375Q479.04688 34.73125 478.14062 34.73125Q476.9375 34.73125 476.34375 35.746876L476.34375 43.2L473.53125 43.2L473.53125 32.6375L476.1875 32.6375ZM484.14062 37.825Q484.14062 36.246876 484.75 35.0125Q485.35938 33.778126 486.48438 33.10625Q487.625 32.434376 489.14062 32.434376Q491.28125 32.434376 492.625 33.746876Q493.98438 35.059376 494.14062 37.29375L494.15625 38.028126Q494.15625 40.45 492.79688 41.934376Q491.4375 43.403126 489.15625 43.403126Q486.875 43.403126 485.5 41.934376Q484.14062 40.465626 484.14062 37.95L484.14062 37.825ZM486.96875 38.028126Q486.96875 39.528126 487.53125 40.325Q488.09375 41.121876 489.15625 41.121876Q490.1875 41.121876 490.75 40.340626Q491.32812 39.54375 491.32812 37.825Q491.32812 36.340626 490.75 35.528126Q490.1875 34.715626 489.14062 34.715626Q488.09375 34.715626 487.53125 35.528126Q486.96875 36.340626 486.96875 38.028126ZM505.45312 43.403126Q503.125 43.403126 501.65625 41.98125Q500.20312 40.54375 500.20312 38.16875L500.20312 37.903126Q500.20312 36.309376 500.8125 35.059376Q501.4375 33.79375 502.5625 33.121876Q503.6875 32.434376 505.14062 32.434376Q507.29688 32.434376 508.54688 33.809376Q509.79688 35.16875 509.79688 37.684376L509.79688 38.840626L503.0625 38.840626Q503.20312 39.871876 503.89062 40.496876Q504.57812 41.121876 505.64062 41.121876Q507.26562 41.121876 508.1875 39.934376L509.5625 41.496876Q508.9375 42.3875 507.84375 42.903126Q506.76562 43.403126 505.45312 43.403126ZM505.125 34.715626Q504.28125 34.715626 503.75 35.29375Q503.23438 35.85625 503.09375 36.903126L507.01562 36.903126L507.01562 36.684376Q507.0 35.746876 506.51562 35.23125Q506.03125 34.715626 505.125 34.715626ZM517.3594 43.2L517.3594 34.7L515.78125 34.7L515.78125 32.6375L517.3594 32.6375L517.3594 31.73125Q517.3594 29.95 518.375 28.98125Q519.3906 27.996876 521.2344 27.996876Q521.8125 27.996876 522.6719 28.184376L522.6406 30.371876Q522.28125 30.29375 521.78125 30.29375Q520.1875 30.29375 520.1875 31.778126L520.1875 32.6375L522.28125 32.6375L522.28125 34.7L520.1875 34.7L520.1875 43.2L517.3594 43.2ZM528.4531 43.403126Q526.125 43.403126 524.65625 41.98125Q523.2031 40.54375 523.2031 38.16875L523.2031 37.903126Q523.2031 36.309376 523.8125 35.059376Q524.4375 33.79375 525.5625 33.121876Q526.6875 32.434376 528.1406 32.434376Q530.2969 32.434376 531.5469 33.809376Q532.7969 35.16875 532.7969 37.684376L532.7969 38.840626L526.0625 38.840626Q526.2031 39.871876 526.8906 40.496876Q527.5781 41.121876 528.6406 41.121876Q530.2656 41.121876 531.1875 39.934376L532.5625 41.496876Q531.9375 42.3875 530.84375 42.903126Q529.7656 43.403126 528.4531 43.403126ZM528.125 34.715626Q527.28125 34.715626 526.75 35.29375Q526.2344 35.85625 526.09375 36.903126L530.0156 36.903126L530.0156 36.684376Q530.0 35.746876 529.5156 35.23125Q529.03125 34.715626 528.125 34.715626ZM537.2344 32.6375L537.3125 33.809376Q538.4375 32.434376 540.3594 32.434376Q542.3906 32.434376 543.15625 34.04375Q544.2656 32.434376 546.3281 32.434376Q548.0469 32.434376 548.8906 33.434376Q549.7344 34.434376 549.7344 36.45L549.7344 43.2L546.90625 43.2L546.90625 36.465626Q546.90625 35.559376 546.5469 35.153126Q546.2031 34.73125 545.3125 34.73125Q544.03125 34.73125 543.5469 35.95L543.5625 43.2L540.7344 43.2L540.7344 36.465626Q540.7344 35.559376 540.375 35.153126Q540.0156 34.73125 539.1406 34.73125Q537.9375 34.73125 537.40625 35.73125L537.40625 43.2L534.5781 43.2L534.5781 32.6375L537.2344 32.6375ZM554.5625 43.2L551.7344 43.2L551.7344 32.6375L554.5625 32.6375L554.5625 43.2ZM551.5625 29.903126Q551.5625 29.2625 551.9844 28.85625Q552.4219 28.45 553.1406 28.45Q553.875 28.45 554.2969 28.85625Q554.7344 29.2625 554.7344 29.903126Q554.7344 30.54375 554.2969 30.95Q553.8594 31.35625 553.1406 31.35625Q552.4375 31.35625 552.0 30.95Q551.5625 30.54375 551.5625 29.903126ZM559.1875 32.6375L559.2656 33.85625Q560.40625 32.434376 562.3125 32.434376Q563.9844 32.434376 564.7969 33.41875Q565.625 34.403126 565.6406 36.371876L565.6406 43.2L562.8281 43.2L562.8281 36.434376Q562.8281 35.54375 562.4375 35.1375Q562.0469 34.73125 561.1406 34.73125Q559.9375 34.73125 559.34375 35.746876L559.34375 43.2L556.53125 43.2L556.53125 32.6375L559.1875 32.6375ZM570.5625 43.2L567.7344 43.2L567.7344 32.6375L570.5625 32.6375L570.5625 43.2ZM567.5625 29.903126Q567.5625 29.2625 567.9844 28.85625Q568.4219 28.45 569.1406 28.45Q569.875 28.45 570.2969 28.85625Q570.7344 29.2625 570.7344 29.903126Q570.7344 30.54375 570.2969 30.95Q569.8594 31.35625 569.1406 31.35625Q568.4375 31.35625 568.0 30.95Q567.5625 30.54375 567.5625 29.903126ZM575.1875 32.6375L575.2656 33.85625Q576.40625 32.434376 578.3125 32.434376Q579.9844 32.434376 580.7969 33.41875Q581.625 34.403126 581.6406 36.371876L581.6406 43.2L578.8281 43.2L578.8281 36.434376Q578.8281 35.54375 578.4375 35.1375Q578.0469 34.73125 577.1406 34.73125Q575.9375 34.73125 575.34375 35.746876L575.34375 43.2L572.53125 43.2L572.53125 32.6375L575.1875 32.6375ZM583.1406 37.825Q583.1406 36.246876 583.75 35.0125Q584.3594 33.778126 585.4844 33.10625Q586.625 32.434376 588.1406 32.434376Q590.28125 32.434376 591.625 33.746876Q592.9844 35.059376 593.1406 37.29375L593.15625 38.028126Q593.15625 40.45 591.7969 41.934376Q590.4375 43.403126 588.15625 43.403126Q585.875 43.403126 584.5 41.934376Q583.1406 40.465626 583.1406 37.95L583.1406 37.825ZM585.96875 38.028126Q585.96875 39.528126 586.53125 40.325Q587.09375 41.121876 588.15625 41.121876Q589.1875 41.121876 589.75 40.340626Q590.3281 39.54375 590.3281 37.825Q590.3281 36.340626 589.75 35.528126Q589.1875 34.715626 588.1406 34.715626Q587.09375 34.715626 586.53125 35.528126Q585.96875 36.340626 585.96875 38.028126ZM599.4531 37.6375Q599.4531 39.85625 598.8125 41.903126Q598.1719 43.934376 596.9844 45.496876Q595.7969 47.059376 594.4375 47.6375L593.8906 46.153126Q595.28125 45.10625 596.0781 42.934376Q596.875 40.746876 596.90625 37.91875L596.90625 37.403126Q596.90625 34.48125 596.1094 32.2625Q595.3125 30.028126 593.8906 28.91875L594.4375 27.41875Q595.7656 27.996876 596.9375 29.5125Q598.125 31.028126 598.7656 33.04375Q599.4219 35.04375 599.4531 37.2L599.4531 37.6375Z"
     fill-rule="nonzero"
     id="path173" />
  <text
     xml:space="preserve"
     style="font-style:normal;font-variant:normal;font-weight:normal;font-stretch:normal;font-size:12.8508px;line-height:1.25;font-family:Georgia;-inkscape-font-specification:Georgia;letter-spacing:0px;word-spacing:0px;opacity:0.338129;fill:#000000;stroke-width:0.150595"
     x="219.92531"
     y="481.70914"
     id="text897"
     transform="scale(1.0229029,0.9776099)"><tspan
       sodipodi:role="line"
       id="tspan895"
       x="219.92531"
       y="481.70914"
       style="font-style:normal;font-variant:normal;font-weight:normal;font-stretch:normal;font-family:'Andale Mono';-inkscape-font-specification:'Andale Mono';fill:#000000;stroke-width:0.150595">fonte: jhoonb.github.io/maracaju-eleicao-2020</tspan></text>
</svg>
