<?xml version="1.0" encoding="UTF-8" standalone="no"?>
<svg
   xmlns:dc="http://purl.org/dc/elements/1.1/"
   xmlns:cc="http://creativecommons.org/ns#"
   xmlns:rdf="http://www.w3.org/1999/02/22-rdf-syntax-ns#"
   xmlns:svg="http://www.w3.org/2000/svg"
   xmlns="http://www.w3.org/2000/svg"
   xmlns:sodipodi="http://sodipodi.sourceforge.net/DTD/sodipodi-0.dtd"
   xmlns:inkscape="http://www.inkscape.org/namespaces/inkscape"
   version="1.1"
   viewBox="0.0 0.0 600.0 371.0"
   fill="none"
   stroke="none"
   stroke-linecap="square"
   stroke-miterlimit="10"
   width="600"
   height="371"
   id="svg64"
   sodipodi:docname="Candidatos_por_cor_raca.svg"
   inkscape:version="1.0.1 (3bc2e813f5, 2020-09-07)">
  <metadata
     id="metadata70">
    <rdf:RDF>
      <cc:Work
         rdf:about="">
        <dc:format>image/svg+xml</dc:format>
        <dc:type
           rdf:resource="http://purl.org/dc/dcmitype/StillImage" />
      </cc:Work>
    </rdf:RDF>
  </metadata>
  <defs
     id="defs68" />
  <sodipodi:namedview
     pagecolor="#ffffff"
     bordercolor="#666666"
     borderopacity="1"
     objecttolerance="10"
     gridtolerance="10"
     guidetolerance="10"
     inkscape:pageopacity="0"
     inkscape:pageshadow="2"
     inkscape:window-width="1366"
     inkscape:window-height="704"
     id="namedview66"
     showgrid="false"
     inkscape:zoom="0.77628032"
     inkscape:cx="397.1107"
     inkscape:cy="64.270789"
     inkscape:window-x="0"
     inkscape:window-y="27"
     inkscape:window-maximized="1"
     inkscape:current-layer="svg64"
     inkscape:document-rotation="0" />
  <path
     fill="#ffffff"
     d="M0 0L600.0 0L600.0 371.0L0 371.0L0 0Z"
     fill-rule="nonzero"
     id="path2" />
  <path
     fill="#24763a"
     d="M297.00488 140.49973C298.00275 140.47157 299.0013 140.4575 300.0 140.4575L300.0 162.7725C299.0013 162.7725 298.00275 162.78658 297.00488 162.81473Z"
     fill-rule="nonzero"
     id="path4" />
  <path
     fill="#34a853"
     d="M294.00977 88.473625C296.0055 88.41732 298.00266 88.38917 300.0 88.38917L300.0 140.4575C299.0013 140.4575 298.00275 140.47157 297.00488 140.49973Z"
     fill-rule="nonzero"
     id="path6" />
  <path
     fill="#b08403"
     d="M262.80832 147.43333C273.23734 143.2185 284.9723 140.83916 297.00488 140.49973L297.00488 162.81473C284.9723 163.15416 273.23734 165.53351 262.80832 169.74834Z"
     fill-rule="nonzero"
     id="path8" />
  <path
     fill="#fbbc04"
     d="M225.61667 102.340836C246.47466 93.91118 269.94458 89.15248 294.00977 88.473625L297.00488 140.49973C284.9723 140.83916 273.23734 143.2185 262.80832 147.43333Z"
     fill-rule="nonzero"
     id="path10" />
  <path
     fill="#a42f25"
     d="M252.89037 313.61826C192.17616 299.4297 151.23334 259.64664 151.23334 214.84084L151.23334 192.52583C151.23334 237.33163 192.17616 277.1147 252.89037 291.30325Z"
     fill-rule="nonzero"
     id="path12" />
  <path
     fill="#a42f25"
     d="M225.61667 192.52583C225.61667 173.92361 239.79405 156.73445 262.80832 147.43333L262.80832 169.74834C239.79405 179.04944 225.61667 196.23862 225.61667 214.84084Z"
     fill-rule="nonzero"
     id="path14" />
  <path
     fill="#ea4335"
     d="M252.89037 291.30325C197.36455 278.32718 157.87126 243.76318 151.98686 202.99387C146.10246 162.22453 174.92093 122.82928 225.61667 102.340836L262.80832 147.43333C237.46046 157.67755 223.05124 177.37518 225.99342 197.75984C228.93562 218.14452 248.68228 235.42651 276.4452 241.91455Z"
     fill-rule="nonzero"
     id="path16" />
  <path
     fill="#2e5dab"
     d="M448.76666 214.84084C448.76666 248.32341 425.76743 279.7637 386.9574 299.33502C348.14737 318.9063 298.261 324.22113 252.89037 313.61826L252.89037 291.30325C298.261 301.90613 348.14737 296.5913 386.9574 277.02002C425.76743 257.44873 448.76666 226.0084 448.76666 192.52583Z"
     fill-rule="nonzero"
     id="path18" />
  <path
     fill="#2e5dab"
     d="M300.0 140.4575C341.08078 140.4575 374.38333 163.76929 374.38333 192.52583L374.38333 214.84084C374.38333 186.08429 341.08078 162.7725 300.0 162.7725Z"
     fill-rule="nonzero"
     id="path20" />
  <path
     fill="#4285f4"
     d="M300.0 88.38917C358.90045 88.38917 412.2547 112.71457 436.0671 150.42523C459.87952 188.1359 449.6656 232.12996 410.019 262.62146C370.3724 293.11295 308.75958 304.3596 252.89037 291.30325L276.4452 241.91455C304.3798 248.4427 335.18622 242.8194 355.0095 227.57364C374.8328 212.3279 379.93976 190.33087 368.03354 171.47554C356.12735 152.6202 329.45023 140.4575 300.0 140.4575Z"
     fill-rule="nonzero"
     id="path22" />
  <path
     fill="#000000"
     d="M415.56165 202.95396Q415.56165 203.68834 415.18665 204.25084Q414.82727 204.79771 414.18665 205.14146Q414.92102 205.48521 415.3429 206.09459Q415.76477 206.70396 415.76477 207.53209Q415.76477 208.86021 414.85852 209.64146Q413.9679 210.40709 412.4054 210.40709Q410.85852 210.40709 409.95227 209.64146Q409.04602 208.86021 409.04602 207.53209Q409.04602 206.70396 409.4679 206.09459Q409.88977 205.48521 410.60852 205.14146Q409.9679 204.79771 409.60852 204.25084Q409.24915 203.68834 409.24915 202.95396Q409.24915 201.68834 410.0929 200.93834Q410.95227 200.17271 412.4054 200.17271Q413.85852 200.17271 414.70227 200.92271Q415.56165 201.67271 415.56165 202.95396ZM413.7804 207.39146Q413.7804 206.75084 413.4054 206.36021Q413.0304 205.96959 412.38977 205.96959Q411.76477 205.96959 411.38977 206.36021Q411.01477 206.73521 411.01477 207.39146Q411.01477 208.03209 411.37415 208.42271Q411.74915 208.81334 412.4054 208.81334Q413.04602 208.81334 413.4054 208.43834Q413.7804 208.06334 413.7804 207.39146ZM413.57727 203.04771Q413.57727 202.46959 413.26477 202.12584Q412.9679 201.76646 412.4054 201.76646Q411.8429 201.76646 411.5304 202.11021Q411.23352 202.45396 411.23352 203.04771Q411.23352 203.64146 411.5304 204.01646Q411.8429 204.37584 412.4054 204.37584Q412.9679 204.37584 413.26477 204.01646Q413.57727 203.64146 413.57727 203.04771ZM422.42102 200.20396L422.42102 201.84459L422.23352 201.84459Q420.88977 201.86021 420.07727 202.53209Q419.26477 203.20396 419.0929 204.40709Q419.88977 203.61021 421.0929 203.61021Q422.4054 203.61021 423.17102 204.54771Q423.93665 205.46959 423.93665 206.98521Q423.93665 207.95396 423.51477 208.75084Q423.0929 209.53209 422.31165 209.96959Q421.54602 210.40709 420.57727 210.40709Q419.01477 210.40709 418.04602 209.31334Q417.07727 208.21959 417.07727 206.39146L417.07727 205.67271Q417.07727 204.06334 417.68665 202.82896Q418.29602 201.57896 419.43665 200.90709Q420.5929 200.21959 422.0929 200.20396L422.42102 200.20396ZM420.49915 205.18834Q420.01477 205.18834 419.62415 205.43834Q419.23352 205.68834 419.06165 206.11021L419.06165 206.70396Q419.06165 207.68834 419.45227 208.25084Q419.8429 208.81334 420.54602 208.81334Q421.17102 208.81334 421.56165 208.31334Q421.9679 207.79771 421.9679 207.00084Q421.9679 206.18834 421.56165 205.68834Q421.17102 205.18834 420.49915 205.18834Z"
     fill-rule="nonzero"
     id="path24" />
  <path
     fill="#000000"
     d="M174.1747 200.53676L174.75282 195.47426L180.33095 195.47426L180.33095 197.11488L176.37782 197.11488L176.12782 199.25551Q176.83095 198.88051 177.62782 198.88051Q179.0497 198.88051 179.84657 199.77113Q180.65907 200.64613 180.65907 202.23988Q180.65907 203.19301 180.25282 203.95863Q179.84657 204.72426 179.08095 205.14613Q178.33095 205.56801 177.2997 205.56801Q176.39345 205.56801 175.6122 205.20863Q174.84657 204.83363 174.39345 204.17738Q173.95595 203.50551 173.9247 202.66176L175.87782 202.66176Q175.94032 203.28676 176.31532 203.63051Q176.69032 203.97426 177.28407 203.97426Q177.95595 203.97426 178.31532 203.48988Q178.6747 203.00551 178.6747 202.13051Q178.6747 201.27113 178.25282 200.83363Q177.84657 200.38051 177.08095 200.38051Q176.37782 200.38051 175.94032 200.73988L175.75282 200.92738L174.1747 200.53676ZM188.64345 196.58363L184.7997 205.42738L182.72157 205.42738L186.56532 197.06801L181.62782 197.06801L181.62782 195.47426L188.64345 195.47426L188.64345 196.58363Z"
     fill-rule="nonzero"
     id="path26" />
  <path
     fill="#000000"
     d="M266.42664 122.006966L264.4579 122.006966L264.4579 114.39759L262.0985 115.11634L262.0985 113.52259L266.2235 112.038216L266.42664 112.038216L266.42664 122.006966ZM276.4579 122.006966L269.62976 122.006966L269.62976 120.64759L272.8485 117.225716Q273.5204 116.49134 273.8329 115.96009Q274.161 115.413216 274.161 114.92884Q274.161 114.27259 273.81726 113.89759Q273.48914 113.506966 272.86414 113.506966Q272.19226 113.506966 271.80164 113.975716Q271.42664 114.42884 271.42664 115.17884L269.44226 115.17884Q269.44226 114.27259 269.86414 113.52259Q270.30164 112.77259 271.0985 112.350716Q271.8954 111.913216 272.8954 111.913216Q274.42664 111.913216 275.2704 112.663216Q276.12976 113.39759 276.12976 114.74134Q276.12976 115.475716 275.73914 116.24134Q275.36414 117.006966 274.44226 118.02259L272.17664 120.413216L276.4579 120.413216L276.4579 122.006966Z"
     fill-rule="nonzero"
     id="path28" />
  <path
     fill="#1a1a1a"
     d="M21.175 74.559L19.425 74.559L19.425 66.02775L21.175 66.02775L21.175 74.559ZM30.253124 74.559L28.4875 74.559L25.065624 68.94962L25.065624 74.559L23.315624 74.559L23.315624 66.02775L25.065624 66.02775L28.503124 71.65275L28.503124 66.02775L30.253124 66.02775L30.253124 74.559ZM31.315624 74.559L31.315624 66.02775L33.940624 66.02775Q35.065624 66.02775 35.940624 66.54337Q36.83125 67.04337 37.33125 67.98087Q37.83125 68.90275 37.83125 70.10587L37.83125 70.4965Q37.83125 71.684 37.346874 72.60587Q36.8625 73.52775 35.971874 74.04337Q35.08125 74.559 33.95625 74.559L31.315624 74.559ZM33.065624 67.44962L33.065624 73.15275L33.925 73.15275Q34.95625 73.15275 35.4875 72.48087Q36.034374 71.79337 36.05 70.54337L36.05 70.09025Q36.05 68.79337 35.503124 68.1215Q34.971874 67.44962 33.940624 67.44962L33.065624 67.44962ZM41.175 74.559L39.425 74.559L39.425 66.02775L41.175 66.02775L41.175 74.559ZM40.3 63.559L42.14375 63.559L40.51875 65.3715L39.14375 65.3715L40.3 63.559ZM50.065624 73.48087Q49.58125 74.04337 48.70625 74.3715Q47.846874 74.684 46.8 74.684Q45.690624 74.684 44.846874 74.19962Q44.01875 73.71525 43.565624 72.79337Q43.1125 71.8715 43.096874 70.6215L43.096874 70.04337Q43.096874 68.76212 43.51875 67.84025Q43.95625 66.90275 44.76875 66.40275Q45.58125 65.90275 46.675 65.90275Q48.190624 65.90275 49.05 66.63712Q49.909374 67.35587 50.065624 68.7465L48.346874 68.7465Q48.2375 68.01212 47.83125 67.66837Q47.425 67.32462 46.721874 67.32462Q45.83125 67.32462 45.3625 67.9965Q44.89375 68.66837 44.89375 70.01212L44.89375 70.54337Q44.89375 71.88712 45.39375 72.57462Q45.909374 73.26212 46.89375 73.26212Q47.878124 73.26212 48.3 72.84025L48.3 71.3715L46.70625 71.3715L46.70625 70.07462L50.065624 70.07462L50.065624 73.48087ZM56.440624 70.85587L53.065624 70.85587L53.065624 73.15275L57.034374 73.15275L57.034374 74.559L51.315624 74.559L51.315624 66.02775L57.01875 66.02775L57.01875 67.44962L53.065624 67.44962L53.065624 69.48087L56.440624 69.48087L56.440624 70.85587ZM65.25313 74.559L63.4875 74.559L60.065624 68.94962L60.065624 74.559L58.315624 74.559L58.315624 66.02775L60.065624 66.02775L63.503124 71.65275L63.503124 66.02775L65.25313 66.02775L65.25313 74.559ZM71.12813 72.79337L68.05 72.79337L67.45625 74.559L65.59688 74.559L68.76875 66.02775L70.39375 66.02775L73.59688 74.559L71.72188 74.559L71.12813 72.79337ZM68.51875 71.3715L70.65938 71.3715L69.58125 68.184L68.51875 71.3715Z"
     fill-rule="nonzero"
     id="path30" />
  <path
     fill="#9e9e9e"
     d="M24.878124 89.02775Q24.878124 90.79337 24.14375 91.7465Q23.409374 92.684 22.003124 92.684Q20.596874 92.684 19.8625 91.76212Q19.128124 90.84025 19.1125 89.1215L19.1125 87.54337Q19.1125 85.76212 19.846874 84.84025Q20.596874 83.90275 21.9875 83.90275Q23.378124 83.90275 24.1125 84.82462Q24.8625 85.7465 24.878124 87.46525L24.878124 89.02775ZM23.175 87.309Q23.175 86.2465 22.878124 85.76212Q22.596874 85.27775 21.9875 85.27775Q21.39375 85.27775 21.096874 85.7465Q20.815624 86.19962 20.8 87.184L20.8 89.2465Q20.8 90.29337 21.08125 90.809Q21.3625 91.309 22.003124 91.309Q22.6125 91.309 22.89375 90.82462Q23.175 90.34025 23.175 89.34025L23.175 87.309ZM26.64375 94.69962L25.753124 94.23087L25.971874 93.85587Q26.3625 93.13712 26.378124 92.434L26.378124 91.1215L27.8 91.1215L27.8 92.29337Q27.784374 92.934 27.45625 93.59025Q27.14375 94.26212 26.64375 94.69962ZM33.721874 83.934L33.721874 85.34025L33.565624 85.34025Q32.409374 85.35587 31.70625 85.934Q31.01875 86.51212 30.878124 87.54337Q31.55 86.85587 32.58125 86.85587Q33.70625 86.85587 34.3625 87.65275Q35.01875 88.44962 35.01875 89.7465Q35.01875 90.57462 34.659374 91.2465Q34.3 91.91837 33.628124 92.309Q32.971874 92.684 32.14375 92.684Q30.8 92.684 29.971874 91.7465Q29.14375 90.79337 29.14375 89.23087L29.14375 88.6215Q29.14375 87.23087 29.659374 86.16837Q30.190624 85.10587 31.159374 84.52775Q32.14375 83.94962 33.440624 83.934L33.721874 83.934ZM32.065624 88.21525Q31.659374 88.21525 31.315624 88.434Q30.9875 88.63712 30.83125 88.9965L30.83125 89.51212Q30.83125 90.35587 31.159374 90.84025Q31.503124 91.309 32.1125 91.309Q32.659374 91.309 32.9875 90.88712Q33.33125 90.44962 33.33125 89.76212Q33.33125 89.059 32.9875 88.63712Q32.64375 88.21525 32.065624 88.21525ZM36.1125 85.66837Q36.1125 84.88712 36.6125 84.40275Q37.128124 83.90275 37.95625 83.90275Q38.784374 83.90275 39.3 84.38712Q39.815624 84.8715 39.815624 85.69962L39.815624 86.1215Q39.815624 86.90275 39.3 87.38712Q38.784374 87.8715 37.971874 87.8715Q37.128124 87.8715 36.6125 87.38712Q36.1125 86.90275 36.1125 86.09025L36.1125 85.66837ZM37.2375 86.1215Q37.2375 86.46525 37.440624 86.684Q37.64375 86.90275 37.971874 86.90275Q38.3 86.90275 38.4875 86.684Q38.675 86.46525 38.675 86.10587L38.675 85.66837Q38.675 85.309 38.4875 85.10587Q38.3 84.88712 37.95625 84.88712Q37.628124 84.88712 37.425 85.10587Q37.2375 85.309 37.2375 85.684L37.2375 86.1215ZM40.190624 90.46525Q40.190624 89.66837 40.70625 89.19962Q41.221874 88.71525 42.034374 88.71525Q42.8625 88.71525 43.378124 89.19962Q43.89375 89.66837 43.89375 90.4965L43.89375 90.91837Q43.89375 91.71525 43.39375 92.19962Q42.89375 92.684 42.05 92.684Q41.20625 92.684 40.690624 92.19962Q40.190624 91.69962 40.190624 90.90275L40.190624 90.46525ZM41.315624 90.91837Q41.315624 91.2465 41.51875 91.48087Q41.7375 91.69962 42.05 91.69962Q42.76875 91.69962 42.76875 90.91837L42.76875 90.46525Q42.76875 90.1215 42.565624 89.90275Q42.3625 89.684 42.034374 89.684Q41.70625 89.684 41.503124 89.90275Q41.315624 90.1215 41.315624 90.48087L41.315624 90.91837ZM38.3 91.91837L37.471874 91.48087L41.64375 84.809L42.471874 85.2465L38.3 91.91837Z"
     fill-rule="nonzero"
     id="path32" />
  <path
     stroke="#757575"
     stroke-width="1.0"
     stroke-linecap="butt"
     d="M18.55 79.059L145.23334 79.059L297.15405 93.61606"
     fill-rule="nonzero"
     id="path34" />
  <path
     fill="#9e9e9e"
     d="M299.15405 93.61606C299.15405 92.51149 298.25864 91.61606 297.15405 91.61606C296.0495 91.61606 295.15405 92.51149 295.15405 93.61606C295.15405 94.72063 296.0495 95.61606 297.15405 95.61606C298.25864 95.61606 299.15405 94.72063 299.15405 93.61606"
     fill-rule="nonzero"
     id="path36" />
  <path
     fill="#1a1a1a"
     d="M21.065624 104.559L21.065624 107.559L19.315624 107.559L19.315624 99.02775L22.64375 99.02775Q23.596874 99.02775 24.33125 99.38712Q25.065624 99.73087 25.45625 100.38712Q25.846874 101.02775 25.846874 101.85587Q25.846874 103.10587 24.9875 103.84025Q24.128124 104.559 22.6125 104.559L21.065624 104.559ZM21.065624 103.1215L22.64375 103.1215Q23.33125 103.1215 23.690624 102.79337Q24.065624 102.46525 24.065624 101.85587Q24.065624 101.23087 23.690624 100.85587Q23.33125 100.46525 22.675 100.44962L21.065624 100.44962L21.065624 103.1215ZM30.471874 104.434L29.065624 104.434L29.065624 107.559L27.315624 107.559L27.315624 99.02775L30.4875 99.02775Q31.9875 99.02775 32.8 99.69962Q33.628124 100.3715 33.628124 101.60587Q33.628124 102.48087 33.253124 103.059Q32.878124 103.63712 32.1125 103.9965L33.95625 107.48087L33.95625 107.559L32.065624 107.559L30.471874 104.434ZM29.065624 103.01212L30.4875 103.01212Q31.14375 103.01212 31.503124 102.684Q31.878124 102.34025 31.878124 101.7465Q31.878124 101.13712 31.534374 100.79337Q31.190624 100.44962 30.4875 100.44962L29.065624 100.44962L29.065624 103.01212ZM40.440624 103.85587L37.065624 103.85587L37.065624 106.15275L41.034374 106.15275L41.034374 107.559L35.315624 107.559L35.315624 99.02775L41.01875 99.02775L41.01875 100.44962L37.065624 100.44962L37.065624 102.48087L40.440624 102.48087L40.440624 103.85587ZM48.7375 100.44962L46.128124 100.44962L46.128124 107.559L44.3625 107.559L44.3625 100.44962L41.784374 100.44962L41.784374 99.02775L48.7375 99.02775L48.7375 100.44962ZM54.128124 105.79337L51.05 105.79337L50.45625 107.559L48.596874 107.559L51.76875 99.02775L53.39375 99.02775L56.596874 107.559L54.721874 107.559L54.128124 105.79337ZM51.51875 104.3715L53.659374 104.3715L52.58125 101.184L51.51875 104.3715Z"
     fill-rule="nonzero"
     id="path38" />
  <path
     fill="#9e9e9e"
     d="M24.925 117.98087L21.628124 125.559L19.846874 125.559L23.14375 118.40275L18.909374 118.40275L18.909374 117.02775L24.925 117.02775L24.925 117.98087ZM26.64375 127.69962L25.753124 127.23087L25.971874 126.85587Q26.3625 126.13712 26.378124 125.434L26.378124 124.1215L27.8 124.1215L27.8 125.29337Q27.784374 125.934 27.45625 126.59025Q27.14375 127.26212 26.64375 127.69962ZM34.925 117.98087L31.628124 125.559L29.846874 125.559L33.14375 118.40275L28.909374 118.40275L28.909374 117.02775L34.925 117.02775L34.925 117.98087ZM36.1125 118.66837Q36.1125 117.88712 36.6125 117.40275Q37.128124 116.90275 37.95625 116.90275Q38.784374 116.90275 39.3 117.38712Q39.815624 117.8715 39.815624 118.69962L39.815624 119.1215Q39.815624 119.90275 39.3 120.38712Q38.784374 120.8715 37.971874 120.8715Q37.128124 120.8715 36.6125 120.38712Q36.1125 119.90275 36.1125 119.09025L36.1125 118.66837ZM37.2375 119.1215Q37.2375 119.46525 37.440624 119.684Q37.64375 119.90275 37.971874 119.90275Q38.3 119.90275 38.4875 119.684Q38.675 119.46525 38.675 119.10587L38.675 118.66837Q38.675 118.309 38.4875 118.10587Q38.3 117.88712 37.95625 117.88712Q37.628124 117.88712 37.425 118.10587Q37.2375 118.309 37.2375 118.684L37.2375 119.1215ZM40.190624 123.46525Q40.190624 122.66837 40.70625 122.19962Q41.221874 121.71525 42.034374 121.71525Q42.8625 121.71525 43.378124 122.19962Q43.89375 122.66837 43.89375 123.4965L43.89375 123.91837Q43.89375 124.71525 43.39375 125.19962Q42.89375 125.684 42.05 125.684Q41.20625 125.684 40.690624 125.19962Q40.190624 124.69962 40.190624 123.90275L40.190624 123.46525ZM41.315624 123.91837Q41.315624 124.2465 41.51875 124.48087Q41.7375 124.69962 42.05 124.69962Q42.76875 124.69962 42.76875 123.91837L42.76875 123.46525Q42.76875 123.1215 42.565624 122.90275Q42.3625 122.684 42.034374 122.684Q41.70625 122.684 41.503124 122.90275Q41.315624 123.1215 41.315624 123.48087L41.315624 123.91837ZM38.3 124.91837L37.471874 124.48087L41.64375 117.809L42.471874 118.2465L38.3 124.91837Z"
     fill-rule="nonzero"
     id="path40" />
  <path
     stroke="#757575"
     stroke-width="1.0"
     stroke-linecap="butt"
     d="M18.55 112.059L145.23334 112.059L260.68 97.50194"
     fill-rule="nonzero"
     id="path42" />
  <path
     fill="#9e9e9e"
     d="M262.68 97.50194C262.68 96.39737 261.78455 95.50194 260.68 95.50194C259.5754 95.50194 258.68 96.39737 258.68 97.50194C258.68 98.60651 259.5754 99.50194 260.68 99.50194C261.78455 99.50194 262.68 98.60651 262.68 97.50194"
     fill-rule="nonzero"
     id="path44" />
  <path
     fill="#1a1a1a"
     d="M21.065624 194.97046L21.065624 197.97046L19.315624 197.97046L19.315624 189.43921L22.64375 189.43921Q23.596874 189.43921 24.33125 189.79858Q25.065624 190.14233 25.45625 190.79858Q25.846874 191.43921 25.846874 192.26733Q25.846874 193.51733 24.9875 194.25171Q24.128124 194.97046 22.6125 194.97046L21.065624 194.97046ZM21.065624 193.53296L22.64375 193.53296Q23.33125 193.53296 23.690624 193.20483Q24.065624 192.87671 24.065624 192.26733Q24.065624 191.64233 23.690624 191.26733Q23.33125 190.87671 22.675 190.86108L21.065624 190.86108L21.065624 193.53296ZM32.128124 196.20483L29.05 196.20483L28.45625 197.97046L26.596874 197.97046L29.76875 189.43921L31.39375 189.43921L34.596874 197.97046L32.721874 197.97046L32.128124 196.20483ZM29.51875 194.78296L31.659374 194.78296L30.58125 191.59546L29.51875 194.78296ZM38.471874 194.84546L37.065624 194.84546L37.065624 197.97046L35.315624 197.97046L35.315624 189.43921L38.4875 189.43921Q39.9875 189.43921 40.8 190.11108Q41.628124 190.78296 41.628124 192.01733Q41.628124 192.89233 41.253124 193.47046Q40.878124 194.04858 40.1125 194.40796L41.95625 197.89233L41.95625 197.97046L40.065624 197.97046L38.471874 194.84546ZM37.065624 193.42358L38.4875 193.42358Q39.14375 193.42358 39.503124 193.09546Q39.878124 192.75171 39.878124 192.15796Q39.878124 191.54858 39.534374 191.20483Q39.190624 190.86108 38.4875 190.86108L37.065624 190.86108L37.065624 193.42358ZM43.315624 197.97046L43.315624 189.43921L45.940624 189.43921Q47.065624 189.43921 47.940624 189.95483Q48.83125 190.45483 49.33125 191.39233Q49.83125 192.31421 49.83125 193.51733L49.83125 193.90796Q49.83125 195.09546 49.346874 196.01733Q48.8625 196.93921 47.971874 197.45483Q47.08125 197.97046 45.95625 197.97046L43.315624 197.97046ZM45.065624 190.86108L45.065624 196.56421L45.925 196.56421Q46.95625 196.56421 47.4875 195.89233Q48.034374 195.20483 48.05 193.95483L48.05 193.50171Q48.05 192.20483 47.503124 191.53296Q46.971874 190.86108 45.940624 190.86108L45.065624 190.86108ZM56.128124 196.20483L53.05 196.20483L52.45625 197.97046L50.596874 197.97046L53.76875 189.43921L55.39375 189.43921L58.596874 197.97046L56.721874 197.97046L56.128124 196.20483ZM53.51875 194.78296L55.659374 194.78296L54.58125 191.59546L53.51875 194.78296Z"
     fill-rule="nonzero"
     id="path46" />
  <path
     fill="#9e9e9e"
     d="M20.846874 210.95483L21.753124 210.95483Q22.39375 210.95483 22.70625 210.64233Q23.01875 210.31421 23.01875 209.78296Q23.01875 209.26733 22.70625 208.98608Q22.409374 208.68921 21.8625 208.68921Q21.378124 208.68921 21.05 208.95483Q20.721874 209.22046 20.721874 209.64233L19.034374 209.64233Q19.034374 208.98608 19.39375 208.45483Q19.753124 207.92358 20.39375 207.62671Q21.05 207.31421 21.83125 207.31421Q23.175 207.31421 23.940624 207.97046Q24.721874 208.61108 24.721874 209.75171Q24.721874 210.34546 24.3625 210.84546Q24.003124 211.32983 23.425 211.57983Q24.14375 211.84546 24.4875 212.36108Q24.846874 212.87671 24.846874 213.57983Q24.846874 214.72046 24.01875 215.40796Q23.190624 216.09546 21.83125 216.09546Q20.55 216.09546 19.7375 215.42358Q18.925 214.73608 18.925 213.62671L20.6125 213.62671Q20.6125 214.11108 20.971874 214.42358Q21.346874 214.72046 21.8625 214.72046Q22.471874 214.72046 22.815624 214.40796Q23.159374 214.07983 23.159374 213.54858Q23.159374 212.28296 21.753124 212.28296L20.846874 212.28296L20.846874 210.95483ZM30.721874 207.34546L30.721874 208.75171L30.565624 208.75171Q29.409374 208.76733 28.70625 209.34546Q28.01875 209.92358 27.878124 210.95483Q28.55 210.26733 29.58125 210.26733Q30.70625 210.26733 31.3625 211.06421Q32.01875 211.86108 32.01875 213.15796Q32.01875 213.98608 31.659374 214.65796Q31.3 215.32983 30.628124 215.72046Q29.971874 216.09546 29.14375 216.09546Q27.8 216.09546 26.971874 215.15796Q26.14375 214.20483 26.14375 212.64233L26.14375 212.03296Q26.14375 210.64233 26.659374 209.57983Q27.190624 208.51733 28.159374 207.93921Q29.14375 207.36108 30.440624 207.34546L30.721874 207.34546ZM29.065624 211.62671Q28.659374 211.62671 28.315624 211.84546Q27.9875 212.04858 27.83125 212.40796L27.83125 212.92358Q27.83125 213.76733 28.159374 214.25171Q28.503124 214.72046 29.1125 214.72046Q29.659374 214.72046 29.9875 214.29858Q30.33125 213.86108 30.33125 213.17358Q30.33125 212.47046 29.9875 212.04858Q29.64375 211.62671 29.065624 211.62671ZM33.64375 218.11108L32.753124 217.64233L32.971874 217.26733Q33.3625 216.54858 33.378124 215.84546L33.378124 214.53296L34.8 214.53296L34.8 215.70483Q34.784374 216.34546 34.45625 217.00171Q34.14375 217.67358 33.64375 218.11108ZM36.378124 211.76733L36.878124 207.43921L41.659374 207.43921L41.659374 208.84546L38.26875 208.84546L38.05 210.68921Q38.659374 210.36108 39.33125 210.36108Q40.55 210.36108 41.2375 211.12671Q41.940624 211.87671 41.940624 213.23608Q41.940624 214.06421 41.58125 214.72046Q41.2375 215.36108 40.58125 215.73608Q39.940624 216.09546 39.05 216.09546Q38.284374 216.09546 37.6125 215.78296Q36.95625 215.45483 36.565624 214.89233Q36.190624 214.32983 36.159374 213.59546L37.846874 213.59546Q37.89375 214.12671 38.20625 214.42358Q38.534374 214.72046 39.05 214.72046Q39.628124 214.72046 39.925 214.31421Q40.2375 213.89233 40.2375 213.14233Q40.2375 212.40796 39.878124 212.03296Q39.534374 211.64233 38.878124 211.64233Q38.26875 211.64233 37.89375 211.95483L37.7375 212.11108L36.378124 211.76733ZM43.1125 209.07983Q43.1125 208.29858 43.6125 207.81421Q44.128124 207.31421 44.95625 207.31421Q45.784374 207.31421 46.3 207.79858Q46.815624 208.28296 46.815624 209.11108L46.815624 209.53296Q46.815624 210.31421 46.3 210.79858Q45.784374 211.28296 44.971874 211.28296Q44.128124 211.28296 43.6125 210.79858Q43.1125 210.31421 43.1125 209.50171L43.1125 209.07983ZM44.2375 209.53296Q44.2375 209.87671 44.440624 210.09546Q44.64375 210.31421 44.971874 210.31421Q45.3 210.31421 45.4875 210.09546Q45.675 209.87671 45.675 209.51733L45.675 209.07983Q45.675 208.72046 45.4875 208.51733Q45.3 208.29858 44.95625 208.29858Q44.628124 208.29858 44.425 208.51733Q44.2375 208.72046 44.2375 209.09546L44.2375 209.53296ZM47.190624 213.87671Q47.190624 213.07983 47.70625 212.61108Q48.221874 212.12671 49.034374 212.12671Q49.8625 212.12671 50.378124 212.61108Q50.89375 213.07983 50.89375 213.90796L50.89375 214.32983Q50.89375 215.12671 50.39375 215.61108Q49.89375 216.09546 49.05 216.09546Q48.20625 216.09546 47.690624 215.61108Q47.190624 215.11108 47.190624 214.31421L47.190624 213.87671ZM48.315624 214.32983Q48.315624 214.65796 48.51875 214.89233Q48.7375 215.11108 49.05 215.11108Q49.76875 215.11108 49.76875 214.32983L49.76875 213.87671Q49.76875 213.53296 49.565624 213.31421Q49.3625 213.09546 49.034374 213.09546Q48.70625 213.09546 48.503124 213.31421Q48.315624 213.53296 48.315624 213.89233L48.315624 214.32983ZM45.3 215.32983L44.471874 214.89233L48.64375 208.22046L49.471874 208.65796L45.3 215.32983Z"
     fill-rule="nonzero"
     id="path48" />
  <path
     stroke="#757575"
     stroke-width="1.0"
     stroke-linecap="butt"
     d="M18.55 202.47046L145.23334 202.47046L159.38751 202.47046"
     fill-rule="nonzero"
     id="path50" />
  <path
     fill="#9e9e9e"
     d="M161.38751 202.47046C161.38751 201.36589 160.49208 200.47046 159.38751 200.47046C158.28294 200.47046 157.38751 201.36589 157.38751 202.47046C157.38751 203.57503 158.28294 204.47046 159.38751 204.47046C160.49208 204.47046 161.38751 203.57503 161.38751 202.47046"
     fill-rule="nonzero"
     id="path52" />
  <path
     fill="#1a1a1a"
     d="M534.21564 203.8953L534.21564 195.36404L537.2 195.36404Q538.7469 195.36404 539.54376 195.9578Q540.35626 196.55154 540.35626 197.7078Q540.35626 198.3328 540.02814 198.81717Q539.71564 199.28592 539.1375 199.50467Q539.79376 199.67654 540.16876 200.17654Q540.5594 200.66092 540.5594 201.37967Q540.5594 202.61404 539.7625 203.25467Q538.98126 203.87967 537.52814 203.8953L534.21564 203.8953ZM535.96564 200.17654L535.96564 202.48904L537.48126 202.48904Q538.09064 202.48904 538.4344 202.19217Q538.79376 201.8953 538.79376 201.36404Q538.79376 200.19217 537.575 200.17654L535.96564 200.17654ZM535.96564 198.94217L537.27814 198.94217Q538.60626 198.91092 538.60626 197.87967Q538.60626 197.30154 538.2625 197.05154Q537.9344 196.78592 537.2 196.78592L535.96564 196.78592L535.96564 198.94217ZM545.3719 200.7703L543.96564 200.7703L543.96564 203.8953L542.21564 203.8953L542.21564 195.36404L545.3875 195.36404Q546.8875 195.36404 547.7 196.03592Q548.52814 196.7078 548.52814 197.94217Q548.52814 198.81717 548.15314 199.3953Q547.77814 199.97342 547.0125 200.3328L548.85626 203.81717L548.85626 203.8953L546.96564 203.8953L545.3719 200.7703ZM543.96564 199.34842L545.3875 199.34842Q546.04376 199.34842 546.40314 199.0203Q546.77814 198.67654 546.77814 198.0828Q546.77814 197.47342 546.4344 197.12967Q546.09064 196.78592 545.3875 196.78592L543.96564 196.78592L543.96564 199.34842ZM555.02814 202.12967L551.95 202.12967L551.35626 203.8953L549.4969 203.8953L552.66876 195.36404L554.29376 195.36404L557.4969 203.8953L555.6219 203.8953L555.02814 202.12967ZM552.41876 200.7078L554.5594 200.7078L553.48126 197.5203L552.41876 200.7078ZM565.15314 203.8953L563.3875 203.8953L559.96564 198.28592L559.96564 203.8953L558.21564 203.8953L558.21564 195.36404L559.96564 195.36404L563.40314 200.98904L563.40314 195.36404L565.15314 195.36404L565.15314 203.8953ZM572.90314 201.05154Q572.8094 202.42654 571.8875 203.22342Q570.98126 204.0203 569.48126 204.0203Q567.84064 204.0203 566.8875 202.91092Q565.95 201.80154 565.95 199.87967L565.95 199.34842Q565.95 198.12967 566.3875 197.19217Q566.825 196.25467 567.6219 195.75467Q568.4344 195.23904 569.4969 195.23904Q570.98126 195.23904 571.8719 196.03592Q572.77814 196.8328 572.91876 198.25467L571.16876 198.25467Q571.10626 197.42654 570.7 197.06717Q570.3094 196.69217 569.4969 196.69217Q568.6219 196.69217 568.1844 197.31717Q567.7469 197.94217 567.73126 199.2703L567.73126 199.91092Q567.73126 201.30154 568.15314 201.94217Q568.575 202.5828 569.48126 202.5828Q570.29376 202.5828 570.6844 202.2078Q571.09064 201.8328 571.15314 201.05154L572.90314 201.05154ZM579.02814 202.12967L575.95 202.12967L575.35626 203.8953L573.4969 203.8953L576.66876 195.36404L578.29376 195.36404L581.4969 203.8953L579.6219 203.8953L579.02814 202.12967ZM576.41876 200.7078L578.5594 200.7078L577.48126 197.5203L576.41876 200.7078Z"
     fill-rule="nonzero"
     id="path54" />
  <path
     fill="#9e9e9e"
     d="M549.27814 217.69217L549.77814 213.36404L554.5594 213.36404L554.5594 214.7703L551.16876 214.7703L550.95 216.61404Q551.5594 216.28592 552.23126 216.28592Q553.45 216.28592 554.1375 217.05154Q554.84064 217.80154 554.84064 219.16092Q554.84064 219.98904 554.48126 220.6453Q554.1375 221.28592 553.48126 221.66092Q552.84064 222.0203 551.95 222.0203Q551.1844 222.0203 550.5125 221.7078Q549.85626 221.37967 549.46564 220.81717Q549.09064 220.25467 549.0594 219.5203L550.7469 219.5203Q550.79376 220.05154 551.10626 220.34842Q551.4344 220.6453 551.95 220.6453Q552.52814 220.6453 552.825 220.23904Q553.1375 219.81717 553.1375 219.06717Q553.1375 218.3328 552.77814 217.9578Q552.4344 217.56717 551.77814 217.56717Q551.16876 217.56717 550.79376 217.87967L550.6375 218.03592L549.27814 217.69217ZM556.27814 217.69217L556.77814 213.36404L561.5594 213.36404L561.5594 214.7703L558.16876 214.7703L557.95 216.61404Q558.5594 216.28592 559.23126 216.28592Q560.45 216.28592 561.1375 217.05154Q561.84064 217.80154 561.84064 219.16092Q561.84064 219.98904 561.48126 220.6453Q561.1375 221.28592 560.48126 221.66092Q559.84064 222.0203 558.95 222.0203Q558.1844 222.0203 557.5125 221.7078Q556.85626 221.37967 556.46564 220.81717Q556.09064 220.25467 556.0594 219.5203L557.7469 219.5203Q557.79376 220.05154 558.10626 220.34842Q558.4344 220.6453 558.95 220.6453Q559.52814 220.6453 559.825 220.23904Q560.1375 219.81717 560.1375 219.06717Q560.1375 218.3328 559.77814 217.9578Q559.4344 217.56717 558.77814 217.56717Q558.16876 217.56717 557.79376 217.87967L557.6375 218.03592L556.27814 217.69217ZM563.54376 224.03592L562.65314 223.56717L562.8719 223.19217Q563.2625 222.47342 563.27814 221.7703L563.27814 220.4578L564.7 220.4578L564.7 221.62967Q564.6844 222.2703 564.35626 222.92654Q564.04376 223.59842 563.54376 224.03592ZM570.1375 221.8953L568.45 221.8953L568.45 215.36404L566.4344 215.98904L566.4344 214.61404L569.96564 213.34842L570.1375 213.34842L570.1375 221.8953ZM573.0125 215.00467Q573.0125 214.22342 573.5125 213.73904Q574.02814 213.23904 574.85626 213.23904Q575.6844 213.23904 576.2 213.72342Q576.71564 214.2078 576.71564 215.03592L576.71564 215.4578Q576.71564 216.23904 576.2 216.72342Q575.6844 217.2078 574.8719 217.2078Q574.02814 217.2078 573.5125 216.72342Q573.0125 216.23904 573.0125 215.42654L573.0125 215.00467ZM574.1375 215.4578Q574.1375 215.80154 574.34064 216.0203Q574.54376 216.23904 574.8719 216.23904Q575.2 216.23904 575.3875 216.0203Q575.575 215.80154 575.575 215.44217L575.575 215.00467Q575.575 214.6453 575.3875 214.44217Q575.2 214.22342 574.85626 214.22342Q574.52814 214.22342 574.325 214.44217Q574.1375 214.6453 574.1375 215.0203L574.1375 215.4578ZM577.09064 219.80154Q577.09064 219.00467 577.60626 218.53592Q578.1219 218.05154 578.9344 218.05154Q579.7625 218.05154 580.27814 218.53592Q580.79376 219.00467 580.79376 219.8328L580.79376 220.25467Q580.79376 221.05154 580.29376 221.53592Q579.79376 222.0203 578.95 222.0203Q578.10626 222.0203 577.59064 221.53592Q577.09064 221.03592 577.09064 220.23904L577.09064 219.80154ZM578.21564 220.25467Q578.21564 220.5828 578.41876 220.81717Q578.6375 221.03592 578.95 221.03592Q579.66876 221.03592 579.66876 220.25467L579.66876 219.80154Q579.66876 219.4578 579.46564 219.23904Q579.2625 219.0203 578.9344 219.0203Q578.60626 219.0203 578.40314 219.23904Q578.21564 219.4578 578.21564 219.81717L578.21564 220.25467ZM575.2 221.25467L574.3719 220.81717L578.54376 214.1453L579.3719 214.5828L575.2 221.25467Z"
     fill-rule="nonzero"
     id="path56" />
  <path
     stroke="#757575"
     stroke-width="1.0"
     stroke-linecap="butt"
     d="M581.45 208.3953L454.76666 208.3953L439.49817 208.3953"
     fill-rule="nonzero"
     id="path58" />
  <path
     fill="#9e9e9e"
     d="M441.49817 208.3953C441.49817 207.29073 440.60275 206.3953 439.49817 206.3953C438.3936 206.3953 437.49817 207.29073 437.49817 208.3953C437.49817 209.49986 438.3936 210.3953 439.49817 210.3953C440.60275 210.3953 441.49817 209.49986 441.49817 208.3953"
     fill-rule="nonzero"
     id="path60" />
  <path
     fill="#757575"
     d="M205.4375 32.815624Q205.26562 35.1125 203.73438 36.440624Q202.20312 37.753124 199.70312 37.753124Q196.96875 37.753124 195.40625 35.909374Q193.84375 34.065624 193.84375 30.846874L193.84375 29.9875Q193.84375 27.925 194.5625 26.3625Q195.28125 24.8 196.625 23.971874Q197.96875 23.128124 199.75 23.128124Q202.20312 23.128124 203.70312 24.45625Q205.21875 25.76875 205.45312 28.159374L202.51562 28.159374Q202.42188 26.784374 201.75 26.159374Q201.09375 25.534374 199.75 25.534374Q198.28125 25.534374 197.54688 26.596874Q196.82812 27.64375 196.8125 29.846874L196.8125 30.925Q196.8125 33.221874 197.5 34.284374Q198.20312 35.346874 199.70312 35.346874Q201.0625 35.346874 201.73438 34.7375Q202.40625 34.1125 202.5 32.815624L205.4375 32.815624ZM213.20312 37.55Q213.01562 37.175 212.92188 36.596874Q211.90625 37.753124 210.26562 37.753124Q208.70312 37.753124 207.6875 36.846874Q206.67188 35.940624 206.67188 34.58125Q206.67188 32.89375 207.90625 32.003124Q209.15625 31.096874 211.51562 31.096874L212.8125 31.096874L212.8125 30.4875Q212.8125 29.753124 212.4375 29.315624Q212.0625 28.878124 211.25 28.878124Q210.53125 28.878124 210.125 29.221874Q209.71875 29.565624 209.71875 30.159374L206.90625 30.159374Q206.90625 29.2375 207.46875 28.45625Q208.03125 27.675 209.0625 27.2375Q210.10938 26.784374 211.39062 26.784374Q213.34375 26.784374 214.48438 27.76875Q215.64062 28.753124 215.64062 30.534374L215.64062 35.1125Q215.65625 36.6125 216.0625 37.378124L216.0625 37.55L213.20312 37.55ZM210.875 35.58125Q211.5 35.58125 212.01562 35.315624Q212.54688 35.034374 212.8125 34.565624L212.8125 32.7375L211.75 32.7375Q209.64062 32.7375 209.5 34.20625L209.48438 34.378124Q209.48438 34.909374 209.85938 35.253124Q210.23438 35.58125 210.875 35.58125ZM220.6875 26.9875L220.76562 28.20625Q221.90625 26.784374 223.8125 26.784374Q225.48438 26.784374 226.29688 27.76875Q227.125 28.753124 227.14062 30.721874L227.14062 37.55L224.32812 37.55L224.32812 30.784374Q224.32812 29.89375 223.9375 29.4875Q223.54688 29.08125 222.64062 29.08125Q221.4375 29.08125 220.84375 30.096874L220.84375 37.55L218.03125 37.55L218.03125 26.9875L220.6875 26.9875ZM228.64062 32.190624Q228.64062 29.721874 229.75 28.253124Q230.85938 26.784374 232.78125 26.784374Q234.32812 26.784374 235.32812 27.940624L235.32812 22.55L238.17188 22.55L238.17188 37.55L235.625 37.55L235.48438 36.425Q234.42188 37.753124 232.76562 37.753124Q230.90625 37.753124 229.76562 36.284374Q228.64062 34.8 228.64062 32.190624ZM231.46875 32.39375Q231.46875 33.878124 231.98438 34.675Q232.5 35.45625 233.48438 35.45625Q234.79688 35.45625 235.32812 34.3625L235.32812 30.190624Q234.8125 29.08125 233.51562 29.08125Q231.46875 29.08125 231.46875 32.39375ZM243.0625 37.55L240.23438 37.55L240.23438 26.9875L243.0625 26.9875L243.0625 37.55ZM240.0625 24.253124Q240.0625 23.6125 240.48438 23.20625Q240.92188 22.8 241.64062 22.8Q242.375 22.8 242.79688 23.20625Q243.23438 23.6125 243.23438 24.253124Q243.23438 24.89375 242.79688 25.3Q242.35938 25.70625 241.64062 25.70625Q240.9375 25.70625 240.5 25.3Q240.0625 24.89375 240.0625 24.253124ZM244.64062 32.190624Q244.64062 29.721874 245.75 28.253124Q246.85938 26.784374 248.78125 26.784374Q250.32812 26.784374 251.32812 27.940624L251.32812 22.55L254.17188 22.55L254.17188 37.55L251.625 37.55L251.48438 36.425Q250.42188 37.753124 248.76562 37.753124Q246.90625 37.753124 245.76562 36.284374Q244.64062 34.8 244.64062 32.190624ZM247.46875 32.39375Q247.46875 33.878124 247.98438 34.675Q248.5 35.45625 249.48438 35.45625Q250.79688 35.45625 251.32812 34.3625L251.32812 30.190624Q250.8125 29.08125 249.51562 29.08125Q247.46875 29.08125 247.46875 32.39375ZM262.20312 37.55Q262.01562 37.175 261.92188 36.596874Q260.90625 37.753124 259.26562 37.753124Q257.70312 37.753124 256.6875 36.846874Q255.67188 35.940624 255.67188 34.58125Q255.67188 32.89375 256.90625 32.003124Q258.15625 31.096874 260.51562 31.096874L261.8125 31.096874L261.8125 30.4875Q261.8125 29.753124 261.4375 29.315624Q261.0625 28.878124 260.25 28.878124Q259.53125 28.878124 259.125 29.221874Q258.71875 29.565624 258.71875 30.159374L255.90625 30.159374Q255.90625 29.2375 256.46875 28.45625Q257.03125 27.675 258.0625 27.2375Q259.10938 26.784374 260.39062 26.784374Q262.34375 26.784374 263.48438 27.76875Q264.64062 28.753124 264.64062 30.534374L264.64062 35.1125Q264.65625 36.6125 265.0625 37.378124L265.0625 37.55L262.20312 37.55ZM259.875 35.58125Q260.5 35.58125 261.01562 35.315624Q261.54688 35.034374 261.8125 34.565624L261.8125 32.7375L260.75 32.7375Q258.64062 32.7375 258.5 34.20625L258.48438 34.378124Q258.48438 34.909374 258.85938 35.253124Q259.23438 35.58125 259.875 35.58125ZM270.46875 24.378124L270.46875 26.9875L272.26562 26.9875L272.26562 29.05L270.46875 29.05L270.46875 34.33125Q270.46875 34.909374 270.6875 35.175Q270.90625 35.425 271.54688 35.425Q272.01562 35.425 272.375 35.346874L272.375 37.4875Q271.54688 37.753124 270.67188 37.753124Q267.70312 37.753124 267.64062 34.753124L267.64062 29.05L266.09375 29.05L266.09375 26.9875L267.64062 26.9875L267.64062 24.378124L270.46875 24.378124ZM273.64062 32.175Q273.64062 30.596874 274.25 29.3625Q274.85938 28.128124 275.98438 27.45625Q277.125 26.784374 278.64062 26.784374Q280.78125 26.784374 282.125 28.096874Q283.48438 29.409374 283.64062 31.64375L283.65625 32.378124Q283.65625 34.8 282.29688 36.284374Q280.9375 37.753124 278.65625 37.753124Q276.375 37.753124 275.0 36.284374Q273.64062 34.815624 273.64062 32.3L273.64062 32.175ZM276.46875 32.378124Q276.46875 33.878124 277.03125 34.675Q277.59375 35.471874 278.65625 35.471874Q279.6875 35.471874 280.25 34.690624Q280.82812 33.89375 280.82812 32.175Q280.82812 30.690624 280.25 29.878124Q279.6875 29.065624 278.64062 29.065624Q277.59375 29.065624 277.03125 29.878124Q276.46875 30.690624 276.46875 32.378124ZM290.8125 34.628124Q290.8125 34.1125 290.29688 33.815624Q289.78125 33.51875 288.65625 33.284374Q284.875 32.4875 284.875 30.08125Q284.875 28.675 286.04688 27.7375Q287.21875 26.784374 289.09375 26.784374Q291.10938 26.784374 292.3125 27.7375Q293.51562 28.675 293.51562 30.190624L290.70312 30.190624Q290.70312 29.596874 290.3125 29.20625Q289.92188 28.8 289.09375 28.8Q288.375 28.8 287.98438 29.128124Q287.59375 29.440624 287.59375 29.940624Q287.59375 30.409374 288.03125 30.70625Q288.48438 30.9875 289.53125 31.20625Q290.59375 31.409374 291.3125 31.675Q293.54688 32.4875 293.54688 34.51875Q293.54688 35.95625 292.3125 36.8625Q291.07812 37.753124 289.10938 37.753124Q287.78125 37.753124 286.75 37.284374Q285.71875 36.8 285.125 35.971874Q284.54688 35.14375 284.54688 34.190624L287.21875 34.190624Q287.26562 34.940624 287.78125 35.346874Q288.29688 35.7375 289.17188 35.7375Q289.98438 35.7375 290.39062 35.440624Q290.8125 35.128124 290.8125 34.628124ZM309.59375 32.3625Q309.59375 34.8 308.48438 36.284374Q307.375 37.753124 305.5 37.753124Q303.89062 37.753124 302.90625 36.628124L302.90625 41.6125L300.07812 41.6125L300.07812 26.9875L302.70312 26.9875L302.79688 28.01875Q303.82812 26.784374 305.46875 26.784374Q307.42188 26.784374 308.5 28.2375Q309.59375 29.675 309.59375 32.221874L309.59375 32.3625ZM306.78125 32.159374Q306.78125 30.690624 306.25 29.89375Q305.73438 29.08125 304.73438 29.08125Q303.40625 29.08125 302.90625 30.096874L302.90625 34.425Q303.42188 35.471874 304.75 35.471874Q306.78125 35.471874 306.78125 32.159374ZM310.64062 32.175Q310.64062 30.596874 311.25 29.3625Q311.85938 28.128124 312.98438 27.45625Q314.125 26.784374 315.64062 26.784374Q317.78125 26.784374 319.125 28.096874Q320.48438 29.409374 320.64062 31.64375L320.65625 32.378124Q320.65625 34.8 319.29688 36.284374Q317.9375 37.753124 315.65625 37.753124Q313.375 37.753124 312.0 36.284374Q310.64062 34.815624 310.64062 32.3L310.64062 32.175ZM313.46875 32.378124Q313.46875 33.878124 314.03125 34.675Q314.59375 35.471874 315.65625 35.471874Q316.6875 35.471874 317.25 34.690624Q317.82812 33.89375 317.82812 32.175Q317.82812 30.690624 317.25 29.878124Q316.6875 29.065624 315.64062 29.065624Q314.59375 29.065624 314.03125 29.878124Q313.46875 30.690624 313.46875 32.378124ZM328.01562 29.628124Q327.45312 29.55 327.0 29.55Q325.40625 29.55 324.90625 30.628124L324.90625 37.55L322.07812 37.55L322.07812 26.9875L324.75 26.9875L324.82812 28.2375Q325.67188 26.784374 327.1875 26.784374Q327.65625 26.784374 328.0625 26.909374L328.01562 29.628124ZM338.48438 35.471874Q339.26562 35.471874 339.75 35.05Q340.23438 34.6125 340.25 33.89375L342.90625 33.89375Q342.89062 34.971874 342.3125 35.8625Q341.73438 36.753124 340.73438 37.253124Q339.73438 37.753124 338.53125 37.753124Q336.26562 37.753124 334.95312 36.315624Q333.64062 34.8625 333.64062 32.33125L333.64062 32.14375Q333.64062 29.690624 334.9375 28.2375Q336.25 26.784374 338.51562 26.784374Q340.48438 26.784374 341.6875 27.925Q342.89062 29.05 342.90625 30.925L340.25 30.925Q340.23438 30.096874 339.75 29.58125Q339.26562 29.065624 338.45312 29.065624Q337.46875 29.065624 336.96875 29.784374Q336.46875 30.503124 336.46875 32.1125L336.46875 32.409374Q336.46875 34.05 336.96875 34.76875Q337.46875 35.471874 338.48438 35.471874ZM343.64062 32.175Q343.64062 30.596874 344.25 29.3625Q344.85938 28.128124 345.98438 27.45625Q347.125 26.784374 348.64062 26.784374Q350.78125 26.784374 352.125 28.096874Q353.48438 29.409374 353.64062 31.64375L353.65625 32.378124Q353.65625 34.8 352.29688 36.284374Q350.9375 37.753124 348.65625 37.753124Q346.375 37.753124 345.0 36.284374Q343.64062 34.815624 343.64062 32.3L343.64062 32.175ZM346.46875 32.378124Q346.46875 33.878124 347.03125 34.675Q347.59375 35.471874 348.65625 35.471874Q349.6875 35.471874 350.25 34.690624Q350.82812 33.89375 350.82812 32.175Q350.82812 30.690624 350.25 29.878124Q349.6875 29.065624 348.64062 29.065624Q347.59375 29.065624 347.03125 29.878124Q346.46875 30.690624 346.46875 32.378124ZM361.01562 29.628124Q360.45312 29.55 360.0 29.55Q358.40625 29.55 357.90625 30.628124L357.90625 37.55L355.07812 37.55L355.07812 26.9875L357.75 26.9875L357.82812 28.2375Q358.67188 26.784374 360.1875 26.784374Q360.65625 26.784374 361.0625 26.909374L361.01562 29.628124ZM362.96875 38.76875L360.875 38.76875L366.10938 23.33125L368.20312 23.33125L362.96875 38.76875ZM375.01562 29.628124Q374.45312 29.55 374.0 29.55Q372.40625 29.55 371.90625 30.628124L371.90625 37.55L369.07812 37.55L369.07812 26.9875L371.75 26.9875L371.82812 28.2375Q372.67188 26.784374 374.1875 26.784374Q374.65625 26.784374 375.0625 26.909374L375.01562 29.628124ZM382.20312 37.55Q382.01562 37.175 381.92188 36.596874Q380.90625 37.753124 379.26562 37.753124Q377.70312 37.753124 376.6875 36.846874Q375.67188 35.940624 375.67188 34.58125Q375.67188 32.89375 376.90625 32.003124Q378.15625 31.096874 380.51562 31.096874L381.8125 31.096874L381.8125 30.4875Q381.8125 29.753124 381.4375 29.315624Q381.0625 28.878124 380.25 28.878124Q379.53125 28.878124 379.125 29.221874Q378.71875 29.565624 378.71875 30.159374L375.90625 30.159374Q375.90625 29.2375 376.46875 28.45625Q377.03125 27.675 378.0625 27.2375Q379.10938 26.784374 380.39062 26.784374Q382.34375 26.784374 383.48438 27.76875Q384.64062 28.753124 384.64062 30.534374L384.64062 35.1125Q384.65625 36.6125 385.0625 37.378124L385.0625 37.55L382.20312 37.55ZM379.875 35.58125Q380.5 35.58125 381.01562 35.315624Q381.54688 35.034374 381.8125 34.565624L381.8125 32.7375L380.75 32.7375Q378.64062 32.7375 378.5 34.20625L378.48438 34.378124Q378.48438 34.909374 378.85938 35.253124Q379.23438 35.58125 379.875 35.58125ZM391.48438 35.471874Q392.26562 35.471874 392.75 35.05Q393.23438 34.6125 393.25 33.89375L395.90625 33.89375Q395.89062 34.971874 395.3125 35.8625Q394.73438 36.753124 393.73438 37.253124Q392.73438 37.753124 391.53125 37.753124Q389.26562 37.753124 387.95312 36.315624Q386.64062 34.8625 386.64062 32.33125L386.64062 32.14375Q386.64062 29.690624 387.9375 28.2375Q389.25 26.784374 391.51562 26.784374Q393.48438 26.784374 394.6875 27.925Q395.89062 29.05 395.90625 30.925L393.25 30.925Q393.23438 30.096874 392.75 29.58125Q392.26562 29.065624 391.45312 29.065624Q390.46875 29.065624 389.96875 29.784374Q389.46875 30.503124 389.46875 32.1125L389.46875 32.409374Q389.46875 34.05 389.96875 34.76875Q390.46875 35.471874 391.48438 35.471874ZM392.375 37.4875L392.26562 38.05Q393.73438 38.315624 393.73438 39.7375Q393.73438 40.815624 392.82812 41.440624Q391.9375 42.065624 390.3125 42.065624L390.25 40.425Q391.34375 40.425 391.34375 39.64375Q391.34375 39.2375 391.01562 39.08125Q390.6875 38.925 389.95312 38.878124L390.26562 37.4875L392.375 37.4875ZM403.20312 37.55Q403.01562 37.175 402.92188 36.596874Q401.90625 37.753124 400.26562 37.753124Q398.70312 37.753124 397.6875 36.846874Q396.67188 35.940624 396.67188 34.58125Q396.67188 32.89375 397.90625 32.003124Q399.15625 31.096874 401.51562 31.096874L402.8125 31.096874L402.8125 30.4875Q402.8125 29.753124 402.4375 29.315624Q402.0625 28.878124 401.25 28.878124Q400.53125 28.878124 400.125 29.221874Q399.71875 29.565624 399.71875 30.159374L396.90625 30.159374Q396.90625 29.2375 397.46875 28.45625Q398.03125 27.675 399.0625 27.2375Q400.10938 26.784374 401.39062 26.784374Q403.34375 26.784374 404.48438 27.76875Q405.64062 28.753124 405.64062 30.534374L405.64062 35.1125Q405.65625 36.6125 406.0625 37.378124L406.0625 37.55L403.20312 37.55ZM400.875 35.58125Q401.5 35.58125 402.01562 35.315624Q402.54688 35.034374 402.8125 34.565624L402.8125 32.7375L401.75 32.7375Q399.64062 32.7375 399.5 34.20625L399.48438 34.378124Q399.48438 34.909374 399.85938 35.253124Q400.23438 35.58125 400.875 35.58125Z"
     fill-rule="nonzero"
     id="path62" />
  <text
     xml:space="preserve"
     style="font-style:normal;font-variant:normal;font-weight:normal;font-stretch:normal;font-size:12.8508px;line-height:1.25;font-family:Georgia;-inkscape-font-specification:Georgia;letter-spacing:0px;word-spacing:0px;opacity:0.338129;fill:#000000;stroke-width:0.150595"
     x="118.4138"
     y="340.36899"
     id="text897"
     transform="scale(1.0229029,0.9776099)"><tspan
       sodipodi:role="line"
       id="tspan895"
       x="118.4138"
       y="340.36899"
       style="font-style:normal;font-variant:normal;font-weight:normal;font-stretch:normal;font-family:'Andale Mono';-inkscape-font-specification:'Andale Mono';fill:#000000;stroke-width:0.150595">fonte: jhoonb.github.io/maracaju-eleicao-2020</tspan></text>
</svg>
