<?xml version="1.0" encoding="UTF-8" standalone="no"?>
<svg
   xmlns:dc="http://purl.org/dc/elements/1.1/"
   xmlns:cc="http://creativecommons.org/ns#"
   xmlns:rdf="http://www.w3.org/1999/02/22-rdf-syntax-ns#"
   xmlns:svg="http://www.w3.org/2000/svg"
   xmlns="http://www.w3.org/2000/svg"
   xmlns:sodipodi="http://sodipodi.sourceforge.net/DTD/sodipodi-0.dtd"
   xmlns:inkscape="http://www.inkscape.org/namespaces/inkscape"
   version="1.1"
   viewBox="0.0 0.0 600.0 371.0"
   fill="none"
   stroke="none"
   stroke-linecap="square"
   stroke-miterlimit="10"
   width="600"
   height="371"
   id="svg64"
   sodipodi:docname="Candidatos_por_estado_civil.svg"
   inkscape:version="1.0.1 (3bc2e813f5, 2020-09-07)">
  <metadata
     id="metadata70">
    <rdf:RDF>
      <cc:Work
         rdf:about="">
        <dc:format>image/svg+xml</dc:format>
        <dc:type
           rdf:resource="http://purl.org/dc/dcmitype/StillImage" />
      </cc:Work>
    </rdf:RDF>
  </metadata>
  <defs
     id="defs68" />
  <sodipodi:namedview
     pagecolor="#ffffff"
     bordercolor="#666666"
     borderopacity="1"
     objecttolerance="10"
     gridtolerance="10"
     guidetolerance="10"
     inkscape:pageopacity="0"
     inkscape:pageshadow="2"
     inkscape:window-width="1366"
     inkscape:window-height="704"
     id="namedview66"
     showgrid="false"
     inkscape:zoom="0.77628032"
     inkscape:cx="631.6512"
     inkscape:cy="239.80186"
     inkscape:window-x="0"
     inkscape:window-y="27"
     inkscape:window-maximized="1"
     inkscape:current-layer="svg64" />
  <path
     fill="#ffffff"
     d="M0 0L600.0 0L600.0 371.0L0 371.0L0 0Z"
     fill-rule="nonzero"
     id="path2" />
  <path
     fill="#24763a"
     d="M294.01462 140.62634C296.0057 140.51382 298.00244 140.4575 300.0 140.4575L300.0 162.7725C298.00244 162.7725 296.0057 162.82883 294.01462 162.94135Z"
     fill-rule="nonzero"
     id="path4" />
  <path
     fill="#34a853"
     d="M288.02927 88.72685C292.0114 88.501816 296.00488 88.38917 300.0 88.38917L300.0 140.4575C298.00244 140.4575 296.0057 140.51382 294.01462 140.62634Z"
     fill-rule="nonzero"
     id="path6" />
  <path
     fill="#b08403"
     d="M255.31479 150.90018C266.5664 144.98164 279.98593 141.4191 294.01462 140.62634L294.01462 162.94135C279.98593 163.7341 266.5664 167.29665 255.31479 173.21518Z"
     fill-rule="nonzero"
     id="path8" />
  <path
     fill="#fbbc04"
     d="M210.62958 109.27453C233.13283 97.43746 259.97186 90.31237 288.02927 88.72685L294.01462 140.62634C279.98593 141.4191 266.5664 144.98164 255.31479 150.90018Z"
     fill-rule="nonzero"
     id="path10" />
  <path
     fill="#a42f25"
     d="M294.00977 318.89304C214.24327 316.6429 151.23334 270.7227 151.23334 214.84084L151.23334 192.52583C151.23334 248.4077 214.24327 294.3279 294.00977 296.57803Z"
     fill-rule="nonzero"
     id="path12" />
  <path
     fill="#a42f25"
     d="M225.61667 192.52583C225.61667 176.15395 236.6171 160.73546 255.31479 150.90018L255.31479 173.21518C236.6171 183.05046 225.61667 198.46895 225.61667 214.84084Z"
     fill-rule="nonzero"
     id="path14" />
  <path
     fill="#ea4335"
     d="M294.00977 296.57803C231.15335 294.80493 176.68451 265.54813 157.96936 223.5068C139.25421 181.46548 160.33868 135.72833 210.62958 109.27453L255.31479 150.90018C230.16934 164.12709 219.6271 186.99565 228.98468 208.01633C238.34225 229.03699 265.5767 243.66537 297.00488 244.55194Z"
     fill-rule="nonzero"
     id="path16" />
  <path
     fill="#2e5dab"
     d="M448.76666 214.84084C448.76666 243.18704 432.2591 270.30835 403.0543 289.94446C373.84952 309.58057 334.4715 320.03442 294.00977 318.89304L294.00977 296.57803C334.4715 297.71942 373.84952 287.26556 403.0543 267.62946C432.2591 247.99335 448.76666 220.87204 448.76666 192.52583Z"
     fill-rule="nonzero"
     id="path18" />
  <path
     fill="#2e5dab"
     d="M300.0 140.4575C341.08078 140.4575 374.38333 163.76929 374.38333 192.52583L374.38333 214.84084C374.38333 186.08429 341.08078 162.7725 300.0 162.7725Z"
     fill-rule="nonzero"
     id="path20" />
  <path
     fill="#4285f4"
     d="M300.0 88.38917C353.8634 88.38917 403.51968 108.76983 429.82272 141.67294C456.12573 174.57607 454.9666 214.86163 426.79224 246.99669C398.61786 279.13174 347.8295 298.09625 294.00977 296.57803L297.00488 244.55194C323.91476 245.31104 349.30893 235.82878 363.39612 219.76126C377.4833 203.69374 378.06287 183.55095 364.91135 167.0994C351.75983 150.64783 326.9317 140.4575 300.0 140.4575Z"
     fill-rule="nonzero"
     id="path22" />
  <path
     fill="#000000"
     d="M420.94516 189.8952L417.1014 198.73895L415.0233 198.73895L418.86703 190.37958L413.92953 190.37958L413.92953 188.78583L420.94516 188.78583L420.94516 189.8952ZM426.80453 194.75458Q426.0389 195.5202 425.00766 195.5202Q423.67953 195.5202 422.88266 194.61395Q422.1014 193.7077 422.1014 192.17645Q422.1014 191.19208 422.5233 190.37958Q422.94516 189.55145 423.7108 189.09833Q424.4764 188.6452 425.44516 188.6452Q426.42953 188.6452 427.19516 189.1452Q427.9608 189.62958 428.38266 190.55145Q428.80453 191.47333 428.80453 192.66083L428.80453 193.3952Q428.80453 195.8952 427.57016 197.31708Q426.3358 198.73895 424.07016 198.8327L423.5858 198.8327L423.5858 197.19208L424.0233 197.17645Q426.6014 197.06708 426.80453 194.75458ZM425.49203 194.00458Q425.9608 194.00458 426.30453 193.7702Q426.6483 193.5202 426.8358 193.16083L426.8358 192.34833Q426.8358 191.34833 426.44516 190.80145Q426.07016 190.23895 425.42953 190.23895Q424.8358 190.23895 424.44516 190.78583Q424.07016 191.3327 424.07016 192.1452Q424.07016 192.9577 424.42953 193.48895Q424.80453 194.00458 425.49203 194.00458Z"
     fill-rule="nonzero"
     id="path24" />
  <path
     fill="#000000"
     d="M188.37029 210.88354L188.37029 212.52417L188.18279 212.52417Q186.83904 212.5398 186.02654 213.21167Q185.21404 213.88354 185.04216 215.08667Q185.83904 214.2898 187.04216 214.2898Q188.35466 214.2898 189.12029 215.2273Q189.88591 216.14917 189.88591 217.6648Q189.88591 218.63354 189.46404 219.43042Q189.04216 220.21167 188.26091 220.64917Q187.49529 221.08667 186.52654 221.08667Q184.96404 221.08667 183.99529 219.99292Q183.02654 218.89917 183.02654 217.07104L183.02654 216.3523Q183.02654 214.74292 183.63591 213.50854Q184.24529 212.25854 185.38591 211.58667Q186.54216 210.89917 188.04216 210.88354L188.37029 210.88354ZM186.44841 215.86792Q185.96404 215.86792 185.57341 216.11792Q185.18279 216.36792 185.01091 216.7898L185.01091 217.38354Q185.01091 218.36792 185.40154 218.93042Q185.79216 219.49292 186.49529 219.49292Q187.12029 219.49292 187.51091 218.99292Q187.91716 218.4773 187.91716 217.68042Q187.91716 216.86792 187.51091 216.36792Q187.12029 215.86792 186.44841 215.86792ZM195.80779 220.94604L193.83904 220.94604L193.83904 213.33667L191.47966 214.05542L191.47966 212.46167L195.60466 210.9773L195.80779 210.9773L195.80779 220.94604Z"
     fill-rule="nonzero"
     id="path26" />
  <path
     fill="#000000"
     d="M257.90372 123.998726L255.93497 123.998726L255.93497 116.38935L253.57559 117.1081L253.57559 115.51435L257.7006 114.029976L257.90372 114.029976L257.90372 123.998726ZM266.9506 120.248726L268.09122 120.248726L268.09122 121.842476L266.9506 121.842476L266.9506 123.998726L264.98184 123.998726L264.98184 121.842476L260.90372 121.842476L260.80997 120.6081L264.96622 114.0456L266.9506 114.0456L266.9506 120.248726ZM262.77872 120.248726L264.98184 120.248726L264.98184 116.7331L264.85684 116.967476L262.77872 120.248726Z"
     fill-rule="nonzero"
     id="path28" />
  <path
     fill="#1a1a1a"
     d="M22.471874 73.74116L24.39375 67.31928L26.3625 67.31928L23.378124 75.85053L21.55 75.85053L18.596874 67.31928L20.55 67.31928L22.471874 73.74116ZM29.175 75.85053L27.425 75.85053L27.425 67.31928L29.175 67.31928L29.175 75.85053ZM37.76875 67.31928L37.76875 72.94428Q37.76875 74.33491 36.89375 75.16303Q36.01875 75.97553 34.503124 75.97553Q33.003124 75.97553 32.128124 75.17866Q31.253124 74.38178 31.2375 73.00678L31.2375 67.31928L32.9875 67.31928L32.9875 72.94428Q32.9875 73.78803 33.378124 74.17866Q33.784374 74.55366 34.503124 74.55366Q35.9875 74.55366 36.003124 72.99116L36.003124 67.31928L37.76875 67.31928ZM35.3 64.85053L37.14375 64.85053L35.51875 66.66303L34.14375 66.66303L35.3 64.85053ZM42.471874 73.74116L44.39375 67.31928L46.3625 67.31928L43.378124 75.85053L41.55 75.85053L38.596874 67.31928L40.55 67.31928L42.471874 73.74116ZM54.315624 71.77241Q54.315624 73.03803 53.8625 73.99116Q53.425 74.92866 52.596874 75.45991Q51.76875 75.97553 50.70625 75.97553Q49.64375 75.97553 48.8 75.45991Q47.971874 74.94428 47.51875 74.00678Q47.065624 73.05366 47.05 71.81928L47.05 71.39741Q47.05 70.14741 47.503124 69.19428Q47.95625 68.22553 48.784374 67.70991Q49.628124 67.19428 50.690624 67.19428Q51.753124 67.19428 52.58125 67.70991Q53.409374 68.22553 53.8625 69.19428Q54.315624 70.14741 54.315624 71.39741L54.315624 71.77241ZM52.534374 71.39741Q52.534374 70.05366 52.05 69.35053Q51.58125 68.64741 50.690624 68.64741Q49.8 68.64741 49.315624 69.35053Q48.846874 70.03803 48.83125 71.36616L48.83125 71.77241Q48.83125 73.08491 49.315624 73.80366Q49.8 74.52241 50.70625 74.52241Q51.58125 74.52241 52.05 73.83491Q52.534374 73.13178 52.534374 71.80366L52.534374 71.39741ZM55.284374 72.38178Q55.284374 71.03803 55.628124 69.83491Q55.9875 68.61616 56.690624 67.67866Q57.39375 66.74116 58.20625 66.38178L58.534374 67.28803Q57.675 67.92866 57.190624 69.25678Q56.70625 70.56928 56.70625 72.35053L56.70625 72.52241Q56.70625 74.30366 57.175 75.63178Q57.659374 76.95991 58.534374 77.61616L58.20625 78.52241Q57.409374 78.16303 56.721874 77.25678Q56.034374 76.35053 55.659374 75.16303Q55.3 73.97553 55.284374 72.69428L55.284374 72.38178ZM64.12813 74.08491L61.05 74.08491L60.45625 75.85053L58.596874 75.85053L61.76875 67.31928L63.39375 67.31928L66.59688 75.85053L64.72188 75.85053L64.12813 74.08491ZM61.51875 72.66303L63.659374 72.66303L62.58125 69.47553L61.51875 72.66303ZM70.1125 72.52241Q70.1125 73.83491 69.7375 75.06928Q69.3625 76.28803 68.64375 77.22553Q67.925 78.16303 67.1125 78.52241L66.78438 77.61616Q67.6125 76.99116 68.09688 75.69428Q68.58125 74.38178 68.59688 72.67866L68.59688 72.36616Q68.59688 70.61616 68.1125 69.28803Q67.64375 67.94428 66.78438 67.27241L67.1125 66.38178Q67.90938 66.72553 68.6125 67.63178Q69.31563 68.53803 69.70625 69.75678Q70.09688 70.95991 70.1125 72.25678L70.1125 72.52241Z"
     fill-rule="nonzero"
     id="path30" />
  <path
     fill="#9e9e9e"
     d="M23.2375 93.85053L21.55 93.85053L21.55 87.31928L19.534374 87.94428L19.534374 86.56928L23.065624 85.30366L23.2375 85.30366L23.2375 93.85053ZM26.64375 95.99116L25.753124 95.52241L25.971874 95.14741Q26.3625 94.42866 26.378124 93.72553L26.378124 92.41303L27.8 92.41303L27.8 93.58491Q27.784374 94.22553 27.45625 94.88178Q27.14375 95.55366 26.64375 95.99116ZM30.846874 88.83491L31.753124 88.83491Q32.39375 88.83491 32.70625 88.52241Q33.01875 88.19428 33.01875 87.66303Q33.01875 87.14741 32.70625 86.86616Q32.409374 86.56928 31.8625 86.56928Q31.378124 86.56928 31.05 86.83491Q30.721874 87.10053 30.721874 87.52241L29.034374 87.52241Q29.034374 86.86616 29.39375 86.33491Q29.753124 85.80366 30.39375 85.50678Q31.05 85.19428 31.83125 85.19428Q33.175 85.19428 33.940624 85.85053Q34.721874 86.49116 34.721874 87.63178Q34.721874 88.22553 34.3625 88.72553Q34.003124 89.20991 33.425 89.45991Q34.14375 89.72553 34.4875 90.24116Q34.846874 90.75678 34.846874 91.45991Q34.846874 92.60053 34.01875 93.28803Q33.190624 93.97553 31.83125 93.97553Q30.55 93.97553 29.7375 93.30366Q28.925 92.61616 28.925 91.50678L30.6125 91.50678Q30.6125 91.99116 30.971874 92.30366Q31.346874 92.60053 31.8625 92.60053Q32.471874 92.60053 32.815624 92.28803Q33.159374 91.95991 33.159374 91.42866Q33.159374 90.16303 31.753124 90.16303L30.846874 90.16303L30.846874 88.83491ZM36.1125 86.95991Q36.1125 86.17866 36.6125 85.69428Q37.128124 85.19428 37.95625 85.19428Q38.784374 85.19428 39.3 85.67866Q39.815624 86.16303 39.815624 86.99116L39.815624 87.41303Q39.815624 88.19428 39.3 88.67866Q38.784374 89.16303 37.971874 89.16303Q37.128124 89.16303 36.6125 88.67866Q36.1125 88.19428 36.1125 87.38178L36.1125 86.95991ZM37.2375 87.41303Q37.2375 87.75678 37.440624 87.97553Q37.64375 88.19428 37.971874 88.19428Q38.3 88.19428 38.4875 87.97553Q38.675 87.75678 38.675 87.39741L38.675 86.95991Q38.675 86.60053 38.4875 86.39741Q38.3 86.17866 37.95625 86.17866Q37.628124 86.17866 37.425 86.39741Q37.2375 86.60053 37.2375 86.97553L37.2375 87.41303ZM40.190624 91.75678Q40.190624 90.95991 40.70625 90.49116Q41.221874 90.00678 42.034374 90.00678Q42.8625 90.00678 43.378124 90.49116Q43.89375 90.95991 43.89375 91.78803L43.89375 92.20991Q43.89375 93.00678 43.39375 93.49116Q42.89375 93.97553 42.05 93.97553Q41.20625 93.97553 40.690624 93.49116Q40.190624 92.99116 40.190624 92.19428L40.190624 91.75678ZM41.315624 92.20991Q41.315624 92.53803 41.51875 92.77241Q41.7375 92.99116 42.05 92.99116Q42.76875 92.99116 42.76875 92.20991L42.76875 91.75678Q42.76875 91.41303 42.565624 91.19428Q42.3625 90.97553 42.034374 90.97553Q41.70625 90.97553 41.503124 91.19428Q41.315624 91.41303 41.315624 91.77241L41.315624 92.20991ZM38.3 93.20991L37.471874 92.77241L41.64375 86.10053L42.471874 86.53803L38.3 93.20991Z"
     fill-rule="nonzero"
     id="path32" />
  <path
     stroke="#757575"
     stroke-width="1.0"
     stroke-linecap="butt"
     d="M18.55 80.35053L145.23334 80.35053L294.3093 93.67623"
     fill-rule="nonzero"
     id="path34" />
  <path
     fill="#9e9e9e"
     d="M296.3093 93.67623C296.3093 92.57166 295.41385 91.67623 294.3093 91.67623C293.2047 91.67623 292.3093 92.57166 292.3093 93.67623C292.3093 94.7808 293.2047 95.67623 294.3093 95.67623C295.41385 95.67623 296.3093 94.7808 296.3093 93.67623"
     fill-rule="nonzero"
     id="path36" />
  <path
     fill="#1a1a1a"
     d="M19.315624 108.85053L19.315624 100.31928L21.940624 100.31928Q23.065624 100.31928 23.940624 100.83491Q24.83125 101.33491 25.33125 102.27241Q25.83125 103.19428 25.83125 104.39741L25.83125 104.78803Q25.83125 105.97553 25.346874 106.89741Q24.8625 107.81928 23.971874 108.33491Q23.08125 108.85053 21.95625 108.85053L19.315624 108.85053ZM21.065624 101.74116L21.065624 107.44428L21.925 107.44428Q22.95625 107.44428 23.4875 106.77241Q24.034374 106.08491 24.05 104.83491L24.05 104.38178Q24.05 103.08491 23.503124 102.41303Q22.971874 101.74116 21.940624 101.74116L21.065624 101.74116ZM29.175 108.85053L27.425 108.85053L27.425 100.31928L29.175 100.31928L29.175 108.85053ZM34.471874 106.74116L36.39375 100.31928L38.3625 100.31928L35.378124 108.85053L33.55 108.85053L30.596874 100.31928L32.55 100.31928L34.471874 106.74116ZM46.315624 104.77241Q46.315624 106.03803 45.8625 106.99116Q45.425 107.92866 44.596874 108.45991Q43.76875 108.97553 42.70625 108.97553Q41.64375 108.97553 40.8 108.45991Q39.971874 107.94428 39.51875 107.00678Q39.065624 106.05366 39.05 104.81928L39.05 104.39741Q39.05 103.14741 39.503124 102.19428Q39.95625 101.22553 40.784374 100.70991Q41.628124 100.19428 42.690624 100.19428Q43.753124 100.19428 44.58125 100.70991Q45.409374 101.22553 45.8625 102.19428Q46.315624 103.14741 46.315624 104.39741L46.315624 104.77241ZM44.534374 104.39741Q44.534374 103.05366 44.05 102.35053Q43.58125 101.64741 42.690624 101.64741Q41.8 101.64741 41.315624 102.35053Q40.846874 103.03803 40.83125 104.36616L40.83125 104.77241Q40.83125 106.08491 41.315624 106.80366Q41.8 107.52241 42.70625 107.52241Q43.58125 107.52241 44.05 106.83491Q44.534374 106.13178 44.534374 104.80366L44.534374 104.39741ZM50.471874 105.72553L49.065624 105.72553L49.065624 108.85053L47.315624 108.85053L47.315624 100.31928L50.4875 100.31928Q51.9875 100.31928 52.8 100.99116Q53.628124 101.66303 53.628124 102.89741Q53.628124 103.77241 53.253124 104.35053Q52.878124 104.92866 52.1125 105.28803L53.95625 108.77241L53.95625 108.85053L52.065624 108.85053L50.471874 105.72553ZM49.065624 104.30366L50.4875 104.30366Q51.14375 104.30366 51.503124 103.97553Q51.878124 103.63178 51.878124 103.03803Q51.878124 102.42866 51.534374 102.08491Q51.190624 101.74116 50.4875 101.74116L49.065624 101.74116L49.065624 104.30366ZM62.003124 106.00678Q61.909374 107.38178 60.9875 108.17866Q60.08125 108.97553 58.58125 108.97553Q56.940624 108.97553 55.9875 107.86616Q55.05 106.75678 55.05 104.83491L55.05 104.30366Q55.05 103.08491 55.4875 102.14741Q55.925 101.20991 56.721874 100.70991Q57.534374 100.19428 58.596874 100.19428Q60.08125 100.19428 60.971874 100.99116Q61.878124 101.78803 62.01875 103.20991L60.26875 103.20991Q60.20625 102.38178 59.8 102.02241Q59.409374 101.64741 58.596874 101.64741Q57.721874 101.64741 57.284374 102.27241Q56.846874 102.89741 56.83125 104.22553L56.83125 104.86616Q56.83125 106.25678 57.253124 106.89741Q57.675 107.53803 58.58125 107.53803Q59.39375 107.53803 59.784374 107.16303Q60.190624 106.78803 60.253124 106.00678L62.003124 106.00678ZM65.175 108.85053L63.425 108.85053L63.425 100.31928L65.175 100.31928L65.175 108.85053ZM72.12813 107.08491L69.05 107.08491L68.45625 108.85053L66.59688 108.85053L69.76875 100.31928L71.39375 100.31928L74.59688 108.85053L72.72188 108.85053L72.12813 107.08491ZM69.51875 105.66303L71.65938 105.66303L70.58125 102.47553L69.51875 105.66303ZM75.31563 108.85053L75.31563 100.31928L77.94063 100.31928Q79.06563 100.31928 79.94063 100.83491Q80.83125 101.33491 81.33125 102.27241Q81.83125 103.19428 81.83125 104.39741L81.83125 104.78803Q81.83125 105.97553 81.34688 106.89741Q80.8625 107.81928 79.97188 108.33491Q79.08125 108.85053 77.95625 108.85053L75.31563 108.85053ZM77.06563 101.74116L77.06563 107.44428L77.925 107.44428Q78.95625 107.44428 79.4875 106.77241Q80.03438 106.08491 80.05 104.83491L80.05 104.38178Q80.05 103.08491 79.50313 102.41303Q78.97188 101.74116 77.94063 101.74116L77.06563 101.74116ZM90.31563 104.77241Q90.31563 106.03803 89.8625 106.99116Q89.425 107.92866 88.59688 108.45991Q87.76875 108.97553 86.70625 108.97553Q85.64375 108.97553 84.8 108.45991Q83.97188 107.94428 83.51875 107.00678Q83.06563 106.05366 83.05 104.81928L83.05 104.39741Q83.05 103.14741 83.50313 102.19428Q83.95625 101.22553 84.78438 100.70991Q85.62813 100.19428 86.69063 100.19428Q87.75313 100.19428 88.58125 100.70991Q89.40938 101.22553 89.8625 102.19428Q90.31563 103.14741 90.31563 104.39741L90.31563 104.77241ZM88.53438 104.39741Q88.53438 103.05366 88.05 102.35053Q87.58125 101.64741 86.69063 101.64741Q85.8 101.64741 85.31563 102.35053Q84.84688 103.03803 84.83125 104.36616L84.83125 104.77241Q84.83125 106.08491 85.31563 106.80366Q85.8 107.52241 86.70625 107.52241Q87.58125 107.52241 88.05 106.83491Q88.53438 106.13178 88.53438 104.80366L88.53438 104.39741ZM91.28438 105.38178Q91.28438 104.03803 91.62813 102.83491Q91.9875 101.61616 92.69063 100.67866Q93.39375 99.74116 94.20625 99.38178L94.53438 100.28803Q93.675 100.92866 93.19063 102.25678Q92.70625 103.56928 92.70625 105.35053L92.70625 105.52241Q92.70625 107.30366 93.175 108.63178Q93.65938 109.95991 94.53438 110.61616L94.20625 111.52241Q93.40938 111.16303 92.72188 110.25678Q92.03438 109.35053 91.65938 108.16303Q91.3 106.97553 91.28438 105.69428L91.28438 105.38178ZM100.12813 107.08491L97.05 107.08491L96.45625 108.85053L94.59688 108.85053L97.76875 100.31928L99.39375 100.31928L102.59688 108.85053L100.72188 108.85053L100.12813 107.08491ZM97.51875 105.66303L99.65938 105.66303L98.58125 102.47553L97.51875 105.66303ZM106.1125 105.52241Q106.1125 106.83491 105.7375 108.06928Q105.3625 109.28803 104.64375 110.22553Q103.925 111.16303 103.1125 111.52241L102.78438 110.61616Q103.6125 109.99116 104.09688 108.69428Q104.58125 107.38178 104.59688 105.67866L104.59688 105.36616Q104.59688 103.61616 104.1125 102.28803Q103.64375 100.94428 102.78438 100.27241L103.1125 99.38178Q103.90938 99.72553 104.6125 100.63178Q105.31563 101.53803 105.70625 102.75678Q106.09688 103.95991 106.1125 105.25678L106.1125 105.52241Z"
     fill-rule="nonzero"
     id="path38" />
  <path
     fill="#9e9e9e"
     d="M23.096874 123.44428Q22.425 124.08491 21.55 124.08491Q20.409374 124.08491 19.721874 123.31928Q19.05 122.53803 19.05 121.22553Q19.05 120.38178 19.409374 119.67866Q19.784374 118.97553 20.440624 118.58491Q21.096874 118.19428 21.925 118.19428Q22.76875 118.19428 23.425 118.61616Q24.08125 119.03803 24.440624 119.83491Q24.8 120.63178 24.815624 121.64741L24.815624 122.27241Q24.815624 124.41303 23.753124 125.63178Q22.690624 126.85053 20.7375 126.92866L20.33125 126.92866L20.33125 125.52241L20.70625 125.50678Q22.909374 125.41303 23.096874 123.44428ZM21.95625 122.78803Q22.378124 122.78803 22.659374 122.58491Q22.95625 122.36616 23.1125 122.06928L23.1125 121.38178Q23.1125 120.52241 22.784374 120.05366Q22.45625 119.56928 21.909374 119.56928Q21.39375 119.56928 21.065624 120.03803Q20.7375 120.49116 20.7375 121.19428Q20.7375 121.89741 21.05 122.35053Q21.378124 122.78803 21.95625 122.78803ZM26.64375 128.99115L25.753124 128.5224L25.971874 128.1474Q26.3625 127.42866 26.378124 126.72553L26.378124 125.41303L27.8 125.41303L27.8 126.58491Q27.784374 127.22553 27.45625 127.88178Q27.14375 128.55365 26.64375 128.99115ZM34.878124 123.31928Q34.878124 125.08491 34.14375 126.03803Q33.409374 126.97553 32.003124 126.97553Q30.596874 126.97553 29.8625 126.05366Q29.128124 125.13178 29.1125 123.41303L29.1125 121.83491Q29.1125 120.05366 29.846874 119.13178Q30.596874 118.19428 31.9875 118.19428Q33.378124 118.19428 34.1125 119.11616Q34.8625 120.03803 34.878124 121.75678L34.878124 123.31928ZM33.175 121.60053Q33.175 120.53803 32.878124 120.05366Q32.596874 119.56928 31.9875 119.56928Q31.39375 119.56928 31.096874 120.03803Q30.815624 120.49116 30.8 121.47553L30.8 123.53803Q30.8 124.58491 31.08125 125.10053Q31.3625 125.60053 32.003124 125.60053Q32.6125 125.60053 32.89375 125.11616Q33.175 124.63178 33.175 123.63178L33.175 121.60053ZM36.1125 119.95991Q36.1125 119.17866 36.6125 118.69428Q37.128124 118.19428 37.95625 118.19428Q38.784374 118.19428 39.3 118.67866Q39.815624 119.16303 39.815624 119.99116L39.815624 120.41303Q39.815624 121.19428 39.3 121.67866Q38.784374 122.16303 37.971874 122.16303Q37.128124 122.16303 36.6125 121.67866Q36.1125 121.19428 36.1125 120.38178L36.1125 119.95991ZM37.2375 120.41303Q37.2375 120.75678 37.440624 120.97553Q37.64375 121.19428 37.971874 121.19428Q38.3 121.19428 38.4875 120.97553Q38.675 120.75678 38.675 120.39741L38.675 119.95991Q38.675 119.60053 38.4875 119.39741Q38.3 119.17866 37.95625 119.17866Q37.628124 119.17866 37.425 119.39741Q37.2375 119.60053 37.2375 119.97553L37.2375 120.41303ZM40.190624 124.75678Q40.190624 123.95991 40.70625 123.49116Q41.221874 123.00678 42.034374 123.00678Q42.8625 123.00678 43.378124 123.49116Q43.89375 123.95991 43.89375 124.78803L43.89375 125.20991Q43.89375 126.00678 43.39375 126.49116Q42.89375 126.97553 42.05 126.97553Q41.20625 126.97553 40.690624 126.49116Q40.190624 125.99116 40.190624 125.19428L40.190624 124.75678ZM41.315624 125.20991Q41.315624 125.53803 41.51875 125.77241Q41.7375 125.99116 42.05 125.99116Q42.76875 125.99116 42.76875 125.20991L42.76875 124.75678Q42.76875 124.41303 42.565624 124.19428Q42.3625 123.97553 42.034374 123.97553Q41.70625 123.97553 41.503124 124.19428Q41.315624 124.41303 41.315624 124.77241L41.315624 125.20991ZM38.3 126.20991L37.471874 125.77241L41.64375 119.10053L42.471874 119.53803L38.3 126.20991Z"
     fill-rule="nonzero"
     id="path40" />
  <path
     stroke="#757575"
     stroke-width="1.0"
     stroke-linecap="butt"
     d="M18.55 113.35053L145.23334 113.35053L249.88428 100.02483"
     fill-rule="nonzero"
     id="path42" />
  <path
     fill="#9e9e9e"
     d="M251.88428 100.02483C251.88428 98.920265 250.98885 98.02483 249.88428 98.02483C248.77971 98.02483 247.88428 98.920265 247.88428 100.02483C247.88428 101.1294 248.77971 102.02483 249.88428 102.02483C250.98885 102.02483 251.88428 101.1294 251.88428 100.02483"
     fill-rule="nonzero"
     id="path44" />
  <path
     fill="#1a1a1a"
     d="M23.7375 215.22339Q23.7375 214.72339 23.378124 214.45776Q23.034374 214.19214 22.1125 213.89526Q21.20625 213.59839 20.675 213.30151Q19.221874 212.52026 19.221874 211.19214Q19.221874 210.50464 19.6125 209.95776Q20.003124 209.41089 20.721874 209.11401Q21.45625 208.80151 22.3625 208.80151Q23.284374 208.80151 23.9875 209.14526Q24.70625 209.47339 25.096874 210.08276Q25.503124 210.67651 25.503124 211.44214L23.7375 211.44214Q23.7375 210.86401 23.3625 210.53589Q23.003124 210.20776 22.33125 210.20776Q21.690624 210.20776 21.33125 210.48901Q20.971874 210.75464 20.971874 211.19214Q20.971874 211.61401 21.39375 211.89526Q21.815624 212.17651 22.628124 212.42651Q24.128124 212.87964 24.815624 213.55151Q25.503124 214.20776 25.503124 215.20776Q25.503124 216.31714 24.659374 216.95776Q23.83125 217.58276 22.409374 217.58276Q21.425 217.58276 20.6125 217.22339Q19.8 216.84839 19.378124 216.22339Q18.95625 215.59839 18.95625 214.77026L20.721874 214.77026Q20.721874 216.19214 22.409374 216.19214Q23.034374 216.19214 23.378124 215.94214Q23.7375 215.67651 23.7375 215.22339ZM33.315624 213.37964Q33.315624 214.64526 32.8625 215.59839Q32.425 216.53589 31.596874 217.06714Q30.76875 217.58276 29.70625 217.58276Q28.64375 217.58276 27.8 217.06714Q26.971874 216.55151 26.51875 215.61401Q26.065624 214.66089 26.05 213.42651L26.05 213.00464Q26.05 211.75464 26.503124 210.80151Q26.95625 209.83276 27.784374 209.31714Q28.628124 208.80151 29.690624 208.80151Q30.753124 208.80151 31.58125 209.31714Q32.409374 209.83276 32.8625 210.80151Q33.315624 211.75464 33.315624 213.00464L33.315624 213.37964ZM31.534374 213.00464Q31.534374 211.66089 31.05 210.95776Q30.58125 210.25464 29.690624 210.25464Q28.8 210.25464 28.315624 210.95776Q27.846874 211.64526 27.83125 212.97339L27.83125 213.37964Q27.83125 214.69214 28.315624 215.41089Q28.8 216.12964 29.70625 216.12964Q30.58125 216.12964 31.05 215.44214Q31.534374 214.73901 31.534374 213.41089L31.534374 213.00464ZM36.065624 216.05151L39.8 216.05151L39.8 217.45776L34.315624 217.45776L34.315624 208.92651L36.065624 208.92651L36.065624 216.05151ZM47.7375 210.34839L45.128124 210.34839L45.128124 217.45776L43.3625 217.45776L43.3625 210.34839L40.784374 210.34839L40.784374 208.92651L47.7375 208.92651L47.7375 210.34839ZM53.440624 213.75464L50.065624 213.75464L50.065624 216.05151L54.034374 216.05151L54.034374 217.45776L48.315624 217.45776L48.315624 208.92651L54.01875 208.92651L54.01875 210.34839L50.065624 210.34839L50.065624 212.37964L53.440624 212.37964L53.440624 213.75464ZM57.175 217.45776L55.425 217.45776L55.425 208.92651L57.175 208.92651L57.175 217.45776ZM62.471874 214.33276L61.065624 214.33276L61.065624 217.45776L59.315624 217.45776L59.315624 208.92651L62.4875 208.92651Q63.9875 208.92651 64.8 209.59839Q65.62813 210.27026 65.62813 211.50464Q65.62813 212.37964 65.25313 212.95776Q64.87813 213.53589 64.1125 213.89526L65.95625 217.37964L65.95625 217.45776L64.06563 217.45776L62.471874 214.33276ZM61.065624 212.91089L62.4875 212.91089Q63.14375 212.91089 63.503124 212.58276Q63.878124 212.23901 63.878124 211.64526Q63.878124 211.03589 63.534374 210.69214Q63.190624 210.34839 62.4875 210.34839L61.065624 210.34839L61.065624 212.91089ZM74.31563 213.37964Q74.31563 214.64526 73.8625 215.59839Q73.425 216.53589 72.59688 217.06714Q71.76875 217.58276 70.70625 217.58276Q69.64375 217.58276 68.8 217.06714Q67.97188 216.55151 67.51875 215.61401Q67.06563 214.66089 67.05 213.42651L67.05 213.00464Q67.05 211.75464 67.50313 210.80151Q67.95625 209.83276 68.78438 209.31714Q69.62813 208.80151 70.69063 208.80151Q71.75313 208.80151 72.58125 209.31714Q73.40938 209.83276 73.8625 210.80151Q74.31563 211.75464 74.31563 213.00464L74.31563 213.37964ZM72.53438 213.00464Q72.53438 211.66089 72.05 210.95776Q71.58125 210.25464 70.69063 210.25464Q69.8 210.25464 69.31563 210.95776Q68.84688 211.64526 68.83125 212.97339L68.83125 213.37964Q68.83125 214.69214 69.31563 215.41089Q69.8 216.12964 70.70625 216.12964Q71.58125 216.12964 72.05 215.44214Q72.53438 214.73901 72.53438 213.41089L72.53438 213.00464ZM75.28438 213.98901Q75.28438 212.64526 75.62813 211.44214Q75.9875 210.22339 76.69063 209.28589Q77.39375 208.34839 78.20625 207.98901L78.53438 208.89526Q77.675 209.53589 77.19063 210.86401Q76.70625 212.17651 76.70625 213.95776L76.70625 214.12964Q76.70625 215.91089 77.175 217.23901Q77.65938 218.56714 78.53438 219.22339L78.20625 220.12964Q77.40938 219.77026 76.72188 218.86401Q76.03438 217.95776 75.65938 216.77026Q75.3 215.58276 75.28438 214.30151L75.28438 213.98901ZM84.12813 215.69214L81.05 215.69214L80.45625 217.45776L78.59688 217.45776L81.76875 208.92651L83.39375 208.92651L86.59688 217.45776L84.72188 217.45776L84.12813 215.69214ZM81.51875 214.27026L83.65938 214.27026L82.58125 211.08276L81.51875 214.27026ZM90.1125 214.12964Q90.1125 215.44214 89.7375 216.67651Q89.3625 217.89526 88.64375 218.83276Q87.925 219.77026 87.1125 220.12964L86.78438 219.22339Q87.6125 218.59839 88.09688 217.30151Q88.58125 215.98901 88.59688 214.28589L88.59688 213.97339Q88.59688 212.22339 88.1125 210.89526Q87.64375 209.55151 86.78438 208.87964L87.1125 207.98901Q87.90938 208.33276 88.6125 209.23901Q89.31563 210.14526 89.70625 211.36401Q90.09688 212.56714 90.1125 213.86401L90.1125 214.12964Z"
     fill-rule="nonzero"
     id="path46" />
  <path
     fill="#9e9e9e"
     d="M20.846874 230.44214L21.753124 230.44214Q22.39375 230.44214 22.70625 230.12964Q23.01875 229.80151 23.01875 229.27026Q23.01875 228.75464 22.70625 228.47339Q22.409374 228.17651 21.8625 228.17651Q21.378124 228.17651 21.05 228.44214Q20.721874 228.70776 20.721874 229.12964L19.034374 229.12964Q19.034374 228.47339 19.39375 227.94214Q19.753124 227.41089 20.39375 227.11401Q21.05 226.80151 21.83125 226.80151Q23.175 226.80151 23.940624 227.45776Q24.721874 228.09839 24.721874 229.23901Q24.721874 229.83276 24.3625 230.33276Q24.003124 230.81714 23.425 231.06714Q24.14375 231.33276 24.4875 231.84839Q24.846874 232.36401 24.846874 233.06714Q24.846874 234.20776 24.01875 234.89526Q23.190624 235.58276 21.83125 235.58276Q20.55 235.58276 19.7375 234.91089Q18.925 234.22339 18.925 233.11401L20.6125 233.11401Q20.6125 233.59839 20.971874 233.91089Q21.346874 234.20776 21.8625 234.20776Q22.471874 234.20776 22.815624 233.89526Q23.159374 233.56714 23.159374 233.03589Q23.159374 231.77026 21.753124 231.77026L20.846874 231.77026L20.846874 230.44214ZM30.096874 232.05151Q29.425 232.69214 28.55 232.69214Q27.409374 232.69214 26.721874 231.92651Q26.05 231.14526 26.05 229.83276Q26.05 228.98901 26.409374 228.28589Q26.784374 227.58276 27.440624 227.19214Q28.096874 226.80151 28.925 226.80151Q29.76875 226.80151 30.425 227.22339Q31.08125 227.64526 31.440624 228.44214Q31.8 229.23901 31.815624 230.25464L31.815624 230.87964Q31.815624 233.02026 30.753124 234.23901Q29.690624 235.45776 27.7375 235.53589L27.33125 235.53589L27.33125 234.12964L27.70625 234.11401Q29.909374 234.02026 30.096874 232.05151ZM28.95625 231.39526Q29.378124 231.39526 29.659374 231.19214Q29.95625 230.97339 30.1125 230.67651L30.1125 229.98901Q30.1125 229.12964 29.784374 228.66089Q29.45625 228.17651 28.909374 228.17651Q28.39375 228.17651 28.065624 228.64526Q27.7375 229.09839 27.7375 229.80151Q27.7375 230.50464 28.05 230.95776Q28.378124 231.39526 28.95625 231.39526ZM33.64375 237.59839L32.753124 237.12964L32.971874 236.75464Q33.3625 236.03589 33.378124 235.33276L33.378124 234.02026L34.8 234.02026L34.8 235.19214Q34.784374 235.83276 34.45625 236.48901Q34.14375 237.16089 33.64375 237.59839ZM40.2375 235.45776L38.55 235.45776L38.55 228.92651L36.534374 229.55151L36.534374 228.17651L40.065624 226.91089L40.2375 226.91089L40.2375 235.45776ZM43.1125 228.56714Q43.1125 227.78589 43.6125 227.30151Q44.128124 226.80151 44.95625 226.80151Q45.784374 226.80151 46.3 227.28589Q46.815624 227.77026 46.815624 228.59839L46.815624 229.02026Q46.815624 229.80151 46.3 230.28589Q45.784374 230.77026 44.971874 230.77026Q44.128124 230.77026 43.6125 230.28589Q43.1125 229.80151 43.1125 228.98901L43.1125 228.56714ZM44.2375 229.02026Q44.2375 229.36401 44.440624 229.58276Q44.64375 229.80151 44.971874 229.80151Q45.3 229.80151 45.4875 229.58276Q45.675 229.36401 45.675 229.00464L45.675 228.56714Q45.675 228.20776 45.4875 228.00464Q45.3 227.78589 44.95625 227.78589Q44.628124 227.78589 44.425 228.00464Q44.2375 228.20776 44.2375 228.58276L44.2375 229.02026ZM47.190624 233.36401Q47.190624 232.56714 47.70625 232.09839Q48.221874 231.61401 49.034374 231.61401Q49.8625 231.61401 50.378124 232.09839Q50.89375 232.56714 50.89375 233.39526L50.89375 233.81714Q50.89375 234.61401 50.39375 235.09839Q49.89375 235.58276 49.05 235.58276Q48.20625 235.58276 47.690624 235.09839Q47.190624 234.59839 47.190624 233.80151L47.190624 233.36401ZM48.315624 233.81714Q48.315624 234.14526 48.51875 234.37964Q48.7375 234.59839 49.05 234.59839Q49.76875 234.59839 49.76875 233.81714L49.76875 233.36401Q49.76875 233.02026 49.565624 232.80151Q49.3625 232.58276 49.034374 232.58276Q48.70625 232.58276 48.503124 232.80151Q48.315624 233.02026 48.315624 233.37964L48.315624 233.81714ZM45.3 234.81714L44.471874 234.37964L48.64375 227.70776L49.471874 228.14526L45.3 234.81714Z"
     fill-rule="nonzero"
     id="path48" />
  <path
     stroke="#757575"
     stroke-width="1.0"
     stroke-linecap="butt"
     d="M18.55 221.95776L145.23334 221.95776L165.07089 221.95776"
     fill-rule="nonzero"
     id="path50" />
  <path
     fill="#9e9e9e"
     d="M167.07089 221.95776C167.07089 220.8532 166.17546 219.95776 165.07089 219.95776C163.96632 219.95776 163.07089 220.8532 163.07089 221.95776C163.07089 223.06233 163.96632 223.95776 165.07089 223.95776C166.17546 223.95776 167.07089 223.06233 167.07089 221.95776"
     fill-rule="nonzero"
     id="path52" />
  <path
     fill="#1a1a1a"
     d="M525.90314 187.17424Q525.8094 188.54924 524.8875 189.34612Q523.98126 190.14299 522.48126 190.14299Q520.84064 190.14299 519.8875 189.03362Q518.95 187.92424 518.95 186.00237L518.95 185.47112Q518.95 184.25237 519.3875 183.31487Q519.825 182.37737 520.6219 181.87737Q521.4344 181.36174 522.4969 181.36174Q523.98126 181.36174 524.8719 182.15862Q525.77814 182.95549 525.91876 184.37737L524.16876 184.37737Q524.10626 183.54924 523.7 183.18987Q523.3094 182.81487 522.4969 182.81487Q521.6219 182.81487 521.1844 183.43987Q520.7469 184.06487 520.73126 185.39299L520.73126 186.03362Q520.73126 187.42424 521.15314 188.06487Q521.575 188.70549 522.48126 188.70549Q523.29376 188.70549 523.6844 188.33049Q524.09064 187.95549 524.15314 187.17424L525.90314 187.17424ZM532.02814 188.25237L528.95 188.25237L528.35626 190.01799L526.4969 190.01799L529.66876 181.48674L531.29376 181.48674L534.4969 190.01799L532.6219 190.01799L532.02814 188.25237ZM529.41876 186.83049L531.5594 186.83049L530.48126 183.64299L529.41876 186.83049ZM539.6375 187.78362Q539.6375 187.28362 539.27814 187.01799Q538.9344 186.75237 538.0125 186.45549Q537.10626 186.15862 536.575 185.86174Q535.1219 185.08049 535.1219 183.75237Q535.1219 183.06487 535.5125 182.51799Q535.90314 181.97112 536.6219 181.67424Q537.35626 181.36174 538.2625 181.36174Q539.1844 181.36174 539.8875 181.70549Q540.60626 182.03362 540.9969 182.64299Q541.40314 183.23674 541.40314 184.00237L539.6375 184.00237Q539.6375 183.42424 539.2625 183.09612Q538.90314 182.76799 538.23126 182.76799Q537.59064 182.76799 537.23126 183.04924Q536.8719 183.31487 536.8719 183.75237Q536.8719 184.17424 537.29376 184.45549Q537.71564 184.73674 538.52814 184.98674Q540.02814 185.43987 540.71564 186.11174Q541.40314 186.76799 541.40314 187.76799Q541.40314 188.87737 540.5594 189.51799Q539.73126 190.14299 538.3094 190.14299Q537.325 190.14299 536.5125 189.78362Q535.7 189.40862 535.27814 188.78362Q534.85626 188.15862 534.85626 187.33049L536.6219 187.33049Q536.6219 188.75237 538.3094 188.75237Q538.9344 188.75237 539.27814 188.50237Q539.6375 188.23674 539.6375 187.78362ZM547.02814 188.25237L543.95 188.25237L543.35626 190.01799L541.4969 190.01799L544.66876 181.48674L546.29376 181.48674L549.4969 190.01799L547.6219 190.01799L547.02814 188.25237ZM544.41876 186.83049L546.5594 186.83049L545.48126 183.64299L544.41876 186.83049ZM550.21564 190.01799L550.21564 181.48674L552.84064 181.48674Q553.96564 181.48674 554.84064 182.00237Q555.73126 182.50237 556.23126 183.43987Q556.73126 184.36174 556.73126 185.56487L556.73126 185.95549Q556.73126 187.14299 556.2469 188.06487Q555.7625 188.98674 554.8719 189.50237Q553.98126 190.01799 552.85626 190.01799L550.21564 190.01799ZM551.96564 182.90862L551.96564 188.61174L552.825 188.61174Q553.85626 188.61174 554.3875 187.93987Q554.9344 187.25237 554.95 186.00237L554.95 185.54924Q554.95 184.25237 554.40314 183.58049Q553.8719 182.90862 552.84064 182.90862L551.96564 182.90862ZM565.21564 185.93987Q565.21564 187.20549 564.7625 188.15862Q564.325 189.09612 563.4969 189.62737Q562.66876 190.14299 561.60626 190.14299Q560.54376 190.14299 559.7 189.62737Q558.8719 189.11174 558.41876 188.17424Q557.96564 187.22112 557.95 185.98674L557.95 185.56487Q557.95 184.31487 558.40314 183.36174Q558.85626 182.39299 559.6844 181.87737Q560.52814 181.36174 561.59064 181.36174Q562.65314 181.36174 563.48126 181.87737Q564.3094 182.39299 564.7625 183.36174Q565.21564 184.31487 565.21564 185.56487L565.21564 185.93987ZM563.4344 185.56487Q563.4344 184.22112 562.95 183.51799Q562.48126 182.81487 561.59064 182.81487Q560.7 182.81487 560.21564 183.51799Q559.7469 184.20549 559.73126 185.53362L559.73126 185.93987Q559.73126 187.25237 560.21564 187.97112Q560.7 188.68987 561.60626 188.68987Q562.48126 188.68987 562.95 188.00237Q563.4344 187.29924 563.4344 185.97112L563.4344 185.56487ZM566.1844 186.54924Q566.1844 185.20549 566.52814 184.00237Q566.8875 182.78362 567.59064 181.84612Q568.29376 180.90862 569.10626 180.54924L569.4344 181.45549Q568.575 182.09612 568.09064 183.42424Q567.60626 184.73674 567.60626 186.51799L567.60626 186.68987Q567.60626 188.47112 568.075 189.79924Q568.5594 191.12737 569.4344 191.78362L569.10626 192.68987Q568.3094 192.33049 567.6219 191.42424Q566.9344 190.51799 566.5594 189.33049Q566.2 188.14299 566.1844 186.86174L566.1844 186.54924ZM575.02814 188.25237L571.95 188.25237L571.35626 190.01799L569.4969 190.01799L572.66876 181.48674L574.29376 181.48674L577.4969 190.01799L575.6219 190.01799L575.02814 188.25237ZM572.41876 186.83049L574.5594 186.83049L573.48126 183.64299L572.41876 186.83049ZM581.0125 186.68987Q581.0125 188.00237 580.6375 189.23674Q580.2625 190.45549 579.54376 191.39299Q578.825 192.33049 578.0125 192.68987L577.6844 191.78362Q578.5125 191.15862 578.9969 189.86174Q579.48126 188.54924 579.4969 186.84612L579.4969 186.53362Q579.4969 184.78362 579.0125 183.45549Q578.54376 182.11174 577.6844 181.43987L578.0125 180.54924Q578.8094 180.89299 579.5125 181.79924Q580.21564 182.70549 580.60626 183.92424Q580.9969 185.12737 581.0125 186.42424L581.0125 186.68987Z"
     fill-rule="nonzero"
     id="path54" />
  <path
     fill="#9e9e9e"
     d="M549.27814 203.81487L549.77814 199.48674L554.5594 199.48674L554.5594 200.89299L551.16876 200.89299L550.95 202.73674Q551.5594 202.40862 552.23126 202.40862Q553.45 202.40862 554.1375 203.17424Q554.84064 203.92424 554.84064 205.28362Q554.84064 206.11174 554.48126 206.76799Q554.1375 207.40862 553.48126 207.78362Q552.84064 208.14299 551.95 208.14299Q551.1844 208.14299 550.5125 207.83049Q549.85626 207.50237 549.46564 206.93987Q549.09064 206.37737 549.0594 205.64299L550.7469 205.64299Q550.79376 206.17424 551.10626 206.47112Q551.4344 206.76799 551.95 206.76799Q552.52814 206.76799 552.825 206.36174Q553.1375 205.93987 553.1375 205.18987Q553.1375 204.45549 552.77814 204.08049Q552.4344 203.68987 551.77814 203.68987Q551.16876 203.68987 550.79376 204.00237L550.6375 204.15862L549.27814 203.81487ZM561.77814 204.48674Q561.77814 206.25237 561.04376 207.20549Q560.3094 208.14299 558.90314 208.14299Q557.4969 208.14299 556.7625 207.22112Q556.02814 206.29924 556.0125 204.58049L556.0125 203.00237Q556.0125 201.22112 556.7469 200.29924Q557.4969 199.36174 558.8875 199.36174Q560.27814 199.36174 561.0125 200.28362Q561.7625 201.20549 561.77814 202.92424L561.77814 204.48674ZM560.075 202.76799Q560.075 201.70549 559.77814 201.22112Q559.4969 200.73674 558.8875 200.73674Q558.29376 200.73674 557.9969 201.20549Q557.71564 201.65862 557.7 202.64299L557.7 204.70549Q557.7 205.75237 557.98126 206.26799Q558.2625 206.76799 558.90314 206.76799Q559.5125 206.76799 559.79376 206.28362Q560.075 205.79924 560.075 204.79924L560.075 202.76799ZM563.54376 210.15862L562.65314 209.68987L562.8719 209.31487Q563.2625 208.59612 563.27814 207.89299L563.27814 206.58049L564.7 206.58049L564.7 207.75237Q564.6844 208.39299 564.35626 209.04924Q564.04376 209.72112 563.54376 210.15862ZM570.6219 199.39299L570.6219 200.79924L570.46564 200.79924Q569.3094 200.81487 568.60626 201.39299Q567.91876 201.97112 567.77814 203.00237Q568.45 202.31487 569.48126 202.31487Q570.60626 202.31487 571.2625 203.11174Q571.91876 203.90862 571.91876 205.20549Q571.91876 206.03362 571.5594 206.70549Q571.2 207.37737 570.52814 207.76799Q569.8719 208.14299 569.04376 208.14299Q567.7 208.14299 566.8719 207.20549Q566.04376 206.25237 566.04376 204.68987L566.04376 204.08049Q566.04376 202.68987 566.5594 201.62737Q567.09064 200.56487 568.0594 199.98674Q569.04376 199.40862 570.34064 199.39299L570.6219 199.39299ZM568.96564 203.67424Q568.5594 203.67424 568.21564 203.89299Q567.8875 204.09612 567.73126 204.45549L567.73126 204.97112Q567.73126 205.81487 568.0594 206.29924Q568.40314 206.76799 569.0125 206.76799Q569.5594 206.76799 569.8875 206.34612Q570.23126 205.90862 570.23126 205.22112Q570.23126 204.51799 569.8875 204.09612Q569.54376 203.67424 568.96564 203.67424ZM573.0125 201.12737Q573.0125 200.34612 573.5125 199.86174Q574.02814 199.36174 574.85626 199.36174Q575.6844 199.36174 576.2 199.84612Q576.71564 200.33049 576.71564 201.15862L576.71564 201.58049Q576.71564 202.36174 576.2 202.84612Q575.6844 203.33049 574.8719 203.33049Q574.02814 203.33049 573.5125 202.84612Q573.0125 202.36174 573.0125 201.54924L573.0125 201.12737ZM574.1375 201.58049Q574.1375 201.92424 574.34064 202.14299Q574.54376 202.36174 574.8719 202.36174Q575.2 202.36174 575.3875 202.14299Q575.575 201.92424 575.575 201.56487L575.575 201.12737Q575.575 200.76799 575.3875 200.56487Q575.2 200.34612 574.85626 200.34612Q574.52814 200.34612 574.325 200.56487Q574.1375 200.76799 574.1375 201.14299L574.1375 201.58049ZM577.09064 205.92424Q577.09064 205.12737 577.60626 204.65862Q578.1219 204.17424 578.9344 204.17424Q579.7625 204.17424 580.27814 204.65862Q580.79376 205.12737 580.79376 205.95549L580.79376 206.37737Q580.79376 207.17424 580.29376 207.65862Q579.79376 208.14299 578.95 208.14299Q578.10626 208.14299 577.59064 207.65862Q577.09064 207.15862 577.09064 206.36174L577.09064 205.92424ZM578.21564 206.37737Q578.21564 206.70549 578.41876 206.93987Q578.6375 207.15862 578.95 207.15862Q579.66876 207.15862 579.66876 206.37737L579.66876 205.92424Q579.66876 205.58049 579.46564 205.36174Q579.2625 205.14299 578.9344 205.14299Q578.60626 205.14299 578.40314 205.36174Q578.21564 205.58049 578.21564 205.93987L578.21564 206.37737ZM575.2 207.37737L574.3719 206.93987L578.54376 200.26799L579.3719 200.70549L575.2 207.37737Z"
     fill-rule="nonzero"
     id="path56" />
  <path
     stroke="#757575"
     stroke-width="1.0"
     stroke-linecap="butt"
     d="M581.45 194.51799L454.76666 194.51799L441.29968 194.51799"
     fill-rule="nonzero"
     id="path58" />
  <path
     fill="#9e9e9e"
     d="M443.29968 194.51799C443.29968 193.41342 442.40424 192.51799 441.29968 192.51799C440.1951 192.51799 439.29968 193.41342 439.29968 194.51799C439.29968 195.62256 440.1951 196.51799 441.29968 196.51799C442.40424 196.51799 443.29968 195.62256 443.29968 194.51799"
     fill-rule="nonzero"
     id="path60" />
  <path
     fill="#757575"
     d="M191.9375 32.815624Q191.76562 35.1125 190.23438 36.440624Q188.70312 37.753124 186.20312 37.753124Q183.46875 37.753124 181.90625 35.909374Q180.34375 34.065624 180.34375 30.846874L180.34375 29.9875Q180.34375 27.925 181.0625 26.3625Q181.78125 24.8 183.125 23.971874Q184.46875 23.128124 186.25 23.128124Q188.70312 23.128124 190.20312 24.45625Q191.71875 25.76875 191.95312 28.159374L189.01562 28.159374Q188.92188 26.784374 188.25 26.159374Q187.59375 25.534374 186.25 25.534374Q184.78125 25.534374 184.04688 26.596874Q183.32812 27.64375 183.3125 29.846874L183.3125 30.925Q183.3125 33.221874 184.0 34.284374Q184.70312 35.346874 186.20312 35.346874Q187.5625 35.346874 188.23438 34.7375Q188.90625 34.1125 189.0 32.815624L191.9375 32.815624ZM199.70312 37.55Q199.51562 37.175 199.42188 36.596874Q198.40625 37.753124 196.76562 37.753124Q195.20312 37.753124 194.1875 36.846874Q193.17188 35.940624 193.17188 34.58125Q193.17188 32.89375 194.40625 32.003124Q195.65625 31.096874 198.01562 31.096874L199.3125 31.096874L199.3125 30.4875Q199.3125 29.753124 198.9375 29.315624Q198.5625 28.878124 197.75 28.878124Q197.03125 28.878124 196.625 29.221874Q196.21875 29.565624 196.21875 30.159374L193.40625 30.159374Q193.40625 29.2375 193.96875 28.45625Q194.53125 27.675 195.5625 27.2375Q196.60938 26.784374 197.89062 26.784374Q199.84375 26.784374 200.98438 27.76875Q202.14062 28.753124 202.14062 30.534374L202.14062 35.1125Q202.15625 36.6125 202.5625 37.378124L202.5625 37.55L199.70312 37.55ZM197.375 35.58125Q198.0 35.58125 198.51562 35.315624Q199.04688 35.034374 199.3125 34.565624L199.3125 32.7375L198.25 32.7375Q196.14062 32.7375 196.0 34.20625L195.98438 34.378124Q195.98438 34.909374 196.35938 35.253124Q196.73438 35.58125 197.375 35.58125ZM207.1875 26.9875L207.26562 28.20625Q208.40625 26.784374 210.3125 26.784374Q211.98438 26.784374 212.79688 27.76875Q213.625 28.753124 213.64062 30.721874L213.64062 37.55L210.82812 37.55L210.82812 30.784374Q210.82812 29.89375 210.4375 29.4875Q210.04688 29.08125 209.14062 29.08125Q207.9375 29.08125 207.34375 30.096874L207.34375 37.55L204.53125 37.55L204.53125 26.9875L207.1875 26.9875ZM215.14062 32.190624Q215.14062 29.721874 216.25 28.253124Q217.35938 26.784374 219.28125 26.784374Q220.82812 26.784374 221.82812 27.940624L221.82812 22.55L224.67188 22.55L224.67188 37.55L222.125 37.55L221.98438 36.425Q220.92188 37.753124 219.26562 37.753124Q217.40625 37.753124 216.26562 36.284374Q215.14062 34.8 215.14062 32.190624ZM217.96875 32.39375Q217.96875 33.878124 218.48438 34.675Q219.0 35.45625 219.98438 35.45625Q221.29688 35.45625 221.82812 34.3625L221.82812 30.190624Q221.3125 29.08125 220.01562 29.08125Q217.96875 29.08125 217.96875 32.39375ZM229.5625 37.55L226.73438 37.55L226.73438 26.9875L229.5625 26.9875L229.5625 37.55ZM226.5625 24.253124Q226.5625 23.6125 226.98438 23.20625Q227.42188 22.8 228.14062 22.8Q228.875 22.8 229.29688 23.20625Q229.73438 23.6125 229.73438 24.253124Q229.73438 24.89375 229.29688 25.3Q228.85938 25.70625 228.14062 25.70625Q227.4375 25.70625 227.0 25.3Q226.5625 24.89375 226.5625 24.253124ZM231.14062 32.190624Q231.14062 29.721874 232.25 28.253124Q233.35938 26.784374 235.28125 26.784374Q236.82812 26.784374 237.82812 27.940624L237.82812 22.55L240.67188 22.55L240.67188 37.55L238.125 37.55L237.98438 36.425Q236.92188 37.753124 235.26562 37.753124Q233.40625 37.753124 232.26562 36.284374Q231.14062 34.8 231.14062 32.190624ZM233.96875 32.39375Q233.96875 33.878124 234.48438 34.675Q235.0 35.45625 235.98438 35.45625Q237.29688 35.45625 237.82812 34.3625L237.82812 30.190624Q237.3125 29.08125 236.01562 29.08125Q233.96875 29.08125 233.96875 32.39375ZM248.70312 37.55Q248.51562 37.175 248.42188 36.596874Q247.40625 37.753124 245.76562 37.753124Q244.20312 37.753124 243.1875 36.846874Q242.17188 35.940624 242.17188 34.58125Q242.17188 32.89375 243.40625 32.003124Q244.65625 31.096874 247.01562 31.096874L248.3125 31.096874L248.3125 30.4875Q248.3125 29.753124 247.9375 29.315624Q247.5625 28.878124 246.75 28.878124Q246.03125 28.878124 245.625 29.221874Q245.21875 29.565624 245.21875 30.159374L242.40625 30.159374Q242.40625 29.2375 242.96875 28.45625Q243.53125 27.675 244.5625 27.2375Q245.60938 26.784374 246.89062 26.784374Q248.84375 26.784374 249.98438 27.76875Q251.14062 28.753124 251.14062 30.534374L251.14062 35.1125Q251.15625 36.6125 251.5625 37.378124L251.5625 37.55L248.70312 37.55ZM246.375 35.58125Q247.0 35.58125 247.51562 35.315624Q248.04688 35.034374 248.3125 34.565624L248.3125 32.7375L247.25 32.7375Q245.14062 32.7375 245.0 34.20625L244.98438 34.378124Q244.98438 34.909374 245.35938 35.253124Q245.73438 35.58125 246.375 35.58125ZM256.96875 24.378124L256.96875 26.9875L258.76562 26.9875L258.76562 29.05L256.96875 29.05L256.96875 34.33125Q256.96875 34.909374 257.1875 35.175Q257.40625 35.425 258.04688 35.425Q258.51562 35.425 258.875 35.346874L258.875 37.4875Q258.04688 37.753124 257.17188 37.753124Q254.20312 37.753124 254.14062 34.753124L254.14062 29.05L252.59375 29.05L252.59375 26.9875L254.14062 26.9875L254.14062 24.378124L256.96875 24.378124ZM260.14062 32.175Q260.14062 30.596874 260.75 29.3625Q261.35938 28.128124 262.48438 27.45625Q263.625 26.784374 265.14062 26.784374Q267.28125 26.784374 268.625 28.096874Q269.98438 29.409374 270.14062 31.64375L270.15625 32.378124Q270.15625 34.8 268.79688 36.284374Q267.4375 37.753124 265.15625 37.753124Q262.875 37.753124 261.5 36.284374Q260.14062 34.815624 260.14062 32.3L260.14062 32.175ZM262.96875 32.378124Q262.96875 33.878124 263.53125 34.675Q264.09375 35.471874 265.15625 35.471874Q266.1875 35.471874 266.75 34.690624Q267.32812 33.89375 267.32812 32.175Q267.32812 30.690624 266.75 29.878124Q266.1875 29.065624 265.14062 29.065624Q264.09375 29.065624 263.53125 29.878124Q262.96875 30.690624 262.96875 32.378124ZM277.3125 34.628124Q277.3125 34.1125 276.79688 33.815624Q276.28125 33.51875 275.15625 33.284374Q271.375 32.4875 271.375 30.08125Q271.375 28.675 272.54688 27.7375Q273.71875 26.784374 275.59375 26.784374Q277.60938 26.784374 278.8125 27.7375Q280.01562 28.675 280.01562 30.190624L277.20312 30.190624Q277.20312 29.596874 276.8125 29.20625Q276.42188 28.8 275.59375 28.8Q274.875 28.8 274.48438 29.128124Q274.09375 29.440624 274.09375 29.940624Q274.09375 30.409374 274.53125 30.70625Q274.98438 30.9875 276.03125 31.20625Q277.09375 31.409374 277.8125 31.675Q280.04688 32.4875 280.04688 34.51875Q280.04688 35.95625 278.8125 36.8625Q277.57812 37.753124 275.60938 37.753124Q274.28125 37.753124 273.25 37.284374Q272.21875 36.8 271.625 35.971874Q271.04688 35.14375 271.04688 34.190624L273.71875 34.190624Q273.76562 34.940624 274.28125 35.346874Q274.79688 35.7375 275.67188 35.7375Q276.48438 35.7375 276.89062 35.440624Q277.3125 35.128124 277.3125 34.628124ZM296.09375 32.3625Q296.09375 34.8 294.98438 36.284374Q293.875 37.753124 292.0 37.753124Q290.39062 37.753124 289.40625 36.628124L289.40625 41.6125L286.57812 41.6125L286.57812 26.9875L289.20312 26.9875L289.29688 28.01875Q290.32812 26.784374 291.96875 26.784374Q293.92188 26.784374 295.0 28.2375Q296.09375 29.675 296.09375 32.221874L296.09375 32.3625ZM293.28125 32.159374Q293.28125 30.690624 292.75 29.89375Q292.23438 29.08125 291.23438 29.08125Q289.90625 29.08125 289.40625 30.096874L289.40625 34.425Q289.92188 35.471874 291.25 35.471874Q293.28125 35.471874 293.28125 32.159374ZM297.14062 32.175Q297.14062 30.596874 297.75 29.3625Q298.35938 28.128124 299.48438 27.45625Q300.625 26.784374 302.14062 26.784374Q304.28125 26.784374 305.625 28.096874Q306.98438 29.409374 307.14062 31.64375L307.15625 32.378124Q307.15625 34.8 305.79688 36.284374Q304.4375 37.753124 302.15625 37.753124Q299.875 37.753124 298.5 36.284374Q297.14062 34.815624 297.14062 32.3L297.14062 32.175ZM299.96875 32.378124Q299.96875 33.878124 300.53125 34.675Q301.09375 35.471874 302.15625 35.471874Q303.1875 35.471874 303.75 34.690624Q304.32812 33.89375 304.32812 32.175Q304.32812 30.690624 303.75 29.878124Q303.1875 29.065624 302.14062 29.065624Q301.09375 29.065624 300.53125 29.878124Q299.96875 30.690624 299.96875 32.378124ZM314.51562 29.628124Q313.95312 29.55 313.5 29.55Q311.90625 29.55 311.40625 30.628124L311.40625 37.55L308.57812 37.55L308.57812 26.9875L311.25 26.9875L311.32812 28.2375Q312.17188 26.784374 313.6875 26.784374Q314.15625 26.784374 314.5625 26.909374L314.51562 29.628124ZM325.45312 37.753124Q323.125 37.753124 321.65625 36.33125Q320.20312 34.89375 320.20312 32.51875L320.20312 32.253124Q320.20312 30.659374 320.8125 29.409374Q321.4375 28.14375 322.5625 27.471874Q323.6875 26.784374 325.14062 26.784374Q327.29688 26.784374 328.54688 28.159374Q329.79688 29.51875 329.79688 32.034374L329.79688 33.190624L323.0625 33.190624Q323.20312 34.221874 323.89062 34.846874Q324.57812 35.471874 325.64062 35.471874Q327.26562 35.471874 328.1875 34.284374L329.5625 35.846874Q328.9375 36.7375 327.84375 37.253124Q326.76562 37.753124 325.45312 37.753124ZM325.125 29.065624Q324.28125 29.065624 323.75 29.64375Q323.23438 30.20625 323.09375 31.253124L327.01562 31.253124L327.01562 31.034374Q327.0 30.096874 326.51562 29.58125Q326.03125 29.065624 325.125 29.065624ZM337.3125 34.628124Q337.3125 34.1125 336.79688 33.815624Q336.28125 33.51875 335.15625 33.284374Q331.375 32.4875 331.375 30.08125Q331.375 28.675 332.54688 27.7375Q333.71875 26.784374 335.59375 26.784374Q337.60938 26.784374 338.8125 27.7375Q340.01562 28.675 340.01562 30.190624L337.20312 30.190624Q337.20312 29.596874 336.8125 29.20625Q336.42188 28.8 335.59375 28.8Q334.875 28.8 334.48438 29.128124Q334.09375 29.440624 334.09375 29.940624Q334.09375 30.409374 334.53125 30.70625Q334.98438 30.9875 336.03125 31.20625Q337.09375 31.409374 337.8125 31.675Q340.04688 32.4875 340.04688 34.51875Q340.04688 35.95625 338.8125 36.8625Q337.57812 37.753124 335.60938 37.753124Q334.28125 37.753124 333.25 37.284374Q332.21875 36.8 331.625 35.971874Q331.04688 35.14375 331.04688 34.190624L333.71875 34.190624Q333.76562 34.940624 334.28125 35.346874Q334.79688 35.7375 335.67188 35.7375Q336.48438 35.7375 336.89062 35.440624Q337.3125 35.128124 337.3125 34.628124ZM344.96875 24.378124L344.96875 26.9875L346.76562 26.9875L346.76562 29.05L344.96875 29.05L344.96875 34.33125Q344.96875 34.909374 345.1875 35.175Q345.40625 35.425 346.04688 35.425Q346.51562 35.425 346.875 35.346874L346.875 37.4875Q346.04688 37.753124 345.17188 37.753124Q342.20312 37.753124 342.14062 34.753124L342.14062 29.05L340.59375 29.05L340.59375 26.9875L342.14062 26.9875L342.14062 24.378124L344.96875 24.378124ZM354.70312 37.55Q354.51562 37.175 354.42188 36.596874Q353.40625 37.753124 351.76562 37.753124Q350.20312 37.753124 349.1875 36.846874Q348.17188 35.940624 348.17188 34.58125Q348.17188 32.89375 349.40625 32.003124Q350.65625 31.096874 353.01562 31.096874L354.3125 31.096874L354.3125 30.4875Q354.3125 29.753124 353.9375 29.315624Q353.5625 28.878124 352.75 28.878124Q352.03125 28.878124 351.625 29.221874Q351.21875 29.565624 351.21875 30.159374L348.40625 30.159374Q348.40625 29.2375 348.96875 28.45625Q349.53125 27.675 350.5625 27.2375Q351.60938 26.784374 352.89062 26.784374Q354.84375 26.784374 355.98438 27.76875Q357.14062 28.753124 357.14062 30.534374L357.14062 35.1125Q357.15625 36.6125 357.5625 37.378124L357.5625 37.55L354.70312 37.55ZM352.375 35.58125Q353.0 35.58125 353.51562 35.315624Q354.04688 35.034374 354.3125 34.565624L354.3125 32.7375L353.25 32.7375Q351.14062 32.7375 351.0 34.20625L350.98438 34.378124Q350.98438 34.909374 351.35938 35.253124Q351.73438 35.58125 352.375 35.58125ZM359.14062 32.190624Q359.14062 29.721874 360.25 28.253124Q361.35938 26.784374 363.28125 26.784374Q364.82812 26.784374 365.82812 27.940624L365.82812 22.55L368.67188 22.55L368.67188 37.55L366.125 37.55L365.98438 36.425Q364.92188 37.753124 363.26562 37.753124Q361.40625 37.753124 360.26562 36.284374Q359.14062 34.8 359.14062 32.190624ZM361.96875 32.39375Q361.96875 33.878124 362.48438 34.675Q363.0 35.45625 363.98438 35.45625Q365.29688 35.45625 365.82812 34.3625L365.82812 30.190624Q365.3125 29.08125 364.01562 29.08125Q361.96875 29.08125 361.96875 32.39375ZM370.14062 32.175Q370.14062 30.596874 370.75 29.3625Q371.35938 28.128124 372.48438 27.45625Q373.625 26.784374 375.14062 26.784374Q377.28125 26.784374 378.625 28.096874Q379.98438 29.409374 380.14062 31.64375L380.15625 32.378124Q380.15625 34.8 378.79688 36.284374Q377.4375 37.753124 375.15625 37.753124Q372.875 37.753124 371.5 36.284374Q370.14062 34.815624 370.14062 32.3L370.14062 32.175ZM372.96875 32.378124Q372.96875 33.878124 373.53125 34.675Q374.09375 35.471874 375.15625 35.471874Q376.1875 35.471874 376.75 34.690624Q377.32812 33.89375 377.32812 32.175Q377.32812 30.690624 376.75 29.878124Q376.1875 29.065624 375.14062 29.065624Q374.09375 29.065624 373.53125 29.878124Q372.96875 30.690624 372.96875 32.378124ZM390.98438 35.471874Q391.76562 35.471874 392.25 35.05Q392.73438 34.6125 392.75 33.89375L395.40625 33.89375Q395.39062 34.971874 394.8125 35.8625Q394.23438 36.753124 393.23438 37.253124Q392.23438 37.753124 391.03125 37.753124Q388.76562 37.753124 387.45312 36.315624Q386.14062 34.8625 386.14062 32.33125L386.14062 32.14375Q386.14062 29.690624 387.4375 28.2375Q388.75 26.784374 391.01562 26.784374Q392.98438 26.784374 394.1875 27.925Q395.39062 29.05 395.40625 30.925L392.75 30.925Q392.73438 30.096874 392.25 29.58125Q391.76562 29.065624 390.95312 29.065624Q389.96875 29.065624 389.46875 29.784374Q388.96875 30.503124 388.96875 32.1125L388.96875 32.409374Q388.96875 34.05 389.46875 34.76875Q389.96875 35.471874 390.98438 35.471874ZM399.5625 37.55L396.73438 37.55L396.73438 26.9875L399.5625 26.9875L399.5625 37.55ZM396.5625 24.253124Q396.5625 23.6125 396.98438 23.20625Q397.42188 22.8 398.14062 22.8Q398.875 22.8 399.29688 23.20625Q399.73438 23.6125 399.73438 24.253124Q399.73438 24.89375 399.29688 25.3Q398.85938 25.70625 398.14062 25.70625Q397.4375 25.70625 397.0 25.3Q396.5625 24.89375 396.5625 24.253124ZM405.54688 34.096874L407.5 26.9875L410.45312 26.9875L406.89062 37.55L404.1875 37.55L400.625 26.9875L403.57812 26.9875L405.54688 34.096874ZM414.5625 37.55L411.73438 37.55L411.73438 26.9875L414.5625 26.9875L414.5625 37.55ZM411.5625 24.253124Q411.5625 23.6125 411.98438 23.20625Q412.42188 22.8 413.14062 22.8Q413.875 22.8 414.29688 23.20625Q414.73438 23.6125 414.73438 24.253124Q414.73438 24.89375 414.29688 25.3Q413.85938 25.70625 413.14062 25.70625Q412.4375 25.70625 412.0 25.3Q411.5625 24.89375 411.5625 24.253124ZM419.5625 37.55L416.73438 37.55L416.73438 22.55L419.5625 22.55L419.5625 37.55Z"
     fill-rule="nonzero"
     id="path62" />
  <text
     xml:space="preserve"
     style="font-style:normal;font-variant:normal;font-weight:normal;font-stretch:normal;font-size:12.8508px;line-height:1.25;font-family:Georgia;-inkscape-font-specification:Georgia;letter-spacing:0px;word-spacing:0px;opacity:0.338129;fill:#000000;stroke-width:0.150595"
     x="108.61267"
     y="345.03275"
     id="text897"
     transform="scale(1.0229029,0.9776099)"><tspan
       sodipodi:role="line"
       id="tspan895"
       x="108.61267"
       y="345.03275"
       style="font-style:normal;font-variant:normal;font-weight:normal;font-stretch:normal;font-family:'Andale Mono';-inkscape-font-specification:'Andale Mono';fill:#000000;stroke-width:0.150595">fonte: github.com/jhoonb/maracaju-eleicao-2020</tspan></text>
</svg>
