<?xml version="1.0" encoding="UTF-8" standalone="no"?>
<svg
   xmlns:dc="http://purl.org/dc/elements/1.1/"
   xmlns:cc="http://creativecommons.org/ns#"
   xmlns:rdf="http://www.w3.org/1999/02/22-rdf-syntax-ns#"
   xmlns:svg="http://www.w3.org/2000/svg"
   xmlns="http://www.w3.org/2000/svg"
   xmlns:sodipodi="http://sodipodi.sourceforge.net/DTD/sodipodi-0.dtd"
   xmlns:inkscape="http://www.inkscape.org/namespaces/inkscape"
   version="1.1"
   viewBox="0.0 0.0 600.0 371.0"
   fill="none"
   stroke="none"
   stroke-linecap="square"
   stroke-miterlimit="10"
   width="600"
   height="371"
   id="svg148"
   sodipodi:docname="candidatos_por_partido.svg"
   inkscape:version="1.0.1 (3bc2e813f5, 2020-09-07)">
  <metadata
     id="metadata154">
    <rdf:RDF>
      <cc:Work
         rdf:about="">
        <dc:format>image/svg+xml</dc:format>
        <dc:type
           rdf:resource="http://purl.org/dc/dcmitype/StillImage" />
      </cc:Work>
    </rdf:RDF>
  </metadata>
  <defs
     id="defs152" />
  <sodipodi:namedview
     pagecolor="#ffffff"
     bordercolor="#666666"
     borderopacity="1"
     objecttolerance="10"
     gridtolerance="10"
     guidetolerance="10"
     inkscape:pageopacity="0"
     inkscape:pageshadow="2"
     inkscape:window-width="876"
     inkscape:window-height="480"
     id="namedview150"
     showgrid="false"
     inkscape:zoom="0.77628032"
     inkscape:cx="269.60405"
     inkscape:cy="241.34327"
     inkscape:window-x="0"
     inkscape:window-y="27"
     inkscape:window-maximized="0"
     inkscape:current-layer="svg148"
     inkscape:document-rotation="0" />
  <path
     fill="#ffffff"
     d="M0 0L600.0 0L600.0 371.0L0 371.0L0 0Z"
     fill-rule="nonzero"
     id="path2" />
  <path
     fill="#2e5dab"
     d="M300.0 140.4575C322.3367 140.4575 343.49097 147.48398 357.6177 159.59546L357.6177 181.91046C343.49097 169.79898 322.3367 162.7725 300.0 162.7725Z"
     fill-rule="nonzero"
     id="path4" />
  <path
     fill="#4285f4"
     d="M300.0 88.38917C344.67337 88.38917 386.98193 102.44213 415.2354 126.66508L357.6177 159.59546C343.49097 147.48398 322.3367 140.4575 300.0 140.4575Z"
     fill-rule="nonzero"
     id="path6" />
  <path
     fill="#a42f25"
     d="M448.76666 214.84084C448.76666 220.43625 448.1224 226.02257 446.84018 231.54553L446.84018 209.23053C448.1224 203.70757 448.76666 198.12125 448.76666 192.52583Z"
     fill-rule="nonzero"
     id="path8" />
  <path
     fill="#a42f25"
     d="M357.6177 159.59546C368.4608 168.89171 374.38333 180.52455 374.38333 192.52583L374.38333 214.84084C374.38333 202.83955 368.4608 191.20671 357.6177 181.91046Z"
     fill-rule="nonzero"
     id="path10" />
  <path
     fill="#ea4335"
     d="M415.2354 126.66508C442.16458 149.75266 453.6704 179.81088 446.84018 209.23053L373.42007 200.87817C376.8352 186.16837 371.08228 171.13925 357.6177 159.59546Z"
     fill-rule="nonzero"
     id="path12" />
  <path
     fill="#b08403"
     d="M446.84018 231.54553C440.3444 259.52466 417.83548 284.44116 384.5091 300.54364L384.5091 278.22864C417.83548 262.12616 440.3444 237.20966 446.84018 209.23053Z"
     fill-rule="nonzero"
     id="path14" />
  <path
     fill="#fbbc04"
     d="M446.84018 209.23053C440.3444 237.20966 417.83548 262.12616 384.5091 278.22864L342.25455 235.37723C358.91776 227.32599 370.17218 214.86775 373.42007 200.87817Z"
     fill-rule="nonzero"
     id="path16" />
  <path
     fill="#4f885f"
     d="M294.01462 140.62634C296.0057 140.51382 298.00244 140.4575 300.0 140.4575L300.0 162.7725C298.00244 162.7725 296.0057 162.82883 294.01462 162.94135Z"
     fill-rule="nonzero"
     id="path18" />
  <path
     fill="#71c287"
     d="M288.02927 88.72685C292.0114 88.501816 296.00488 88.38917 300.0 88.38917L300.0 140.4575C298.00244 140.4575 296.0057 140.51382 294.01462 140.62634Z"
     fill-rule="nonzero"
     id="path20" />
  <path
     fill="#b09237"
     d="M270.8442 144.62404C278.21 142.42725 286.03412 141.07732 294.01462 140.62634L294.01462 162.94135C286.03412 163.39232 278.21 164.74225 270.8442 166.93904Z"
     fill-rule="nonzero"
     id="path22" />
  <path
     fill="#fcd04f"
     d="M241.68843 96.722244C256.41998 92.328674 272.06827 89.6288 288.02927 88.72685L294.01462 140.62634C286.03412 141.07732 278.21 142.42725 270.8442 144.62404Z"
     fill-rule="nonzero"
     id="path24" />
  <path
     fill="#a85650"
     d="M240.53479 161.24619C248.37868 153.93936 258.83203 148.20657 270.8442 144.62404L270.8442 166.93904C258.83203 170.52158 248.37868 176.25436 240.53479 183.56119Z"
     fill-rule="nonzero"
     id="path26" />
  <path
     fill="#f07b72"
     d="M181.06956 129.96654C196.75735 115.35288 217.6641 103.887314 241.68843 96.722244L270.8442 144.62404C258.83203 148.20657 248.37868 153.93936 240.53479 161.24619Z"
     fill-rule="nonzero"
     id="path28" />
  <path
     fill="#5677ad"
     d="M226.15901 186.2497C227.73285 177.17642 232.69089 168.55301 240.53479 161.24619L240.53479 183.56119C232.69089 190.86801 227.73285 199.49142 226.15901 208.56468Z"
     fill-rule="nonzero"
     id="path30" />
  <path
     fill="#7baaf7"
     d="M152.31801 179.97354C155.4657 161.82703 165.38177 144.5802 181.06956 129.96654L240.53479 161.24619C232.69089 168.55301 227.73285 177.17642 226.15901 186.2497Z"
     fill-rule="nonzero"
     id="path32" />
  <path
     fill="#31848b"
     d="M177.56743 273.9972C160.41803 256.60556 151.23334 235.97325 151.23334 214.84084L151.23334 192.52583C151.23334 213.65825 160.41803 234.29057 177.56743 251.6822Z"
     fill-rule="nonzero"
     id="path34" />
  <path
     fill="#31848b"
     d="M225.61667 192.52583C225.61667 190.42805 225.79778 188.33218 226.15901 186.2497L226.15901 208.56468C225.79778 210.64719 225.61667 212.74304 225.61667 214.84084Z"
     fill-rule="nonzero"
     id="path36" />
  <path
     fill="#46bdc6"
     d="M177.56743 251.6822C156.91827 230.74138 147.93651 205.23303 152.31801 179.97354L226.15901 186.2497C223.96825 198.87943 228.45914 211.6336 238.78372 222.10402Z"
     fill-rule="nonzero"
     id="path38" />
  <path
     fill="#b34c01"
     d="M270.24286 316.87296C232.601 311.4937 199.39148 296.12952 177.56743 273.9972L177.56743 251.6822C199.39148 273.8145 232.601 289.1787 270.24286 294.55795Z"
     fill-rule="nonzero"
     id="path40" />
  <path
     fill="#ff6d01"
     d="M270.24286 294.55795C232.601 289.1787 199.39148 273.8145 177.56743 251.6822L238.78372 222.10402C249.69574 233.17018 266.3005 240.85228 285.12143 243.5419Z"
     fill-rule="nonzero"
     id="path42" />
  <path
     fill="#24763a"
     d="M384.5091 300.54364C351.1827 316.64612 309.91904 322.54294 270.24286 316.87296L270.24286 294.55795C309.91904 300.22794 351.1827 294.33112 384.5091 278.22864Z"
     fill-rule="nonzero"
     id="path44" />
  <path
     fill="#34a853"
     d="M384.5091 278.22864C351.1827 294.33112 309.91904 300.22794 270.24286 294.55795L285.12143 243.5419C304.95953 246.37688 325.59137 243.42847 342.25455 235.37723Z"
     fill-rule="nonzero"
     id="path46" />
  <path
     fill="#000000"
     d="M346.9095 125.182846L346.9095 126.964096L340.1751 126.964096Q340.2845 125.94847 340.83136 125.04222Q341.37823 124.13597 343.00323 122.63597Q344.3001 121.432846 344.597 120.995346Q344.9876 120.401596 344.9876 119.82347Q344.9876 119.182846 344.64386 118.839096Q344.3001 118.495346 343.69073 118.495346Q343.08136 118.495346 342.722 118.85472Q342.37823 119.214096 342.31573 120.057846L340.4095 119.870346Q340.58136 118.276596 341.472 117.589096Q342.37823 116.901596 343.7376 116.901596Q345.222 116.901596 346.06573 117.69847Q346.9095 118.495346 346.9095 119.682846Q346.9095 120.370346 346.6595 120.97972Q346.4251 121.589096 345.9095 122.26097Q345.5501 122.69847 344.64386 123.54222Q343.7376 124.370346 343.4876 124.651596Q343.25323 124.91722 343.097 125.182846L346.9095 125.182846ZM354.9095 125.182846L354.9095 126.964096L348.1751 126.964096Q348.2845 125.94847 348.83136 125.04222Q349.37823 124.13597 351.00323 122.63597Q352.3001 121.432846 352.597 120.995346Q352.9876 120.401596 352.9876 119.82347Q352.9876 119.182846 352.64386 118.839096Q352.3001 118.495346 351.69073 118.495346Q351.08136 118.495346 350.722 118.85472Q350.37823 119.214096 350.31573 120.057846L348.4095 119.870346Q348.58136 118.276596 349.472 117.589096Q350.37823 116.901596 351.7376 116.901596Q353.222 116.901596 354.06573 117.69847Q354.9095 118.495346 354.9095 119.682846Q354.9095 120.370346 354.6595 120.97972Q354.4251 121.589096 353.9095 122.26097Q353.5501 122.69847 352.64386 123.54222Q351.7376 124.370346 351.4876 124.651596Q351.25323 124.91722 351.097 125.182846L354.9095 125.182846Z"
     fill-rule="nonzero"
     id="path48" />
  <path
     fill="#000000"
     d="M411.1098 174.73143L411.1098 176.51268L404.37543 176.51268Q404.4848 175.49706 405.03168 174.5908Q405.57855 173.68456 407.20355 172.18456Q408.50043 170.98143 408.7973 170.54393Q409.18793 169.95018 409.18793 169.37206Q409.18793 168.73143 408.84418 168.38768Q408.50043 168.04393 407.89105 168.04393Q407.28168 168.04393 406.9223 168.4033Q406.57855 168.76268 406.51605 169.60643L404.6098 169.41893Q404.78168 167.82518 405.6723 167.13768Q406.57855 166.45018 407.93793 166.45018Q409.4223 166.45018 410.26605 167.24706Q411.1098 168.04393 411.1098 169.23143Q411.1098 169.91893 410.8598 170.5283Q410.62543 171.13768 410.1098 171.80956Q409.75043 172.24706 408.84418 173.0908Q407.93793 173.91893 407.68793 174.20018Q407.45355 174.4658 407.2973 174.73143L411.1098 174.73143ZM417.5473 176.51268L415.62543 176.51268L415.62543 169.2783Q414.56293 170.26268 413.14105 170.73143L413.14105 168.98143Q413.89105 168.74706 414.76605 168.05956Q415.65668 167.37206 415.9848 166.45018L417.5473 166.45018L417.5473 176.51268Z"
     fill-rule="nonzero"
     id="path50" />
  <path
     fill="#000000"
     d="M393.38022 237.4877L393.38022 239.26895L386.64584 239.26895Q386.75522 238.25333 387.3021 237.34708Q387.84897 236.44083 389.47397 234.94083Q390.77084 233.7377 391.06772 233.3002Q391.45834 232.70645 391.45834 232.12833Q391.45834 231.4877 391.1146 231.14395Q390.77084 230.8002 390.16147 230.8002Q389.5521 230.8002 389.19272 231.15958Q388.84897 231.51895 388.78647 232.3627L386.88022 232.1752Q387.0521 230.58145 387.94272 229.89395Q388.84897 229.20645 390.20834 229.20645Q391.69272 229.20645 392.53647 230.00333Q393.38022 230.8002 393.38022 231.9877Q393.38022 232.6752 393.13022 233.28458Q392.89584 233.89395 392.38022 234.56583Q392.02084 235.00333 391.1146 235.84708Q390.20834 236.6752 389.95834 236.95645Q389.72397 237.22208 389.56772 237.4877L393.38022 237.4877ZM398.14584 229.20645Q399.59897 229.20645 400.4271 230.2377Q401.39584 231.47208 401.39584 234.33145Q401.39584 237.1752 400.41147 238.40958Q399.59897 239.44083 398.14584 239.44083Q396.6771 239.44083 395.78647 238.31583Q394.89584 237.19083 394.89584 234.3002Q394.89584 231.47208 395.88022 230.2377Q396.69272 229.20645 398.14584 229.20645ZM398.14584 230.8002Q397.8021 230.8002 397.52084 231.01895Q397.25522 231.2377 397.09897 231.81583Q396.89584 232.56583 396.89584 234.33145Q396.89584 236.09708 397.06772 236.75333Q397.25522 237.40958 397.52084 237.62833Q397.8021 237.84708 398.14584 237.84708Q398.4896 237.84708 398.75522 237.62833Q399.03647 237.40958 399.19272 236.83145Q399.39584 236.09708 399.39584 234.33145Q399.39584 232.56583 399.20834 231.90958Q399.03647 231.2377 398.75522 231.01895Q398.4896 230.8002 398.14584 230.8002Z"
     fill-rule="nonzero"
     id="path52" />
  <path
     fill="#000000"
     d="M321.396 272.26868L321.396 274.04993L314.66162 274.04993Q314.771 273.0343 315.31787 272.12805Q315.86475 271.2218 317.48975 269.7218Q318.78662 268.51868 319.0835 268.08118Q319.47412 267.48743 319.47412 266.9093Q319.47412 266.26868 319.13037 265.92493Q318.78662 265.58118 318.17725 265.58118Q317.56787 265.58118 317.2085 265.94055Q316.86475 266.29993 316.80225 267.14368L314.896 266.95618Q315.06787 265.36243 315.9585 264.67493Q316.86475 263.98743 318.22412 263.98743Q319.7085 263.98743 320.55225 264.7843Q321.396 265.58118 321.396 266.76868Q321.396 267.45618 321.146 268.06555Q320.91162 268.67493 320.396 269.3468Q320.03662 269.7843 319.13037 270.62805Q318.22412 271.45618 317.97412 271.73743Q317.73975 272.00305 317.5835 272.26868L321.396 272.26868ZM326.16162 263.98743Q327.61475 263.98743 328.44287 265.01868Q329.41162 266.25305 329.41162 269.11243Q329.41162 271.95618 328.42725 273.19055Q327.61475 274.2218 326.16162 274.2218Q324.69287 274.2218 323.80225 273.0968Q322.91162 271.9718 322.91162 269.08118Q322.91162 266.25305 323.896 265.01868Q324.7085 263.98743 326.16162 263.98743ZM326.16162 265.58118Q325.81787 265.58118 325.53662 265.79993Q325.271 266.01868 325.11475 266.5968Q324.91162 267.3468 324.91162 269.11243Q324.91162 270.87805 325.0835 271.5343Q325.271 272.19055 325.53662 272.4093Q325.81787 272.62805 326.16162 272.62805Q326.50537 272.62805 326.771 272.4093Q327.05225 272.19055 327.2085 271.61243Q327.41162 270.87805 327.41162 269.11243Q327.41162 267.3468 327.22412 266.69055Q327.05225 266.01868 326.771 265.79993Q326.50537 265.58118 326.16162 265.58118Z"
     fill-rule="nonzero"
     id="path54" />
  <path
     fill="#000000"
     d="M235.99573 262.68332L234.07385 262.68332L234.07385 255.44894Q233.01135 256.43332 231.58948 256.90207L231.58948 255.15207Q232.33948 254.9177 233.21448 254.2302Q234.1051 253.5427 234.43323 252.62082L235.99573 252.62082L235.99573 262.68332ZM239.12073 260.37082L240.9801 260.1677Q241.0426 260.7302 241.32385 261.01144Q241.62073 261.27707 242.08948 261.27707Q242.68323 261.27707 243.08948 260.7302Q243.51135 260.18332 243.63635 258.46457Q242.9176 259.2927 241.82385 259.2927Q240.63635 259.2927 239.77698 258.38644Q238.9176 257.4802 238.9176 256.01144Q238.9176 254.4802 239.82385 253.55832Q240.7301 252.62082 242.13635 252.62082Q243.6676 252.62082 244.63635 253.80832Q245.62073 254.9802 245.62073 257.68332Q245.62073 260.43332 244.58948 261.65207Q243.57385 262.8552 241.94885 262.8552Q240.77698 262.8552 240.0426 262.2302Q239.32385 261.6052 239.12073 260.37082ZM243.46448 256.1677Q243.46448 255.24582 243.02698 254.7302Q242.6051 254.21457 242.0426 254.21457Q241.51135 254.21457 241.15198 254.63644Q240.80823 255.05832 240.80823 256.01144Q240.80823 256.9802 241.18323 257.43332Q241.57385 257.88644 242.15198 257.88644Q242.69885 257.88644 243.07385 257.44894Q243.46448 257.01144 243.46448 256.1677Z"
     fill-rule="nonzero"
     id="path56" />
  <path
     fill="#000000"
     d="M184.49966 217.025L182.57779 217.025L182.57779 209.79062Q181.51529 210.775 180.09341 211.24374L180.09341 209.49374Q180.84341 209.25937 181.71841 208.57187Q182.60904 207.88437 182.93716 206.9625L184.49966 206.9625L184.49966 217.025ZM189.23404 211.61874Q188.48404 211.30624 188.14029 210.75937Q187.81216 210.19687 187.81216 209.54062Q187.81216 208.43124 188.59341 207.69687Q189.37466 206.9625 190.81216 206.9625Q192.23404 206.9625 193.03091 207.69687Q193.82779 208.43124 193.82779 209.54062Q193.82779 210.24374 193.45279 210.79062Q193.09341 211.3375 192.43716 211.61874Q193.28091 211.94687 193.70279 212.60312Q194.14029 213.24374 194.14029 214.07187Q194.14029 215.4625 193.24966 216.3375Q192.37466 217.19687 190.90591 217.19687Q189.53091 217.19687 188.62466 216.47812Q187.54654 215.63437 187.54654 214.16562Q187.54654 213.35312 187.95279 212.68124Q188.35904 211.99374 189.23404 211.61874ZM189.62466 209.68124Q189.62466 210.25937 189.93716 210.5875Q190.26529 210.9 190.81216 210.9Q191.35904 210.9 191.68716 210.57187Q192.01529 210.24374 192.01529 209.68124Q192.01529 209.13437 191.68716 208.82187Q191.35904 208.49374 190.82779 208.49374Q190.28091 208.49374 189.95279 208.82187Q189.62466 209.15 189.62466 209.68124ZM189.45279 213.97812Q189.45279 214.775 189.85904 215.2125Q190.26529 215.65 190.87466 215.65Q191.46841 215.65 191.84341 215.22812Q192.23404 214.80624 192.23404 213.99374Q192.23404 213.29062 191.84341 212.86874Q191.45279 212.43124 190.84341 212.43124Q190.14029 212.43124 189.79654 212.93124Q189.45279 213.41562 189.45279 213.97812Z"
     fill-rule="nonzero"
     id="path58" />
  <path
     fill="#000000"
     d="M192.00056 167.79953L190.07869 167.79953L190.07869 160.56516Q189.01619 161.54953 187.59431 162.01828L187.59431 160.26828Q188.34431 160.0339 189.21931 159.3464Q190.10994 158.6589 190.43806 157.73703L192.00056 157.73703L192.00056 167.79953ZM195.01619 165.14328L196.87556 164.9089Q196.95369 165.62766 197.34431 166.00266Q197.73494 166.37766 198.29744 166.37766Q198.89119 166.37766 199.29744 165.92453Q199.70369 165.4714 199.70369 164.70578Q199.70369 163.98703 199.31306 163.56516Q198.92244 163.14328 198.35994 163.14328Q197.98494 163.14328 197.48494 163.2839L197.68806 161.7214Q198.46931 161.73703 198.87556 161.37766Q199.29744 161.01828 199.29744 160.42453Q199.29744 159.92453 198.98494 159.62766Q198.68806 159.31516 198.18806 159.31516Q197.70369 159.31516 197.34431 159.6589Q197.00056 160.00266 196.92244 160.6589L195.15681 160.36203Q195.34431 159.44016 195.70369 158.9089Q196.07869 158.36203 196.75056 158.04953Q197.42244 157.73703 198.25056 157.73703Q199.65681 157.73703 200.51619 158.64328Q201.21931 159.37766 201.21931 160.29953Q201.21931 161.62766 199.78181 162.4089Q200.64119 162.5964 201.15681 163.23703Q201.67244 163.87766 201.67244 164.7839Q201.67244 166.11203 200.70369 167.04953Q199.73494 167.9714 198.31306 167.9714Q196.95369 167.9714 196.04744 167.19016Q195.15681 166.4089 195.01619 165.14328Z"
     fill-rule="nonzero"
     id="path60" />
  <path
     fill="#000000"
     d="M228.70522 136.04483L226.78334 136.04483L226.78334 128.81046Q225.72084 129.79483 224.29897 130.26358L224.29897 128.51358Q225.04897 128.2792 225.92397 127.591705Q226.81459 126.904205 227.14272 125.98233L228.70522 125.98233L228.70522 136.04483ZM231.72084 133.38858L233.58022 133.1542Q233.65834 133.87296 234.04897 134.24796Q234.43959 134.62296 235.00209 134.62296Q235.59584 134.62296 236.00209 134.16983Q236.40834 133.7167 236.40834 132.95108Q236.40834 132.23233 236.01772 131.81046Q235.62709 131.38858 235.06459 131.38858Q234.68959 131.38858 234.18959 131.5292L234.39272 129.9667Q235.17397 129.98233 235.58022 129.62296Q236.00209 129.26358 236.00209 128.66983Q236.00209 128.16983 235.68959 127.872955Q235.39272 127.560455 234.89272 127.560455Q234.40834 127.560455 234.04897 127.904205Q233.70522 128.24796 233.62709 128.9042L231.86147 128.60733Q232.04897 127.685455 232.40834 127.154205Q232.78334 126.60733 233.45522 126.29483Q234.12709 125.98233 234.95522 125.98233Q236.36147 125.98233 237.22084 126.88858Q237.92397 127.622955 237.92397 128.54483Q237.92397 129.87296 236.48647 130.6542Q237.34584 130.8417 237.86147 131.48233Q238.37709 132.12296 238.37709 133.0292Q238.37709 134.35733 237.40834 135.29483Q236.43959 136.2167 235.01772 136.2167Q233.65834 136.2167 232.75209 135.43546Q231.86147 134.6542 231.72084 133.38858Z"
     fill-rule="nonzero"
     id="path62" />
  <path
     fill="#000000"
     d="M271.41162 115.89826Q270.66162 115.58576 270.31787 115.03889Q269.98975 114.47639 269.98975 113.82014Q269.98975 112.71076 270.771 111.97639Q271.55225 111.24201 272.98975 111.24201Q274.41162 111.24201 275.2085 111.97639Q276.00537 112.71076 276.00537 113.82014Q276.00537 114.52326 275.63037 115.07014Q275.271 115.61701 274.61475 115.89826Q275.4585 116.22639 275.88037 116.88264Q276.31787 117.52326 276.31787 118.35139Q276.31787 119.74201 275.42725 120.61701Q274.55225 121.47639 273.0835 121.47639Q271.7085 121.47639 270.80225 120.75764Q269.72412 119.91389 269.72412 118.44514Q269.72412 117.63264 270.13037 116.96076Q270.53662 116.27326 271.41162 115.89826ZM271.80225 113.96076Q271.80225 114.53889 272.11475 114.86701Q272.44287 115.17951 272.98975 115.17951Q273.53662 115.17951 273.86475 114.85139Q274.19287 114.52326 274.19287 113.96076Q274.19287 113.41389 273.86475 113.10139Q273.53662 112.77326 273.00537 112.77326Q272.4585 112.77326 272.13037 113.10139Q271.80225 113.42951 271.80225 113.96076ZM271.63037 118.25764Q271.63037 119.05451 272.03662 119.49201Q272.44287 119.92951 273.05225 119.92951Q273.646 119.92951 274.021 119.50764Q274.41162 119.08576 274.41162 118.27326Q274.41162 117.57014 274.021 117.14826Q273.63037 116.71076 273.021 116.71076Q272.31787 116.71076 271.97412 117.21076Q271.63037 117.69514 271.63037 118.25764Z"
     fill-rule="nonzero"
     id="path64" />
  <path
     fill="#1a1a1a"
     d="M21.065624 67.63274L21.065624 70.63274L19.315624 70.63274L19.315624 62.101486L22.64375 62.101486Q23.596874 62.101486 24.33125 62.46086Q25.065624 62.80461 25.45625 63.46086Q25.846874 64.10149 25.846874 64.92961Q25.846874 66.17961 24.9875 66.91399Q24.128124 67.63274 22.6125 67.63274L21.065624 67.63274ZM21.065624 66.19524L22.64375 66.19524Q23.33125 66.19524 23.690624 65.86711Q24.065624 65.53899 24.065624 64.92961Q24.065624 64.30461 23.690624 63.92961Q23.33125 63.538986 22.675 63.52336L21.065624 63.52336L21.065624 66.19524ZM31.7375 68.39836Q31.7375 67.89836 31.378124 67.63274Q31.034374 67.36711 30.1125 67.07024Q29.20625 66.77336 28.675 66.47649Q27.221874 65.69524 27.221874 64.36711Q27.221874 63.67961 27.6125 63.132736Q28.003124 62.58586 28.721874 62.288986Q29.45625 61.976486 30.3625 61.976486Q31.284374 61.976486 31.9875 62.320236Q32.70625 62.64836 33.096874 63.257736Q33.503124 63.851486 33.503124 64.61711L31.7375 64.61711Q31.7375 64.03899 31.3625 63.71086Q31.003124 63.382736 30.33125 63.382736Q29.690624 63.382736 29.33125 63.663986Q28.971874 63.92961 28.971874 64.36711Q28.971874 64.78899 29.39375 65.07024Q29.815624 65.35149 30.628124 65.60149Q32.128124 66.05461 32.815624 66.72649Q33.503124 67.38274 33.503124 68.38274Q33.503124 69.49211 32.659374 70.13274Q31.83125 70.75774 30.409374 70.75774Q29.425 70.75774 28.6125 70.39836Q27.8 70.02336 27.378124 69.39836Q26.95625 68.77336 26.95625 67.94524L28.721874 67.94524Q28.721874 69.36711 30.409374 69.36711Q31.034374 69.36711 31.378124 69.11711Q31.7375 68.85149 31.7375 68.39836ZM41.003124 67.78899Q40.909374 69.16399 39.9875 69.96086Q39.08125 70.75774 37.58125 70.75774Q35.940624 70.75774 34.9875 69.64836Q34.05 68.53899 34.05 66.61711L34.05 66.08586Q34.05 64.86711 34.4875 63.92961Q34.925 62.99211 35.721874 62.49211Q36.534374 61.976486 37.596874 61.976486Q39.08125 61.976486 39.971874 62.77336Q40.878124 63.570236 41.01875 64.99211L39.26875 64.99211Q39.20625 64.16399 38.8 63.80461Q38.409374 63.42961 37.596874 63.42961Q36.721874 63.42961 36.284374 64.05461Q35.846874 64.67961 35.83125 66.00774L35.83125 66.64836Q35.83125 68.03899 36.253124 68.67961Q36.675 69.32024 37.58125 69.32024Q38.39375 69.32024 38.784374 68.94524Q39.190624 68.57024 39.253124 67.78899L41.003124 67.78899Z"
     fill-rule="nonzero"
     id="path66" />
  <path
     fill="#9e9e9e"
     d="M23.2375 88.63274L21.55 88.63274L21.55 82.10149L19.534374 82.72649L19.534374 81.35149L23.065624 80.08586L23.2375 80.08586L23.2375 88.63274ZM26.64375 90.77336L25.753124 90.30461L25.971874 89.92961Q26.3625 89.21086 26.378124 88.50774L26.378124 87.19524L27.8 87.19524L27.8 88.36711Q27.784374 89.00774 27.45625 89.66399Q27.14375 90.33586 26.64375 90.77336ZM30.846874 83.61711L31.753124 83.61711Q32.39375 83.61711 32.70625 83.30461Q33.01875 82.97649 33.01875 82.44524Q33.01875 81.92961 32.70625 81.64836Q32.409374 81.35149 31.8625 81.35149Q31.378124 81.35149 31.05 81.61711Q30.721874 81.88274 30.721874 82.30461L29.034374 82.30461Q29.034374 81.64836 29.39375 81.11711Q29.753124 80.58586 30.39375 80.28899Q31.05 79.97649 31.83125 79.97649Q33.175 79.97649 33.940624 80.63274Q34.721874 81.27336 34.721874 82.41399Q34.721874 83.00774 34.3625 83.50774Q34.003124 83.99211 33.425 84.24211Q34.14375 84.50774 34.4875 85.02336Q34.846874 85.53899 34.846874 86.24211Q34.846874 87.38274 34.01875 88.07024Q33.190624 88.75774 31.83125 88.75774Q30.55 88.75774 29.7375 88.08586Q28.925 87.39836 28.925 86.28899L30.6125 86.28899Q30.6125 86.77336 30.971874 87.08586Q31.346874 87.38274 31.8625 87.38274Q32.471874 87.38274 32.815624 87.07024Q33.159374 86.74211 33.159374 86.21086Q33.159374 84.94524 31.753124 84.94524L30.846874 84.94524L30.846874 83.61711ZM36.1125 81.74211Q36.1125 80.96086 36.6125 80.47649Q37.128124 79.97649 37.95625 79.97649Q38.784374 79.97649 39.3 80.46086Q39.815624 80.94524 39.815624 81.77336L39.815624 82.19524Q39.815624 82.97649 39.3 83.46086Q38.784374 83.94524 37.971874 83.94524Q37.128124 83.94524 36.6125 83.46086Q36.1125 82.97649 36.1125 82.16399L36.1125 81.74211ZM37.2375 82.19524Q37.2375 82.53899 37.440624 82.75774Q37.64375 82.97649 37.971874 82.97649Q38.3 82.97649 38.4875 82.75774Q38.675 82.53899 38.675 82.17961L38.675 81.74211Q38.675 81.38274 38.4875 81.17961Q38.3 80.96086 37.95625 80.96086Q37.628124 80.96086 37.425 81.17961Q37.2375 81.38274 37.2375 81.75774L37.2375 82.19524ZM40.190624 86.53899Q40.190624 85.74211 40.70625 85.27336Q41.221874 84.78899 42.034374 84.78899Q42.8625 84.78899 43.378124 85.27336Q43.89375 85.74211 43.89375 86.57024L43.89375 86.99211Q43.89375 87.78899 43.39375 88.27336Q42.89375 88.75774 42.05 88.75774Q41.20625 88.75774 40.690624 88.27336Q40.190624 87.77336 40.190624 86.97649L40.190624 86.53899ZM41.315624 86.99211Q41.315624 87.32024 41.51875 87.55461Q41.7375 87.77336 42.05 87.77336Q42.76875 87.77336 42.76875 86.99211L42.76875 86.53899Q42.76875 86.19524 42.565624 85.97649Q42.3625 85.75774 42.034374 85.75774Q41.70625 85.75774 41.503124 85.97649Q41.315624 86.19524 41.315624 86.55461L41.315624 86.99211ZM38.3 87.99211L37.471874 87.55461L41.64375 80.88274L42.471874 81.32024L38.3 87.99211Z"
     fill-rule="nonzero"
     id="path68" />
  <path
     stroke="#757575"
     stroke-width="1.0"
     stroke-linecap="butt"
     d="M18.55 75.13274L145.23334 75.13274L294.3093 93.67623"
     fill-rule="nonzero"
     id="path70" />
  <path
     fill="#9e9e9e"
     d="M296.3093 93.67623C296.3093 92.57166 295.41385 91.67623 294.3093 91.67623C293.2047 91.67623 292.3093 92.57166 292.3093 93.67623C292.3093 94.7808 293.2047 95.67623 294.3093 95.67623C295.41385 95.67623 296.3093 94.7808 296.3093 93.67623"
     fill-rule="nonzero"
     id="path72" />
  <path
     fill="#1a1a1a"
     d="M19.315624 103.63274L19.315624 95.10149L21.940624 95.10149Q23.065624 95.10149 23.940624 95.61711Q24.83125 96.11711 25.33125 97.05461Q25.83125 97.97649 25.83125 99.17961L25.83125 99.57024Q25.83125 100.75774 25.346874 101.67961Q24.8625 102.60149 23.971874 103.11711Q23.08125 103.63274 21.95625 103.63274L19.315624 103.63274ZM21.065624 96.52336L21.065624 102.22649L21.925 102.22649Q22.95625 102.22649 23.4875 101.55461Q24.034374 100.86711 24.05 99.61711L24.05 99.16399Q24.05 97.86711 23.503124 97.19524Q22.971874 96.52336 21.940624 96.52336L21.065624 96.52336ZM34.003124 100.78899Q33.909374 102.16399 32.9875 102.96086Q32.08125 103.75774 30.58125 103.75774Q28.940624 103.75774 27.9875 102.64836Q27.05 101.53899 27.05 99.61711L27.05 99.08586Q27.05 97.86711 27.4875 96.92961Q27.925 95.99211 28.721874 95.49211Q29.534374 94.97649 30.596874 94.97649Q32.08125 94.97649 32.971874 95.77336Q33.878124 96.57024 34.01875 97.99211L32.26875 97.99211Q32.20625 97.16399 31.8 96.80461Q31.409374 96.42961 30.596874 96.42961Q29.721874 96.42961 29.284374 97.05461Q28.846874 97.67961 28.83125 99.00774L28.83125 99.64836Q28.83125 101.03899 29.253124 101.67961Q29.675 102.32024 30.58125 102.32024Q31.39375 102.32024 31.784374 101.94524Q32.190624 101.57024 32.253124 100.78899L34.003124 100.78899Z"
     fill-rule="nonzero"
     id="path74" />
  <path
     fill="#9e9e9e"
     d="M19.378124 117.42961L19.878124 113.10149L24.659374 113.10149L24.659374 114.50774L21.26875 114.50774L21.05 116.35149Q21.659374 116.02336 22.33125 116.02336Q23.55 116.02336 24.2375 116.78899Q24.940624 117.53899 24.940624 118.89836Q24.940624 119.72649 24.58125 120.38274Q24.2375 121.02336 23.58125 121.39836Q22.940624 121.75774 22.05 121.75774Q21.284374 121.75774 20.6125 121.44524Q19.95625 121.11711 19.565624 120.55461Q19.190624 119.99211 19.159374 119.25774L20.846874 119.25774Q20.89375 119.78899 21.20625 120.08586Q21.534374 120.38274 22.05 120.38274Q22.628124 120.38274 22.925 119.97649Q23.2375 119.55461 23.2375 118.80461Q23.2375 118.07024 22.878124 117.69524Q22.534374 117.30461 21.878124 117.30461Q21.26875 117.30461 20.89375 117.61711L20.7375 117.77336L19.378124 117.42961ZM26.64375 123.77336L25.753124 123.30461L25.971874 122.92961Q26.3625 122.21086 26.378124 121.50774L26.378124 120.19524L27.8 120.19524L27.8 121.36711Q27.784374 122.00774 27.45625 122.66399Q27.14375 123.33586 26.64375 123.77336ZM33.2375 121.63274L31.55 121.63274L31.55 115.10149L29.534374 115.72649L29.534374 114.35149L33.065624 113.08586L33.2375 113.08586L33.2375 121.63274ZM36.1125 114.74211Q36.1125 113.96086 36.6125 113.47649Q37.128124 112.97649 37.95625 112.97649Q38.784374 112.97649 39.3 113.46086Q39.815624 113.94524 39.815624 114.77336L39.815624 115.19524Q39.815624 115.97649 39.3 116.46086Q38.784374 116.94524 37.971874 116.94524Q37.128124 116.94524 36.6125 116.46086Q36.1125 115.97649 36.1125 115.16399L36.1125 114.74211ZM37.2375 115.19524Q37.2375 115.53899 37.440624 115.75774Q37.64375 115.97649 37.971874 115.97649Q38.3 115.97649 38.4875 115.75774Q38.675 115.53899 38.675 115.17961L38.675 114.74211Q38.675 114.38274 38.4875 114.17961Q38.3 113.96086 37.95625 113.96086Q37.628124 113.96086 37.425 114.17961Q37.2375 114.38274 37.2375 114.75774L37.2375 115.19524ZM40.190624 119.53899Q40.190624 118.74211 40.70625 118.27336Q41.221874 117.78899 42.034374 117.78899Q42.8625 117.78899 43.378124 118.27336Q43.89375 118.74211 43.89375 119.57024L43.89375 119.99211Q43.89375 120.78899 43.39375 121.27336Q42.89375 121.75774 42.05 121.75774Q41.20625 121.75774 40.690624 121.27336Q40.190624 120.77336 40.190624 119.97649L40.190624 119.53899ZM41.315624 119.99211Q41.315624 120.32024 41.51875 120.55461Q41.7375 120.77336 42.05 120.77336Q42.76875 120.77336 42.76875 119.99211L42.76875 119.53899Q42.76875 119.19524 42.565624 118.97649Q42.3625 118.75774 42.034374 118.75774Q41.70625 118.75774 41.503124 118.97649Q41.315624 119.19524 41.315624 119.55461L41.315624 119.99211ZM38.3 120.99211L37.471874 120.55461L41.64375 113.88274L42.471874 114.32024L38.3 120.99211Z"
     fill-rule="nonzero"
     id="path76" />
  <path
     stroke="#757575"
     stroke-width="1.0"
     stroke-linecap="butt"
     d="M18.55 108.13274L145.23334 108.13274L266.17792 96.47072"
     fill-rule="nonzero"
     id="path78" />
  <path
     fill="#9e9e9e"
     d="M268.17792 96.47072C268.17792 95.36615 267.28247 94.47072 266.17792 94.47072C265.07333 94.47072 264.17792 95.36615 264.17792 96.47072C264.17792 97.57529 265.07333 98.47072 266.17792 98.47072C267.28247 98.47072 268.17792 97.57529 268.17792 96.47072"
     fill-rule="nonzero"
     id="path80" />
  <path
     fill="#1a1a1a"
     d="M24.128124 134.86711L21.05 134.86711L20.45625 136.63274L18.596874 136.63274L21.76875 128.10149L23.39375 128.10149L26.596874 136.63274L24.721874 136.63274L24.128124 134.86711ZM21.51875 133.44524L23.659374 133.44524L22.58125 130.25774L21.51875 133.44524ZM30.471874 134.52336L32.39375 128.10149L34.3625 128.10149L31.378124 136.63274L29.55 136.63274L26.596874 128.10149L28.55 128.10149L30.471874 134.52336ZM40.128124 134.86711L37.05 134.86711L36.45625 136.63274L34.596874 136.63274L37.76875 128.10149L39.39375 128.10149L42.596874 136.63274L40.721874 136.63274L40.128124 134.86711ZM37.51875 133.44524L39.659374 133.44524L38.58125 130.25774L37.51875 133.44524ZM50.253124 136.63274L48.4875 136.63274L45.065624 131.02336L45.065624 136.63274L43.315624 136.63274L43.315624 128.10149L45.065624 128.10149L48.503124 133.72649L48.503124 128.10149L50.253124 128.10149L50.253124 136.63274ZM57.7375 129.52336L55.128124 129.52336L55.128124 136.63274L53.3625 136.63274L53.3625 129.52336L50.784374 129.52336L50.784374 128.10149L57.7375 128.10149L57.7375 129.52336ZM63.440624 132.92961L60.065624 132.92961L60.065624 135.22649L64.03438 135.22649L64.03438 136.63274L58.315624 136.63274L58.315624 128.10149L64.01875 128.10149L64.01875 129.52336L60.065624 129.52336L60.065624 131.55461L63.440624 131.55461L63.440624 132.92961Z"
     fill-rule="nonzero"
     id="path82" />
  <path
     fill="#9e9e9e"
     d="M24.690624 148.36711Q24.690624 148.99211 24.378124 149.47649Q24.065624 149.94524 23.51875 150.24211Q24.14375 150.53899 24.503124 151.07024Q24.878124 151.58586 24.878124 152.28899Q24.878124 153.42961 24.096874 154.10149Q23.33125 154.75774 21.9875 154.75774Q20.659374 154.75774 19.878124 154.10149Q19.1125 153.42961 19.1125 152.28899Q19.1125 151.58586 19.471874 151.05461Q19.83125 150.52336 20.45625 150.24211Q19.909374 149.94524 19.596874 149.47649Q19.284374 148.99211 19.284374 148.36711Q19.284374 147.27336 20.003124 146.63274Q20.7375 145.97649 21.9875 145.97649Q23.2375 145.97649 23.95625 146.63274Q24.690624 147.27336 24.690624 148.36711ZM23.175 152.16399Q23.175 151.61711 22.846874 151.28899Q22.534374 150.94524 21.9875 150.94524Q21.440624 150.94524 21.1125 151.27336Q20.8 151.60149 20.8 152.16399Q20.8 152.71086 21.1125 153.05461Q21.440624 153.38274 22.003124 153.38274Q22.55 153.38274 22.8625 153.07024Q23.175 152.74211 23.175 152.16399ZM23.003124 148.44524Q23.003124 147.94524 22.7375 147.64836Q22.471874 147.35149 21.9875 147.35149Q21.51875 147.35149 21.253124 147.64836Q20.9875 147.92961 20.9875 148.44524Q20.9875 148.96086 21.253124 149.27336Q21.51875 149.58586 21.9875 149.58586Q22.471874 149.58586 22.7375 149.27336Q23.003124 148.96086 23.003124 148.44524ZM26.64375 156.77336L25.753124 156.30461L25.971874 155.92961Q26.3625 155.21086 26.378124 154.50774L26.378124 153.19524L27.8 153.19524L27.8 154.36711Q27.784374 155.00774 27.45625 155.66399Q27.14375 156.33586 26.64375 156.77336ZM30.846874 149.61711L31.753124 149.61711Q32.39375 149.61711 32.70625 149.30461Q33.01875 148.97649 33.01875 148.44524Q33.01875 147.92961 32.70625 147.64836Q32.409374 147.35149 31.8625 147.35149Q31.378124 147.35149 31.05 147.61711Q30.721874 147.88274 30.721874 148.30461L29.034374 148.30461Q29.034374 147.64836 29.39375 147.11711Q29.753124 146.58586 30.39375 146.28899Q31.05 145.97649 31.83125 145.97649Q33.175 145.97649 33.940624 146.63274Q34.721874 147.27336 34.721874 148.41399Q34.721874 149.00774 34.3625 149.50774Q34.003124 149.99211 33.425 150.24211Q34.14375 150.50774 34.4875 151.02336Q34.846874 151.53899 34.846874 152.24211Q34.846874 153.38274 34.01875 154.07024Q33.190624 154.75774 31.83125 154.75774Q30.55 154.75774 29.7375 154.08586Q28.925 153.39836 28.925 152.28899L30.6125 152.28899Q30.6125 152.77336 30.971874 153.08586Q31.346874 153.38274 31.8625 153.38274Q32.471874 153.38274 32.815624 153.07024Q33.159374 152.74211 33.159374 152.21086Q33.159374 150.94524 31.753124 150.94524L30.846874 150.94524L30.846874 149.61711ZM36.1125 147.74211Q36.1125 146.96086 36.6125 146.47649Q37.128124 145.97649 37.95625 145.97649Q38.784374 145.97649 39.3 146.46086Q39.815624 146.94524 39.815624 147.77336L39.815624 148.19524Q39.815624 148.97649 39.3 149.46086Q38.784374 149.94524 37.971874 149.94524Q37.128124 149.94524 36.6125 149.46086Q36.1125 148.97649 36.1125 148.16399L36.1125 147.74211ZM37.2375 148.19524Q37.2375 148.53899 37.440624 148.75774Q37.64375 148.97649 37.971874 148.97649Q38.3 148.97649 38.4875 148.75774Q38.675 148.53899 38.675 148.17961L38.675 147.74211Q38.675 147.38274 38.4875 147.17961Q38.3 146.96086 37.95625 146.96086Q37.628124 146.96086 37.425 147.17961Q37.2375 147.38274 37.2375 147.75774L37.2375 148.19524ZM40.190624 152.53899Q40.190624 151.74211 40.70625 151.27336Q41.221874 150.78899 42.034374 150.78899Q42.8625 150.78899 43.378124 151.27336Q43.89375 151.74211 43.89375 152.57024L43.89375 152.99211Q43.89375 153.78899 43.39375 154.27336Q42.89375 154.75774 42.05 154.75774Q41.20625 154.75774 40.690624 154.27336Q40.190624 153.77336 40.190624 152.97649L40.190624 152.53899ZM41.315624 152.99211Q41.315624 153.32024 41.51875 153.55461Q41.7375 153.77336 42.05 153.77336Q42.76875 153.77336 42.76875 152.99211L42.76875 152.53899Q42.76875 152.19524 42.565624 151.97649Q42.3625 151.75774 42.034374 151.75774Q41.70625 151.75774 41.503124 151.97649Q41.315624 152.19524 41.315624 152.55461L41.315624 152.99211ZM38.3 153.99211L37.471874 153.55461L41.64375 146.88274L42.471874 147.32024L38.3 153.99211Z"
     fill-rule="nonzero"
     id="path84" />
  <path
     stroke="#757575"
     stroke-width="1.0"
     stroke-linecap="butt"
     d="M18.55 141.13274L145.23334 141.13274L212.84015 114.6499"
     fill-rule="nonzero"
     id="path86" />
  <path
     fill="#9e9e9e"
     d="M214.84015 114.6499C214.84015 113.545334 213.94472 112.6499 212.84015 112.6499C211.73558 112.6499 210.84015 113.545334 210.84015 114.6499C210.84015 115.75447 211.73558 116.6499 212.84015 116.6499C213.94472 116.6499 214.84015 115.75447 214.84015 114.6499"
     fill-rule="nonzero"
     id="path88" />
  <path
     fill="#1a1a1a"
     d="M21.065624 166.63274L21.065624 169.63274L19.315624 169.63274L19.315624 161.10149L22.64375 161.10149Q23.596874 161.10149 24.33125 161.46086Q25.065624 161.80461 25.45625 162.46086Q25.846874 163.10149 25.846874 163.92961Q25.846874 165.17961 24.9875 165.91399Q24.128124 166.63274 22.6125 166.63274L21.065624 166.63274ZM21.065624 165.19524L22.64375 165.19524Q23.33125 165.19524 23.690624 164.86711Q24.065624 164.53899 24.065624 163.92961Q24.065624 163.30461 23.690624 162.92961Q23.33125 162.53899 22.675 162.52336L21.065624 162.52336L21.065624 165.19524ZM33.7375 162.52336L31.128124 162.52336L31.128124 169.63274L29.3625 169.63274L29.3625 162.52336L26.784374 162.52336L26.784374 161.10149L33.7375 161.10149L33.7375 162.52336Z"
     fill-rule="nonzero"
     id="path90" />
  <path
     fill="#9e9e9e"
     d="M24.690624 181.36711Q24.690624 181.99211 24.378124 182.47649Q24.065624 182.94524 23.51875 183.24211Q24.14375 183.53899 24.503124 184.07024Q24.878124 184.58586 24.878124 185.28899Q24.878124 186.42961 24.096874 187.10149Q23.33125 187.75774 21.9875 187.75774Q20.659374 187.75774 19.878124 187.10149Q19.1125 186.42961 19.1125 185.28899Q19.1125 184.58586 19.471874 184.05461Q19.83125 183.52336 20.45625 183.24211Q19.909374 182.94524 19.596874 182.47649Q19.284374 181.99211 19.284374 181.36711Q19.284374 180.27336 20.003124 179.63274Q20.7375 178.97649 21.9875 178.97649Q23.2375 178.97649 23.95625 179.63274Q24.690624 180.27336 24.690624 181.36711ZM23.175 185.16399Q23.175 184.61711 22.846874 184.28899Q22.534374 183.94524 21.9875 183.94524Q21.440624 183.94524 21.1125 184.27336Q20.8 184.60149 20.8 185.16399Q20.8 185.71086 21.1125 186.05461Q21.440624 186.38274 22.003124 186.38274Q22.55 186.38274 22.8625 186.07024Q23.175 185.74211 23.175 185.16399ZM23.003124 181.44524Q23.003124 180.94524 22.7375 180.64836Q22.471874 180.35149 21.9875 180.35149Q21.51875 180.35149 21.253124 180.64836Q20.9875 180.92961 20.9875 181.44524Q20.9875 181.96086 21.253124 182.27336Q21.51875 182.58586 21.9875 182.58586Q22.471874 182.58586 22.7375 182.27336Q23.003124 181.96086 23.003124 181.44524ZM26.64375 189.77336L25.753124 189.30461L25.971874 188.92961Q26.3625 188.21086 26.378124 187.50774L26.378124 186.19524L27.8 186.19524L27.8 187.36711Q27.784374 188.00774 27.45625 188.66399Q27.14375 189.33586 26.64375 189.77336ZM30.846874 182.61711L31.753124 182.61711Q32.39375 182.61711 32.70625 182.30461Q33.01875 181.97649 33.01875 181.44524Q33.01875 180.92961 32.70625 180.64836Q32.409374 180.35149 31.8625 180.35149Q31.378124 180.35149 31.05 180.61711Q30.721874 180.88274 30.721874 181.30461L29.034374 181.30461Q29.034374 180.64836 29.39375 180.11711Q29.753124 179.58586 30.39375 179.28899Q31.05 178.97649 31.83125 178.97649Q33.175 178.97649 33.940624 179.63274Q34.721874 180.27336 34.721874 181.41399Q34.721874 182.00774 34.3625 182.50774Q34.003124 182.99211 33.425 183.24211Q34.14375 183.50774 34.4875 184.02336Q34.846874 184.53899 34.846874 185.24211Q34.846874 186.38274 34.01875 187.07024Q33.190624 187.75774 31.83125 187.75774Q30.55 187.75774 29.7375 187.08586Q28.925 186.39836 28.925 185.28899L30.6125 185.28899Q30.6125 185.77336 30.971874 186.08586Q31.346874 186.38274 31.8625 186.38274Q32.471874 186.38274 32.815624 186.07024Q33.159374 185.74211 33.159374 185.21086Q33.159374 183.94524 31.753124 183.94524L30.846874 183.94524L30.846874 182.61711ZM36.1125 180.74211Q36.1125 179.96086 36.6125 179.47649Q37.128124 178.97649 37.95625 178.97649Q38.784374 178.97649 39.3 179.46086Q39.815624 179.94524 39.815624 180.77336L39.815624 181.19524Q39.815624 181.97649 39.3 182.46086Q38.784374 182.94524 37.971874 182.94524Q37.128124 182.94524 36.6125 182.46086Q36.1125 181.97649 36.1125 181.16399L36.1125 180.74211ZM37.2375 181.19524Q37.2375 181.53899 37.440624 181.75774Q37.64375 181.97649 37.971874 181.97649Q38.3 181.97649 38.4875 181.75774Q38.675 181.53899 38.675 181.17961L38.675 180.74211Q38.675 180.38274 38.4875 180.17961Q38.3 179.96086 37.95625 179.96086Q37.628124 179.96086 37.425 180.17961Q37.2375 180.38274 37.2375 180.75774L37.2375 181.19524ZM40.190624 185.53899Q40.190624 184.74211 40.70625 184.27336Q41.221874 183.78899 42.034374 183.78899Q42.8625 183.78899 43.378124 184.27336Q43.89375 184.74211 43.89375 185.57024L43.89375 185.99211Q43.89375 186.78899 43.39375 187.27336Q42.89375 187.75774 42.05 187.75774Q41.20625 187.75774 40.690624 187.27336Q40.190624 186.77336 40.190624 185.97649L40.190624 185.53899ZM41.315624 185.99211Q41.315624 186.32024 41.51875 186.55461Q41.7375 186.77336 42.05 186.77336Q42.76875 186.77336 42.76875 185.99211L42.76875 185.53899Q42.76875 185.19524 42.565624 184.97649Q42.3625 184.75774 42.034374 184.75774Q41.70625 184.75774 41.503124 184.97649Q41.315624 185.19524 41.315624 185.55461L41.315624 185.99211ZM38.3 186.99211L37.471874 186.55461L41.64375 179.88274L42.471874 180.32024L38.3 186.99211Z"
     fill-rule="nonzero"
     id="path92" />
  <path
     stroke="#757575"
     stroke-width="1.0"
     stroke-linecap="butt"
     d="M18.55 174.13274L145.23334 174.13274L168.8917 155.58925"
     fill-rule="nonzero"
     id="path94" />
  <path
     fill="#9e9e9e"
     d="M170.8917 155.58925C170.8917 154.48468 169.99626 153.58925 168.8917 153.58925C167.78712 153.58925 166.8917 154.48468 166.8917 155.58925C166.8917 156.69382 167.78712 157.58925 168.8917 157.58925C169.99626 157.58925 170.8917 156.69382 170.8917 155.58925"
     fill-rule="nonzero"
     id="path96" />
  <path
     fill="#1a1a1a"
     d="M21.6125 203.17004L23.8 209.35754L25.9875 203.17004L28.284374 203.17004L28.284374 211.7013L26.51875 211.7013L26.51875 209.37317L26.70625 205.34192L24.39375 211.7013L23.190624 211.7013L20.89375 205.34192L21.065624 209.37317L21.065624 211.7013L19.315624 211.7013L19.315624 203.17004L21.6125 203.17004ZM30.315624 211.7013L30.315624 203.17004L32.940624 203.17004Q34.065624 203.17004 34.940624 203.68567Q35.83125 204.18567 36.33125 205.12317Q36.83125 206.04504 36.83125 207.24817L36.83125 207.6388Q36.83125 208.8263 36.346874 209.74817Q35.8625 210.67004 34.971874 211.18567Q34.08125 211.7013 32.95625 211.7013L30.315624 211.7013ZM32.065624 204.59192L32.065624 210.29504L32.925 210.29504Q33.95625 210.29504 34.4875 209.62317Q35.034374 208.93567 35.05 207.68567L35.05 207.23254Q35.05 205.93567 34.503124 205.2638Q33.971874 204.59192 32.940624 204.59192L32.065624 204.59192ZM38.315624 211.7013L38.315624 203.17004L41.3 203.17004Q42.846874 203.17004 43.64375 203.7638Q44.45625 204.35754 44.45625 205.5138Q44.45625 206.1388 44.128124 206.62317Q43.815624 207.09192 43.2375 207.31067Q43.89375 207.48254 44.26875 207.98254Q44.659374 208.46692 44.659374 209.18567Q44.659374 210.42004 43.8625 211.06067Q43.08125 211.68567 41.628124 211.7013L38.315624 211.7013ZM40.065624 207.98254L40.065624 210.29504L41.58125 210.29504Q42.190624 210.29504 42.534374 209.99817Q42.89375 209.7013 42.89375 209.17004Q42.89375 207.99817 41.675 207.98254L40.065624 207.98254ZM40.065624 206.74817L41.378124 206.74817Q42.70625 206.71692 42.70625 205.68567Q42.70625 205.10754 42.3625 204.85754Q42.034374 204.59192 41.3 204.59192L40.065624 204.59192L40.065624 206.74817Z"
     fill-rule="nonzero"
     id="path98" />
  <path
     fill="#9e9e9e"
     d="M23.2375 229.7013L21.55 229.7013L21.55 223.17004L19.534374 223.79504L19.534374 222.42004L23.065624 221.15442L23.2375 221.15442L23.2375 229.7013ZM30.2375 229.7013L28.55 229.7013L28.55 223.17004L26.534374 223.79504L26.534374 222.42004L30.065624 221.15442L30.2375 221.15442L30.2375 229.7013ZM33.64375 231.84192L32.753124 231.37317L32.971874 230.99817Q33.3625 230.27942 33.378124 229.5763L33.378124 228.2638L34.8 228.2638L34.8 229.43567Q34.784374 230.0763 34.45625 230.73254Q34.14375 231.40442 33.64375 231.84192ZM36.378124 225.49817L36.878124 221.17004L41.659374 221.17004L41.659374 222.5763L38.26875 222.5763L38.05 224.42004Q38.659374 224.09192 39.33125 224.09192Q40.55 224.09192 41.2375 224.85754Q41.940624 225.60754 41.940624 226.96692Q41.940624 227.79504 41.58125 228.4513Q41.2375 229.09192 40.58125 229.46692Q39.940624 229.8263 39.05 229.8263Q38.284374 229.8263 37.6125 229.5138Q36.95625 229.18567 36.565624 228.62317Q36.190624 228.06067 36.159374 227.3263L37.846874 227.3263Q37.89375 227.85754 38.20625 228.15442Q38.534374 228.4513 39.05 228.4513Q39.628124 228.4513 39.925 228.04504Q40.2375 227.62317 40.2375 226.87317Q40.2375 226.1388 39.878124 225.7638Q39.534374 225.37317 38.878124 225.37317Q38.26875 225.37317 37.89375 225.68567L37.7375 225.84192L36.378124 225.49817ZM43.1125 222.81067Q43.1125 222.02942 43.6125 221.54504Q44.128124 221.04504 44.95625 221.04504Q45.784374 221.04504 46.3 221.52942Q46.815624 222.0138 46.815624 222.84192L46.815624 223.2638Q46.815624 224.04504 46.3 224.52942Q45.784374 225.0138 44.971874 225.0138Q44.128124 225.0138 43.6125 224.52942Q43.1125 224.04504 43.1125 223.23254L43.1125 222.81067ZM44.2375 223.2638Q44.2375 223.60754 44.440624 223.8263Q44.64375 224.04504 44.971874 224.04504Q45.3 224.04504 45.4875 223.8263Q45.675 223.60754 45.675 223.24817L45.675 222.81067Q45.675 222.4513 45.4875 222.24817Q45.3 222.02942 44.95625 222.02942Q44.628124 222.02942 44.425 222.24817Q44.2375 222.4513 44.2375 222.8263L44.2375 223.2638ZM47.190624 227.60754Q47.190624 226.81067 47.70625 226.34192Q48.221874 225.85754 49.034374 225.85754Q49.8625 225.85754 50.378124 226.34192Q50.89375 226.81067 50.89375 227.6388L50.89375 228.06067Q50.89375 228.85754 50.39375 229.34192Q49.89375 229.8263 49.05 229.8263Q48.20625 229.8263 47.690624 229.34192Q47.190624 228.84192 47.190624 228.04504L47.190624 227.60754ZM48.315624 228.06067Q48.315624 228.3888 48.51875 228.62317Q48.7375 228.84192 49.05 228.84192Q49.76875 228.84192 49.76875 228.06067L49.76875 227.60754Q49.76875 227.2638 49.565624 227.04504Q49.3625 226.8263 49.034374 226.8263Q48.70625 226.8263 48.503124 227.04504Q48.315624 227.2638 48.315624 227.62317L48.315624 228.06067ZM45.3 229.06067L44.471874 228.62317L48.64375 221.9513L49.471874 222.3888L45.3 229.06067Z"
     fill-rule="nonzero"
     id="path100" />
  <path
     stroke="#757575"
     stroke-width="1.0"
     stroke-linecap="butt"
     d="M18.55 216.2013L145.23334 216.2013L162.77841 216.2013"
     fill-rule="nonzero"
     id="path102" />
  <path
     fill="#9e9e9e"
     d="M164.77841 216.2013C164.77841 215.09673 163.88298 214.2013 162.77841 214.2013C161.67384 214.2013 160.77841 215.09673 160.77841 216.2013C160.77841 217.30586 161.67384 218.2013 162.77841 218.2013C163.88298 218.2013 164.77841 217.30586 164.77841 216.2013"
     fill-rule="nonzero"
     id="path104" />
  <path
     fill="#1a1a1a"
     d="M19.315624 270.55865L19.315624 262.0274L21.940624 262.0274Q23.065624 262.0274 23.940624 262.54303Q24.83125 263.04303 25.33125 263.98053Q25.83125 264.9024 25.83125 266.10553L25.83125 266.49615Q25.83125 267.68365 25.346874 268.60553Q24.8625 269.5274 23.971874 270.04303Q23.08125 270.55865 21.95625 270.55865L19.315624 270.55865ZM21.065624 263.44928L21.065624 269.1524L21.925 269.1524Q22.95625 269.1524 23.4875 268.48053Q24.034374 267.79303 24.05 266.54303L24.05 266.0899Q24.05 264.79303 23.503124 264.12115Q22.971874 263.44928 21.940624 263.44928L21.065624 263.44928ZM32.440624 266.85553L29.065624 266.85553L29.065624 269.1524L33.034374 269.1524L33.034374 270.55865L27.315624 270.55865L27.315624 262.0274L33.01875 262.0274L33.01875 263.44928L29.065624 263.44928L29.065624 265.48053L32.440624 265.48053L32.440624 266.85553ZM36.6125 262.0274L38.8 268.2149L40.9875 262.0274L43.284374 262.0274L43.284374 270.55865L41.51875 270.55865L41.51875 268.23053L41.70625 264.19928L39.39375 270.55865L38.190624 270.55865L35.89375 264.19928L36.065624 268.23053L36.065624 270.55865L34.315624 270.55865L34.315624 262.0274L36.6125 262.0274Z"
     fill-rule="nonzero"
     id="path106" />
  <path
     fill="#9e9e9e"
     d="M23.2375 288.55865L21.55 288.55865L21.55 282.0274L19.534374 282.6524L19.534374 281.2774L23.065624 280.01178L23.2375 280.01178L23.2375 288.55865ZM31.971874 288.55865L26.128124 288.55865L26.128124 287.4024L28.89375 284.44928Q29.45625 283.8399 29.721874 283.37115Q30.003124 282.9024 30.003124 282.49615Q30.003124 281.91803 29.70625 281.60553Q29.425 281.2774 28.89375 281.2774Q28.315624 281.2774 27.9875 281.66803Q27.659374 282.05865 27.659374 282.7149L25.95625 282.7149Q25.95625 281.93365 26.33125 281.29303Q26.70625 280.63678 27.378124 280.2774Q28.065624 279.9024 28.925 279.9024Q30.2375 279.9024 30.971874 280.54303Q31.70625 281.16803 31.70625 282.32428Q31.70625 282.9649 31.378124 283.62115Q31.05 284.2774 30.253124 285.1524L28.315624 287.19928L31.971874 287.19928L31.971874 288.55865ZM33.64375 290.69928L32.753124 290.23053L32.971874 289.85553Q33.3625 289.13678 33.378124 288.43365L33.378124 287.12115L34.8 287.12115L34.8 288.29303Q34.784374 288.93365 34.45625 289.5899Q34.14375 290.26178 33.64375 290.69928ZM41.971874 288.55865L36.128124 288.55865L36.128124 287.4024L38.89375 284.44928Q39.45625 283.8399 39.721874 283.37115Q40.003124 282.9024 40.003124 282.49615Q40.003124 281.91803 39.70625 281.60553Q39.425 281.2774 38.89375 281.2774Q38.315624 281.2774 37.9875 281.66803Q37.659374 282.05865 37.659374 282.7149L35.95625 282.7149Q35.95625 281.93365 36.33125 281.29303Q36.70625 280.63678 37.378124 280.2774Q38.065624 279.9024 38.925 279.9024Q40.2375 279.9024 40.971874 280.54303Q41.70625 281.16803 41.70625 282.32428Q41.70625 282.9649 41.378124 283.62115Q41.05 284.2774 40.253124 285.1524L38.315624 287.19928L41.971874 287.19928L41.971874 288.55865ZM43.1125 281.66803Q43.1125 280.88678 43.6125 280.4024Q44.128124 279.9024 44.95625 279.9024Q45.784374 279.9024 46.3 280.38678Q46.815624 280.87115 46.815624 281.69928L46.815624 282.12115Q46.815624 282.9024 46.3 283.38678Q45.784374 283.87115 44.971874 283.87115Q44.128124 283.87115 43.6125 283.38678Q43.1125 282.9024 43.1125 282.0899L43.1125 281.66803ZM44.2375 282.12115Q44.2375 282.4649 44.440624 282.68365Q44.64375 282.9024 44.971874 282.9024Q45.3 282.9024 45.4875 282.68365Q45.675 282.4649 45.675 282.10553L45.675 281.66803Q45.675 281.30865 45.4875 281.10553Q45.3 280.88678 44.95625 280.88678Q44.628124 280.88678 44.425 281.10553Q44.2375 281.30865 44.2375 281.68365L44.2375 282.12115ZM47.190624 286.4649Q47.190624 285.66803 47.70625 285.19928Q48.221874 284.7149 49.034374 284.7149Q49.8625 284.7149 50.378124 285.19928Q50.89375 285.66803 50.89375 286.49615L50.89375 286.91803Q50.89375 287.7149 50.39375 288.19928Q49.89375 288.68365 49.05 288.68365Q48.20625 288.68365 47.690624 288.19928Q47.190624 287.69928 47.190624 286.9024L47.190624 286.4649ZM48.315624 286.91803Q48.315624 287.24615 48.51875 287.48053Q48.7375 287.69928 49.05 287.69928Q49.76875 287.69928 49.76875 286.91803L49.76875 286.4649Q49.76875 286.12115 49.565624 285.9024Q49.3625 285.68365 49.034374 285.68365Q48.70625 285.68365 48.503124 285.9024Q48.315624 286.12115 48.315624 286.48053L48.315624 286.91803ZM45.3 287.91803L44.471874 287.48053L48.64375 280.80865L49.471874 281.24615L45.3 287.91803Z"
     fill-rule="nonzero"
     id="path108" />
  <path
     stroke="#757575"
     stroke-width="1.0"
     stroke-linecap="butt"
     d="M18.55 275.05865L145.23334 275.05865L222.0748 275.05865"
     fill-rule="nonzero"
     id="path110" />
  <path
     fill="#9e9e9e"
     d="M224.0748 275.05865C224.0748 273.95407 223.17937 273.05865 222.0748 273.05865C220.97023 273.05865 220.0748 273.95407 220.0748 275.05865C220.0748 276.16324 220.97023 277.05865 222.0748 277.05865C223.17937 277.05865 224.0748 276.16324 224.0748 275.05865"
     fill-rule="nonzero"
     id="path112" />
  <path
     fill="#1a1a1a"
     d="M496.3719 95.52263L494.96564 95.52263L494.96564 98.64763L493.21564 98.64763L493.21564 90.11638L496.3875 90.11638Q497.8875 90.11638 498.7 90.78825Q499.52814 91.46013 499.52814 92.6945Q499.52814 93.5695 499.15314 94.14763Q498.77814 94.72575 498.0125 95.08513L499.85626 98.5695L499.85626 98.64763L497.96564 98.64763L496.3719 95.52263ZM494.96564 94.10075L496.3875 94.10075Q497.04376 94.10075 497.40314 93.77263Q497.77814 93.42888 497.77814 92.83513Q497.77814 92.22575 497.4344 91.882Q497.09064 91.53825 496.3875 91.53825L494.96564 91.53825L494.96564 94.10075ZM506.34064 94.9445L502.96564 94.9445L502.96564 97.24138L506.9344 97.24138L506.9344 98.64763L501.21564 98.64763L501.21564 90.11638L506.91876 90.11638L506.91876 91.53825L502.96564 91.53825L502.96564 93.5695L506.34064 93.5695L506.34064 94.9445ZM509.96564 95.64763L509.96564 98.64763L508.21564 98.64763L508.21564 90.11638L511.54376 90.11638Q512.4969 90.11638 513.23126 90.47575Q513.96564 90.8195 514.35626 91.47575Q514.7469 92.11638 514.7469 92.9445Q514.7469 94.1945 513.8875 94.92888Q513.02814 95.64763 511.5125 95.64763L509.96564 95.64763ZM509.96564 94.21013L511.54376 94.21013Q512.23126 94.21013 512.59064 93.882Q512.96564 93.55388 512.96564 92.9445Q512.96564 92.3195 512.59064 91.9445Q512.23126 91.55388 511.575 91.53825L509.96564 91.53825L509.96564 94.21013ZM522.66876 90.11638L522.66876 95.74138Q522.66876 97.132 521.79376 97.96013Q520.91876 98.77263 519.40314 98.77263Q517.90314 98.77263 517.02814 97.97575Q516.15314 97.17888 516.1375 95.80388L516.1375 90.11638L517.8875 90.11638L517.8875 95.74138Q517.8875 96.58513 518.27814 96.97575Q518.6844 97.35075 519.40314 97.35075Q520.8875 97.35075 520.90314 95.78825L520.90314 90.11638L522.66876 90.11638ZM524.21564 98.64763L524.21564 90.11638L527.2 90.11638Q528.7469 90.11638 529.54376 90.71013Q530.35626 91.30388 530.35626 92.46013Q530.35626 93.08513 530.02814 93.5695Q529.71564 94.03825 529.1375 94.257Q529.79376 94.42888 530.16876 94.92888Q530.5594 95.41325 530.5594 96.132Q530.5594 97.36638 529.7625 98.007Q528.98126 98.632 527.52814 98.64763L524.21564 98.64763ZM525.96564 94.92888L525.96564 97.24138L527.48126 97.24138Q528.09064 97.24138 528.4344 96.9445Q528.79376 96.64763 528.79376 96.11638Q528.79376 94.9445 527.575 94.92888L525.96564 94.92888ZM525.96564 93.6945L527.27814 93.6945Q528.60626 93.66325 528.60626 92.632Q528.60626 92.05388 528.2625 91.80388Q527.9344 91.53825 527.2 91.53825L525.96564 91.53825L525.96564 93.6945ZM533.96564 97.24138L537.7 97.24138L537.7 98.64763L532.21564 98.64763L532.21564 90.11638L533.96564 90.11638L533.96564 97.24138ZM541.075 98.64763L539.325 98.64763L539.325 90.11638L541.075 90.11638L541.075 98.64763ZM549.90314 95.80388Q549.8094 97.17888 548.8875 97.97575Q547.98126 98.77263 546.48126 98.77263Q544.84064 98.77263 543.8875 97.66325Q542.95 96.55388 542.95 94.632L542.95 94.10075Q542.95 92.882 543.3875 91.9445Q543.825 91.007 544.6219 90.507Q545.4344 89.99138 546.4969 89.99138Q547.98126 89.99138 548.8719 90.78825Q549.77814 91.58513 549.91876 93.007L548.16876 93.007Q548.10626 92.17888 547.7 91.8195Q547.3094 91.4445 546.4969 91.4445Q545.6219 91.4445 545.1844 92.0695Q544.7469 92.6945 544.73126 94.02263L544.73126 94.66325Q544.73126 96.05388 545.15314 96.6945Q545.575 97.33513 546.48126 97.33513Q547.29376 97.33513 547.6844 96.96013Q548.09064 96.58513 548.15314 95.80388L549.90314 95.80388ZM556.02814 96.882L552.95 96.882L552.35626 98.64763L550.4969 98.64763L553.66876 90.11638L555.29376 90.11638L558.4969 98.64763L556.6219 98.64763L556.02814 96.882ZM553.41876 95.46013L555.5594 95.46013L554.48126 92.27263L553.41876 95.46013ZM566.15314 98.64763L564.3875 98.64763L560.96564 93.03825L560.96564 98.64763L559.21564 98.64763L559.21564 90.11638L560.96564 90.11638L564.40314 95.74138L564.40314 90.11638L566.15314 90.11638L566.15314 98.64763ZM574.21564 94.5695Q574.21564 95.83513 573.7625 96.78825Q573.325 97.72575 572.4969 98.257Q571.66876 98.77263 570.60626 98.77263Q569.54376 98.77263 568.7 98.257Q567.8719 97.74138 567.41876 96.80388Q566.96564 95.85075 566.95 94.61638L566.95 94.1945Q566.95 92.9445 567.40314 91.99138Q567.85626 91.02263 568.6844 90.507Q569.52814 89.99138 570.59064 89.99138Q571.65314 89.99138 572.48126 90.507Q573.3094 91.02263 573.7625 91.99138Q574.21564 92.9445 574.21564 94.1945L574.21564 94.5695ZM572.4344 94.1945Q572.4344 92.85075 571.95 92.14763Q571.48126 91.4445 570.59064 91.4445Q569.7 91.4445 569.21564 92.14763Q568.7469 92.83513 568.73126 94.16325L568.73126 94.5695Q568.73126 95.882 569.21564 96.60075Q569.7 97.3195 570.60626 97.3195Q571.48126 97.3195 571.95 96.632Q572.4344 95.92888 572.4344 94.60075L572.4344 94.1945ZM579.6375 96.41325Q579.6375 95.91325 579.27814 95.64763Q578.9344 95.382 578.0125 95.08513Q577.10626 94.78825 576.575 94.49138Q575.1219 93.71013 575.1219 92.382Q575.1219 91.6945 575.5125 91.14763Q575.90314 90.60075 576.6219 90.30388Q577.35626 89.99138 578.2625 89.99138Q579.1844 89.99138 579.8875 90.33513Q580.60626 90.66325 580.9969 91.27263Q581.40314 91.86638 581.40314 92.632L579.6375 92.632Q579.6375 92.05388 579.2625 91.72575Q578.90314 91.39763 578.23126 91.39763Q577.59064 91.39763 577.23126 91.67888Q576.8719 91.9445 576.8719 92.382Q576.8719 92.80388 577.29376 93.08513Q577.71564 93.36638 578.52814 93.61638Q580.02814 94.0695 580.71564 94.74138Q581.40314 95.39763 581.40314 96.39763Q581.40314 97.507 580.5594 98.14763Q579.73126 98.77263 578.3094 98.77263Q577.325 98.77263 576.5125 98.41325Q575.7 98.03825 575.27814 97.41325Q574.85626 96.78825 574.85626 95.96013L576.6219 95.96013Q576.6219 97.382 578.3094 97.382Q578.9344 97.382 579.27814 97.132Q579.6375 96.86638 579.6375 96.41325Z"
     fill-rule="nonzero"
     id="path114" />
  <path
     fill="#9e9e9e"
     d="M553.1375 116.64763L551.45 116.64763L551.45 110.11638L549.4344 110.74138L549.4344 109.36638L552.96564 108.10075L553.1375 108.10075L553.1375 116.64763ZM561.04376 113.42888L562.0125 113.42888L562.0125 114.80388L561.04376 114.80388L561.04376 116.64763L559.34064 116.64763L559.34064 114.80388L555.85626 114.80388L555.77814 113.74138L559.325 108.11638L561.04376 108.11638L561.04376 113.42888ZM557.46564 113.42888L559.34064 113.42888L559.34064 110.42888L559.23126 110.61638L557.46564 113.42888ZM563.54376 118.78825L562.65314 118.3195L562.8719 117.9445Q563.2625 117.22575 563.27814 116.52263L563.27814 115.21013L564.7 115.21013L564.7 116.382Q564.6844 117.02263 564.35626 117.67888Q564.04376 118.35075 563.54376 118.78825ZM570.1375 116.64763L568.45 116.64763L568.45 110.11638L566.4344 110.74138L566.4344 109.36638L569.96564 108.10075L570.1375 108.10075L570.1375 116.64763ZM573.0125 109.757Q573.0125 108.97575 573.5125 108.49138Q574.02814 107.99138 574.85626 107.99138Q575.6844 107.99138 576.2 108.47575Q576.71564 108.96013 576.71564 109.78825L576.71564 110.21013Q576.71564 110.99138 576.2 111.47575Q575.6844 111.96013 574.8719 111.96013Q574.02814 111.96013 573.5125 111.47575Q573.0125 110.99138 573.0125 110.17888L573.0125 109.757ZM574.1375 110.21013Q574.1375 110.55388 574.34064 110.77263Q574.54376 110.99138 574.8719 110.99138Q575.2 110.99138 575.3875 110.77263Q575.575 110.55388 575.575 110.1945L575.575 109.757Q575.575 109.39763 575.3875 109.1945Q575.2 108.97575 574.85626 108.97575Q574.52814 108.97575 574.325 109.1945Q574.1375 109.39763 574.1375 109.77263L574.1375 110.21013ZM577.09064 114.55388Q577.09064 113.757 577.60626 113.28825Q578.1219 112.80388 578.9344 112.80388Q579.7625 112.80388 580.27814 113.28825Q580.79376 113.757 580.79376 114.58513L580.79376 115.007Q580.79376 115.80388 580.29376 116.28825Q579.79376 116.77263 578.95 116.77263Q578.10626 116.77263 577.59064 116.28825Q577.09064 115.78825 577.09064 114.99138L577.09064 114.55388ZM578.21564 115.007Q578.21564 115.33513 578.41876 115.5695Q578.6375 115.78825 578.95 115.78825Q579.66876 115.78825 579.66876 115.007L579.66876 114.55388Q579.66876 114.21013 579.46564 113.99138Q579.2625 113.77263 578.9344 113.77263Q578.60626 113.77263 578.40314 113.99138Q578.21564 114.21013 578.21564 114.5695L578.21564 115.007ZM575.2 116.007L574.3719 115.5695L578.54376 108.89763L579.3719 109.33513L575.2 116.007Z"
     fill-rule="nonzero"
     id="path116" />
  <path
     stroke="#757575"
     stroke-width="1.0"
     stroke-linecap="butt"
     d="M581.45 103.14763L454.76666 103.14763L360.5864 103.14763"
     fill-rule="nonzero"
     id="path118" />
  <path
     fill="#9e9e9e"
     d="M362.5864 103.14763C362.5864 102.04306 361.69098 101.14763 360.5864 101.14763C359.48184 101.14763 358.5864 102.04306 358.5864 103.14763C358.5864 104.252205 359.48184 105.14763 360.5864 105.14763C361.69098 105.14763 362.5864 104.252205 362.5864 103.14763"
     fill-rule="nonzero"
     id="path120" />
  <path
     fill="#1a1a1a"
     d="M560.96564 159.42091L560.96564 162.42091L559.21564 162.42091L559.21564 153.88966L562.54376 153.88966Q563.4969 153.88966 564.23126 154.24904Q564.96564 154.59279 565.35626 155.24904Q565.7469 155.88966 565.7469 156.71779Q565.7469 157.96779 564.8875 158.70216Q564.02814 159.42091 562.5125 159.42091L560.96564 159.42091ZM560.96564 157.98341L562.54376 157.98341Q563.23126 157.98341 563.59064 157.65529Q563.96564 157.32716 563.96564 156.71779Q563.96564 156.09279 563.59064 155.71779Q563.23126 155.32716 562.575 155.31154L560.96564 155.31154L560.96564 157.98341ZM571.6375 160.18654Q571.6375 159.68654 571.27814 159.42091Q570.9344 159.15529 570.0125 158.85841Q569.10626 158.56154 568.575 158.26466Q567.1219 157.48341 567.1219 156.15529Q567.1219 155.46779 567.5125 154.92091Q567.90314 154.37404 568.6219 154.07716Q569.35626 153.76466 570.2625 153.76466Q571.1844 153.76466 571.8875 154.10841Q572.60626 154.43654 572.9969 155.04591Q573.40314 155.63966 573.40314 156.40529L571.6375 156.40529Q571.6375 155.82716 571.2625 155.49904Q570.90314 155.17091 570.23126 155.17091Q569.59064 155.17091 569.23126 155.45216Q568.8719 155.71779 568.8719 156.15529Q568.8719 156.57716 569.29376 156.85841Q569.71564 157.13966 570.52814 157.38966Q572.02814 157.84279 572.71564 158.51466Q573.40314 159.17091 573.40314 160.17091Q573.40314 161.28029 572.5594 161.92091Q571.73126 162.54591 570.3094 162.54591Q569.325 162.54591 568.5125 162.18654Q567.7 161.81154 567.27814 161.18654Q566.85626 160.56154 566.85626 159.73341L568.6219 159.73341Q568.6219 161.15529 570.3094 161.15529Q570.9344 161.15529 571.27814 160.90529Q571.6375 160.63966 571.6375 160.18654ZM574.21564 162.42091L574.21564 153.88966L577.2 153.88966Q578.7469 153.88966 579.54376 154.48341Q580.35626 155.07716 580.35626 156.23341Q580.35626 156.85841 580.02814 157.34279Q579.71564 157.81154 579.1375 158.03029Q579.79376 158.20216 580.16876 158.70216Q580.5594 159.18654 580.5594 159.90529Q580.5594 161.13966 579.7625 161.78029Q578.98126 162.40529 577.52814 162.42091L574.21564 162.42091ZM575.96564 158.70216L575.96564 161.01466L577.48126 161.01466Q578.09064 161.01466 578.4344 160.71779Q578.79376 160.42091 578.79376 159.88966Q578.79376 158.71779 577.575 158.70216L575.96564 158.70216ZM575.96564 157.46779L577.27814 157.46779Q578.60626 157.43654 578.60626 156.40529Q578.60626 155.82716 578.2625 155.57716Q577.9344 155.31154 577.2 155.31154L575.96564 155.31154L575.96564 157.46779Z"
     fill-rule="nonzero"
     id="path122" />
  <path
     fill="#9e9e9e"
     d="M553.1375 180.42091L551.45 180.42091L551.45 173.88966L549.4344 174.51466L549.4344 173.13966L552.96564 171.87404L553.1375 171.87404L553.1375 180.42091ZM557.7469 175.40529L558.65314 175.40529Q559.29376 175.40529 559.60626 175.09279Q559.91876 174.76466 559.91876 174.23341Q559.91876 173.71779 559.60626 173.43654Q559.3094 173.13966 558.7625 173.13966Q558.27814 173.13966 557.95 173.40529Q557.6219 173.67091 557.6219 174.09279L555.9344 174.09279Q555.9344 173.43654 556.29376 172.90529Q556.65314 172.37404 557.29376 172.07716Q557.95 171.76466 558.73126 171.76466Q560.075 171.76466 560.84064 172.42091Q561.6219 173.06154 561.6219 174.20216Q561.6219 174.79591 561.2625 175.29591Q560.90314 175.78029 560.325 176.03029Q561.04376 176.29591 561.3875 176.81154Q561.7469 177.32716 561.7469 178.03029Q561.7469 179.17091 560.91876 179.85841Q560.09064 180.54591 558.73126 180.54591Q557.45 180.54591 556.6375 179.87404Q555.825 179.18654 555.825 178.07716L557.5125 178.07716Q557.5125 178.56154 557.8719 178.87404Q558.2469 179.17091 558.7625 179.17091Q559.3719 179.17091 559.71564 178.85841Q560.0594 178.53029 560.0594 177.99904Q560.0594 176.73341 558.65314 176.73341L557.7469 176.73341L557.7469 175.40529ZM563.54376 182.56154L562.65314 182.09279L562.8719 181.71779Q563.2625 180.99904 563.27814 180.29591L563.27814 178.98341L564.7 178.98341L564.7 180.15529Q564.6844 180.79591 564.35626 181.45216Q564.04376 182.12404 563.54376 182.56154ZM566.27814 176.21779L566.77814 171.88966L571.5594 171.88966L571.5594 173.29591L568.16876 173.29591L567.95 175.13966Q568.5594 174.81154 569.23126 174.81154Q570.45 174.81154 571.1375 175.57716Q571.84064 176.32716 571.84064 177.68654Q571.84064 178.51466 571.48126 179.17091Q571.1375 179.81154 570.48126 180.18654Q569.84064 180.54591 568.95 180.54591Q568.1844 180.54591 567.5125 180.23341Q566.85626 179.90529 566.46564 179.34279Q566.09064 178.78029 566.0594 178.04591L567.7469 178.04591Q567.79376 178.57716 568.10626 178.87404Q568.4344 179.17091 568.95 179.17091Q569.52814 179.17091 569.825 178.76466Q570.1375 178.34279 570.1375 177.59279Q570.1375 176.85841 569.77814 176.48341Q569.4344 176.09279 568.77814 176.09279Q568.16876 176.09279 567.79376 176.40529L567.6375 176.56154L566.27814 176.21779ZM573.0125 173.53029Q573.0125 172.74904 573.5125 172.26466Q574.02814 171.76466 574.85626 171.76466Q575.6844 171.76466 576.2 172.24904Q576.71564 172.73341 576.71564 173.56154L576.71564 173.98341Q576.71564 174.76466 576.2 175.24904Q575.6844 175.73341 574.8719 175.73341Q574.02814 175.73341 573.5125 175.24904Q573.0125 174.76466 573.0125 173.95216L573.0125 173.53029ZM574.1375 173.98341Q574.1375 174.32716 574.34064 174.54591Q574.54376 174.76466 574.8719 174.76466Q575.2 174.76466 575.3875 174.54591Q575.575 174.32716 575.575 173.96779L575.575 173.53029Q575.575 173.17091 575.3875 172.96779Q575.2 172.74904 574.85626 172.74904Q574.52814 172.74904 574.325 172.96779Q574.1375 173.17091 574.1375 173.54591L574.1375 173.98341ZM577.09064 178.32716Q577.09064 177.53029 577.60626 177.06154Q578.1219 176.57716 578.9344 176.57716Q579.7625 176.57716 580.27814 177.06154Q580.79376 177.53029 580.79376 178.35841L580.79376 178.78029Q580.79376 179.57716 580.29376 180.06154Q579.79376 180.54591 578.95 180.54591Q578.10626 180.54591 577.59064 180.06154Q577.09064 179.56154 577.09064 178.76466L577.09064 178.32716ZM578.21564 178.78029Q578.21564 179.10841 578.41876 179.34279Q578.6375 179.56154 578.95 179.56154Q579.66876 179.56154 579.66876 178.78029L579.66876 178.32716Q579.66876 177.98341 579.46564 177.76466Q579.2625 177.54591 578.9344 177.54591Q578.60626 177.54591 578.40314 177.76466Q578.21564 177.98341 578.21564 178.34279L578.21564 178.78029ZM575.2 179.78029L574.3719 179.34279L578.54376 172.67091L579.3719 173.10841L575.2 179.78029Z"
     fill-rule="nonzero"
     id="path124" />
  <path
     stroke="#757575"
     stroke-width="1.0"
     stroke-linecap="butt"
     d="M581.45 166.92091L454.76666 166.92091L436.5127 166.92091"
     fill-rule="nonzero"
     id="path126" />
  <path
     fill="#9e9e9e"
     d="M438.5127 166.92091C438.5127 165.81635 437.61725 164.92091 436.5127 164.92091C435.4081 164.92091 434.5127 165.81635 434.5127 166.92091C434.5127 168.02548 435.4081 168.92091 436.5127 168.92091C437.61725 168.92091 438.5127 168.02548 438.5127 166.92091"
     fill-rule="nonzero"
     id="path128" />
  <path
     fill="#1a1a1a"
     d="M552.96564 237.90045L552.96564 240.90045L551.21564 240.90045L551.21564 232.3692L554.54376 232.3692Q555.4969 232.3692 556.23126 232.72858Q556.96564 233.07233 557.35626 233.72858Q557.7469 234.3692 557.7469 235.19733Q557.7469 236.44733 556.8875 237.1817Q556.02814 237.90045 554.5125 237.90045L552.96564 237.90045ZM552.96564 236.46295L554.54376 236.46295Q555.23126 236.46295 555.59064 236.13483Q555.96564 235.8067 555.96564 235.19733Q555.96564 234.57233 555.59064 234.19733Q555.23126 233.8067 554.575 233.79108L552.96564 233.79108L552.96564 236.46295ZM563.6375 238.66608Q563.6375 238.16608 563.27814 237.90045Q562.9344 237.63483 562.0125 237.33795Q561.10626 237.04108 560.575 236.7442Q559.1219 235.96295 559.1219 234.63483Q559.1219 233.94733 559.5125 233.40045Q559.90314 232.85358 560.6219 232.5567Q561.35626 232.2442 562.2625 232.2442Q563.1844 232.2442 563.8875 232.58795Q564.60626 232.91608 564.9969 233.52545Q565.40314 234.1192 565.40314 234.88483L563.6375 234.88483Q563.6375 234.3067 563.2625 233.97858Q562.90314 233.65045 562.23126 233.65045Q561.59064 233.65045 561.23126 233.9317Q560.8719 234.19733 560.8719 234.63483Q560.8719 235.0567 561.29376 235.33795Q561.71564 235.6192 562.52814 235.8692Q564.02814 236.32233 564.71564 236.9942Q565.40314 237.65045 565.40314 238.65045Q565.40314 239.75983 564.5594 240.40045Q563.73126 241.02545 562.3094 241.02545Q561.325 241.02545 560.5125 240.66608Q559.7 240.29108 559.27814 239.66608Q558.85626 239.04108 558.85626 238.21295L560.6219 238.21295Q560.6219 239.63483 562.3094 239.63483Q562.9344 239.63483 563.27814 239.38483Q563.6375 239.1192 563.6375 238.66608ZM566.21564 240.90045L566.21564 232.3692L568.84064 232.3692Q569.96564 232.3692 570.84064 232.88483Q571.73126 233.38483 572.23126 234.32233Q572.73126 235.2442 572.73126 236.44733L572.73126 236.83795Q572.73126 238.02545 572.2469 238.94733Q571.7625 239.8692 570.8719 240.38483Q569.98126 240.90045 568.85626 240.90045L566.21564 240.90045ZM567.96564 233.79108L567.96564 239.4942L568.825 239.4942Q569.85626 239.4942 570.3875 238.82233Q570.9344 238.13483 570.95 236.88483L570.95 236.4317Q570.95 235.13483 570.40314 234.46295Q569.8719 233.79108 568.84064 233.79108L567.96564 233.79108ZM574.21564 240.90045L574.21564 232.3692L577.2 232.3692Q578.7469 232.3692 579.54376 232.96295Q580.35626 233.5567 580.35626 234.71295Q580.35626 235.33795 580.02814 235.82233Q579.71564 236.29108 579.1375 236.50983Q579.79376 236.6817 580.16876 237.1817Q580.5594 237.66608 580.5594 238.38483Q580.5594 239.6192 579.7625 240.25983Q578.98126 240.88483 577.52814 240.90045L574.21564 240.90045ZM575.96564 237.1817L575.96564 239.4942L577.48126 239.4942Q578.09064 239.4942 578.4344 239.19733Q578.79376 238.90045 578.79376 238.3692Q578.79376 237.19733 577.575 237.1817L575.96564 237.1817ZM575.96564 235.94733L577.27814 235.94733Q578.60626 235.91608 578.60626 234.88483Q578.60626 234.3067 578.2625 234.0567Q577.9344 233.79108 577.2 233.79108L575.96564 233.79108L575.96564 235.94733Z"
     fill-rule="nonzero"
     id="path130" />
  <path
     fill="#9e9e9e"
     d="M553.1375 258.90045L551.45 258.90045L551.45 252.3692L549.4344 252.9942L549.4344 251.6192L552.96564 250.35358L553.1375 250.35358L553.1375 258.90045ZM561.8719 258.90045L556.02814 258.90045L556.02814 257.7442L558.79376 254.79108Q559.35626 254.1817 559.6219 253.71295Q559.90314 253.2442 559.90314 252.83795Q559.90314 252.25983 559.60626 251.94733Q559.325 251.6192 558.79376 251.6192Q558.21564 251.6192 557.8875 252.00983Q557.5594 252.40045 557.5594 253.0567L555.85626 253.0567Q555.85626 252.27545 556.23126 251.63483Q556.60626 250.97858 557.27814 250.6192Q557.96564 250.2442 558.825 250.2442Q560.1375 250.2442 560.8719 250.88483Q561.60626 251.50983 561.60626 252.66608Q561.60626 253.3067 561.27814 253.96295Q560.95 254.6192 560.15314 255.4942L558.21564 257.54108L561.8719 257.54108L561.8719 258.90045ZM563.54376 261.04108L562.65314 260.57233L562.8719 260.19733Q563.2625 259.47858 563.27814 258.77545L563.27814 257.46295L564.7 257.46295L564.7 258.63483Q564.6844 259.27545 564.35626 259.9317Q564.04376 260.60358 563.54376 261.04108ZM571.59064 252.63483Q571.59064 253.25983 571.27814 253.7442Q570.96564 254.21295 570.41876 254.50983Q571.04376 254.8067 571.40314 255.33795Q571.77814 255.85358 571.77814 256.5567Q571.77814 257.69733 570.9969 258.3692Q570.23126 259.02545 568.8875 259.02545Q567.5594 259.02545 566.77814 258.3692Q566.0125 257.69733 566.0125 256.5567Q566.0125 255.85358 566.3719 255.32233Q566.73126 254.79108 567.35626 254.50983Q566.8094 254.21295 566.4969 253.7442Q566.1844 253.25983 566.1844 252.63483Q566.1844 251.54108 566.90314 250.90045Q567.6375 250.2442 568.8875 250.2442Q570.1375 250.2442 570.85626 250.90045Q571.59064 251.54108 571.59064 252.63483ZM570.075 256.4317Q570.075 255.88483 569.7469 255.5567Q569.4344 255.21295 568.8875 255.21295Q568.34064 255.21295 568.0125 255.54108Q567.7 255.8692 567.7 256.4317Q567.7 256.97858 568.0125 257.32233Q568.34064 257.65045 568.90314 257.65045Q569.45 257.65045 569.7625 257.33795Q570.075 257.00983 570.075 256.4317ZM569.90314 252.71295Q569.90314 252.21295 569.6375 251.91608Q569.3719 251.6192 568.8875 251.6192Q568.41876 251.6192 568.15314 251.91608Q567.8875 252.19733 567.8875 252.71295Q567.8875 253.22858 568.15314 253.54108Q568.41876 253.85358 568.8875 253.85358Q569.3719 253.85358 569.6375 253.54108Q569.90314 253.22858 569.90314 252.71295ZM573.0125 252.00983Q573.0125 251.22858 573.5125 250.7442Q574.02814 250.2442 574.85626 250.2442Q575.6844 250.2442 576.2 250.72858Q576.71564 251.21295 576.71564 252.04108L576.71564 252.46295Q576.71564 253.2442 576.2 253.72858Q575.6844 254.21295 574.8719 254.21295Q574.02814 254.21295 573.5125 253.72858Q573.0125 253.2442 573.0125 252.4317L573.0125 252.00983ZM574.1375 252.46295Q574.1375 252.8067 574.34064 253.02545Q574.54376 253.2442 574.8719 253.2442Q575.2 253.2442 575.3875 253.02545Q575.575 252.8067 575.575 252.44733L575.575 252.00983Q575.575 251.65045 575.3875 251.44733Q575.2 251.22858 574.85626 251.22858Q574.52814 251.22858 574.325 251.44733Q574.1375 251.65045 574.1375 252.02545L574.1375 252.46295ZM577.09064 256.8067Q577.09064 256.00983 577.60626 255.54108Q578.1219 255.0567 578.9344 255.0567Q579.7625 255.0567 580.27814 255.54108Q580.79376 256.00983 580.79376 256.83795L580.79376 257.25983Q580.79376 258.0567 580.29376 258.54108Q579.79376 259.02545 578.95 259.02545Q578.10626 259.02545 577.59064 258.54108Q577.09064 258.04108 577.09064 257.2442L577.09064 256.8067ZM578.21564 257.25983Q578.21564 257.58795 578.41876 257.82233Q578.6375 258.04108 578.95 258.04108Q579.66876 258.04108 579.66876 257.25983L579.66876 256.8067Q579.66876 256.46295 579.46564 256.2442Q579.2625 256.02545 578.9344 256.02545Q578.60626 256.02545 578.40314 256.2442Q578.21564 256.46295 578.21564 256.82233L578.21564 257.25983ZM575.2 258.25983L574.3719 257.82233L578.54376 251.15045L579.3719 251.58795L575.2 258.25983Z"
     fill-rule="nonzero"
     id="path132" />
  <path
     stroke="#757575"
     stroke-width="1.0"
     stroke-linecap="butt"
     d="M581.45 245.40045L454.76666 245.40045L419.4493 245.40045"
     fill-rule="nonzero"
     id="path134" />
  <path
     fill="#9e9e9e"
     d="M421.4493 245.40045C421.4493 244.29588 420.55386 243.40045 419.4493 243.40045C418.34473 243.40045 417.4493 244.29588 417.4493 245.40045C417.4493 246.50502 418.34473 247.40045 419.4493 247.40045C420.55386 247.40045 421.4493 246.50502 421.4493 245.40045"
     fill-rule="nonzero"
     id="path136" />
  <path
     fill="#1a1a1a"
     d="M525.96564 281.95636L525.96564 284.95636L524.21564 284.95636L524.21564 276.4251L527.54376 276.4251Q528.4969 276.4251 529.23126 276.7845Q529.96564 277.12823 530.35626 277.7845Q530.7469 278.4251 530.7469 279.25323Q530.7469 280.50323 529.8875 281.2376Q529.02814 281.95636 527.5125 281.95636L525.96564 281.95636ZM525.96564 280.51886L527.54376 280.51886Q528.23126 280.51886 528.59064 280.19073Q528.96564 279.8626 528.96564 279.25323Q528.96564 278.62823 528.59064 278.25323Q528.23126 277.8626 527.575 277.847L525.96564 277.847L525.96564 280.51886ZM537.02814 283.19073L533.95 283.19073L533.35626 284.95636L531.4969 284.95636L534.66876 276.4251L536.29376 276.4251L539.4969 284.95636L537.6219 284.95636L537.02814 283.19073ZM534.41876 281.76886L536.5594 281.76886L535.48126 278.58136L534.41876 281.76886ZM546.6375 277.847L544.02814 277.847L544.02814 284.95636L542.2625 284.95636L542.2625 277.847L539.6844 277.847L539.6844 276.4251L546.6375 276.4251L546.6375 277.847ZM550.3719 281.83136L548.96564 281.83136L548.96564 284.95636L547.21564 284.95636L547.21564 276.4251L550.3875 276.4251Q551.8875 276.4251 552.7 277.097Q553.52814 277.76886 553.52814 279.00323Q553.52814 279.87823 553.15314 280.45636Q552.77814 281.0345 552.0125 281.39386L553.85626 284.87823L553.85626 284.95636L551.96564 284.95636L550.3719 281.83136ZM548.96564 280.4095L550.3875 280.4095Q551.04376 280.4095 551.40314 280.08136Q551.77814 279.7376 551.77814 279.14386Q551.77814 278.5345 551.4344 278.19073Q551.09064 277.847 550.3875 277.847L548.96564 277.847L548.96564 280.4095ZM557.075 284.95636L555.325 284.95636L555.325 276.4251L557.075 276.4251L557.075 284.95636ZM566.21564 280.87823Q566.21564 282.14386 565.7625 283.097Q565.325 284.0345 564.4969 284.56573Q563.66876 285.08136 562.60626 285.08136Q561.54376 285.08136 560.7 284.56573Q559.8719 284.0501 559.41876 283.1126Q558.96564 282.1595 558.95 280.9251L558.95 280.50323Q558.95 279.25323 559.40314 278.3001Q559.85626 277.33136 560.6844 276.81573Q561.52814 276.3001 562.59064 276.3001Q563.65314 276.3001 564.48126 276.81573Q565.3094 277.33136 565.7625 278.3001Q566.21564 279.25323 566.21564 280.50323L566.21564 280.87823ZM564.4344 280.50323Q564.4344 279.1595 563.95 278.45636Q563.48126 277.75323 562.59064 277.75323Q561.7 277.75323 561.21564 278.45636Q560.7469 279.14386 560.73126 280.472L560.73126 280.87823Q560.73126 282.19073 561.21564 282.9095Q561.7 283.62823 562.60626 283.62823Q563.48126 283.62823 563.95 282.94073Q564.4344 282.2376 564.4344 280.9095L564.4344 280.50323ZM573.6375 277.847L571.02814 277.847L571.02814 284.95636L569.2625 284.95636L569.2625 277.847L566.6844 277.847L566.6844 276.4251L573.6375 276.4251L573.6375 277.847ZM579.02814 283.19073L575.95 283.19073L575.35626 284.95636L573.4969 284.95636L576.66876 276.4251L578.29376 276.4251L581.4969 284.95636L579.6219 284.95636L579.02814 283.19073ZM576.41876 281.76886L578.5594 281.76886L577.48126 278.58136L576.41876 281.76886Z"
     fill-rule="nonzero"
     id="path138" />
  <path
     fill="#9e9e9e"
     d="M553.1375 302.95636L551.45 302.95636L551.45 296.4251L549.4344 297.0501L549.4344 295.6751L552.96564 294.4095L553.1375 294.4095L553.1375 302.95636ZM561.8719 302.95636L556.02814 302.95636L556.02814 301.8001L558.79376 298.847Q559.35626 298.2376 559.6219 297.76886Q559.90314 297.3001 559.90314 296.89386Q559.90314 296.31573 559.60626 296.00323Q559.325 295.6751 558.79376 295.6751Q558.21564 295.6751 557.8875 296.06573Q557.5594 296.45636 557.5594 297.1126L555.85626 297.1126Q555.85626 296.33136 556.23126 295.69073Q556.60626 295.0345 557.27814 294.6751Q557.96564 294.3001 558.825 294.3001Q560.1375 294.3001 560.8719 294.94073Q561.60626 295.56573 561.60626 296.722Q561.60626 297.3626 561.27814 298.01886Q560.95 298.6751 560.15314 299.5501L558.21564 301.597L561.8719 301.597L561.8719 302.95636ZM563.54376 305.097L562.65314 304.62823L562.8719 304.25323Q563.2625 303.5345 563.27814 302.83136L563.27814 301.51886L564.7 301.51886L564.7 302.69073Q564.6844 303.33136 564.35626 303.9876Q564.04376 304.6595 563.54376 305.097ZM571.59064 296.69073Q571.59064 297.31573 571.27814 297.8001Q570.96564 298.26886 570.41876 298.56573Q571.04376 298.8626 571.40314 299.39386Q571.77814 299.9095 571.77814 300.6126Q571.77814 301.75323 570.9969 302.4251Q570.23126 303.08136 568.8875 303.08136Q567.5594 303.08136 566.77814 302.4251Q566.0125 301.75323 566.0125 300.6126Q566.0125 299.9095 566.3719 299.37823Q566.73126 298.847 567.35626 298.56573Q566.8094 298.26886 566.4969 297.8001Q566.1844 297.31573 566.1844 296.69073Q566.1844 295.597 566.90314 294.95636Q567.6375 294.3001 568.8875 294.3001Q570.1375 294.3001 570.85626 294.95636Q571.59064 295.597 571.59064 296.69073ZM570.075 300.4876Q570.075 299.94073 569.7469 299.6126Q569.4344 299.26886 568.8875 299.26886Q568.34064 299.26886 568.0125 299.597Q567.7 299.9251 567.7 300.4876Q567.7 301.0345 568.0125 301.37823Q568.34064 301.70636 568.90314 301.70636Q569.45 301.70636 569.7625 301.39386Q570.075 301.06573 570.075 300.4876ZM569.90314 296.76886Q569.90314 296.26886 569.6375 295.972Q569.3719 295.6751 568.8875 295.6751Q568.41876 295.6751 568.15314 295.972Q567.8875 296.25323 567.8875 296.76886Q567.8875 297.2845 568.15314 297.597Q568.41876 297.9095 568.8875 297.9095Q569.3719 297.9095 569.6375 297.597Q569.90314 297.2845 569.90314 296.76886ZM573.0125 296.06573Q573.0125 295.2845 573.5125 294.8001Q574.02814 294.3001 574.85626 294.3001Q575.6844 294.3001 576.2 294.7845Q576.71564 295.26886 576.71564 296.097L576.71564 296.51886Q576.71564 297.3001 576.2 297.7845Q575.6844 298.26886 574.8719 298.26886Q574.02814 298.26886 573.5125 297.7845Q573.0125 297.3001 573.0125 296.4876L573.0125 296.06573ZM574.1375 296.51886Q574.1375 296.8626 574.34064 297.08136Q574.54376 297.3001 574.8719 297.3001Q575.2 297.3001 575.3875 297.08136Q575.575 296.8626 575.575 296.50323L575.575 296.06573Q575.575 295.70636 575.3875 295.50323Q575.2 295.2845 574.85626 295.2845Q574.52814 295.2845 574.325 295.50323Q574.1375 295.70636 574.1375 296.08136L574.1375 296.51886ZM577.09064 300.8626Q577.09064 300.06573 577.60626 299.597Q578.1219 299.1126 578.9344 299.1126Q579.7625 299.1126 580.27814 299.597Q580.79376 300.06573 580.79376 300.89386L580.79376 301.31573Q580.79376 302.1126 580.29376 302.597Q579.79376 303.08136 578.95 303.08136Q578.10626 303.08136 577.59064 302.597Q577.09064 302.097 577.09064 301.3001L577.09064 300.8626ZM578.21564 301.31573Q578.21564 301.64386 578.41876 301.87823Q578.6375 302.097 578.95 302.097Q579.66876 302.097 579.66876 301.31573L579.66876 300.8626Q579.66876 300.51886 579.46564 300.3001Q579.2625 300.08136 578.9344 300.08136Q578.60626 300.08136 578.40314 300.3001Q578.21564 300.51886 578.21564 300.87823L578.21564 301.31573ZM575.2 302.31573L574.3719 301.87823L578.54376 295.20636L579.3719 295.64386L575.2 302.31573Z"
     fill-rule="nonzero"
     id="path140" />
  <path
     stroke="#757575"
     stroke-width="1.0"
     stroke-linecap="butt"
     d="M581.45 289.45636L454.76666 289.45636L328.2693 289.45636"
     fill-rule="nonzero"
     id="path142" />
  <path
     fill="#9e9e9e"
     d="M330.2693 289.45636C330.2693 288.35178 329.37387 287.45636 328.2693 287.45636C327.16473 287.45636 326.2693 288.35178 326.2693 289.45636C326.2693 290.56094 327.16473 291.45636 328.2693 291.45636C329.37387 291.45636 330.2693 290.56094 330.2693 289.45636"
     fill-rule="nonzero"
     id="path144" />
  <path
     fill="#757575"
     d="M210.9375 32.815624Q210.76562 35.1125 209.23438 36.440624Q207.70312 37.753124 205.20312 37.753124Q202.46875 37.753124 200.90625 35.909374Q199.34375 34.065624 199.34375 30.846874L199.34375 29.9875Q199.34375 27.925 200.0625 26.3625Q200.78125 24.8 202.125 23.971874Q203.46875 23.128124 205.25 23.128124Q207.70312 23.128124 209.20312 24.45625Q210.71875 25.76875 210.95312 28.159374L208.01562 28.159374Q207.92188 26.784374 207.25 26.159374Q206.59375 25.534374 205.25 25.534374Q203.78125 25.534374 203.04688 26.596874Q202.32812 27.64375 202.3125 29.846874L202.3125 30.925Q202.3125 33.221874 203.0 34.284374Q203.70312 35.346874 205.20312 35.346874Q206.5625 35.346874 207.23438 34.7375Q207.90625 34.1125 208.0 32.815624L210.9375 32.815624ZM218.70312 37.55Q218.51562 37.175 218.42188 36.596874Q217.40625 37.753124 215.76562 37.753124Q214.20312 37.753124 213.1875 36.846874Q212.17188 35.940624 212.17188 34.58125Q212.17188 32.89375 213.40625 32.003124Q214.65625 31.096874 217.01562 31.096874L218.3125 31.096874L218.3125 30.4875Q218.3125 29.753124 217.9375 29.315624Q217.5625 28.878124 216.75 28.878124Q216.03125 28.878124 215.625 29.221874Q215.21875 29.565624 215.21875 30.159374L212.40625 30.159374Q212.40625 29.2375 212.96875 28.45625Q213.53125 27.675 214.5625 27.2375Q215.60938 26.784374 216.89062 26.784374Q218.84375 26.784374 219.98438 27.76875Q221.14062 28.753124 221.14062 30.534374L221.14062 35.1125Q221.15625 36.6125 221.5625 37.378124L221.5625 37.55L218.70312 37.55ZM216.375 35.58125Q217.0 35.58125 217.51562 35.315624Q218.04688 35.034374 218.3125 34.565624L218.3125 32.7375L217.25 32.7375Q215.14062 32.7375 215.0 34.20625L214.98438 34.378124Q214.98438 34.909374 215.35938 35.253124Q215.73438 35.58125 216.375 35.58125ZM226.1875 26.9875L226.26562 28.20625Q227.40625 26.784374 229.3125 26.784374Q230.98438 26.784374 231.79688 27.76875Q232.625 28.753124 232.64062 30.721874L232.64062 37.55L229.82812 37.55L229.82812 30.784374Q229.82812 29.89375 229.4375 29.4875Q229.04688 29.08125 228.14062 29.08125Q226.9375 29.08125 226.34375 30.096874L226.34375 37.55L223.53125 37.55L223.53125 26.9875L226.1875 26.9875ZM234.14062 32.190624Q234.14062 29.721874 235.25 28.253124Q236.35938 26.784374 238.28125 26.784374Q239.82812 26.784374 240.82812 27.940624L240.82812 22.55L243.67188 22.55L243.67188 37.55L241.125 37.55L240.98438 36.425Q239.92188 37.753124 238.26562 37.753124Q236.40625 37.753124 235.26562 36.284374Q234.14062 34.8 234.14062 32.190624ZM236.96875 32.39375Q236.96875 33.878124 237.48438 34.675Q238.0 35.45625 238.98438 35.45625Q240.29688 35.45625 240.82812 34.3625L240.82812 30.190624Q240.3125 29.08125 239.01562 29.08125Q236.96875 29.08125 236.96875 32.39375ZM248.5625 37.55L245.73438 37.55L245.73438 26.9875L248.5625 26.9875L248.5625 37.55ZM245.5625 24.253124Q245.5625 23.6125 245.98438 23.20625Q246.42188 22.8 247.14062 22.8Q247.875 22.8 248.29688 23.20625Q248.73438 23.6125 248.73438 24.253124Q248.73438 24.89375 248.29688 25.3Q247.85938 25.70625 247.14062 25.70625Q246.4375 25.70625 246.0 25.3Q245.5625 24.89375 245.5625 24.253124ZM250.14062 32.190624Q250.14062 29.721874 251.25 28.253124Q252.35938 26.784374 254.28125 26.784374Q255.82812 26.784374 256.82812 27.940624L256.82812 22.55L259.67188 22.55L259.67188 37.55L257.125 37.55L256.98438 36.425Q255.92188 37.753124 254.26562 37.753124Q252.40625 37.753124 251.26562 36.284374Q250.14062 34.8 250.14062 32.190624ZM252.96875 32.39375Q252.96875 33.878124 253.48438 34.675Q254.0 35.45625 254.98438 35.45625Q256.29688 35.45625 256.82812 34.3625L256.82812 30.190624Q256.3125 29.08125 255.01562 29.08125Q252.96875 29.08125 252.96875 32.39375ZM267.70312 37.55Q267.51562 37.175 267.42188 36.596874Q266.40625 37.753124 264.76562 37.753124Q263.20312 37.753124 262.1875 36.846874Q261.17188 35.940624 261.17188 34.58125Q261.17188 32.89375 262.40625 32.003124Q263.65625 31.096874 266.01562 31.096874L267.3125 31.096874L267.3125 30.4875Q267.3125 29.753124 266.9375 29.315624Q266.5625 28.878124 265.75 28.878124Q265.03125 28.878124 264.625 29.221874Q264.21875 29.565624 264.21875 30.159374L261.40625 30.159374Q261.40625 29.2375 261.96875 28.45625Q262.53125 27.675 263.5625 27.2375Q264.60938 26.784374 265.89062 26.784374Q267.84375 26.784374 268.98438 27.76875Q270.14062 28.753124 270.14062 30.534374L270.14062 35.1125Q270.15625 36.6125 270.5625 37.378124L270.5625 37.55L267.70312 37.55ZM265.375 35.58125Q266.0 35.58125 266.51562 35.315624Q267.04688 35.034374 267.3125 34.565624L267.3125 32.7375L266.25 32.7375Q264.14062 32.7375 264.0 34.20625L263.98438 34.378124Q263.98438 34.909374 264.35938 35.253124Q264.73438 35.58125 265.375 35.58125ZM275.96875 24.378124L275.96875 26.9875L277.76562 26.9875L277.76562 29.05L275.96875 29.05L275.96875 34.33125Q275.96875 34.909374 276.1875 35.175Q276.40625 35.425 277.04688 35.425Q277.51562 35.425 277.875 35.346874L277.875 37.4875Q277.04688 37.753124 276.17188 37.753124Q273.20312 37.753124 273.14062 34.753124L273.14062 29.05L271.59375 29.05L271.59375 26.9875L273.14062 26.9875L273.14062 24.378124L275.96875 24.378124ZM279.14062 32.175Q279.14062 30.596874 279.75 29.3625Q280.35938 28.128124 281.48438 27.45625Q282.625 26.784374 284.14062 26.784374Q286.28125 26.784374 287.625 28.096874Q288.98438 29.409374 289.14062 31.64375L289.15625 32.378124Q289.15625 34.8 287.79688 36.284374Q286.4375 37.753124 284.15625 37.753124Q281.875 37.753124 280.5 36.284374Q279.14062 34.815624 279.14062 32.3L279.14062 32.175ZM281.96875 32.378124Q281.96875 33.878124 282.53125 34.675Q283.09375 35.471874 284.15625 35.471874Q285.1875 35.471874 285.75 34.690624Q286.32812 33.89375 286.32812 32.175Q286.32812 30.690624 285.75 29.878124Q285.1875 29.065624 284.14062 29.065624Q283.09375 29.065624 282.53125 29.878124Q281.96875 30.690624 281.96875 32.378124ZM296.3125 34.628124Q296.3125 34.1125 295.79688 33.815624Q295.28125 33.51875 294.15625 33.284374Q290.375 32.4875 290.375 30.08125Q290.375 28.675 291.54688 27.7375Q292.71875 26.784374 294.59375 26.784374Q296.60938 26.784374 297.8125 27.7375Q299.01562 28.675 299.01562 30.190624L296.20312 30.190624Q296.20312 29.596874 295.8125 29.20625Q295.42188 28.8 294.59375 28.8Q293.875 28.8 293.48438 29.128124Q293.09375 29.440624 293.09375 29.940624Q293.09375 30.409374 293.53125 30.70625Q293.98438 30.9875 295.03125 31.20625Q296.09375 31.409374 296.8125 31.675Q299.04688 32.4875 299.04688 34.51875Q299.04688 35.95625 297.8125 36.8625Q296.57812 37.753124 294.60938 37.753124Q293.28125 37.753124 292.25 37.284374Q291.21875 36.8 290.625 35.971874Q290.04688 35.14375 290.04688 34.190624L292.71875 34.190624Q292.76562 34.940624 293.28125 35.346874Q293.79688 35.7375 294.67188 35.7375Q295.48438 35.7375 295.89062 35.440624Q296.3125 35.128124 296.3125 34.628124ZM315.09375 32.3625Q315.09375 34.8 313.98438 36.284374Q312.875 37.753124 311.0 37.753124Q309.39062 37.753124 308.40625 36.628124L308.40625 41.6125L305.57812 41.6125L305.57812 26.9875L308.20312 26.9875L308.29688 28.01875Q309.32812 26.784374 310.96875 26.784374Q312.92188 26.784374 314.0 28.2375Q315.09375 29.675 315.09375 32.221874L315.09375 32.3625ZM312.28125 32.159374Q312.28125 30.690624 311.75 29.89375Q311.23438 29.08125 310.23438 29.08125Q308.90625 29.08125 308.40625 30.096874L308.40625 34.425Q308.92188 35.471874 310.25 35.471874Q312.28125 35.471874 312.28125 32.159374ZM316.14062 32.175Q316.14062 30.596874 316.75 29.3625Q317.35938 28.128124 318.48438 27.45625Q319.625 26.784374 321.14062 26.784374Q323.28125 26.784374 324.625 28.096874Q325.98438 29.409374 326.14062 31.64375L326.15625 32.378124Q326.15625 34.8 324.79688 36.284374Q323.4375 37.753124 321.15625 37.753124Q318.875 37.753124 317.5 36.284374Q316.14062 34.815624 316.14062 32.3L316.14062 32.175ZM318.96875 32.378124Q318.96875 33.878124 319.53125 34.675Q320.09375 35.471874 321.15625 35.471874Q322.1875 35.471874 322.75 34.690624Q323.32812 33.89375 323.32812 32.175Q323.32812 30.690624 322.75 29.878124Q322.1875 29.065624 321.14062 29.065624Q320.09375 29.065624 319.53125 29.878124Q318.96875 30.690624 318.96875 32.378124ZM333.51562 29.628124Q332.95312 29.55 332.5 29.55Q330.90625 29.55 330.40625 30.628124L330.40625 37.55L327.57812 37.55L327.57812 26.9875L330.25 26.9875L330.32812 28.2375Q331.17188 26.784374 332.6875 26.784374Q333.15625 26.784374 333.5625 26.909374L333.51562 29.628124ZM349.09375 32.3625Q349.09375 34.8 347.98438 36.284374Q346.875 37.753124 345.0 37.753124Q343.39062 37.753124 342.40625 36.628124L342.40625 41.6125L339.57812 41.6125L339.57812 26.9875L342.20312 26.9875L342.29688 28.01875Q343.32812 26.784374 344.96875 26.784374Q346.92188 26.784374 348.0 28.2375Q349.09375 29.675 349.09375 32.221874L349.09375 32.3625ZM346.28125 32.159374Q346.28125 30.690624 345.75 29.89375Q345.23438 29.08125 344.23438 29.08125Q342.90625 29.08125 342.40625 30.096874L342.40625 34.425Q342.92188 35.471874 344.25 35.471874Q346.28125 35.471874 346.28125 32.159374ZM356.70312 37.55Q356.51562 37.175 356.42188 36.596874Q355.40625 37.753124 353.76562 37.753124Q352.20312 37.753124 351.1875 36.846874Q350.17188 35.940624 350.17188 34.58125Q350.17188 32.89375 351.40625 32.003124Q352.65625 31.096874 355.01562 31.096874L356.3125 31.096874L356.3125 30.4875Q356.3125 29.753124 355.9375 29.315624Q355.5625 28.878124 354.75 28.878124Q354.03125 28.878124 353.625 29.221874Q353.21875 29.565624 353.21875 30.159374L350.40625 30.159374Q350.40625 29.2375 350.96875 28.45625Q351.53125 27.675 352.5625 27.2375Q353.60938 26.784374 354.89062 26.784374Q356.84375 26.784374 357.98438 27.76875Q359.14062 28.753124 359.14062 30.534374L359.14062 35.1125Q359.15625 36.6125 359.5625 37.378124L359.5625 37.55L356.70312 37.55ZM354.375 35.58125Q355.0 35.58125 355.51562 35.315624Q356.04688 35.034374 356.3125 34.565624L356.3125 32.7375L355.25 32.7375Q353.14062 32.7375 353.0 34.20625L352.98438 34.378124Q352.98438 34.909374 353.35938 35.253124Q353.73438 35.58125 354.375 35.58125ZM367.51562 29.628124Q366.95312 29.55 366.5 29.55Q364.90625 29.55 364.40625 30.628124L364.40625 37.55L361.57812 37.55L361.57812 26.9875L364.25 26.9875L364.32812 28.2375Q365.17188 26.784374 366.6875 26.784374Q367.15625 26.784374 367.5625 26.909374L367.51562 29.628124ZM371.96875 24.378124L371.96875 26.9875L373.76562 26.9875L373.76562 29.05L371.96875 29.05L371.96875 34.33125Q371.96875 34.909374 372.1875 35.175Q372.40625 35.425 373.04688 35.425Q373.51562 35.425 373.875 35.346874L373.875 37.4875Q373.04688 37.753124 372.17188 37.753124Q369.20312 37.753124 369.14062 34.753124L369.14062 29.05L367.59375 29.05L367.59375 26.9875L369.14062 26.9875L369.14062 24.378124L371.96875 24.378124ZM378.5625 37.55L375.73438 37.55L375.73438 26.9875L378.5625 26.9875L378.5625 37.55ZM375.5625 24.253124Q375.5625 23.6125 375.98438 23.20625Q376.42188 22.8 377.14062 22.8Q377.875 22.8 378.29688 23.20625Q378.73438 23.6125 378.73438 24.253124Q378.73438 24.89375 378.29688 25.3Q377.85938 25.70625 377.14062 25.70625Q376.4375 25.70625 376.0 25.3Q375.5625 24.89375 375.5625 24.253124ZM380.14062 32.190624Q380.14062 29.721874 381.25 28.253124Q382.35938 26.784374 384.28125 26.784374Q385.82812 26.784374 386.82812 27.940624L386.82812 22.55L389.67188 22.55L389.67188 37.55L387.125 37.55L386.98438 36.425Q385.92188 37.753124 384.26562 37.753124Q382.40625 37.753124 381.26562 36.284374Q380.14062 34.8 380.14062 32.190624ZM382.96875 32.39375Q382.96875 33.878124 383.48438 34.675Q384.0 35.45625 384.98438 35.45625Q386.29688 35.45625 386.82812 34.3625L386.82812 30.190624Q386.3125 29.08125 385.01562 29.08125Q382.96875 29.08125 382.96875 32.39375ZM391.14062 32.175Q391.14062 30.596874 391.75 29.3625Q392.35938 28.128124 393.48438 27.45625Q394.625 26.784374 396.14062 26.784374Q398.28125 26.784374 399.625 28.096874Q400.98438 29.409374 401.14062 31.64375L401.15625 32.378124Q401.15625 34.8 399.79688 36.284374Q398.4375 37.753124 396.15625 37.753124Q393.875 37.753124 392.5 36.284374Q391.14062 34.815624 391.14062 32.3L391.14062 32.175ZM393.96875 32.378124Q393.96875 33.878124 394.53125 34.675Q395.09375 35.471874 396.15625 35.471874Q397.1875 35.471874 397.75 34.690624Q398.32812 33.89375 398.32812 32.175Q398.32812 30.690624 397.75 29.878124Q397.1875 29.065624 396.14062 29.065624Q395.09375 29.065624 394.53125 29.878124Q393.96875 30.690624 393.96875 32.378124Z"
     fill-rule="nonzero"
     id="path146" />
  <text
     xml:space="preserve"
     style="font-style:normal;font-variant:normal;font-weight:normal;font-stretch:normal;font-size:12.8508px;line-height:1.25;font-family:Georgia;-inkscape-font-specification:Georgia;letter-spacing:0px;word-spacing:0px;opacity:0.338129;fill:#000000;stroke-width:0.150595"
     x="123.20766"
     y="344.19681"
     id="text897"
     transform="scale(1.0229029,0.9776099)"><tspan
       sodipodi:role="line"
       id="tspan895"
       x="123.20766"
       y="344.19681"
       style="font-style:normal;font-variant:normal;font-weight:normal;font-stretch:normal;font-family:'Andale Mono';-inkscape-font-specification:'Andale Mono';fill:#000000;stroke-width:0.150595">fonte: jhoonb.github.io/maracaju-eleicao-2020</tspan></text>
</svg>
