<?xml version="1.0" encoding="UTF-8" standalone="no"?>
<svg
   xmlns:dc="http://purl.org/dc/elements/1.1/"
   xmlns:cc="http://creativecommons.org/ns#"
   xmlns:rdf="http://www.w3.org/1999/02/22-rdf-syntax-ns#"
   xmlns:svg="http://www.w3.org/2000/svg"
   xmlns="http://www.w3.org/2000/svg"
   xmlns:sodipodi="http://sodipodi.sourceforge.net/DTD/sodipodi-0.dtd"
   xmlns:inkscape="http://www.inkscape.org/namespaces/inkscape"
   version="1.1"
   viewBox="0.0 0.0 600.0 371.0"
   fill="none"
   stroke="none"
   stroke-linecap="square"
   stroke-miterlimit="10"
   width="600"
   height="371"
   id="svg52"
   sodipodi:docname="candidatos_por_cargo.svg"
   inkscape:version="1.0.1 (3bc2e813f5, 2020-09-07)">
  <metadata
     id="metadata58">
    <rdf:RDF>
      <cc:Work
         rdf:about="">
        <dc:format>image/svg+xml</dc:format>
        <dc:type
           rdf:resource="http://purl.org/dc/dcmitype/StillImage" />
      </cc:Work>
    </rdf:RDF>
  </metadata>
  <defs
     id="defs56" />
  <sodipodi:namedview
     pagecolor="#ffffff"
     bordercolor="#666666"
     borderopacity="1"
     objecttolerance="10"
     gridtolerance="10"
     guidetolerance="10"
     inkscape:pageopacity="0"
     inkscape:pageshadow="2"
     inkscape:window-width="1024"
     inkscape:window-height="518"
     id="namedview54"
     showgrid="false"
     inkscape:zoom="0.77628032"
     inkscape:cx="0.21605319"
     inkscape:cy="164.95784"
     inkscape:window-x="170"
     inkscape:window-y="88"
     inkscape:window-maximized="0"
     inkscape:current-layer="svg52"
     inkscape:document-rotation="0" />
  <path
     fill="#ffffff"
     d="M0 0L600.0 0L600.0 371.0L0 371.0L0 0Z"
     fill-rule="nonzero"
     id="path2" />
  <path
     fill="#b08403"
     d="M282.1989 141.9705C288.02374 140.96553 294.00085 140.4575 300.0 140.4575L300.0 162.7725C294.00085 162.7725 288.02374 163.28053 282.1989 164.2855Z"
     fill-rule="nonzero"
     id="path4" />
  <path
     fill="#fbbc04"
     d="M264.3978 91.41519C276.04745 89.40522 288.0017 88.38917 300.0 88.38917L300.0 140.4575C294.00085 140.4575 288.02374 140.96553 282.1989 141.9705Z"
     fill-rule="nonzero"
     id="path6" />
  <path
     fill="#a42f25"
     d="M265.43234 146.42162C270.74432 144.47005 276.37408 142.9755 282.1989 141.9705L282.1989 164.2855C276.37408 165.2905 270.74432 166.78505 265.43234 168.73662Z"
     fill-rule="nonzero"
     id="path8" />
  <path
     fill="#ea4335"
     d="M230.86469 100.3174C241.48865 96.414276 252.74815 93.425156 264.3978 91.41519L282.1989 141.9705C276.37408 142.9755 270.74432 144.47005 265.43234 146.42162Z"
     fill-rule="nonzero"
     id="path10" />
  <path
     fill="#2e5dab"
     d="M448.76666 214.84084C448.76666 272.3539 382.16156 318.9775 300.0 318.9775C217.83844 318.9775 151.23334 272.3539 151.23334 214.84084L151.23334 192.52583C151.23334 250.03893 217.83844 296.6625 300.0 296.6625C382.16156 296.6625 448.76666 250.03893 448.76666 192.52583Z"
     fill-rule="nonzero"
     id="path12" />
  <path
     fill="#2e5dab"
     d="M300.0 140.4575C341.08078 140.4575 374.38333 163.76929 374.38333 192.52583L374.38333 214.84084C374.38333 186.08429 341.08078 162.7725 300.0 162.7725Z"
     fill-rule="nonzero"
     id="path14" />
  <path
     fill="#2e5dab"
     d="M225.61667 192.52583C225.61667 173.17232 240.95135 155.41563 265.43234 146.42162L265.43234 168.73662C240.95135 177.73064 225.61667 195.48732 225.61667 214.84084Z"
     fill-rule="nonzero"
     id="path16" />
  <path
     fill="#4285f4"
     d="M300.0 88.38917C375.22635 88.38917 438.61447 127.69904 447.68198 179.97354C456.7495 232.24805 408.64258 281.0345 335.6022 293.63647C262.5618 306.23846 187.57639 278.6897 160.90076 229.4532C134.22513 180.2167 164.25507 124.788994 230.86469 100.3174L265.43234 146.42162C232.12753 158.65741 217.11256 186.37128 230.45038 210.98952C243.7882 235.60777 281.28088 249.38216 317.8011 243.08116C354.3213 236.78017 378.37476 212.38693 373.841 186.2497C369.30722 160.11244 337.61316 140.4575 300.0 140.4575Z"
     fill-rule="nonzero"
     id="path18" />
  <path
     fill="#000000"
     d="M320.1704 272.85883L318.20166 272.85883L318.20166 265.24945L315.8423 265.9682L315.8423 264.37445L319.9673 262.89008L320.1704 262.89008L320.1704 272.85883ZM329.2173 269.10883L330.3579 269.10883L330.3579 270.70258L329.2173 270.70258L329.2173 272.85883L327.24854 272.85883L327.24854 270.70258L323.1704 270.70258L323.07666 269.4682L327.2329 262.9057L329.2173 262.9057L329.2173 269.10883ZM325.0454 269.10883L327.24854 269.10883L327.24854 265.5932L327.12354 265.82758L325.0454 269.10883ZM337.2173 269.10883L338.3579 269.10883L338.3579 270.70258L337.2173 270.70258L337.2173 272.85883L335.24854 272.85883L335.24854 270.70258L331.1704 270.70258L331.07666 269.4682L335.2329 262.9057L337.2173 262.9057L337.2173 269.10883ZM333.0454 269.10883L335.24854 269.10883L335.24854 265.5932L335.12354 265.82758L333.0454 269.10883Z"
     fill-rule="nonzero"
     id="path20" />
  <path
     fill="#000000"
     d="M262.46622 113.936226L262.46622 115.57685L262.27872 115.57685Q260.93497 115.592476 260.12247 116.26435Q259.30997 116.936226 259.1381 118.13935Q259.93497 117.342476 261.1381 117.342476Q262.4506 117.342476 263.21622 118.279976Q263.98184 119.20185 263.98184 120.717476Q263.98184 121.686226 263.55997 122.4831Q263.1381 123.26435 262.35684 123.70185Q261.59122 124.13935 260.62247 124.13935Q259.05997 124.13935 258.09122 123.0456Q257.12247 121.95185 257.12247 120.123726L257.12247 119.404976Q257.12247 117.7956 257.73184 116.561226Q258.34122 115.311226 259.48184 114.63935Q260.6381 113.95185 262.1381 113.936226L262.46622 113.936226ZM260.54434 118.9206Q260.05997 118.9206 259.66934 119.1706Q259.27872 119.4206 259.10684 119.842476L259.10684 120.436226Q259.10684 121.4206 259.49747 121.9831Q259.8881 122.5456 260.59122 122.5456Q261.21622 122.5456 261.60684 122.0456Q262.0131 121.529976 262.0131 120.7331Q262.0131 119.9206 261.60684 119.4206Q261.21622 118.9206 260.54434 118.9206Z"
     fill-rule="nonzero"
     id="path22" />
  <path
     fill="#000000"
     d="M288.45758 108.71095L288.45758 110.35158L288.27008 110.35158Q286.92633 110.3672 286.11383 111.03908Q285.30133 111.71095 285.12946 112.91408Q285.92633 112.1172 287.12946 112.1172Q288.44196 112.1172 289.20758 113.0547Q289.9732 113.97658 289.9732 115.4922Q289.9732 116.46095 289.55133 117.25783Q289.12946 118.03908 288.3482 118.47658Q287.58258 118.91408 286.61383 118.91408Q285.05133 118.91408 284.08258 117.82033Q283.11383 116.72658 283.11383 114.89845L283.11383 114.1797Q283.11383 112.57033 283.7232 111.33595Q284.33258 110.08595 285.4732 109.41408Q286.62946 108.72658 288.12946 108.71095L288.45758 108.71095ZM286.5357 113.69533Q286.05133 113.69533 285.6607 113.94533Q285.27008 114.19533 285.0982 114.6172L285.0982 115.21095Q285.0982 116.19533 285.48883 116.75783Q285.87946 117.32033 286.58258 117.32033Q287.20758 117.32033 287.5982 116.82033Q288.00446 116.3047 288.00446 115.50783Q288.00446 114.69533 287.5982 114.19533Q287.20758 113.69533 286.5357 113.69533Z"
     fill-rule="nonzero"
     id="path24" />
  <path
     fill="#1a1a1a"
     d="M21.065624 73.171074L21.065624 76.171074L19.315624 76.171074L19.315624 67.639824L22.64375 67.639824Q23.596874 67.639824 24.33125 67.9992Q25.065624 68.34295 25.45625 68.9992Q25.846874 69.639824 25.846874 70.46795Q25.846874 71.71795 24.9875 72.452324Q24.128124 73.171074 22.6125 73.171074L21.065624 73.171074ZM21.065624 71.733574L22.64375 71.733574Q23.33125 71.733574 23.690624 71.40545Q24.065624 71.077324 24.065624 70.46795Q24.065624 69.84295 23.690624 69.46795Q23.33125 69.077324 22.675 69.0617L21.065624 69.0617L21.065624 71.733574ZM30.471874 73.046074L29.065624 73.046074L29.065624 76.171074L27.315624 76.171074L27.315624 67.639824L30.4875 67.639824Q31.9875 67.639824 32.8 68.3117Q33.628124 68.983574 33.628124 70.21795Q33.628124 71.09295 33.253124 71.671074Q32.878124 72.2492 32.1125 72.608574L33.95625 76.09295L33.95625 76.171074L32.065624 76.171074L30.471874 73.046074ZM29.065624 71.6242L30.4875 71.6242Q31.14375 71.6242 31.503124 71.296074Q31.878124 70.952324 31.878124 70.358574Q31.878124 69.7492 31.534374 69.40545Q31.190624 69.0617 30.4875 69.0617L29.065624 69.0617L29.065624 71.6242ZM40.440624 72.46795L37.065624 72.46795L37.065624 74.764824L41.034374 74.764824L41.034374 76.171074L35.315624 76.171074L35.315624 67.639824L41.01875 67.639824L41.01875 69.0617L37.065624 69.0617L37.065624 71.09295L40.440624 71.09295L40.440624 72.46795ZM47.440624 72.6867L44.065624 72.6867L44.065624 76.171074L42.315624 76.171074L42.315624 67.639824L47.8625 67.639824L47.8625 69.0617L44.065624 69.0617L44.065624 71.264824L47.440624 71.264824L47.440624 72.6867ZM54.440624 72.46795L51.065624 72.46795L51.065624 74.764824L55.034374 74.764824L55.034374 76.171074L49.315624 76.171074L49.315624 67.639824L55.01875 67.639824L55.01875 69.0617L51.065624 69.0617L51.065624 71.09295L54.440624 71.09295L54.440624 72.46795ZM58.175 76.171074L56.425 76.171074L56.425 67.639824L58.175 67.639824L58.175 76.171074ZM66.7375 69.0617L64.12813 69.0617L64.12813 76.171074L62.3625 76.171074L62.3625 69.0617L59.784374 69.0617L59.784374 67.639824L66.7375 67.639824L66.7375 69.0617ZM74.31563 72.09295Q74.31563 73.358574 73.8625 74.3117Q73.425 75.2492 72.59688 75.78045Q71.76875 76.296074 70.70625 76.296074Q69.64375 76.296074 68.8 75.78045Q67.97188 75.264824 67.51875 74.327324Q67.06563 73.3742 67.05 72.139824L67.05 71.71795Q67.05 70.46795 67.50313 69.514824Q67.95625 68.546074 68.78438 68.03045Q69.62813 67.514824 70.69063 67.514824Q71.75313 67.514824 72.58125 68.03045Q73.40938 68.546074 73.8625 69.514824Q74.31563 70.46795 74.31563 71.71795L74.31563 72.09295ZM72.53438 71.71795Q72.53438 70.3742 72.05 69.671074Q71.58125 68.96795 70.69063 68.96795Q69.8 68.96795 69.31563 69.671074Q68.84688 70.358574 68.83125 71.6867L68.83125 72.09295Q68.83125 73.40545 69.31563 74.1242Q69.8 74.84295 70.70625 74.84295Q71.58125 74.84295 72.05 74.15545Q72.53438 73.452324 72.53438 72.1242L72.53438 71.71795Z"
     fill-rule="nonzero"
     id="path26" />
  <path
     fill="#9e9e9e"
     d="M20.846874 89.15545L21.753124 89.15545Q22.39375 89.15545 22.70625 88.84295Q23.01875 88.514824 23.01875 87.983574Q23.01875 87.46795 22.70625 87.1867Q22.409374 86.889824 21.8625 86.889824Q21.378124 86.889824 21.05 87.15545Q20.721874 87.421074 20.721874 87.84295L19.034374 87.84295Q19.034374 87.1867 19.39375 86.65545Q19.753124 86.1242 20.39375 85.827324Q21.05 85.514824 21.83125 85.514824Q23.175 85.514824 23.940624 86.171074Q24.721874 86.8117 24.721874 87.952324Q24.721874 88.546074 24.3625 89.046074Q24.003124 89.53045 23.425 89.78045Q24.14375 90.046074 24.4875 90.5617Q24.846874 91.077324 24.846874 91.78045Q24.846874 92.921074 24.01875 93.608574Q23.190624 94.296074 21.83125 94.296074Q20.55 94.296074 19.7375 93.6242Q18.925 92.9367 18.925 91.827324L20.6125 91.827324Q20.6125 92.3117 20.971874 92.6242Q21.346874 92.921074 21.8625 92.921074Q22.471874 92.921074 22.815624 92.608574Q23.159374 92.28045 23.159374 91.7492Q23.159374 90.483574 21.753124 90.483574L20.846874 90.483574L20.846874 89.15545ZM26.64375 96.3117L25.753124 95.84295L25.971874 95.46795Q26.3625 94.7492 26.378124 94.046074L26.378124 92.733574L27.8 92.733574L27.8 93.90545Q27.784374 94.546074 27.45625 95.202324Q27.14375 95.8742 26.64375 96.3117ZM34.690624 87.90545Q34.690624 88.53045 34.378124 89.014824Q34.065624 89.483574 33.51875 89.78045Q34.14375 90.077324 34.503124 90.608574Q34.878124 91.1242 34.878124 91.827324Q34.878124 92.96795 34.096874 93.639824Q33.33125 94.296074 31.9875 94.296074Q30.659374 94.296074 29.878124 93.639824Q29.1125 92.96795 29.1125 91.827324Q29.1125 91.1242 29.471874 90.59295Q29.83125 90.0617 30.45625 89.78045Q29.909374 89.483574 29.596874 89.014824Q29.284374 88.53045 29.284374 87.90545Q29.284374 86.8117 30.003124 86.171074Q30.7375 85.514824 31.9875 85.514824Q33.2375 85.514824 33.95625 86.171074Q34.690624 86.8117 34.690624 87.90545ZM33.175 91.702324Q33.175 91.15545 32.846874 90.827324Q32.534374 90.483574 31.9875 90.483574Q31.440624 90.483574 31.1125 90.8117Q30.8 91.139824 30.8 91.702324Q30.8 92.2492 31.1125 92.59295Q31.440624 92.921074 32.003124 92.921074Q32.55 92.921074 32.8625 92.608574Q33.175 92.28045 33.175 91.702324ZM33.003124 87.983574Q33.003124 87.483574 32.7375 87.1867Q32.471874 86.889824 31.9875 86.889824Q31.51875 86.889824 31.253124 87.1867Q30.9875 87.46795 30.9875 87.983574Q30.9875 88.4992 31.253124 88.8117Q31.51875 89.1242 31.9875 89.1242Q32.471874 89.1242 32.7375 88.8117Q33.003124 88.4992 33.003124 87.983574ZM36.1125 87.28045Q36.1125 86.4992 36.6125 86.014824Q37.128124 85.514824 37.95625 85.514824Q38.784374 85.514824 39.3 85.9992Q39.815624 86.483574 39.815624 87.3117L39.815624 87.733574Q39.815624 88.514824 39.3 88.9992Q38.784374 89.483574 37.971874 89.483574Q37.128124 89.483574 36.6125 88.9992Q36.1125 88.514824 36.1125 87.702324L36.1125 87.28045ZM37.2375 87.733574Q37.2375 88.077324 37.440624 88.296074Q37.64375 88.514824 37.971874 88.514824Q38.3 88.514824 38.4875 88.296074Q38.675 88.077324 38.675 87.71795L38.675 87.28045Q38.675 86.921074 38.4875 86.71795Q38.3 86.4992 37.95625 86.4992Q37.628124 86.4992 37.425 86.71795Q37.2375 86.921074 37.2375 87.296074L37.2375 87.733574ZM40.190624 92.077324Q40.190624 91.28045 40.70625 90.8117Q41.221874 90.327324 42.034374 90.327324Q42.8625 90.327324 43.378124 90.8117Q43.89375 91.28045 43.89375 92.108574L43.89375 92.53045Q43.89375 93.327324 43.39375 93.8117Q42.89375 94.296074 42.05 94.296074Q41.20625 94.296074 40.690624 93.8117Q40.190624 93.3117 40.190624 92.514824L40.190624 92.077324ZM41.315624 92.53045Q41.315624 92.858574 41.51875 93.09295Q41.7375 93.3117 42.05 93.3117Q42.76875 93.3117 42.76875 92.53045L42.76875 92.077324Q42.76875 91.733574 42.565624 91.514824Q42.3625 91.296074 42.034374 91.296074Q41.70625 91.296074 41.503124 91.514824Q41.315624 91.733574 41.315624 92.09295L41.315624 92.53045ZM38.3 93.53045L37.471874 93.09295L41.64375 86.421074L42.471874 86.858574L38.3 93.53045Z"
     fill-rule="nonzero"
     id="path28" />
  <path
     stroke="#757575"
     stroke-width="1.0"
     stroke-linecap="butt"
     d="M18.55 80.671074L145.23334 80.671074L282.96475 94.31731"
     fill-rule="nonzero"
     id="path30" />
  <path
     fill="#9e9e9e"
     d="M284.96475 94.31731C284.96475 93.21274 284.06934 92.31731 282.96475 92.31731C281.86017 92.31731 280.96475 93.21274 280.96475 94.31731C280.96475 95.42188 281.86017 96.31731 282.96475 96.31731C284.06934 96.31731 284.96475 95.42188 284.96475 94.31731"
     fill-rule="nonzero"
     id="path32" />
  <path
     fill="#1a1a1a"
     d="M22.471874 107.0617L24.39375 100.639824L26.3625 100.639824L23.378124 109.171074L21.55 109.171074L18.596874 100.639824L20.55 100.639824L22.471874 107.0617ZM29.175 109.171074L27.425 109.171074L27.425 100.639824L29.175 100.639824L29.175 109.171074ZM38.003124 106.327324Q37.909374 107.702324 36.9875 108.4992Q36.08125 109.296074 34.58125 109.296074Q32.940624 109.296074 31.9875 108.1867Q31.05 107.077324 31.05 105.15545L31.05 104.6242Q31.05 103.40545 31.4875 102.46795Q31.925 101.53045 32.721874 101.03045Q33.534374 100.514824 34.596874 100.514824Q36.08125 100.514824 36.971874 101.3117Q37.878124 102.108574 38.01875 103.53045L36.26875 103.53045Q36.20625 102.702324 35.8 102.34295Q35.409374 101.96795 34.596874 101.96795Q33.721874 101.96795 33.284374 102.59295Q32.846874 103.21795 32.83125 104.546074L32.83125 105.1867Q32.83125 106.577324 33.253124 107.21795Q33.675 107.858574 34.58125 107.858574Q35.39375 107.858574 35.784374 107.483574Q36.190624 107.108574 36.253124 106.327324L38.003124 106.327324ZM44.440624 105.46795L41.065624 105.46795L41.065624 107.764824L45.034374 107.764824L45.034374 109.171074L39.315624 109.171074L39.315624 100.639824L45.01875 100.639824L45.01875 102.0617L41.065624 102.0617L41.065624 104.09295L44.440624 104.09295L44.440624 105.46795ZM49.4875 106.202324L46.190624 106.202324L46.190624 104.827324L49.4875 104.827324L49.4875 106.202324ZM53.065624 106.171074L53.065624 109.171074L51.315624 109.171074L51.315624 100.639824L54.64375 100.639824Q55.596874 100.639824 56.33125 100.9992Q57.065624 101.34295 57.45625 101.9992Q57.846874 102.639824 57.846874 103.46795Q57.846874 104.71795 56.9875 105.452324Q56.128124 106.171074 54.6125 106.171074L53.065624 106.171074ZM53.065624 104.733574L54.64375 104.733574Q55.33125 104.733574 55.690624 104.40545Q56.065624 104.077324 56.065624 103.46795Q56.065624 102.84295 55.690624 102.46795Q55.33125 102.077324 54.675 102.0617L53.065624 102.0617L53.065624 104.733574ZM62.471874 106.046074L61.065624 106.046074L61.065624 109.171074L59.315624 109.171074L59.315624 100.639824L62.4875 100.639824Q63.9875 100.639824 64.8 101.3117Q65.62813 101.983574 65.62813 103.21795Q65.62813 104.09295 65.25313 104.671074Q64.87813 105.2492 64.1125 105.608574L65.95625 109.09295L65.95625 109.171074L64.06563 109.171074L62.471874 106.046074ZM61.065624 104.6242L62.4875 104.6242Q63.14375 104.6242 63.503124 104.296074Q63.878124 103.952324 63.878124 103.358574Q63.878124 102.7492 63.534374 102.40545Q63.190624 102.0617 62.4875 102.0617L61.065624 102.0617L61.065624 104.6242ZM72.44063 105.46795L69.06563 105.46795L69.06563 107.764824L73.03438 107.764824L73.03438 109.171074L67.31563 109.171074L67.31563 100.639824L73.01875 100.639824L73.01875 102.0617L69.06563 102.0617L69.06563 104.09295L72.44063 104.09295L72.44063 105.46795ZM79.44063 105.6867L76.06563 105.6867L76.06563 109.171074L74.31563 109.171074L74.31563 100.639824L79.8625 100.639824L79.8625 102.0617L76.06563 102.0617L76.06563 104.264824L79.44063 104.264824L79.44063 105.6867ZM86.44063 105.46795L83.06563 105.46795L83.06563 107.764824L87.03438 107.764824L87.03438 109.171074L81.31563 109.171074L81.31563 100.639824L87.01875 100.639824L87.01875 102.0617L83.06563 102.0617L83.06563 104.09295L86.44063 104.09295L86.44063 105.46795ZM90.175 109.171074L88.425 109.171074L88.425 100.639824L90.175 100.639824L90.175 109.171074ZM98.7375 102.0617L96.12813 102.0617L96.12813 109.171074L94.3625 109.171074L94.3625 102.0617L91.78438 102.0617L91.78438 100.639824L98.7375 100.639824L98.7375 102.0617ZM106.31563 105.09295Q106.31563 106.358574 105.8625 107.3117Q105.425 108.2492 104.59688 108.78045Q103.76875 109.296074 102.70625 109.296074Q101.64375 109.296074 100.8 108.78045Q99.97188 108.264824 99.51875 107.327324Q99.06563 106.3742 99.05 105.139824L99.05 104.71795Q99.05 103.46795 99.50313 102.514824Q99.95625 101.546074 100.78438 101.03045Q101.62813 100.514824 102.69063 100.514824Q103.75313 100.514824 104.58125 101.03045Q105.40938 101.546074 105.8625 102.514824Q106.31563 103.46795 106.31563 104.71795L106.31563 105.09295ZM104.53438 104.71795Q104.53438 103.3742 104.05 102.671074Q103.58125 101.96795 102.69063 101.96795Q101.8 101.96795 101.31563 102.671074Q100.84688 103.358574 100.83125 104.6867L100.83125 105.09295Q100.83125 106.40545 101.31563 107.1242Q101.8 107.84295 102.70625 107.84295Q103.58125 107.84295 104.05 107.15545Q104.53438 106.452324 104.53438 105.1242L104.53438 104.71795Z"
     fill-rule="nonzero"
     id="path34" />
  <path
     fill="#9e9e9e"
     d="M20.846874 122.15545L21.753124 122.15545Q22.39375 122.15545 22.70625 121.84295Q23.01875 121.514824 23.01875 120.983574Q23.01875 120.46795 22.70625 120.1867Q22.409374 119.889824 21.8625 119.889824Q21.378124 119.889824 21.05 120.15545Q20.721874 120.421074 20.721874 120.84295L19.034374 120.84295Q19.034374 120.1867 19.39375 119.65545Q19.753124 119.1242 20.39375 118.827324Q21.05 118.514824 21.83125 118.514824Q23.175 118.514824 23.940624 119.171074Q24.721874 119.8117 24.721874 120.952324Q24.721874 121.546074 24.3625 122.046074Q24.003124 122.53045 23.425 122.78045Q24.14375 123.046074 24.4875 123.5617Q24.846874 124.077324 24.846874 124.78045Q24.846874 125.921074 24.01875 126.608574Q23.190624 127.296074 21.83125 127.296074Q20.55 127.296074 19.7375 126.6242Q18.925 125.9367 18.925 124.827324L20.6125 124.827324Q20.6125 125.3117 20.971874 125.6242Q21.346874 125.921074 21.8625 125.921074Q22.471874 125.921074 22.815624 125.608574Q23.159374 125.28045 23.159374 124.7492Q23.159374 123.483574 21.753124 123.483574L20.846874 123.483574L20.846874 122.15545ZM26.64375 129.3117L25.753124 128.84296L25.971874 128.46796Q26.3625 127.7492 26.378124 127.046074L26.378124 125.733574L27.8 125.733574L27.8 126.90545Q27.784374 127.546074 27.45625 128.20233Q27.14375 128.8742 26.64375 129.3117ZM34.690624 120.90545Q34.690624 121.53045 34.378124 122.014824Q34.065624 122.483574 33.51875 122.78045Q34.14375 123.077324 34.503124 123.608574Q34.878124 124.1242 34.878124 124.827324Q34.878124 125.96795 34.096874 126.639824Q33.33125 127.296074 31.9875 127.296074Q30.659374 127.296074 29.878124 126.639824Q29.1125 125.96795 29.1125 124.827324Q29.1125 124.1242 29.471874 123.59295Q29.83125 123.0617 30.45625 122.78045Q29.909374 122.483574 29.596874 122.014824Q29.284374 121.53045 29.284374 120.90545Q29.284374 119.8117 30.003124 119.171074Q30.7375 118.514824 31.9875 118.514824Q33.2375 118.514824 33.95625 119.171074Q34.690624 119.8117 34.690624 120.90545ZM33.175 124.702324Q33.175 124.15545 32.846874 123.827324Q32.534374 123.483574 31.9875 123.483574Q31.440624 123.483574 31.1125 123.8117Q30.8 124.139824 30.8 124.702324Q30.8 125.2492 31.1125 125.59295Q31.440624 125.921074 32.003124 125.921074Q32.55 125.921074 32.8625 125.608574Q33.175 125.28045 33.175 124.702324ZM33.003124 120.983574Q33.003124 120.483574 32.7375 120.1867Q32.471874 119.889824 31.9875 119.889824Q31.51875 119.889824 31.253124 120.1867Q30.9875 120.46795 30.9875 120.983574Q30.9875 121.4992 31.253124 121.8117Q31.51875 122.1242 31.9875 122.1242Q32.471874 122.1242 32.7375 121.8117Q33.003124 121.4992 33.003124 120.983574ZM36.1125 120.28045Q36.1125 119.4992 36.6125 119.014824Q37.128124 118.514824 37.95625 118.514824Q38.784374 118.514824 39.3 118.9992Q39.815624 119.483574 39.815624 120.3117L39.815624 120.733574Q39.815624 121.514824 39.3 121.9992Q38.784374 122.483574 37.971874 122.483574Q37.128124 122.483574 36.6125 121.9992Q36.1125 121.514824 36.1125 120.702324L36.1125 120.28045ZM37.2375 120.733574Q37.2375 121.077324 37.440624 121.296074Q37.64375 121.514824 37.971874 121.514824Q38.3 121.514824 38.4875 121.296074Q38.675 121.077324 38.675 120.71795L38.675 120.28045Q38.675 119.921074 38.4875 119.71795Q38.3 119.4992 37.95625 119.4992Q37.628124 119.4992 37.425 119.71795Q37.2375 119.921074 37.2375 120.296074L37.2375 120.733574ZM40.190624 125.077324Q40.190624 124.28045 40.70625 123.8117Q41.221874 123.327324 42.034374 123.327324Q42.8625 123.327324 43.378124 123.8117Q43.89375 124.28045 43.89375 125.108574L43.89375 125.53045Q43.89375 126.327324 43.39375 126.8117Q42.89375 127.296074 42.05 127.296074Q41.20625 127.296074 40.690624 126.8117Q40.190624 126.3117 40.190624 125.514824L40.190624 125.077324ZM41.315624 125.53045Q41.315624 125.858574 41.51875 126.09295Q41.7375 126.3117 42.05 126.3117Q42.76875 126.3117 42.76875 125.53045L42.76875 125.077324Q42.76875 124.733574 42.565624 124.514824Q42.3625 124.296074 42.034374 124.296074Q41.70625 124.296074 41.503124 124.514824Q41.315624 124.733574 41.315624 125.09295L41.315624 125.53045ZM38.3 126.53045L37.471874 126.09295L41.64375 119.421074L42.471874 119.858574L38.3 126.53045Z"
     fill-rule="nonzero"
     id="path36" />
  <path
     stroke="#757575"
     stroke-width="1.0"
     stroke-linecap="butt"
     d="M18.55 113.671074L145.23334 113.671074L249.88428 100.02483"
     fill-rule="nonzero"
     id="path38" />
  <path
     fill="#9e9e9e"
     d="M251.88428 100.02483C251.88428 98.920265 250.98885 98.02483 249.88428 98.02483C248.77971 98.02483 247.88428 98.920265 247.88428 100.02483C247.88428 101.1294 248.77971 102.02483 249.88428 102.02483C250.98885 102.02483 251.88428 101.1294 251.88428 100.02483"
     fill-rule="nonzero"
     id="path40" />
  <path
     fill="#1a1a1a"
     d="M523.3719 281.97156L525.29376 275.54968L527.2625 275.54968L524.27814 284.08093L522.45 284.08093L519.4969 275.54968L521.45 275.54968L523.3719 281.97156ZM533.34064 280.3778L529.96564 280.3778L529.96564 282.67468L533.9344 282.67468L533.9344 284.08093L528.21564 284.08093L528.21564 275.54968L533.91876 275.54968L533.91876 276.97156L529.96564 276.97156L529.96564 279.0028L533.34064 279.0028L533.34064 280.3778ZM538.3719 280.95593L536.96564 280.95593L536.96564 284.08093L535.21564 284.08093L535.21564 275.54968L538.3875 275.54968Q539.8875 275.54968 540.7 276.22156Q541.52814 276.89343 541.52814 278.1278Q541.52814 279.0028 541.15314 279.58093Q540.77814 280.15906 540.0125 280.51843L541.85626 284.0028L541.85626 284.08093L539.96564 284.08093L538.3719 280.95593ZM536.96564 279.53406L538.3875 279.53406Q539.04376 279.53406 539.40314 279.20593Q539.77814 278.86218 539.77814 278.26843Q539.77814 277.65906 539.4344 277.3153Q539.09064 276.97156 538.3875 276.97156L536.96564 276.97156L536.96564 279.53406ZM548.34064 280.3778L544.96564 280.3778L544.96564 282.67468L548.9344 282.67468L548.9344 284.08093L543.21564 284.08093L543.21564 275.54968L548.91876 275.54968L548.91876 276.97156L544.96564 276.97156L544.96564 279.0028L548.34064 279.0028L548.34064 280.3778ZM555.02814 282.3153L551.95 282.3153L551.35626 284.08093L549.4969 284.08093L552.66876 275.54968L554.29376 275.54968L557.4969 284.08093L555.6219 284.08093L555.02814 282.3153ZM552.41876 280.89343L554.5594 280.89343L553.48126 277.70593L552.41876 280.89343ZM558.21564 284.08093L558.21564 275.54968L560.84064 275.54968Q561.96564 275.54968 562.84064 276.0653Q563.73126 276.5653 564.23126 277.5028Q564.73126 278.42468 564.73126 279.6278L564.73126 280.01843Q564.73126 281.20593 564.2469 282.1278Q563.7625 283.04968 562.8719 283.5653Q561.98126 284.08093 560.85626 284.08093L558.21564 284.08093ZM559.96564 276.97156L559.96564 282.67468L560.825 282.67468Q561.85626 282.67468 562.3875 282.0028Q562.9344 281.3153 562.95 280.0653L562.95 279.61218Q562.95 278.3153 562.40314 277.64343Q561.8719 276.97156 560.84064 276.97156L559.96564 276.97156ZM573.21564 280.0028Q573.21564 281.26843 572.7625 282.22156Q572.325 283.15906 571.4969 283.6903Q570.66876 284.20593 569.60626 284.20593Q568.54376 284.20593 567.7 283.6903Q566.8719 283.17468 566.41876 282.23718Q565.96564 281.28406 565.95 280.04968L565.95 279.6278Q565.95 278.3778 566.40314 277.42468Q566.85626 276.45593 567.6844 275.9403Q568.52814 275.42468 569.59064 275.42468Q570.65314 275.42468 571.48126 275.9403Q572.3094 276.45593 572.7625 277.42468Q573.21564 278.3778 573.21564 279.6278L573.21564 280.0028ZM571.4344 279.6278Q571.4344 278.28406 570.95 277.58093Q570.48126 276.8778 569.59064 276.8778Q568.7 276.8778 568.21564 277.58093Q567.7469 278.26843 567.73126 279.59656L567.73126 280.0028Q567.73126 281.3153 568.21564 282.03406Q568.7 282.7528 569.60626 282.7528Q570.48126 282.7528 570.95 282.0653Q571.4344 281.36218 571.4344 280.03406L571.4344 279.6278ZM577.3719 280.95593L575.96564 280.95593L575.96564 284.08093L574.21564 284.08093L574.21564 275.54968L577.3875 275.54968Q578.8875 275.54968 579.7 276.22156Q580.52814 276.89343 580.52814 278.1278Q580.52814 279.0028 580.15314 279.58093Q579.77814 280.15906 579.0125 280.51843L580.85626 284.0028L580.85626 284.08093L578.96564 284.08093L577.3719 280.95593ZM575.96564 279.53406L577.3875 279.53406Q578.04376 279.53406 578.40314 279.20593Q578.77814 278.86218 578.77814 278.26843Q578.77814 277.65906 578.4344 277.3153Q578.09064 276.97156 577.3875 276.97156L575.96564 276.97156L575.96564 279.53406Z"
     fill-rule="nonzero"
     id="path42" />
  <path
     fill="#9e9e9e"
     d="M552.9969 298.67468Q552.325 299.3153 551.45 299.3153Q550.3094 299.3153 549.6219 298.54968Q548.95 297.76843 548.95 296.45593Q548.95 295.61218 549.3094 294.90906Q549.6844 294.20593 550.34064 293.8153Q550.9969 293.42468 551.825 293.42468Q552.66876 293.42468 553.325 293.84656Q553.98126 294.26843 554.34064 295.0653Q554.7 295.86218 554.71564 296.8778L554.71564 297.5028Q554.71564 299.64343 553.65314 300.86218Q552.59064 302.08093 550.6375 302.15906L550.23126 302.15906L550.23126 300.7528L550.60626 300.73718Q552.8094 300.64343 552.9969 298.67468ZM551.85626 298.01843Q552.27814 298.01843 552.5594 297.8153Q552.85626 297.59656 553.0125 297.29968L553.0125 296.61218Q553.0125 295.7528 552.6844 295.28406Q552.35626 294.79968 551.8094 294.79968Q551.29376 294.79968 550.96564 295.26843Q550.6375 295.72156 550.6375 296.42468Q550.6375 297.1278 550.95 297.58093Q551.27814 298.01843 551.85626 298.01843ZM561.8719 302.08093L556.02814 302.08093L556.02814 300.92468L558.79376 297.97156Q559.35626 297.36218 559.6219 296.89343Q559.90314 296.42468 559.90314 296.01843Q559.90314 295.4403 559.60626 295.1278Q559.325 294.79968 558.79376 294.79968Q558.21564 294.79968 557.8875 295.1903Q557.5594 295.58093 557.5594 296.23718L555.85626 296.23718Q555.85626 295.45593 556.23126 294.8153Q556.60626 294.15906 557.27814 293.79968Q557.96564 293.42468 558.825 293.42468Q560.1375 293.42468 560.8719 294.0653Q561.60626 294.6903 561.60626 295.84656Q561.60626 296.48718 561.27814 297.14343Q560.95 297.79968 560.15314 298.67468L558.21564 300.72156L561.8719 300.72156L561.8719 302.08093ZM563.54376 304.22156L562.65314 303.7528L562.8719 303.3778Q563.2625 302.65906 563.27814 301.95593L563.27814 300.64343L564.7 300.64343L564.7 301.8153Q564.6844 302.45593 564.35626 303.11218Q564.04376 303.78406 563.54376 304.22156ZM567.7469 297.0653L568.65314 297.0653Q569.29376 297.0653 569.60626 296.7528Q569.91876 296.42468 569.91876 295.89343Q569.91876 295.3778 569.60626 295.09656Q569.3094 294.79968 568.7625 294.79968Q568.27814 294.79968 567.95 295.0653Q567.6219 295.33093 567.6219 295.7528L565.9344 295.7528Q565.9344 295.09656 566.29376 294.5653Q566.65314 294.03406 567.29376 293.73718Q567.95 293.42468 568.73126 293.42468Q570.075 293.42468 570.84064 294.08093Q571.6219 294.72156 571.6219 295.86218Q571.6219 296.45593 571.2625 296.95593Q570.90314 297.4403 570.325 297.6903Q571.04376 297.95593 571.3875 298.47156Q571.7469 298.98718 571.7469 299.6903Q571.7469 300.83093 570.91876 301.51843Q570.09064 302.20593 568.73126 302.20593Q567.45 302.20593 566.6375 301.53406Q565.825 300.84656 565.825 299.73718L567.5125 299.73718Q567.5125 300.22156 567.8719 300.53406Q568.2469 300.83093 568.7625 300.83093Q569.3719 300.83093 569.71564 300.51843Q570.0594 300.1903 570.0594 299.65906Q570.0594 298.39343 568.65314 298.39343L567.7469 298.39343L567.7469 297.0653ZM573.0125 295.1903Q573.0125 294.40906 573.5125 293.92468Q574.02814 293.42468 574.85626 293.42468Q575.6844 293.42468 576.2 293.90906Q576.71564 294.39343 576.71564 295.22156L576.71564 295.64343Q576.71564 296.42468 576.2 296.90906Q575.6844 297.39343 574.8719 297.39343Q574.02814 297.39343 573.5125 296.90906Q573.0125 296.42468 573.0125 295.61218L573.0125 295.1903ZM574.1375 295.64343Q574.1375 295.98718 574.34064 296.20593Q574.54376 296.42468 574.8719 296.42468Q575.2 296.42468 575.3875 296.20593Q575.575 295.98718 575.575 295.6278L575.575 295.1903Q575.575 294.83093 575.3875 294.6278Q575.2 294.40906 574.85626 294.40906Q574.52814 294.40906 574.325 294.6278Q574.1375 294.83093 574.1375 295.20593L574.1375 295.64343ZM577.09064 299.98718Q577.09064 299.1903 577.60626 298.72156Q578.1219 298.23718 578.9344 298.23718Q579.7625 298.23718 580.27814 298.72156Q580.79376 299.1903 580.79376 300.01843L580.79376 300.4403Q580.79376 301.23718 580.29376 301.72156Q579.79376 302.20593 578.95 302.20593Q578.10626 302.20593 577.59064 301.72156Q577.09064 301.22156 577.09064 300.42468L577.09064 299.98718ZM578.21564 300.4403Q578.21564 300.76843 578.41876 301.0028Q578.6375 301.22156 578.95 301.22156Q579.66876 301.22156 579.66876 300.4403L579.66876 299.98718Q579.66876 299.64343 579.46564 299.42468Q579.2625 299.20593 578.9344 299.20593Q578.60626 299.20593 578.40314 299.42468Q578.21564 299.64343 578.21564 300.0028L578.21564 300.4403ZM575.2 301.4403L574.3719 301.0028L578.54376 294.33093L579.3719 294.76843L575.2 301.4403Z"
     fill-rule="nonzero"
     id="path44" />
  <path
     stroke="#757575"
     stroke-width="1.0"
     stroke-linecap="butt"
     d="M581.45 288.58093L454.76666 288.58093L333.82208 288.58093"
     fill-rule="nonzero"
     id="path46" />
  <path
     fill="#9e9e9e"
     d="M335.82208 288.58093C335.82208 287.47638 334.92667 286.58093 333.82208 286.58093C332.71753 286.58093 331.82208 287.47638 331.82208 288.58093C331.82208 289.68552 332.71753 290.58093 333.82208 290.58093C334.92667 290.58093 335.82208 289.68552 335.82208 288.58093"
     fill-rule="nonzero"
     id="path48" />
  <path
     fill="#757575"
     d="M217.4375 32.815624Q217.26562 35.1125 215.73438 36.440624Q214.20312 37.753124 211.70312 37.753124Q208.96875 37.753124 207.40625 35.909374Q205.84375 34.065624 205.84375 30.846874L205.84375 29.9875Q205.84375 27.925 206.5625 26.3625Q207.28125 24.8 208.625 23.971874Q209.96875 23.128124 211.75 23.128124Q214.20312 23.128124 215.70312 24.45625Q217.21875 25.76875 217.45312 28.159374L214.51562 28.159374Q214.42188 26.784374 213.75 26.159374Q213.09375 25.534374 211.75 25.534374Q210.28125 25.534374 209.54688 26.596874Q208.82812 27.64375 208.8125 29.846874L208.8125 30.925Q208.8125 33.221874 209.5 34.284374Q210.20312 35.346874 211.70312 35.346874Q213.0625 35.346874 213.73438 34.7375Q214.40625 34.1125 214.5 32.815624L217.4375 32.815624ZM225.20312 37.55Q225.01562 37.175 224.92188 36.596874Q223.90625 37.753124 222.26562 37.753124Q220.70312 37.753124 219.6875 36.846874Q218.67188 35.940624 218.67188 34.58125Q218.67188 32.89375 219.90625 32.003124Q221.15625 31.096874 223.51562 31.096874L224.8125 31.096874L224.8125 30.4875Q224.8125 29.753124 224.4375 29.315624Q224.0625 28.878124 223.25 28.878124Q222.53125 28.878124 222.125 29.221874Q221.71875 29.565624 221.71875 30.159374L218.90625 30.159374Q218.90625 29.2375 219.46875 28.45625Q220.03125 27.675 221.0625 27.2375Q222.10938 26.784374 223.39062 26.784374Q225.34375 26.784374 226.48438 27.76875Q227.64062 28.753124 227.64062 30.534374L227.64062 35.1125Q227.65625 36.6125 228.0625 37.378124L228.0625 37.55L225.20312 37.55ZM222.875 35.58125Q223.5 35.58125 224.01562 35.315624Q224.54688 35.034374 224.8125 34.565624L224.8125 32.7375L223.75 32.7375Q221.64062 32.7375 221.5 34.20625L221.48438 34.378124Q221.48438 34.909374 221.85938 35.253124Q222.23438 35.58125 222.875 35.58125ZM232.6875 26.9875L232.76562 28.20625Q233.90625 26.784374 235.8125 26.784374Q237.48438 26.784374 238.29688 27.76875Q239.125 28.753124 239.14062 30.721874L239.14062 37.55L236.32812 37.55L236.32812 30.784374Q236.32812 29.89375 235.9375 29.4875Q235.54688 29.08125 234.64062 29.08125Q233.4375 29.08125 232.84375 30.096874L232.84375 37.55L230.03125 37.55L230.03125 26.9875L232.6875 26.9875ZM240.64062 32.190624Q240.64062 29.721874 241.75 28.253124Q242.85938 26.784374 244.78125 26.784374Q246.32812 26.784374 247.32812 27.940624L247.32812 22.55L250.17188 22.55L250.17188 37.55L247.625 37.55L247.48438 36.425Q246.42188 37.753124 244.76562 37.753124Q242.90625 37.753124 241.76562 36.284374Q240.64062 34.8 240.64062 32.190624ZM243.46875 32.39375Q243.46875 33.878124 243.98438 34.675Q244.5 35.45625 245.48438 35.45625Q246.79688 35.45625 247.32812 34.3625L247.32812 30.190624Q246.8125 29.08125 245.51562 29.08125Q243.46875 29.08125 243.46875 32.39375ZM255.0625 37.55L252.23438 37.55L252.23438 26.9875L255.0625 26.9875L255.0625 37.55ZM252.0625 24.253124Q252.0625 23.6125 252.48438 23.20625Q252.92188 22.8 253.64062 22.8Q254.375 22.8 254.79688 23.20625Q255.23438 23.6125 255.23438 24.253124Q255.23438 24.89375 254.79688 25.3Q254.35938 25.70625 253.64062 25.70625Q252.9375 25.70625 252.5 25.3Q252.0625 24.89375 252.0625 24.253124ZM256.64062 32.190624Q256.64062 29.721874 257.75 28.253124Q258.85938 26.784374 260.78125 26.784374Q262.32812 26.784374 263.32812 27.940624L263.32812 22.55L266.17188 22.55L266.17188 37.55L263.625 37.55L263.48438 36.425Q262.42188 37.753124 260.76562 37.753124Q258.90625 37.753124 257.76562 36.284374Q256.64062 34.8 256.64062 32.190624ZM259.46875 32.39375Q259.46875 33.878124 259.98438 34.675Q260.5 35.45625 261.48438 35.45625Q262.79688 35.45625 263.32812 34.3625L263.32812 30.190624Q262.8125 29.08125 261.51562 29.08125Q259.46875 29.08125 259.46875 32.39375ZM274.20312 37.55Q274.01562 37.175 273.92188 36.596874Q272.90625 37.753124 271.26562 37.753124Q269.70312 37.753124 268.6875 36.846874Q267.67188 35.940624 267.67188 34.58125Q267.67188 32.89375 268.90625 32.003124Q270.15625 31.096874 272.51562 31.096874L273.8125 31.096874L273.8125 30.4875Q273.8125 29.753124 273.4375 29.315624Q273.0625 28.878124 272.25 28.878124Q271.53125 28.878124 271.125 29.221874Q270.71875 29.565624 270.71875 30.159374L267.90625 30.159374Q267.90625 29.2375 268.46875 28.45625Q269.03125 27.675 270.0625 27.2375Q271.10938 26.784374 272.39062 26.784374Q274.34375 26.784374 275.48438 27.76875Q276.64062 28.753124 276.64062 30.534374L276.64062 35.1125Q276.65625 36.6125 277.0625 37.378124L277.0625 37.55L274.20312 37.55ZM271.875 35.58125Q272.5 35.58125 273.01562 35.315624Q273.54688 35.034374 273.8125 34.565624L273.8125 32.7375L272.75 32.7375Q270.64062 32.7375 270.5 34.20625L270.48438 34.378124Q270.48438 34.909374 270.85938 35.253124Q271.23438 35.58125 271.875 35.58125ZM282.46875 24.378124L282.46875 26.9875L284.26562 26.9875L284.26562 29.05L282.46875 29.05L282.46875 34.33125Q282.46875 34.909374 282.6875 35.175Q282.90625 35.425 283.54688 35.425Q284.01562 35.425 284.375 35.346874L284.375 37.4875Q283.54688 37.753124 282.67188 37.753124Q279.70312 37.753124 279.64062 34.753124L279.64062 29.05L278.09375 29.05L278.09375 26.9875L279.64062 26.9875L279.64062 24.378124L282.46875 24.378124ZM285.64062 32.175Q285.64062 30.596874 286.25 29.3625Q286.85938 28.128124 287.98438 27.45625Q289.125 26.784374 290.64062 26.784374Q292.78125 26.784374 294.125 28.096874Q295.48438 29.409374 295.64062 31.64375L295.65625 32.378124Q295.65625 34.8 294.29688 36.284374Q292.9375 37.753124 290.65625 37.753124Q288.375 37.753124 287.0 36.284374Q285.64062 34.815624 285.64062 32.3L285.64062 32.175ZM288.46875 32.378124Q288.46875 33.878124 289.03125 34.675Q289.59375 35.471874 290.65625 35.471874Q291.6875 35.471874 292.25 34.690624Q292.82812 33.89375 292.82812 32.175Q292.82812 30.690624 292.25 29.878124Q291.6875 29.065624 290.64062 29.065624Q289.59375 29.065624 289.03125 29.878124Q288.46875 30.690624 288.46875 32.378124ZM302.8125 34.628124Q302.8125 34.1125 302.29688 33.815624Q301.78125 33.51875 300.65625 33.284374Q296.875 32.4875 296.875 30.08125Q296.875 28.675 298.04688 27.7375Q299.21875 26.784374 301.09375 26.784374Q303.10938 26.784374 304.3125 27.7375Q305.51562 28.675 305.51562 30.190624L302.70312 30.190624Q302.70312 29.596874 302.3125 29.20625Q301.92188 28.8 301.09375 28.8Q300.375 28.8 299.98438 29.128124Q299.59375 29.440624 299.59375 29.940624Q299.59375 30.409374 300.03125 30.70625Q300.48438 30.9875 301.53125 31.20625Q302.59375 31.409374 303.3125 31.675Q305.54688 32.4875 305.54688 34.51875Q305.54688 35.95625 304.3125 36.8625Q303.07812 37.753124 301.10938 37.753124Q299.78125 37.753124 298.75 37.284374Q297.71875 36.8 297.125 35.971874Q296.54688 35.14375 296.54688 34.190624L299.21875 34.190624Q299.26562 34.940624 299.78125 35.346874Q300.29688 35.7375 301.17188 35.7375Q301.98438 35.7375 302.39062 35.440624Q302.8125 35.128124 302.8125 34.628124ZM321.59375 32.3625Q321.59375 34.8 320.48438 36.284374Q319.375 37.753124 317.5 37.753124Q315.89062 37.753124 314.90625 36.628124L314.90625 41.6125L312.07812 41.6125L312.07812 26.9875L314.70312 26.9875L314.79688 28.01875Q315.82812 26.784374 317.46875 26.784374Q319.42188 26.784374 320.5 28.2375Q321.59375 29.675 321.59375 32.221874L321.59375 32.3625ZM318.78125 32.159374Q318.78125 30.690624 318.25 29.89375Q317.73438 29.08125 316.73438 29.08125Q315.40625 29.08125 314.90625 30.096874L314.90625 34.425Q315.42188 35.471874 316.75 35.471874Q318.78125 35.471874 318.78125 32.159374ZM322.64062 32.175Q322.64062 30.596874 323.25 29.3625Q323.85938 28.128124 324.98438 27.45625Q326.125 26.784374 327.64062 26.784374Q329.78125 26.784374 331.125 28.096874Q332.48438 29.409374 332.64062 31.64375L332.65625 32.378124Q332.65625 34.8 331.29688 36.284374Q329.9375 37.753124 327.65625 37.753124Q325.375 37.753124 324.0 36.284374Q322.64062 34.815624 322.64062 32.3L322.64062 32.175ZM325.46875 32.378124Q325.46875 33.878124 326.03125 34.675Q326.59375 35.471874 327.65625 35.471874Q328.6875 35.471874 329.25 34.690624Q329.82812 33.89375 329.82812 32.175Q329.82812 30.690624 329.25 29.878124Q328.6875 29.065624 327.64062 29.065624Q326.59375 29.065624 326.03125 29.878124Q325.46875 30.690624 325.46875 32.378124ZM340.01562 29.628124Q339.45312 29.55 339.0 29.55Q337.40625 29.55 336.90625 30.628124L336.90625 37.55L334.07812 37.55L334.07812 26.9875L336.75 26.9875L336.82812 28.2375Q337.67188 26.784374 339.1875 26.784374Q339.65625 26.784374 340.0625 26.909374L340.01562 29.628124ZM350.48438 35.471874Q351.26562 35.471874 351.75 35.05Q352.23438 34.6125 352.25 33.89375L354.90625 33.89375Q354.89062 34.971874 354.3125 35.8625Q353.73438 36.753124 352.73438 37.253124Q351.73438 37.753124 350.53125 37.753124Q348.26562 37.753124 346.95312 36.315624Q345.64062 34.8625 345.64062 32.33125L345.64062 32.14375Q345.64062 29.690624 346.9375 28.2375Q348.25 26.784374 350.51562 26.784374Q352.48438 26.784374 353.6875 27.925Q354.89062 29.05 354.90625 30.925L352.25 30.925Q352.23438 30.096874 351.75 29.58125Q351.26562 29.065624 350.45312 29.065624Q349.46875 29.065624 348.96875 29.784374Q348.46875 30.503124 348.46875 32.1125L348.46875 32.409374Q348.46875 34.05 348.96875 34.76875Q349.46875 35.471874 350.48438 35.471874ZM362.20312 37.55Q362.01562 37.175 361.92188 36.596874Q360.90625 37.753124 359.26562 37.753124Q357.70312 37.753124 356.6875 36.846874Q355.67188 35.940624 355.67188 34.58125Q355.67188 32.89375 356.90625 32.003124Q358.15625 31.096874 360.51562 31.096874L361.8125 31.096874L361.8125 30.4875Q361.8125 29.753124 361.4375 29.315624Q361.0625 28.878124 360.25 28.878124Q359.53125 28.878124 359.125 29.221874Q358.71875 29.565624 358.71875 30.159374L355.90625 30.159374Q355.90625 29.2375 356.46875 28.45625Q357.03125 27.675 358.0625 27.2375Q359.10938 26.784374 360.39062 26.784374Q362.34375 26.784374 363.48438 27.76875Q364.64062 28.753124 364.64062 30.534374L364.64062 35.1125Q364.65625 36.6125 365.0625 37.378124L365.0625 37.55L362.20312 37.55ZM359.875 35.58125Q360.5 35.58125 361.01562 35.315624Q361.54688 35.034374 361.8125 34.565624L361.8125 32.7375L360.75 32.7375Q358.64062 32.7375 358.5 34.20625L358.48438 34.378124Q358.48438 34.909374 358.85938 35.253124Q359.23438 35.58125 359.875 35.58125ZM373.01562 29.628124Q372.45312 29.55 372.0 29.55Q370.40625 29.55 369.90625 30.628124L369.90625 37.55L367.07812 37.55L367.07812 26.9875L369.75 26.9875L369.82812 28.2375Q370.67188 26.784374 372.1875 26.784374Q372.65625 26.784374 373.0625 26.909374L373.01562 29.628124ZM373.67188 32.190624Q373.67188 29.753124 374.82812 28.26875Q375.98438 26.784374 377.95312 26.784374Q379.6875 26.784374 380.65625 27.971874L380.78125 26.9875L383.32812 26.9875L383.32812 37.190624Q383.32812 38.58125 382.70312 39.6125Q382.07812 40.64375 380.92188 41.175Q379.78125 41.70625 378.25 41.70625Q377.09375 41.70625 375.98438 41.2375Q374.89062 40.784374 374.3125 40.05L375.5625 38.33125Q376.625 39.51875 378.125 39.51875Q379.25 39.51875 379.875 38.909374Q380.5 38.315624 380.5 37.20625L380.5 36.64375Q379.53125 37.753124 377.9375 37.753124Q376.03125 37.753124 374.84375 36.26875Q373.67188 34.76875 373.67188 32.3L373.67188 32.190624ZM376.5 32.39375Q376.5 33.83125 377.07812 34.64375Q377.65625 35.45625 378.65625 35.45625Q379.9375 35.45625 380.5 34.4875L380.5 30.05Q379.9375 29.08125 378.67188 29.08125Q377.65625 29.08125 377.07812 29.909374Q376.5 30.7375 376.5 32.39375ZM384.64062 32.175Q384.64062 30.596874 385.25 29.3625Q385.85938 28.128124 386.98438 27.45625Q388.125 26.784374 389.64062 26.784374Q391.78125 26.784374 393.125 28.096874Q394.48438 29.409374 394.64062 31.64375L394.65625 32.378124Q394.65625 34.8 393.29688 36.284374Q391.9375 37.753124 389.65625 37.753124Q387.375 37.753124 386.0 36.284374Q384.64062 34.815624 384.64062 32.3L384.64062 32.175ZM387.46875 32.378124Q387.46875 33.878124 388.03125 34.675Q388.59375 35.471874 389.65625 35.471874Q390.6875 35.471874 391.25 34.690624Q391.82812 33.89375 391.82812 32.175Q391.82812 30.690624 391.25 29.878124Q390.6875 29.065624 389.64062 29.065624Q388.59375 29.065624 388.03125 29.878124Q387.46875 30.690624 387.46875 32.378124Z"
     fill-rule="nonzero"
     id="path50" />
  <text
     xml:space="preserve"
     style="font-style:normal;font-variant:normal;font-weight:normal;font-stretch:normal;font-size:12.8508px;line-height:1.25;font-family:Georgia;-inkscape-font-specification:Georgia;letter-spacing:0px;word-spacing:0px;opacity:0.338129;fill:#000000;stroke-width:0.150595"
     x="111.48621"
     y="349.54297"
     id="text897"
     transform="scale(1.0229029,0.97760989)"><tspan
       sodipodi:role="line"
       id="tspan895"
       x="111.48621"
       y="349.54297"
       style="font-style:normal;font-variant:normal;font-weight:normal;font-stretch:normal;font-family:'Andale Mono';-inkscape-font-specification:'Andale Mono';fill:#000000;stroke-width:0.150595">fonte: jhoonb.github.io/maracaju-eleicao-2020</tspan></text>
</svg>
