<?xml version="1.0" encoding="UTF-8" standalone="no"?>
<svg
   xmlns:dc="http://purl.org/dc/elements/1.1/"
   xmlns:cc="http://creativecommons.org/ns#"
   xmlns:rdf="http://www.w3.org/1999/02/22-rdf-syntax-ns#"
   xmlns:svg="http://www.w3.org/2000/svg"
   xmlns="http://www.w3.org/2000/svg"
   xmlns:sodipodi="http://sodipodi.sourceforge.net/DTD/sodipodi-0.dtd"
   xmlns:inkscape="http://www.inkscape.org/namespaces/inkscape"
   version="1.1"
   viewBox="0.0 0.0 708.0 438.0"
   fill="none"
   stroke="none"
   stroke-linecap="square"
   stroke-miterlimit="10"
   width="708"
   height="438"
   id="svg175"
   sodipodi:docname="Candidatos_por_estado_civil_masc_fem.svg"
   inkscape:version="1.0.1 (3bc2e813f5, 2020-09-07)">
  <metadata
     id="metadata181">
    <rdf:RDF>
      <cc:Work
         rdf:about="">
        <dc:format>image/svg+xml</dc:format>
        <dc:type
           rdf:resource="http://purl.org/dc/dcmitype/StillImage" />
      </cc:Work>
    </rdf:RDF>
  </metadata>
  <defs
     id="defs179" />
  <sodipodi:namedview
     pagecolor="#ffffff"
     bordercolor="#666666"
     borderopacity="1"
     objecttolerance="10"
     gridtolerance="10"
     guidetolerance="10"
     inkscape:pageopacity="0"
     inkscape:pageshadow="2"
     inkscape:window-width="810"
     inkscape:window-height="480"
     id="namedview177"
     showgrid="false"
     inkscape:zoom="0.92989385"
     inkscape:cx="325.29226"
     inkscape:cy="416.76085"
     inkscape:window-x="0"
     inkscape:window-y="27"
     inkscape:window-maximized="0"
     inkscape:current-layer="svg175" />
  <path
     fill="#ffffff"
     d="M0 0L708.0 0L708.0 438.0L0 438.0L0 0Z"
     fill-rule="nonzero"
     id="path2" />
  <path
     stroke="#333333"
     stroke-width="1.0"
     stroke-linecap="butt"
     d="M71.5 346.5L686.5 346.5"
     fill-rule="nonzero"
     id="path4" />
  <path
     fill="#eeeeee"
     d="M54.5 363.5L71.5 347.5L686.5 347.5L669.5 363.5Z"
     fill-rule="nonzero"
     id="path6" />
  <path
     stroke="#cccccc"
     stroke-width="1.0"
     stroke-linecap="butt"
     d="M71.5 263.5L686.5 263.5"
     fill-rule="nonzero"
     id="path8" />
  <path
     stroke="#cccccc"
     stroke-width="1.0"
     stroke-linecap="butt"
     d="M71.5 180.5L686.5 180.5"
     fill-rule="nonzero"
     id="path10" />
  <path
     stroke="#cccccc"
     stroke-width="1.0"
     stroke-linecap="butt"
     d="M71.5 97.5L686.5 97.5"
     fill-rule="nonzero"
     id="path12" />
  <path
     stroke="#e6e6e6"
     stroke-width="1.0"
     stroke-linecap="butt"
     d="M71.5 318.5L686.5 318.5"
     fill-rule="nonzero"
     id="path14" />
  <path
     stroke="#e6e6e6"
     stroke-width="1.0"
     stroke-linecap="butt"
     d="M71.5 290.5L686.5 290.5"
     fill-rule="nonzero"
     id="path16" />
  <path
     stroke="#e6e6e6"
     stroke-width="1.0"
     stroke-linecap="butt"
     d="M71.5 235.5L686.5 235.5"
     fill-rule="nonzero"
     id="path18" />
  <path
     stroke="#e6e6e6"
     stroke-width="1.0"
     stroke-linecap="butt"
     d="M71.5 207.5L686.5 207.5"
     fill-rule="nonzero"
     id="path20" />
  <path
     stroke="#e6e6e6"
     stroke-width="1.0"
     stroke-linecap="butt"
     d="M71.5 152.5L686.5 152.5"
     fill-rule="nonzero"
     id="path22" />
  <path
     stroke="#e6e6e6"
     stroke-width="1.0"
     stroke-linecap="butt"
     d="M71.5 124.5L686.5 124.5"
     fill-rule="nonzero"
     id="path24" />
  <path
     stroke="#000000"
     stroke-width="1.0"
     stroke-linecap="butt"
     d="M54.5 363.5L54.5 97.5"
     fill-rule="nonzero"
     id="path26" />
  <clipPath
     id="id_0">
    <path
       d="M54.9 97.1L686.1 97.1L686.1 363.1L54.9 363.1L54.9 97.1Z"
       clip-rule="nonzero"
       id="path28" />
  </clipPath>
  <path
     fill="#2b569f"
     clip-path="url(#id_0)"
     d="M158.0 114.0L158.0 346.0L146.0 358.0L146.0 126.0Z"
     fill-rule="nonzero"
     id="path31" />
  <path
     fill="#689df6"
     clip-path="url(#id_0)"
     d="M146.0 126.0L100.0 126.0L112.0 114.0L158.0 114.0Z"
     fill-rule="nonzero"
     id="path33" />
  <path
     stroke="#000000"
     stroke-width="2.0"
     stroke-linecap="butt"
     stroke-opacity="0.0"
     clip-path="url(#id_0)"
     d="M146.0 358.0L100.0 358.0L100.0 126.0L146.0 126.0Z"
     fill-rule="nonzero"
     id="path35" />
  <path
     fill="#4285f4"
     clip-path="url(#id_0)"
     d="M146.0 358.0L100.0 358.0L100.0 126.0L146.0 126.0Z"
     fill-rule="nonzero"
     id="path37" />
  <path
     fill="#2b569f"
     clip-path="url(#id_0)"
     d="M303.0 184.0L303.0 346.0L291.0 358.0L291.0 196.0Z"
     fill-rule="nonzero"
     id="path39" />
  <path
     fill="#689df6"
     clip-path="url(#id_0)"
     d="M291.0 196.0L245.0 196.0L257.0 184.0L303.0 184.0Z"
     fill-rule="nonzero"
     id="path41" />
  <path
     stroke="#000000"
     stroke-width="2.0"
     stroke-linecap="butt"
     stroke-opacity="0.0"
     clip-path="url(#id_0)"
     d="M291.0 358.0L245.0 358.0L245.0 196.0L291.0 196.0Z"
     fill-rule="nonzero"
     id="path43" />
  <path
     fill="#4285f4"
     clip-path="url(#id_0)"
     d="M291.0 358.0L245.0 358.0L245.0 196.0L291.0 196.0Z"
     fill-rule="nonzero"
     id="path45" />
  <path
     fill="#2b569f"
     clip-path="url(#id_0)"
     d="M448.0 313.0L448.0 346.0L436.0 358.0L436.0 325.0Z"
     fill-rule="nonzero"
     id="path47" />
  <path
     fill="#689df6"
     clip-path="url(#id_0)"
     d="M436.0 325.0L390.0 325.0L402.0 313.0L448.0 313.0Z"
     fill-rule="nonzero"
     id="path49" />
  <path
     stroke="#000000"
     stroke-width="2.0"
     stroke-linecap="butt"
     stroke-opacity="0.0"
     clip-path="url(#id_0)"
     d="M436.0 358.0L390.0 358.0L390.0 325.0L436.0 325.0Z"
     fill-rule="nonzero"
     id="path51" />
  <path
     fill="#4285f4"
     clip-path="url(#id_0)"
     d="M436.0 358.0L390.0 358.0L390.0 325.0L436.0 325.0Z"
     fill-rule="nonzero"
     id="path53" />
  <path
     fill="#2b569f"
     clip-path="url(#id_0)"
     d="M593.0 342.0L593.0 346.0L581.0 358.0L581.0 354.0Z"
     fill-rule="nonzero"
     id="path55" />
  <path
     fill="#689df6"
     clip-path="url(#id_0)"
     d="M581.0 354.0L535.0 354.0L547.0 342.0L593.0 342.0Z"
     fill-rule="nonzero"
     id="path57" />
  <path
     stroke="#000000"
     stroke-width="2.0"
     stroke-linecap="butt"
     stroke-opacity="0.0"
     clip-path="url(#id_0)"
     d="M581.0 358.0L535.0 358.0L535.0 354.0L581.0 354.0Z"
     fill-rule="nonzero"
     id="path59" />
  <path
     fill="#4285f4"
     clip-path="url(#id_0)"
     d="M581.0 358.0L535.0 358.0L535.0 354.0L581.0 354.0Z"
     fill-rule="nonzero"
     id="path61" />
  <path
     fill="#982c22"
     clip-path="url(#id_0)"
     d="M205.0 251.0L205.0 346.0L193.0 358.0L193.0 263.0Z"
     fill-rule="nonzero"
     id="path63" />
  <path
     fill="#ee695d"
     clip-path="url(#id_0)"
     d="M193.0 263.0L147.0 263.0L159.0 251.0L205.0 251.0Z"
     fill-rule="nonzero"
     id="path65" />
  <path
     stroke="#000000"
     stroke-width="2.0"
     stroke-linecap="butt"
     stroke-opacity="0.0"
     clip-path="url(#id_0)"
     d="M193.0 358.0L147.0 358.0L147.0 263.0L193.0 263.0Z"
     fill-rule="nonzero"
     id="path67" />
  <path
     fill="#ea4335"
     clip-path="url(#id_0)"
     d="M193.0 358.0L147.0 358.0L147.0 263.0L193.0 263.0Z"
     fill-rule="nonzero"
     id="path69" />
  <path
     fill="#982c22"
     clip-path="url(#id_0)"
     d="M350.0 255.0L350.0 346.0L338.0 358.0L338.0 267.0Z"
     fill-rule="nonzero"
     id="path71" />
  <path
     fill="#ee695d"
     clip-path="url(#id_0)"
     d="M338.0 267.0L292.0 267.0L304.0 255.0L350.0 255.0Z"
     fill-rule="nonzero"
     id="path73" />
  <path
     stroke="#000000"
     stroke-width="2.0"
     stroke-linecap="butt"
     stroke-opacity="0.0"
     clip-path="url(#id_0)"
     d="M338.0 358.0L292.0 358.0L292.0 267.0L338.0 267.0Z"
     fill-rule="nonzero"
     id="path75" />
  <path
     fill="#ea4335"
     clip-path="url(#id_0)"
     d="M338.0 358.0L292.0 358.0L292.0 267.0L338.0 267.0Z"
     fill-rule="nonzero"
     id="path77" />
  <path
     fill="#982c22"
     clip-path="url(#id_0)"
     d="M495.0 321.0L495.0 346.0L483.0 358.0L483.0 333.0Z"
     fill-rule="nonzero"
     id="path79" />
  <path
     fill="#ee695d"
     clip-path="url(#id_0)"
     d="M483.0 333.0L437.0 333.0L449.0 321.0L495.0 321.0Z"
     fill-rule="nonzero"
     id="path81" />
  <path
     stroke="#000000"
     stroke-width="2.0"
     stroke-linecap="butt"
     stroke-opacity="0.0"
     clip-path="url(#id_0)"
     d="M483.0 358.0L437.0 358.0L437.0 333.0L483.0 333.0Z"
     fill-rule="nonzero"
     id="path83" />
  <path
     fill="#ea4335"
     clip-path="url(#id_0)"
     d="M483.0 358.0L437.0 358.0L437.0 333.0L483.0 333.0Z"
     fill-rule="nonzero"
     id="path85" />
  <path
     fill="#982c22"
     clip-path="url(#id_0)"
     d="M640.0 342.0L640.0 346.0L628.0 358.0L628.0 354.0Z"
     fill-rule="nonzero"
     id="path87" />
  <path
     fill="#ee695d"
     clip-path="url(#id_0)"
     d="M628.0 354.0L582.0 354.0L594.0 342.0L640.0 342.0Z"
     fill-rule="nonzero"
     id="path89" />
  <path
     stroke="#000000"
     stroke-width="2.0"
     stroke-linecap="butt"
     stroke-opacity="0.0"
     clip-path="url(#id_0)"
     d="M628.0 358.0L582.0 358.0L582.0 354.0L628.0 354.0Z"
     fill-rule="nonzero"
     id="path91" />
  <path
     fill="#ea4335"
     clip-path="url(#id_0)"
     d="M628.0 358.0L582.0 358.0L582.0 354.0L628.0 354.0Z"
     fill-rule="nonzero"
     id="path93" />
  <path
     stroke="#000000"
     stroke-width="1.0"
     stroke-linecap="butt"
     d="M51.5 318.5L57.5 318.5"
     fill-rule="nonzero"
     id="path95" />
  <path
     stroke="#000000"
     stroke-width="1.0"
     stroke-linecap="butt"
     d="M51.5 290.5L57.5 290.5"
     fill-rule="nonzero"
     id="path97" />
  <path
     stroke="#000000"
     stroke-width="1.0"
     stroke-linecap="butt"
     d="M51.5 235.5L57.5 235.5"
     fill-rule="nonzero"
     id="path99" />
  <path
     stroke="#000000"
     stroke-width="1.0"
     stroke-linecap="butt"
     d="M51.5 207.5L57.5 207.5"
     fill-rule="nonzero"
     id="path101" />
  <path
     stroke="#000000"
     stroke-width="1.0"
     stroke-linecap="butt"
     d="M51.5 152.5L57.5 152.5"
     fill-rule="nonzero"
     id="path103" />
  <path
     stroke="#000000"
     stroke-width="1.0"
     stroke-linecap="butt"
     d="M51.5 124.5L57.5 124.5"
     fill-rule="nonzero"
     id="path105" />
  <path
     stroke="#000000"
     stroke-width="1.0"
     stroke-linecap="butt"
     d="M48.5 346.5L60.5 346.5"
     fill-rule="nonzero"
     id="path107" />
  <path
     stroke="#000000"
     stroke-width="1.0"
     stroke-linecap="butt"
     d="M48.5 263.5L60.5 263.5"
     fill-rule="nonzero"
     id="path109" />
  <path
     stroke="#000000"
     stroke-width="1.0"
     stroke-linecap="butt"
     d="M48.5 180.5L60.5 180.5"
     fill-rule="nonzero"
     id="path111" />
  <path
     stroke="#000000"
     stroke-width="1.0"
     stroke-linecap="butt"
     d="M48.5 97.5L60.5 97.5"
     fill-rule="nonzero"
     id="path113" />
  <path
     stroke="#4285f4"
     stroke-width="3.0"
     stroke-linejoin="round"
     stroke-linecap="round"
     d="M117.328125 138.29688L117.828125 133.96875L122.609375 133.96875L122.609375 135.375L119.21875 135.375L119.0 137.21875Q119.609375 136.89062 120.28125 136.89062Q121.5 136.89062 122.1875 137.65625Q122.890625 138.40625 122.890625 139.76562Q122.890625 140.59375 122.53125 141.25Q122.1875 141.89062 121.53125 142.26562Q120.890625 142.625 120.0 142.625Q119.234375 142.625 118.5625 142.3125Q117.90625 141.98438 117.515625 141.42188Q117.140625 140.85938 117.109375 140.125L118.796875 140.125Q118.84375 140.65625 119.15625 140.95312Q119.484375 141.25 120.0 141.25Q120.578125 141.25 120.875 140.84375Q121.1875 140.42188 121.1875 139.67188Q121.1875 138.9375 120.828125 138.5625Q120.484375 138.17188 119.828125 138.17188Q119.21875 138.17188 118.84375 138.48438L118.6875 138.64062L117.328125 138.29688ZM128.67188 133.875L128.67188 135.28125L128.51562 135.28125Q127.359375 135.29688 126.65625 135.875Q125.96875 136.45312 125.828125 137.48438Q126.5 136.79688 127.53125 136.79688Q128.65625 136.79688 129.3125 137.59375Q129.96875 138.39062 129.96875 139.6875Q129.96875 140.51562 129.60938 141.1875Q129.25 141.85938 128.57812 142.25Q127.921875 142.625 127.09375 142.625Q125.75 142.625 124.921875 141.6875Q124.09375 140.73438 124.09375 139.17188L124.09375 138.5625Q124.09375 137.17188 124.609375 136.10938Q125.140625 135.04688 126.109375 134.46875Q127.09375 133.89062 128.39062 133.875L128.67188 133.875ZM127.015625 138.15625Q126.609375 138.15625 126.265625 138.375Q125.9375 138.57812 125.78125 138.9375L125.78125 139.45312Q125.78125 140.29688 126.109375 140.78125Q126.453125 141.25 127.0625 141.25Q127.609375 141.25 127.9375 140.82812Q128.28125 140.39062 128.28125 139.70312Q128.28125 139.0 127.9375 138.57812Q127.59375 138.15625 127.015625 138.15625Z"
     fill-rule="nonzero"
     id="path115" />
  <path
     fill="#ffffff"
     d="M117.328125 138.29688L117.828125 133.96875L122.609375 133.96875L122.609375 135.375L119.21875 135.375L119.0 137.21875Q119.609375 136.89062 120.28125 136.89062Q121.5 136.89062 122.1875 137.65625Q122.890625 138.40625 122.890625 139.76562Q122.890625 140.59375 122.53125 141.25Q122.1875 141.89062 121.53125 142.26562Q120.890625 142.625 120.0 142.625Q119.234375 142.625 118.5625 142.3125Q117.90625 141.98438 117.515625 141.42188Q117.140625 140.85938 117.109375 140.125L118.796875 140.125Q118.84375 140.65625 119.15625 140.95312Q119.484375 141.25 120.0 141.25Q120.578125 141.25 120.875 140.84375Q121.1875 140.42188 121.1875 139.67188Q121.1875 138.9375 120.828125 138.5625Q120.484375 138.17188 119.828125 138.17188Q119.21875 138.17188 118.84375 138.48438L118.6875 138.64062L117.328125 138.29688ZM128.67188 133.875L128.67188 135.28125L128.51562 135.28125Q127.359375 135.29688 126.65625 135.875Q125.96875 136.45312 125.828125 137.48438Q126.5 136.79688 127.53125 136.79688Q128.65625 136.79688 129.3125 137.59375Q129.96875 138.39062 129.96875 139.6875Q129.96875 140.51562 129.60938 141.1875Q129.25 141.85938 128.57812 142.25Q127.921875 142.625 127.09375 142.625Q125.75 142.625 124.921875 141.6875Q124.09375 140.73438 124.09375 139.17188L124.09375 138.5625Q124.09375 137.17188 124.609375 136.10938Q125.140625 135.04688 126.109375 134.46875Q127.09375 133.89062 128.39062 133.875L128.67188 133.875ZM127.015625 138.15625Q126.609375 138.15625 126.265625 138.375Q125.9375 138.57812 125.78125 138.9375L125.78125 139.45312Q125.78125 140.29688 126.109375 140.78125Q126.453125 141.25 127.0625 141.25Q127.609375 141.25 127.9375 140.82812Q128.28125 140.39062 128.28125 139.70312Q128.28125 139.0 127.9375 138.57812Q127.59375 138.15625 127.015625 138.15625Z"
     fill-rule="nonzero"
     id="path117" />
  <path
     stroke="#4285f4"
     stroke-width="3.0"
     stroke-linejoin="round"
     stroke-linecap="round"
     d="M263.79688 208.03438L264.70312 208.03438Q265.34375 208.03438 265.65625 207.72188Q265.96875 207.39375 265.96875 206.8625Q265.96875 206.34688 265.65625 206.06563Q265.35938 205.76875 264.8125 205.76875Q264.32812 205.76875 264.0 206.03438Q263.67188 206.3 263.67188 206.72188L261.98438 206.72188Q261.98438 206.06563 262.34375 205.53438Q262.70312 205.00313 263.34375 204.70625Q264.0 204.39375 264.78125 204.39375Q266.125 204.39375 266.89062 205.05Q267.67188 205.69063 267.67188 206.83125Q267.67188 207.425 267.3125 207.925Q266.95312 208.40938 266.375 208.65938Q267.09375 208.925 267.4375 209.44063Q267.79688 209.95625 267.79688 210.65938Q267.79688 211.8 266.96875 212.4875Q266.14062 213.175 264.78125 213.175Q263.5 213.175 262.6875 212.50313Q261.875 211.81563 261.875 210.70625L263.5625 210.70625Q263.5625 211.19063 263.92188 211.50313Q264.29688 211.8 264.8125 211.8Q265.42188 211.8 265.76562 211.4875Q266.10938 211.15938 266.10938 210.62813Q266.10938 209.3625 264.70312 209.3625L263.79688 209.3625L263.79688 208.03438ZM273.04688 209.64375Q272.375 210.28438 271.5 210.28438Q270.35938 210.28438 269.67188 209.51875Q269.0 208.7375 269.0 207.425Q269.0 206.58125 269.35938 205.87813Q269.73438 205.175 270.39062 204.78438Q271.04688 204.39375 271.875 204.39375Q272.71875 204.39375 273.375 204.81563Q274.03125 205.2375 274.39062 206.03438Q274.75 206.83125 274.76562 207.84688L274.76562 208.47188Q274.76562 210.6125 273.70312 211.83125Q272.64062 213.05 270.6875 213.12813L270.28125 213.12813L270.28125 211.72188L270.65625 211.70625Q272.85938 211.6125 273.04688 209.64375ZM271.90625 208.9875Q272.32812 208.9875 272.60938 208.78438Q272.90625 208.56563 273.0625 208.26875L273.0625 207.58125Q273.0625 206.72188 272.73438 206.25313Q272.40625 205.76875 271.85938 205.76875Q271.34375 205.76875 271.01562 206.2375Q270.6875 206.69063 270.6875 207.39375Q270.6875 208.09688 271.0 208.55Q271.32812 208.9875 271.90625 208.9875Z"
     fill-rule="nonzero"
     id="path119" />
  <path
     fill="#ffffff"
     d="M263.79688 208.03438L264.70312 208.03438Q265.34375 208.03438 265.65625 207.72188Q265.96875 207.39375 265.96875 206.8625Q265.96875 206.34688 265.65625 206.06563Q265.35938 205.76875 264.8125 205.76875Q264.32812 205.76875 264.0 206.03438Q263.67188 206.3 263.67188 206.72188L261.98438 206.72188Q261.98438 206.06563 262.34375 205.53438Q262.70312 205.00313 263.34375 204.70625Q264.0 204.39375 264.78125 204.39375Q266.125 204.39375 266.89062 205.05Q267.67188 205.69063 267.67188 206.83125Q267.67188 207.425 267.3125 207.925Q266.95312 208.40938 266.375 208.65938Q267.09375 208.925 267.4375 209.44063Q267.79688 209.95625 267.79688 210.65938Q267.79688 211.8 266.96875 212.4875Q266.14062 213.175 264.78125 213.175Q263.5 213.175 262.6875 212.50313Q261.875 211.81563 261.875 210.70625L263.5625 210.70625Q263.5625 211.19063 263.92188 211.50313Q264.29688 211.8 264.8125 211.8Q265.42188 211.8 265.76562 211.4875Q266.10938 211.15938 266.10938 210.62813Q266.10938 209.3625 264.70312 209.3625L263.79688 209.3625L263.79688 208.03438ZM273.04688 209.64375Q272.375 210.28438 271.5 210.28438Q270.35938 210.28438 269.67188 209.51875Q269.0 208.7375 269.0 207.425Q269.0 206.58125 269.35938 205.87813Q269.73438 205.175 270.39062 204.78438Q271.04688 204.39375 271.875 204.39375Q272.71875 204.39375 273.375 204.81563Q274.03125 205.2375 274.39062 206.03438Q274.75 206.83125 274.76562 207.84688L274.76562 208.47188Q274.76562 210.6125 273.70312 211.83125Q272.64062 213.05 270.6875 213.12813L270.28125 213.12813L270.28125 211.72188L270.65625 211.70625Q272.85938 211.6125 273.04688 209.64375ZM271.90625 208.9875Q272.32812 208.9875 272.60938 208.78438Q272.90625 208.56563 273.0625 208.26875L273.0625 207.58125Q273.0625 206.72188 272.73438 206.25313Q272.40625 205.76875 271.85938 205.76875Q271.34375 205.76875 271.01562 206.2375Q270.6875 206.69063 270.6875 207.39375Q270.6875 208.09688 271.0 208.55Q271.32812 208.9875 271.90625 208.9875Z"
     fill-rule="nonzero"
     id="path121" />
  <path
     stroke="#4285f4"
     stroke-width="3.0"
     stroke-linejoin="round"
     stroke-linecap="round"
     d="M416.14062 335.4344Q416.14062 336.0594 415.82812 336.54376Q415.51562 337.0125 414.96875 337.3094Q415.59375 337.60626 415.95312 338.1375Q416.32812 338.65314 416.32812 339.35626Q416.32812 340.4969 415.54688 341.16876Q414.78125 341.825 413.4375 341.825Q412.10938 341.825 411.32812 341.16876Q410.5625 340.4969 410.5625 339.35626Q410.5625 338.65314 410.92188 338.1219Q411.28125 337.59064 411.90625 337.3094Q411.35938 337.0125 411.04688 336.54376Q410.73438 336.0594 410.73438 335.4344Q410.73438 334.34064 411.45312 333.7Q412.1875 333.04376 413.4375 333.04376Q414.6875 333.04376 415.40625 333.7Q416.14062 334.34064 416.14062 335.4344ZM414.625 339.23126Q414.625 338.6844 414.29688 338.35626Q413.98438 338.0125 413.4375 338.0125Q412.89062 338.0125 412.5625 338.34064Q412.25 338.66876 412.25 339.23126Q412.25 339.77814 412.5625 340.1219Q412.89062 340.45 413.45312 340.45Q414.0 340.45 414.3125 340.1375Q414.625 339.8094 414.625 339.23126ZM414.45312 335.5125Q414.45312 335.0125 414.1875 334.71564Q413.92188 334.41876 413.4375 334.41876Q412.96875 334.41876 412.70312 334.71564Q412.4375 334.9969 412.4375 335.5125Q412.4375 336.02814 412.70312 336.34064Q412.96875 336.65314 413.4375 336.65314Q413.92188 336.65314 414.1875 336.34064Q414.45312 336.02814 414.45312 335.5125Z"
     fill-rule="nonzero"
     id="path123" />
  <path
     fill="#ffffff"
     d="M416.14062 335.4344Q416.14062 336.0594 415.82812 336.54376Q415.51562 337.0125 414.96875 337.3094Q415.59375 337.60626 415.95312 338.1375Q416.32812 338.65314 416.32812 339.35626Q416.32812 340.4969 415.54688 341.16876Q414.78125 341.825 413.4375 341.825Q412.10938 341.825 411.32812 341.16876Q410.5625 340.4969 410.5625 339.35626Q410.5625 338.65314 410.92188 338.1219Q411.28125 337.59064 411.90625 337.3094Q411.35938 337.0125 411.04688 336.54376Q410.73438 336.0594 410.73438 335.4344Q410.73438 334.34064 411.45312 333.7Q412.1875 333.04376 413.4375 333.04376Q414.6875 333.04376 415.40625 333.7Q416.14062 334.34064 416.14062 335.4344ZM414.625 339.23126Q414.625 338.6844 414.29688 338.35626Q413.98438 338.0125 413.4375 338.0125Q412.89062 338.0125 412.5625 338.34064Q412.25 338.66876 412.25 339.23126Q412.25 339.77814 412.5625 340.1219Q412.89062 340.45 413.45312 340.45Q414.0 340.45 414.3125 340.1375Q414.625 339.8094 414.625 339.23126ZM414.45312 335.5125Q414.45312 335.0125 414.1875 334.71564Q413.92188 334.41876 413.4375 334.41876Q412.96875 334.41876 412.70312 334.71564Q412.4375 334.9969 412.4375 335.5125Q412.4375 336.02814 412.70312 336.34064Q412.96875 336.65314 413.4375 336.65314Q413.92188 336.65314 414.1875 336.34064Q414.45312 336.02814 414.45312 335.5125Z"
     fill-rule="nonzero"
     id="path125" />
  <path
     stroke="#ffffff"
     stroke-width="3.0"
     stroke-linejoin="round"
     stroke-linecap="round"
     d="M559.6875 338.95L558.0 338.95L558.0 332.41876L555.9844 333.04376L555.9844 331.66876L559.5156 330.40314L559.6875 330.40314L559.6875 338.95Z"
     fill-rule="nonzero"
     id="path127" />
  <path
     fill="#4285f4"
     d="M559.6875 338.95L558.0 338.95L558.0 332.41876L555.9844 333.04376L555.9844 331.66876L559.5156 330.40314L559.6875 330.40314L559.6875 338.95Z"
     fill-rule="nonzero"
     id="path129" />
  <path
     stroke="#ea4335"
     stroke-width="3.0"
     stroke-linejoin="round"
     stroke-linecap="round"
     d="M169.92188 279.45L164.07812 279.45L164.07812 278.29376L166.84375 275.34064Q167.40625 274.73126 167.67188 274.2625Q167.95312 273.79376 167.95312 273.3875Q167.95312 272.8094 167.65625 272.4969Q167.375 272.16876 166.84375 272.16876Q166.26562 272.16876 165.9375 272.5594Q165.60938 272.95 165.60938 273.60626L163.90625 273.60626Q163.90625 272.825 164.28125 272.1844Q164.65625 271.52814 165.32812 271.16876Q166.01562 270.79376 166.875 270.79376Q168.1875 270.79376 168.92188 271.4344Q169.65625 272.0594 169.65625 273.21564Q169.65625 273.85626 169.32812 274.5125Q169.0 275.16876 168.20312 276.04376L166.26562 278.09064L169.92188 278.09064L169.92188 279.45ZM172.79688 274.4344L173.70312 274.4344Q174.34375 274.4344 174.65625 274.1219Q174.96875 273.79376 174.96875 273.2625Q174.96875 272.7469 174.65625 272.46564Q174.35938 272.16876 173.8125 272.16876Q173.32812 272.16876 173.0 272.4344Q172.67188 272.7 172.67188 273.1219L170.98438 273.1219Q170.98438 272.46564 171.34375 271.9344Q171.70312 271.40314 172.34375 271.10626Q173.0 270.79376 173.78125 270.79376Q175.125 270.79376 175.89062 271.45Q176.67188 272.09064 176.67188 273.23126Q176.67188 273.825 176.3125 274.325Q175.95312 274.8094 175.375 275.0594Q176.09375 275.325 176.4375 275.84064Q176.79688 276.35626 176.79688 277.0594Q176.79688 278.2 175.96875 278.8875Q175.14062 279.575 173.78125 279.575Q172.5 279.575 171.6875 278.90314Q170.875 278.21564 170.875 277.10626L172.5625 277.10626Q172.5625 277.59064 172.92188 277.90314Q173.29688 278.2 173.8125 278.2Q174.42188 278.2 174.76562 277.8875Q175.10938 277.5594 175.10938 277.02814Q175.10938 275.7625 173.70312 275.7625L172.79688 275.7625L172.79688 274.4344Z"
     fill-rule="nonzero"
     id="path131" />
  <path
     fill="#ffffff"
     d="M169.92188 279.45L164.07812 279.45L164.07812 278.29376L166.84375 275.34064Q167.40625 274.73126 167.67188 274.2625Q167.95312 273.79376 167.95312 273.3875Q167.95312 272.8094 167.65625 272.4969Q167.375 272.16876 166.84375 272.16876Q166.26562 272.16876 165.9375 272.5594Q165.60938 272.95 165.60938 273.60626L163.90625 273.60626Q163.90625 272.825 164.28125 272.1844Q164.65625 271.52814 165.32812 271.16876Q166.01562 270.79376 166.875 270.79376Q168.1875 270.79376 168.92188 271.4344Q169.65625 272.0594 169.65625 273.21564Q169.65625 273.85626 169.32812 274.5125Q169.0 275.16876 168.20312 276.04376L166.26562 278.09064L169.92188 278.09064L169.92188 279.45ZM172.79688 274.4344L173.70312 274.4344Q174.34375 274.4344 174.65625 274.1219Q174.96875 273.79376 174.96875 273.2625Q174.96875 272.7469 174.65625 272.46564Q174.35938 272.16876 173.8125 272.16876Q173.32812 272.16876 173.0 272.4344Q172.67188 272.7 172.67188 273.1219L170.98438 273.1219Q170.98438 272.46564 171.34375 271.9344Q171.70312 271.40314 172.34375 271.10626Q173.0 270.79376 173.78125 270.79376Q175.125 270.79376 175.89062 271.45Q176.67188 272.09064 176.67188 273.23126Q176.67188 273.825 176.3125 274.325Q175.95312 274.8094 175.375 275.0594Q176.09375 275.325 176.4375 275.84064Q176.79688 276.35626 176.79688 277.0594Q176.79688 278.2 175.96875 278.8875Q175.14062 279.575 173.78125 279.575Q172.5 279.575 171.6875 278.90314Q170.875 278.21564 170.875 277.10626L172.5625 277.10626Q172.5625 277.59064 172.92188 277.90314Q173.29688 278.2 173.8125 278.2Q174.42188 278.2 174.76562 277.8875Q175.10938 277.5594 175.10938 277.02814Q175.10938 275.7625 173.70312 275.7625L172.79688 275.7625L172.79688 274.4344Z"
     fill-rule="nonzero"
     id="path133" />
  <path
     stroke="#ea4335"
     stroke-width="3.0"
     stroke-linejoin="round"
     stroke-linecap="round"
     d="M314.92188 283.6L309.07812 283.6L309.07812 282.44376L311.84375 279.49063Q312.40625 278.88126 312.67188 278.4125Q312.95312 277.94376 312.95312 277.5375Q312.95312 276.95938 312.65625 276.64688Q312.375 276.31876 311.84375 276.31876Q311.26562 276.31876 310.9375 276.70938Q310.60938 277.1 310.60938 277.75626L308.90625 277.75626Q308.90625 276.975 309.28125 276.33438Q309.65625 275.67813 310.32812 275.31876Q311.01562 274.94376 311.875 274.94376Q313.1875 274.94376 313.92188 275.58438Q314.65625 276.20938 314.65625 277.36563Q314.65625 278.00626 314.32812 278.6625Q314.0 279.31876 313.20312 280.19376L311.26562 282.24063L314.92188 282.24063L314.92188 283.6ZM321.92188 283.6L316.07812 283.6L316.07812 282.44376L318.84375 279.49063Q319.40625 278.88126 319.67188 278.4125Q319.95312 277.94376 319.95312 277.5375Q319.95312 276.95938 319.65625 276.64688Q319.375 276.31876 318.84375 276.31876Q318.26562 276.31876 317.9375 276.70938Q317.60938 277.1 317.60938 277.75626L315.90625 277.75626Q315.90625 276.975 316.28125 276.33438Q316.65625 275.67813 317.32812 275.31876Q318.01562 274.94376 318.875 274.94376Q320.1875 274.94376 320.92188 275.58438Q321.65625 276.20938 321.65625 277.36563Q321.65625 278.00626 321.32812 278.6625Q321.0 279.31876 320.20312 280.19376L318.26562 282.24063L321.92188 282.24063L321.92188 283.6Z"
     fill-rule="nonzero"
     id="path135" />
  <path
     fill="#ffffff"
     d="M314.92188 283.6L309.07812 283.6L309.07812 282.44376L311.84375 279.49063Q312.40625 278.88126 312.67188 278.4125Q312.95312 277.94376 312.95312 277.5375Q312.95312 276.95938 312.65625 276.64688Q312.375 276.31876 311.84375 276.31876Q311.26562 276.31876 310.9375 276.70938Q310.60938 277.1 310.60938 277.75626L308.90625 277.75626Q308.90625 276.975 309.28125 276.33438Q309.65625 275.67813 310.32812 275.31876Q311.01562 274.94376 311.875 274.94376Q313.1875 274.94376 313.92188 275.58438Q314.65625 276.20938 314.65625 277.36563Q314.65625 278.00626 314.32812 278.6625Q314.0 279.31876 313.20312 280.19376L311.26562 282.24063L314.92188 282.24063L314.92188 283.6ZM321.92188 283.6L316.07812 283.6L316.07812 282.44376L318.84375 279.49063Q319.40625 278.88126 319.67188 278.4125Q319.95312 277.94376 319.95312 277.5375Q319.95312 276.95938 319.65625 276.64688Q319.375 276.31876 318.84375 276.31876Q318.26562 276.31876 317.9375 276.70938Q317.60938 277.1 317.60938 277.75626L315.90625 277.75626Q315.90625 276.975 316.28125 276.33438Q316.65625 275.67813 317.32812 275.31876Q318.01562 274.94376 318.875 274.94376Q320.1875 274.94376 320.92188 275.58438Q321.65625 276.20938 321.65625 277.36563Q321.65625 278.00626 321.32812 278.6625Q321.0 279.31876 320.20312 280.19376L318.26562 282.24063L321.92188 282.24063L321.92188 283.6Z"
     fill-rule="nonzero"
     id="path137" />
  <path
     stroke="#ea4335"
     stroke-width="3.0"
     stroke-linejoin="round"
     stroke-linecap="round"
     d="M462.17188 341.375L462.17188 342.78125L462.01562 342.78125Q460.85938 342.79688 460.15625 343.375Q459.46875 343.95312 459.32812 344.98438Q460.0 344.29688 461.03125 344.29688Q462.15625 344.29688 462.8125 345.09375Q463.46875 345.89062 463.46875 347.1875Q463.46875 348.01562 463.10938 348.6875Q462.75 349.35938 462.07812 349.75Q461.42188 350.125 460.59375 350.125Q459.25 350.125 458.42188 349.1875Q457.59375 348.23438 457.59375 346.67188L457.59375 346.0625Q457.59375 344.67188 458.10938 343.60938Q458.64062 342.54688 459.60938 341.96875Q460.59375 341.39062 461.89062 341.375L462.17188 341.375ZM460.51562 345.65625Q460.10938 345.65625 459.76562 345.875Q459.4375 346.07812 459.28125 346.4375L459.28125 346.95312Q459.28125 347.79688 459.60938 348.28125Q459.95312 348.75 460.5625 348.75Q461.10938 348.75 461.4375 348.32812Q461.78125 347.89062 461.78125 347.20312Q461.78125 346.5 461.4375 346.07812Q461.09375 345.65625 460.51562 345.65625Z"
     fill-rule="nonzero"
     id="path139" />
  <path
     fill="#ffffff"
     d="M462.17188 341.375L462.17188 342.78125L462.01562 342.78125Q460.85938 342.79688 460.15625 343.375Q459.46875 343.95312 459.32812 344.98438Q460.0 344.29688 461.03125 344.29688Q462.15625 344.29688 462.8125 345.09375Q463.46875 345.89062 463.46875 347.1875Q463.46875 348.01562 463.10938 348.6875Q462.75 349.35938 462.07812 349.75Q461.42188 350.125 460.59375 350.125Q459.25 350.125 458.42188 349.1875Q457.59375 348.23438 457.59375 346.67188L457.59375 346.0625Q457.59375 344.67188 458.10938 343.60938Q458.64062 342.54688 459.60938 341.96875Q460.59375 341.39062 461.89062 341.375L462.17188 341.375ZM460.51562 345.65625Q460.10938 345.65625 459.76562 345.875Q459.4375 346.07812 459.28125 346.4375L459.28125 346.95312Q459.28125 347.79688 459.60938 348.28125Q459.95312 348.75 460.5625 348.75Q461.10938 348.75 461.4375 348.32812Q461.78125 347.89062 461.78125 347.20312Q461.78125 346.5 461.4375 346.07812Q461.09375 345.65625 460.51562 345.65625Z"
     fill-rule="nonzero"
     id="path141" />
  <path
     stroke="#ffffff"
     stroke-width="3.0"
     stroke-linejoin="round"
     stroke-linecap="round"
     d="M606.6875 338.95L605.0 338.95L605.0 332.41876L602.9844 333.04376L602.9844 331.66876L606.5156 330.40314L606.6875 330.40314L606.6875 338.95Z"
     fill-rule="nonzero"
     id="path143" />
  <path
     fill="#ea4335"
     d="M606.6875 338.95L605.0 338.95L605.0 332.41876L602.9844 333.04376L602.9844 331.66876L606.5156 330.40314L606.6875 330.40314L606.6875 338.95Z"
     fill-rule="nonzero"
     id="path145" />
  <path
     fill="#000000"
     d="M330.45312 413.1L330.45312 404.50626L336.65625 404.50626L336.65625 405.52188L331.59375 405.52188L331.59375 408.14688L336.34375 408.14688L336.34375 409.1625L331.59375 409.1625L331.59375 412.08438L336.85938 412.08438L336.85938 413.1L330.45312 413.1ZM338.04688 410.33438L339.10938 410.24063Q339.1875 410.89688 339.46875 411.30313Q339.75 411.70938 340.32812 411.975Q340.92188 412.225 341.65625 412.225Q342.29688 412.225 342.79688 412.0375Q343.29688 411.83438 343.53125 411.50626Q343.78125 411.1625 343.78125 410.77188Q343.78125 410.36563 343.54688 410.06876Q343.3125 409.75626 342.78125 409.55313Q342.42188 409.4125 341.23438 409.13126Q340.0625 408.85 339.59375 408.6Q338.96875 408.27188 338.67188 407.80313Q338.375 407.31876 338.375 406.725Q338.375 406.08438 338.73438 405.52188Q339.10938 404.94376 339.8125 404.6625Q340.53125 404.36563 341.39062 404.36563Q342.34375 404.36563 343.07812 404.67813Q343.8125 404.975 344.20312 405.58438Q344.59375 406.17813 344.625 406.92813L343.53125 407.00626Q343.4375 406.19376 342.92188 405.7875Q342.42188 405.36563 341.4375 405.36563Q340.40625 405.36563 339.9375 405.74063Q339.46875 406.11563 339.46875 406.64688Q339.46875 407.11563 339.79688 407.4125Q340.125 407.70938 341.5 408.02188Q342.89062 408.33438 343.40625 408.56876Q344.15625 408.92813 344.51562 409.45938Q344.875 409.975 344.875 410.67813Q344.875 411.36563 344.48438 411.975Q344.09375 412.56876 343.35938 412.9125Q342.625 413.24063 341.70312 413.24063Q340.53125 413.24063 339.73438 412.9125Q338.95312 412.56876 338.5 411.88126Q338.0625 411.19376 338.04688 410.33438ZM348.60938 413.1L348.60938 405.52188L345.78125 405.52188L345.78125 404.50626L352.59375 404.50626L352.59375 405.52188L349.75 405.52188L349.75 413.1L348.60938 413.1ZM352.48438 413.1L355.78125 404.50626L357.0 404.50626L360.51562 413.1L359.23438 413.1L358.21875 410.49063L354.64062 410.49063L353.6875 413.1L352.48438 413.1ZM354.96875 409.56876L357.875 409.56876L356.98438 407.19376Q356.5625 406.11563 356.375 405.4125Q356.20312 406.24063 355.90625 407.05313L354.96875 409.56876ZM361.42188 413.1L361.42188 404.50626L364.39062 404.50626Q365.39062 404.50626 365.92188 404.63126Q366.65625 404.80313 367.17188 405.24063Q367.85938 405.81876 368.1875 406.725Q368.53125 407.61563 368.53125 408.75626Q368.53125 409.74063 368.29688 410.49063Q368.07812 411.24063 367.71875 411.74063Q367.35938 412.24063 366.92188 412.52188Q366.5 412.80313 365.90625 412.95938Q365.3125 413.1 364.53125 413.1L361.42188 413.1ZM362.5625 412.08438L364.39062 412.08438Q365.25 412.08438 365.73438 411.92813Q366.21875 411.77188 366.5 411.475Q366.90625 411.08438 367.125 410.39688Q367.35938 409.70938 367.35938 408.74063Q367.35938 407.39688 366.90625 406.67813Q366.46875 405.94376 365.84375 405.69376Q365.375 405.52188 364.375 405.52188L362.5625 405.52188L362.5625 412.08438ZM370.07812 408.9125Q370.07812 406.77188 371.21875 405.56876Q372.375 404.35 374.1875 404.35Q375.39062 404.35 376.34375 404.92813Q377.29688 405.49063 377.79688 406.50626Q378.29688 407.52188 378.29688 408.81876Q378.29688 410.11563 377.76562 411.14688Q377.23438 412.17813 376.26562 412.70938Q375.3125 413.24063 374.1875 413.24063Q372.96875 413.24063 372.01562 412.6625Q371.0625 412.06876 370.5625 411.06876Q370.07812 410.05313 370.07812 408.9125ZM371.25 408.92813Q371.25 410.49063 372.07812 411.38126Q372.92188 412.27188 374.1875 412.27188Q375.46875 412.27188 376.29688 411.38126Q377.125 410.475 377.125 408.80313Q377.125 407.75626 376.76562 406.975Q376.42188 406.19376 375.73438 405.77188Q375.04688 405.33438 374.20312 405.33438Q373.0 405.33438 372.125 406.1625Q371.25 406.99063 371.25 408.92813ZM388.5625 410.08438L389.6875 410.38126Q389.32812 411.77188 388.40625 412.50626Q387.48438 413.24063 386.14062 413.24063Q384.75 413.24063 383.875 412.67813Q383.0 412.11563 382.54688 411.05313Q382.09375 409.975 382.09375 408.74063Q382.09375 407.39688 382.60938 406.39688Q383.125 405.39688 384.0625 404.88126Q385.01562 404.36563 386.15625 404.36563Q387.4375 404.36563 388.3125 405.02188Q389.20312 405.67813 389.54688 406.86563L388.42188 407.13126Q388.125 406.19376 387.54688 405.77188Q386.98438 405.33438 386.125 405.33438Q385.14062 405.33438 384.46875 405.81876Q383.8125 406.2875 383.53125 407.08438Q383.26562 407.88126 383.26562 408.74063Q383.26562 409.83438 383.57812 410.64688Q383.90625 411.45938 384.57812 411.86563Q385.25 412.27188 386.04688 412.27188Q387.0 412.27188 387.65625 411.725Q388.32812 411.17813 388.5625 410.08438ZM391.625 413.1L391.625 404.50626L392.75 404.50626L392.75 413.1L391.625 413.1ZM396.875 413.1L393.54688 404.50626L394.78125 404.50626L397.01562 410.75626Q397.28125 411.50626 397.46875 412.1625Q397.67188 411.45938 397.9375 410.75626L400.25 404.50626L401.40625 404.50626L398.04688 413.1L396.875 413.1ZM402.625 413.1L402.625 404.50626L403.75 404.50626L403.75 413.1L402.625 413.1ZM405.375 413.1L405.375 404.50626L406.51562 404.50626L406.51562 412.08438L410.75 412.08438L410.75 413.1L405.375 413.1Z"
     fill-rule="nonzero"
     id="path147" />
  <path
     fill="#000000"
     d="M39.196877 341.475Q40.446877 341.475 41.15 342.36563Q41.978127 343.4125 41.978127 345.86563Q41.978127 348.30313 41.134377 349.36563Q40.446877 350.24063 39.196877 350.24063Q37.946877 350.24063 37.165627 349.2875Q36.4 348.31876 36.4 345.85Q36.4 343.4125 37.24375 342.35Q37.946877 341.475 39.196877 341.475ZM39.196877 342.83438Q38.9 342.83438 38.665627 343.0375Q38.43125 343.225 38.290627 343.70938Q38.134377 344.35 38.134377 345.86563Q38.134377 347.38126 38.275 347.94376Q38.43125 348.50626 38.665627 348.69376Q38.9 348.88126 39.196877 348.88126Q39.49375 348.88126 39.728127 348.69376Q39.9625 348.50626 40.0875 348.00626Q40.259377 347.38126 40.259377 345.86563Q40.259377 344.35 40.103127 343.7875Q39.9625 343.225 39.728127 343.0375Q39.49375 342.83438 39.196877 342.83438Z"
     fill-rule="nonzero"
     id="path149" />
  <path
     fill="#000000"
     d="M34.978127 265.56876L34.978127 267.1L29.196875 267.1Q29.290625 266.225 29.759375 265.45938Q30.228125 264.67813 31.61875 263.39688Q32.728127 262.36563 32.978127 261.99063Q33.321877 261.475 33.321877 260.975Q33.321877 260.42813 33.025 260.13126Q32.728127 259.83438 32.2125 259.83438Q31.696875 259.83438 31.384375 260.14688Q31.0875 260.45938 31.040625 261.17813L29.4 261.02188Q29.540625 259.6625 30.30625 259.06876Q31.0875 258.475 32.24375 258.475Q33.525 258.475 34.24375 259.1625Q34.978127 259.85 34.978127 260.86563Q34.978127 261.44376 34.759377 261.975Q34.55625 262.49063 34.103127 263.06876Q33.80625 263.44376 33.025 264.1625Q32.24375 264.88126 32.040627 265.11563Q31.8375 265.35 31.696875 265.56876L34.978127 265.56876ZM39.196877 258.475Q40.446877 258.475 41.15 259.36563Q41.978127 260.4125 41.978127 262.86563Q41.978127 265.30313 41.134377 266.36563Q40.446877 267.24063 39.196877 267.24063Q37.946877 267.24063 37.165627 266.2875Q36.4 265.31876 36.4 262.85Q36.4 260.4125 37.24375 259.35Q37.946877 258.475 39.196877 258.475ZM39.196877 259.83438Q38.9 259.83438 38.665627 260.0375Q38.43125 260.225 38.290627 260.70938Q38.134377 261.35 38.134377 262.86563Q38.134377 264.38126 38.275 264.94376Q38.43125 265.50626 38.665627 265.69376Q38.9 265.88126 39.196877 265.88126Q39.49375 265.88126 39.728127 265.69376Q39.9625 265.50626 40.0875 265.00626Q40.259377 264.38126 40.259377 262.86563Q40.259377 261.35 40.103127 260.7875Q39.9625 260.225 39.728127 260.0375Q39.49375 259.83438 39.196877 259.83438Z"
     fill-rule="nonzero"
     id="path151" />
  <path
     fill="#000000"
     d="M32.634377 184.1L32.634377 182.36563L29.11875 182.36563L29.11875 180.92813L32.853127 175.475L34.228127 175.475L34.228127 180.92813L35.30625 180.92813L35.30625 182.36563L34.228127 182.36563L34.228127 184.1L32.634377 184.1ZM32.634377 180.92813L32.634377 177.99063L30.665625 180.92813L32.634377 180.92813ZM39.196877 175.475Q40.446877 175.475 41.15 176.36563Q41.978127 177.4125 41.978127 179.86563Q41.978127 182.30313 41.134377 183.36563Q40.446877 184.24063 39.196877 184.24063Q37.946877 184.24063 37.165627 183.2875Q36.4 182.31876 36.4 179.85Q36.4 177.4125 37.24375 176.35Q37.946877 175.475 39.196877 175.475ZM39.196877 176.83438Q38.9 176.83438 38.665627 177.0375Q38.43125 177.225 38.290627 177.70938Q38.134377 178.35 38.134377 179.86563Q38.134377 181.38126 38.275 181.94376Q38.43125 182.50626 38.665627 182.69376Q38.9 182.88126 39.196877 182.88126Q39.49375 182.88126 39.728127 182.69376Q39.9625 182.50626 40.0875 182.00626Q40.259377 181.38126 40.259377 179.86563Q40.259377 178.35 40.103127 177.7875Q39.9625 177.225 39.728127 177.0375Q39.49375 176.83438 39.196877 176.83438Z"
     fill-rule="nonzero"
     id="path153" />
  <path
     fill="#000000"
     d="M34.99375 94.61562L33.4 94.7875Q33.3375 94.30312 33.0875 94.06875Q32.8375 93.83437 32.446877 93.83437Q31.93125 93.83437 31.571875 94.30312Q31.2125 94.77187 31.11875 96.24062Q31.728125 95.52187 32.65 95.52187Q33.68125 95.52187 34.415627 96.30312Q35.15 97.08437 35.15 98.33437Q35.15 99.64687 34.36875 100.44375Q33.603127 101.24062 32.384377 101.24062Q31.0875 101.24062 30.24375 100.24062Q29.415625 99.225 29.415625 96.92812Q29.415625 94.55312 30.275 93.52187Q31.15 92.475 32.55625 92.475Q33.525 92.475 34.165627 93.02187Q34.80625 93.56875 34.99375 94.61562ZM31.259375 98.20937Q31.259375 99.00625 31.61875 99.44375Q31.99375 99.88125 32.4625 99.88125Q32.93125 99.88125 33.228127 99.52187Q33.540627 99.1625 33.540627 98.35Q33.540627 97.50625 33.2125 97.13125Q32.884377 96.74062 32.384377 96.74062Q31.915625 96.74062 31.5875 97.11562Q31.259375 97.475 31.259375 98.20937ZM39.196877 92.475Q40.446877 92.475 41.15 93.36562Q41.978127 94.4125 41.978127 96.86562Q41.978127 99.30312 41.134377 100.36562Q40.446877 101.24062 39.196877 101.24062Q37.946877 101.24062 37.165627 100.2875Q36.4 99.31875 36.4 96.85Q36.4 94.4125 37.24375 93.35Q37.946877 92.475 39.196877 92.475ZM39.196877 93.83437Q38.9 93.83437 38.665627 94.0375Q38.43125 94.225 38.290627 94.70937Q38.134377 95.35 38.134377 96.86562Q38.134377 98.38125 38.275 98.94375Q38.43125 99.50625 38.665627 99.69375Q38.9 99.88125 39.196877 99.88125Q39.49375 99.88125 39.728127 99.69375Q39.9625 99.50625 40.0875 99.00625Q40.259377 98.38125 40.259377 96.86562Q40.259377 95.35 40.103127 94.7875Q39.9625 94.225 39.728127 94.0375Q39.49375 93.83437 39.196877 93.83437Z"
     fill-rule="nonzero"
     id="path155" />
  <path
     fill="#000000"
     d="M122.79795 378.25626Q122.7042 379.63126 121.782326 380.42813Q120.876076 381.225 119.376076 381.225Q117.73545 381.225 116.782326 380.11563Q115.844826 379.00626 115.844826 377.08438L115.844826 376.55313Q115.844826 375.33438 116.282326 374.39688Q116.719826 373.45938 117.5167 372.95938Q118.3292 372.44376 119.3917 372.44376Q120.876076 372.44376 121.7667 373.24063Q122.67295 374.0375 122.813576 375.45938L121.063576 375.45938Q121.001076 374.63126 120.594826 374.27188Q120.2042 373.89688 119.3917 373.89688Q118.5167 373.89688 118.0792 374.52188Q117.6417 375.14688 117.626076 376.475L117.626076 377.11563Q117.626076 378.50626 118.04795 379.14688Q118.469826 379.7875 119.376076 379.7875Q120.188576 379.7875 120.5792 379.4125Q120.98545 379.0375 121.04795 378.25626L122.79795 378.25626ZM128.92294 379.33438L125.844826 379.33438L125.251076 381.1L123.3917 381.1L126.563576 372.56876L128.18857 372.56876L131.3917 381.1L129.5167 381.1L128.92294 379.33438ZM126.313576 377.9125L128.4542 377.9125L127.376076 374.725L126.313576 377.9125ZM136.53232 378.86563Q136.53232 378.36563 136.17294 378.1Q135.8292 377.83438 134.90732 377.5375Q134.00107 377.24063 133.46982 376.94376Q132.0167 376.1625 132.0167 374.83438Q132.0167 374.14688 132.40732 373.6Q132.79794 373.05313 133.5167 372.75626Q134.25107 372.44376 135.15732 372.44376Q136.0792 372.44376 136.78232 372.7875Q137.50107 373.11563 137.8917 373.725Q138.29794 374.31876 138.29794 375.08438L136.53232 375.08438Q136.53232 374.50626 136.15732 374.17813Q135.79794 373.85 135.12607 373.85Q134.48544 373.85 134.12607 374.13126Q133.7667 374.39688 133.7667 374.83438Q133.7667 375.25626 134.18857 375.5375Q134.61044 375.81876 135.42294 376.06876Q136.92294 376.52188 137.61044 377.19376Q138.29794 377.85 138.29794 378.85Q138.29794 379.95938 137.4542 380.6Q136.62607 381.225 135.2042 381.225Q134.21982 381.225 133.40732 380.86563Q132.59482 380.49063 132.17294 379.86563Q131.75107 379.24063 131.75107 378.4125L133.5167 378.4125Q133.5167 379.83438 135.2042 379.83438Q135.8292 379.83438 136.17294 379.58438Q136.53232 379.31876 136.53232 378.86563ZM143.92294 379.33438L140.84482 379.33438L140.25107 381.1L138.3917 381.1L141.56357 372.56876L143.18857 372.56876L146.3917 381.1L144.5167 381.1L143.92294 379.33438ZM141.31357 377.9125L143.4542 377.9125L142.37607 374.725L141.31357 377.9125ZM147.11044 381.1L147.11044 372.56876L149.73544 372.56876Q150.86044 372.56876 151.73544 373.08438Q152.62607 373.58438 153.12607 374.52188Q153.62607 375.44376 153.62607 376.64688L153.62607 377.0375Q153.62607 378.225 153.1417 379.14688Q152.65732 380.06876 151.7667 380.58438Q150.87607 381.1 149.75107 381.1L147.11044 381.1ZM148.86044 373.99063L148.86044 379.69376L149.71982 379.69376Q150.75107 379.69376 151.28232 379.02188Q151.8292 378.33438 151.84482 377.08438L151.84482 376.63126Q151.84482 375.33438 151.29794 374.6625Q150.7667 373.99063 149.73544 373.99063L148.86044 373.99063ZM162.11044 377.02188Q162.11044 378.2875 161.65732 379.24063Q161.21982 380.17813 160.3917 380.70938Q159.56357 381.225 158.50107 381.225Q157.43857 381.225 156.59482 380.70938Q155.7667 380.19376 155.31357 379.25626Q154.86044 378.30313 154.84482 377.06876L154.84482 376.64688Q154.84482 375.39688 155.29794 374.44376Q155.75107 373.475 156.5792 372.95938Q157.42294 372.44376 158.48544 372.44376Q159.54794 372.44376 160.37607 372.95938Q161.2042 373.475 161.65732 374.44376Q162.11044 375.39688 162.11044 376.64688L162.11044 377.02188ZM160.3292 376.64688Q160.3292 375.30313 159.84482 374.6Q159.37607 373.89688 158.48544 373.89688Q157.59482 373.89688 157.11044 374.6Q156.6417 375.2875 156.62607 376.61563L156.62607 377.02188Q156.62607 378.33438 157.11044 379.05313Q157.59482 379.77188 158.50107 379.77188Q159.37607 379.77188 159.84482 379.08438Q160.3292 378.38126 160.3292 377.05313L160.3292 376.64688ZM163.0792 377.63126Q163.0792 376.2875 163.42294 375.08438Q163.78232 373.86563 164.48544 372.92813Q165.18857 371.99063 166.00107 371.63126L166.3292 372.5375Q165.46982 373.17813 164.98544 374.50626Q164.50107 375.81876 164.50107 377.6L164.50107 377.77188Q164.50107 379.55313 164.96982 380.88126Q165.4542 382.20938 166.3292 382.86563L166.00107 383.77188Q165.2042 383.4125 164.5167 382.50626Q163.8292 381.6 163.4542 380.4125Q163.09482 379.225 163.0792 377.94376L163.0792 377.63126ZM171.92294 379.33438L168.84482 379.33438L168.25107 381.1L166.3917 381.1L169.56357 372.56876L171.18857 372.56876L174.3917 381.1L172.5167 381.1L171.92294 379.33438ZM169.31357 377.9125L171.4542 377.9125L170.37607 374.725L169.31357 377.9125ZM177.90732 377.77188Q177.90732 379.08438 177.53232 380.31876Q177.15732 381.5375 176.43857 382.475Q175.71982 383.4125 174.90732 383.77188L174.5792 382.86563Q175.40732 382.24063 175.8917 380.94376Q176.37607 379.63126 176.3917 377.92813L176.3917 377.61563Q176.3917 375.86563 175.90732 374.5375Q175.43857 373.19376 174.5792 372.52188L174.90732 371.63126Q175.7042 371.975 176.40732 372.88126Q177.11044 373.7875 177.50107 375.00626Q177.8917 376.20938 177.90732 377.50626L177.90732 377.77188Z"
     fill-rule="nonzero"
     id="path157" />
  <path
     fill="#000000"
     d="M261.13577 378.86563Q261.13577 378.36563 260.7764 378.1Q260.43265 377.83438 259.51077 377.5375Q258.60452 377.24063 258.07327 376.94376Q256.62015 376.1625 256.62015 374.83438Q256.62015 374.14688 257.01077 373.6Q257.4014 373.05313 258.12015 372.75626Q258.85452 372.44376 259.76077 372.44376Q260.68265 372.44376 261.38577 372.7875Q262.10452 373.11563 262.49515 373.725Q262.9014 374.31876 262.9014 375.08438L261.13577 375.08438Q261.13577 374.50626 260.76077 374.17813Q260.4014 373.85 259.72952 373.85Q259.0889 373.85 258.72952 374.13126Q258.37015 374.39688 258.37015 374.83438Q258.37015 375.25626 258.79202 375.5375Q259.2139 375.81876 260.0264 376.06876Q261.5264 376.52188 262.2139 377.19376Q262.9014 377.85 262.9014 378.85Q262.9014 379.95938 262.05765 380.6Q261.22952 381.225 259.80765 381.225Q258.82327 381.225 258.01077 380.86563Q257.19827 380.49063 256.7764 379.86563Q256.35452 379.24063 256.35452 378.4125L258.12015 378.4125Q258.12015 379.83438 259.80765 379.83438Q260.43265 379.83438 260.7764 379.58438Q261.13577 379.31876 261.13577 378.86563ZM270.7139 377.02188Q270.7139 378.2875 270.26077 379.24063Q269.82327 380.17813 268.99515 380.70938Q268.16702 381.225 267.10452 381.225Q266.04202 381.225 265.19827 380.70938Q264.37015 380.19376 263.91702 379.25626Q263.4639 378.30313 263.44827 377.06876L263.44827 376.64688Q263.44827 375.39688 263.9014 374.44376Q264.35452 373.475 265.18265 372.95938Q266.0264 372.44376 267.0889 372.44376Q268.1514 372.44376 268.97952 372.95938Q269.80765 373.475 270.26077 374.44376Q270.7139 375.39688 270.7139 376.64688L270.7139 377.02188ZM268.93265 376.64688Q268.93265 375.30313 268.44827 374.6Q267.97952 373.89688 267.0889 373.89688Q266.19827 373.89688 265.7139 374.6Q265.24515 375.2875 265.22952 376.61563L265.22952 377.02188Q265.22952 378.33438 265.7139 379.05313Q266.19827 379.77188 267.10452 379.77188Q267.97952 379.77188 268.44827 379.08438Q268.93265 378.38126 268.93265 377.05313L268.93265 376.64688ZM273.4639 379.69376L277.19827 379.69376L277.19827 381.1L271.7139 381.1L271.7139 372.56876L273.4639 372.56876L273.4639 379.69376ZM285.13577 373.99063L282.5264 373.99063L282.5264 381.1L280.76077 381.1L280.76077 373.99063L278.18265 373.99063L278.18265 372.56876L285.13577 372.56876L285.13577 373.99063ZM290.8389 377.39688L287.4639 377.39688L287.4639 379.69376L291.43265 379.69376L291.43265 381.1L285.7139 381.1L285.7139 372.56876L291.41702 372.56876L291.41702 373.99063L287.4639 373.99063L287.4639 376.02188L290.8389 376.02188L290.8389 377.39688ZM294.57327 381.1L292.82327 381.1L292.82327 372.56876L294.57327 372.56876L294.57327 381.1ZM299.87015 377.975L298.4639 377.975L298.4639 381.1L296.7139 381.1L296.7139 372.56876L299.88577 372.56876Q301.38577 372.56876 302.19827 373.24063Q303.0264 373.9125 303.0264 375.14688Q303.0264 376.02188 302.6514 376.6Q302.2764 377.17813 301.51077 377.5375L303.35452 381.02188L303.35452 381.1L301.4639 381.1L299.87015 377.975ZM298.4639 376.55313L299.88577 376.55313Q300.54202 376.55313 300.9014 376.225Q301.2764 375.88126 301.2764 375.2875Q301.2764 374.67813 300.93265 374.33438Q300.5889 373.99063 299.88577 373.99063L298.4639 373.99063L298.4639 376.55313ZM311.7139 377.02188Q311.7139 378.2875 311.26077 379.24063Q310.82327 380.17813 309.99515 380.70938Q309.16702 381.225 308.10452 381.225Q307.04202 381.225 306.19827 380.70938Q305.37015 380.19376 304.91702 379.25626Q304.4639 378.30313 304.44827 377.06876L304.44827 376.64688Q304.44827 375.39688 304.9014 374.44376Q305.35452 373.475 306.18265 372.95938Q307.0264 372.44376 308.0889 372.44376Q309.1514 372.44376 309.97952 372.95938Q310.80765 373.475 311.26077 374.44376Q311.7139 375.39688 311.7139 376.64688L311.7139 377.02188ZM309.93265 376.64688Q309.93265 375.30313 309.44827 374.6Q308.97952 373.89688 308.0889 373.89688Q307.19827 373.89688 306.7139 374.6Q306.24515 375.2875 306.22952 376.61563L306.22952 377.02188Q306.22952 378.33438 306.7139 379.05313Q307.19827 379.77188 308.10452 379.77188Q308.97952 379.77188 309.44827 379.08438Q309.93265 378.38126 309.93265 377.05313L309.93265 376.64688ZM312.68265 377.63126Q312.68265 376.2875 313.0264 375.08438Q313.38577 373.86563 314.0889 372.92813Q314.79202 371.99063 315.60452 371.63126L315.93265 372.5375Q315.07327 373.17813 314.5889 374.50626Q314.10452 375.81876 314.10452 377.6L314.10452 377.77188Q314.10452 379.55313 314.57327 380.88126Q315.05765 382.20938 315.93265 382.86563L315.60452 383.77188Q314.80765 383.4125 314.12015 382.50626Q313.43265 381.6 313.05765 380.4125Q312.69827 379.225 312.68265 377.94376L312.68265 377.63126ZM321.5264 379.33438L318.44827 379.33438L317.85452 381.1L315.99515 381.1L319.16702 372.56876L320.79202 372.56876L323.99515 381.1L322.12015 381.1L321.5264 379.33438ZM318.91702 377.9125L321.05765 377.9125L319.97952 374.725L318.91702 377.9125ZM327.51077 377.77188Q327.51077 379.08438 327.13577 380.31876Q326.76077 381.5375 326.04202 382.475Q325.32327 383.4125 324.51077 383.77188L324.18265 382.86563Q325.01077 382.24063 325.49515 380.94376Q325.97952 379.63126 325.99515 377.92813L325.99515 377.61563Q325.99515 375.86563 325.51077 374.5375Q325.04202 373.19376 324.18265 372.52188L324.51077 371.63126Q325.30765 371.975 326.01077 372.88126Q326.7139 373.7875 327.10452 375.00626Q327.49515 376.20938 327.51077 377.50626L327.51077 377.77188Z"
     fill-rule="nonzero"
     id="path159" />
  <path
     fill="#000000"
     d="M393.81735 381.1L393.81735 372.56876L396.44235 372.56876Q397.56735 372.56876 398.44235 373.08438Q399.33298 373.58438 399.83298 374.52188Q400.33298 375.44376 400.33298 376.64688L400.33298 377.0375Q400.33298 378.225 399.8486 379.14688Q399.36423 380.06876 398.4736 380.58438Q397.58298 381.1 396.45798 381.1L393.81735 381.1ZM395.56735 373.99063L395.56735 379.69376L396.42673 379.69376Q397.45798 379.69376 397.98923 379.02188Q398.5361 378.33438 398.55173 377.08438L398.55173 376.63126Q398.55173 375.33438 398.00485 374.6625Q397.4736 373.99063 396.44235 373.99063L395.56735 373.99063ZM403.67673 381.1L401.92673 381.1L401.92673 372.56876L403.67673 372.56876L403.67673 381.1ZM408.9736 378.99063L410.89548 372.56876L412.86423 372.56876L409.87985 381.1L408.05173 381.1L405.0986 372.56876L407.05173 372.56876L408.9736 378.99063ZM420.81735 377.02188Q420.81735 378.2875 420.36423 379.24063Q419.92673 380.17813 419.0986 380.70938Q418.27048 381.225 417.20798 381.225Q416.14548 381.225 415.30173 380.70938Q414.4736 380.19376 414.02048 379.25626Q413.56735 378.30313 413.55173 377.06876L413.55173 376.64688Q413.55173 375.39688 414.00485 374.44376Q414.45798 373.475 415.2861 372.95938Q416.12985 372.44376 417.19235 372.44376Q418.25485 372.44376 419.08298 372.95938Q419.9111 373.475 420.36423 374.44376Q420.81735 375.39688 420.81735 376.64688L420.81735 377.02188ZM419.0361 376.64688Q419.0361 375.30313 418.55173 374.6Q418.08298 373.89688 417.19235 373.89688Q416.30173 373.89688 415.81735 374.6Q415.3486 375.2875 415.33298 376.61563L415.33298 377.02188Q415.33298 378.33438 415.81735 379.05313Q416.30173 379.77188 417.20798 379.77188Q418.08298 379.77188 418.55173 379.08438Q419.0361 378.38126 419.0361 377.05313L419.0361 376.64688ZM424.9736 377.975L423.56735 377.975L423.56735 381.1L421.81735 381.1L421.81735 372.56876L424.98923 372.56876Q426.48923 372.56876 427.30173 373.24063Q428.12985 373.9125 428.12985 375.14688Q428.12985 376.02188 427.75485 376.6Q427.37985 377.17813 426.61423 377.5375L428.45798 381.02188L428.45798 381.1L426.56735 381.1L424.9736 377.975ZM423.56735 376.55313L424.98923 376.55313Q425.64548 376.55313 426.00485 376.225Q426.37985 375.88126 426.37985 375.2875Q426.37985 374.67813 426.0361 374.33438Q425.69235 373.99063 424.98923 373.99063L423.56735 373.99063L423.56735 376.55313ZM436.50485 378.25626Q436.4111 379.63126 435.48923 380.42813Q434.58298 381.225 433.08298 381.225Q431.44235 381.225 430.48923 380.11563Q429.55173 379.00626 429.55173 377.08438L429.55173 376.55313Q429.55173 375.33438 429.98923 374.39688Q430.42673 373.45938 431.2236 372.95938Q432.0361 372.44376 433.0986 372.44376Q434.58298 372.44376 435.4736 373.24063Q436.37985 374.0375 436.52048 375.45938L434.77048 375.45938Q434.70798 374.63126 434.30173 374.27188Q433.9111 373.89688 433.0986 373.89688Q432.2236 373.89688 431.7861 374.52188Q431.3486 375.14688 431.33298 376.475L431.33298 377.11563Q431.33298 378.50626 431.75485 379.14688Q432.17673 379.7875 433.08298 379.7875Q433.89548 379.7875 434.2861 379.4125Q434.69235 379.0375 434.75485 378.25626L436.50485 378.25626ZM439.67673 381.1L437.92673 381.1L437.92673 372.56876L439.67673 372.56876L439.67673 381.1ZM446.62985 379.33438L443.55173 379.33438L442.95798 381.1L441.0986 381.1L444.27048 372.56876L445.89548 372.56876L449.0986 381.1L447.2236 381.1L446.62985 379.33438ZM444.02048 377.9125L446.1611 377.9125L445.08298 374.725L444.02048 377.9125ZM449.81735 381.1L449.81735 372.56876L452.44235 372.56876Q453.56735 372.56876 454.44235 373.08438Q455.33298 373.58438 455.83298 374.52188Q456.33298 375.44376 456.33298 376.64688L456.33298 377.0375Q456.33298 378.225 455.8486 379.14688Q455.36423 380.06876 454.4736 380.58438Q453.58298 381.1 452.45798 381.1L449.81735 381.1ZM451.56735 373.99063L451.56735 379.69376L452.42673 379.69376Q453.45798 379.69376 453.98923 379.02188Q454.5361 378.33438 454.55173 377.08438L454.55173 376.63126Q454.55173 375.33438 454.00485 374.6625Q453.4736 373.99063 452.44235 373.99063L451.56735 373.99063ZM464.81735 377.02188Q464.81735 378.2875 464.36423 379.24063Q463.92673 380.17813 463.0986 380.70938Q462.27048 381.225 461.20798 381.225Q460.14548 381.225 459.30173 380.70938Q458.4736 380.19376 458.02048 379.25626Q457.56735 378.30313 457.55173 377.06876L457.55173 376.64688Q457.55173 375.39688 458.00485 374.44376Q458.45798 373.475 459.2861 372.95938Q460.12985 372.44376 461.19235 372.44376Q462.25485 372.44376 463.08298 372.95938Q463.9111 373.475 464.36423 374.44376Q464.81735 375.39688 464.81735 376.64688L464.81735 377.02188ZM463.0361 376.64688Q463.0361 375.30313 462.55173 374.6Q462.08298 373.89688 461.19235 373.89688Q460.30173 373.89688 459.81735 374.6Q459.3486 375.2875 459.33298 376.61563L459.33298 377.02188Q459.33298 378.33438 459.81735 379.05313Q460.30173 379.77188 461.20798 379.77188Q462.08298 379.77188 462.55173 379.08438Q463.0361 378.38126 463.0361 377.05313L463.0361 376.64688ZM465.7861 377.63126Q465.7861 376.2875 466.12985 375.08438Q466.48923 373.86563 467.19235 372.92813Q467.89548 371.99063 468.70798 371.63126L469.0361 372.5375Q468.17673 373.17813 467.69235 374.50626Q467.20798 375.81876 467.20798 377.6L467.20798 377.77188Q467.20798 379.55313 467.67673 380.88126Q468.1611 382.20938 469.0361 382.86563L468.70798 383.77188Q467.9111 383.4125 467.2236 382.50626Q466.5361 381.6 466.1611 380.4125Q465.80173 379.225 465.7861 377.94376L465.7861 377.63126ZM474.62985 379.33438L471.55173 379.33438L470.95798 381.1L469.0986 381.1L472.27048 372.56876L473.89548 372.56876L477.0986 381.1L475.2236 381.1L474.62985 379.33438ZM472.02048 377.9125L474.1611 377.9125L473.08298 374.725L472.02048 377.9125ZM480.61423 377.77188Q480.61423 379.08438 480.23923 380.31876Q479.86423 381.5375 479.14548 382.475Q478.42673 383.4125 477.61423 383.77188L477.2861 382.86563Q478.11423 382.24063 478.5986 380.94376Q479.08298 379.63126 479.0986 377.92813L479.0986 377.61563Q479.0986 375.86563 478.61423 374.5375Q478.14548 373.19376 477.2861 372.52188L477.61423 371.63126Q478.4111 371.975 479.11423 372.88126Q479.81735 373.7875 480.20798 375.00626Q480.5986 376.20938 480.61423 377.50626L480.61423 377.77188Z"
     fill-rule="nonzero"
     id="path161" />
  <path
     fill="#000000"
     d="M560.077 378.99063L561.9989 372.56876L563.96765 372.56876L560.9833 381.1L559.15515 381.1L556.202 372.56876L558.15515 372.56876L560.077 378.99063ZM566.78015 381.1L565.03015 381.1L565.03015 372.56876L566.78015 372.56876L566.78015 381.1ZM575.3739 372.56876L575.3739 378.19376Q575.3739 379.58438 574.4989 380.4125Q573.6239 381.225 572.1083 381.225Q570.6083 381.225 569.7333 380.42813Q568.8583 379.63126 568.84265 378.25626L568.84265 372.56876L570.59265 372.56876L570.59265 378.19376Q570.59265 379.0375 570.9833 379.42813Q571.3895 379.80313 572.1083 379.80313Q573.59265 379.80313 573.6083 378.24063L573.6083 372.56876L575.3739 372.56876ZM572.90515 370.1L574.7489 370.1L573.1239 371.9125L571.7489 371.9125L572.90515 370.1ZM580.077 378.99063L581.9989 372.56876L583.96765 372.56876L580.9833 381.1L579.15515 381.1L576.202 372.56876L578.15515 372.56876L580.077 378.99063ZM591.9208 377.02188Q591.9208 378.2875 591.46765 379.24063Q591.03015 380.17813 590.202 380.70938Q589.3739 381.225 588.3114 381.225Q587.2489 381.225 586.40515 380.70938Q585.577 380.19376 585.1239 379.25626Q584.6708 378.30313 584.65515 377.06876L584.65515 376.64688Q584.65515 375.39688 585.1083 374.44376Q585.5614 373.475 586.3895 372.95938Q587.2333 372.44376 588.2958 372.44376Q589.3583 372.44376 590.1864 372.95938Q591.0145 373.475 591.46765 374.44376Q591.9208 375.39688 591.9208 376.64688L591.9208 377.02188ZM590.1395 376.64688Q590.1395 375.30313 589.65515 374.6Q589.1864 373.89688 588.2958 373.89688Q587.40515 373.89688 586.9208 374.6Q586.452 375.2875 586.4364 376.61563L586.4364 377.02188Q586.4364 378.33438 586.9208 379.05313Q587.40515 379.77188 588.3114 379.77188Q589.1864 379.77188 589.65515 379.08438Q590.1395 378.38126 590.1395 377.05313L590.1395 376.64688ZM592.8895 377.63126Q592.8895 376.2875 593.2333 375.08438Q593.59265 373.86563 594.2958 372.92813Q594.9989 371.99063 595.8114 371.63126L596.1395 372.5375Q595.28015 373.17813 594.7958 374.50626Q594.3114 375.81876 594.3114 377.6L594.3114 377.77188Q594.3114 379.55313 594.78015 380.88126Q595.2645 382.20938 596.1395 382.86563L595.8114 383.77188Q595.0145 383.4125 594.327 382.50626Q593.6395 381.6 593.2645 380.4125Q592.90515 379.225 592.8895 377.94376L592.8895 377.63126ZM601.7333 379.33438L598.65515 379.33438L598.0614 381.1L596.202 381.1L599.3739 372.56876L600.9989 372.56876L604.202 381.1L602.327 381.1L601.7333 379.33438ZM599.1239 377.9125L601.2645 377.9125L600.1864 374.725L599.1239 377.9125ZM607.71765 377.77188Q607.71765 379.08438 607.34265 380.31876Q606.96765 381.5375 606.2489 382.475Q605.53015 383.4125 604.71765 383.77188L604.3895 382.86563Q605.21765 382.24063 605.702 380.94376Q606.1864 379.63126 606.202 377.92813L606.202 377.61563Q606.202 375.86563 605.71765 374.5375Q605.2489 373.19376 604.3895 372.52188L604.71765 371.63126Q605.5145 371.975 606.21765 372.88126Q606.9208 373.7875 607.3114 375.00626Q607.702 376.20938 607.71765 377.50626L607.71765 377.77188Z"
     fill-rule="nonzero"
     id="path163" />
  <path
     fill="#4285f4"
     d="M275.0 63.0C275.0 62.447716 275.44772 62.0 276.0 62.0L286.0 62.0C286.55228 62.0 287.0 62.447716 287.0 63.0L287.0 73.0C287.0 73.552284 286.55228 74.0 286.0 74.0L276.0 74.0C275.44772 74.0 275.0 73.552284 275.0 73.0Z"
     fill-rule="nonzero"
     id="path165" />
  <path
     fill="#1a1a1a"
     d="M297.23438 66.15625L297.29688 66.875Q297.96875 66.046875 299.10938 66.046875Q300.34375 66.046875 300.79688 67.015625Q301.46875 66.046875 302.70312 66.046875Q303.73438 66.046875 304.23438 66.65625Q304.73438 67.25 304.73438 68.453125L304.73438 72.5L303.04688 72.5L303.04688 68.453125Q303.04688 67.921875 302.82812 67.671875Q302.625 67.421875 302.07812 67.421875Q301.32812 67.421875 301.03125 68.140625L301.03125 72.5L299.34375 72.5L299.34375 68.46875Q299.34375 67.90625 299.125 67.671875Q298.90625 67.421875 298.39062 67.421875Q297.67188 67.421875 297.34375 68.015625L297.34375 72.5L295.65625 72.5L295.65625 66.15625L297.23438 66.15625ZM309.32812 72.5Q309.20312 72.265625 309.15625 71.9375Q308.54688 72.625 307.5625 72.625Q306.625 72.625 306.01562 72.078125Q305.40625 71.53125 305.40625 70.71875Q305.40625 69.703125 306.14062 69.171875Q306.89062 68.625 308.3125 68.625L309.07812 68.625L309.07812 68.265625Q309.07812 67.828125 308.85938 67.5625Q308.64062 67.296875 308.14062 67.296875Q307.71875 67.296875 307.46875 67.5Q307.23438 67.703125 307.23438 68.0625L305.54688 68.0625Q305.54688 67.515625 305.875 67.046875Q306.21875 66.578125 306.84375 66.3125Q307.46875 66.046875 308.23438 66.046875Q309.40625 66.046875 310.09375 66.640625Q310.78125 67.21875 310.78125 68.28125L310.78125 71.03125Q310.79688 71.9375 311.03125 72.40625L311.03125 72.5L309.32812 72.5ZM307.92188 71.328125Q308.29688 71.328125 308.60938 71.15625Q308.9375 70.984375 309.07812 70.703125L309.07812 69.609375L308.45312 69.609375Q307.1875 69.609375 307.09375 70.5L307.09375 70.59375Q307.09375 70.90625 307.3125 71.125Q307.53125 71.328125 307.92188 71.328125ZM315.07812 70.75Q315.07812 70.4375 314.76562 70.265625Q314.46875 70.078125 313.79688 69.9375Q311.53125 69.46875 311.53125 68.015625Q311.53125 67.171875 312.21875 66.609375Q312.92188 66.046875 314.0625 66.046875Q315.26562 66.046875 315.98438 66.609375Q316.71875 67.171875 316.71875 68.09375L315.01562 68.09375Q315.01562 67.71875 314.78125 67.484375Q314.54688 67.25 314.04688 67.25Q313.625 67.25 313.39062 67.453125Q313.15625 67.640625 313.15625 67.9375Q313.15625 68.21875 313.42188 68.390625Q313.6875 68.5625 314.3125 68.6875Q314.95312 68.8125 315.39062 68.96875Q316.73438 69.46875 316.73438 70.671875Q316.73438 71.546875 315.98438 72.09375Q315.25 72.625 314.0625 72.625Q313.26562 72.625 312.64062 72.34375Q312.03125 72.046875 311.67188 71.5625Q311.32812 71.0625 311.32812 70.484375L312.9375 70.484375Q312.95312 70.9375 313.26562 71.1875Q313.57812 71.421875 314.09375 71.421875Q314.59375 71.421875 314.82812 71.234375Q315.07812 71.046875 315.07812 70.75ZM320.28125 71.25Q320.75 71.25 321.04688 71.0Q321.34375 70.734375 321.35938 70.3125L322.9375 70.3125Q322.9375 70.953125 322.59375 71.5Q322.25 72.03125 321.64062 72.328125Q321.04688 72.625 320.3125 72.625Q318.95312 72.625 318.17188 71.765625Q317.39062 70.890625 317.39062 69.359375L317.39062 69.25Q317.39062 67.78125 318.17188 66.921875Q318.95312 66.046875 320.3125 66.046875Q321.5 66.046875 322.21875 66.71875Q322.9375 67.390625 322.9375 68.515625L321.35938 68.515625Q321.34375 68.03125 321.04688 67.71875Q320.75 67.40625 320.28125 67.40625Q319.6875 67.40625 319.375 67.84375Q319.07812 68.28125 319.07812 69.234375L319.07812 69.421875Q319.07812 70.390625 319.375 70.828125Q319.67188 71.25 320.28125 71.25ZM327.45312 71.859375Q326.82812 72.625 325.71875 72.625Q324.6875 72.625 324.15625 72.03125Q323.625 71.4375 323.60938 70.3125L323.60938 66.15625L325.29688 66.15625L325.29688 70.25Q325.29688 71.25 326.20312 71.25Q327.0625 71.25 327.39062 70.640625L327.39062 66.15625L329.09375 66.15625L329.09375 72.5L327.5 72.5L327.45312 71.859375ZM332.4375 72.5L330.73438 72.5L330.73438 63.5L332.4375 63.5L332.4375 72.5ZM335.4375 72.5L333.73438 72.5L333.73438 66.15625L335.4375 66.15625L335.4375 72.5ZM333.64062 64.515625Q333.64062 64.140625 333.89062 63.890625Q334.15625 63.640625 334.59375 63.640625Q335.01562 63.640625 335.26562 63.890625Q335.53125 64.140625 335.53125 64.515625Q335.53125 64.90625 335.26562 65.15625Q335.01562 65.390625 334.57812 65.390625Q334.15625 65.390625 333.89062 65.15625Q333.64062 64.90625 333.64062 64.515625ZM338.20312 66.15625L338.26562 66.890625Q338.9375 66.046875 340.07812 66.046875Q341.09375 66.046875 341.57812 66.640625Q342.07812 67.21875 342.09375 68.40625L342.09375 72.5L340.39062 72.5L340.39062 68.4375Q340.39062 67.90625 340.15625 67.671875Q339.92188 67.421875 339.375 67.421875Q338.67188 67.421875 338.3125 68.03125L338.3125 72.5L336.60938 72.5L336.60938 66.15625L338.20312 66.15625ZM343.39062 69.265625Q343.39062 68.328125 343.75 67.59375Q344.10938 66.84375 344.79688 66.453125Q345.48438 66.046875 346.375 66.046875Q347.67188 66.046875 348.46875 66.828125Q349.28125 67.609375 349.375 68.953125L349.39062 69.390625Q349.39062 70.859375 348.57812 71.75Q347.76562 72.625 346.39062 72.625Q345.01562 72.625 344.20312 71.75Q343.39062 70.859375 343.39062 69.34375L343.39062 69.265625ZM345.07812 69.390625Q345.07812 70.296875 345.42188 70.78125Q345.76562 71.25 346.39062 71.25Q347.01562 71.25 347.35938 70.78125Q347.70312 70.3125 347.70312 69.265625Q347.70312 68.390625 347.35938 67.90625Q347.01562 67.40625 346.375 67.40625Q345.76562 67.40625 345.42188 67.890625Q345.07812 68.375 345.07812 69.390625Z"
     fill-rule="nonzero"
     id="path167" />
  <path
     fill="#ea4335"
     d="M366.0 63.0C366.0 62.447716 366.44772 62.0 367.0 62.0L377.0 62.0C377.55228 62.0 378.0 62.447716 378.0 63.0L378.0 73.0C378.0 73.552284 377.55228 74.0 377.0 74.0L367.0 74.0C366.44772 74.0 366.0 73.552284 366.0 73.0Z"
     fill-rule="nonzero"
     id="path169" />
  <path
     fill="#1a1a1a"
     d="M387.10938 72.5L387.10938 67.40625L386.17188 67.40625L386.17188 66.15625L387.10938 66.15625L387.10938 65.625Q387.10938 64.546875 387.71875 63.96875Q388.34375 63.375 389.4375 63.375Q389.79688 63.375 390.29688 63.5L390.28125 64.8125Q390.07812 64.75 389.76562 64.75Q388.8125 64.75 388.8125 65.65625L388.8125 66.15625L390.07812 66.15625L390.07812 67.40625L388.8125 67.40625L388.8125 72.5L387.10938 72.5ZM393.5625 72.625Q392.17188 72.625 391.29688 71.765625Q390.42188 70.90625 390.42188 69.484375L390.42188 69.3125Q390.42188 68.359375 390.78125 67.609375Q391.15625 66.859375 391.82812 66.453125Q392.51562 66.046875 393.375 66.046875Q394.6875 66.046875 395.42188 66.875Q396.17188 67.6875 396.17188 69.1875L396.17188 69.875L392.14062 69.875Q392.21875 70.5 392.625 70.875Q393.04688 71.25 393.6875 71.25Q394.65625 71.25 395.20312 70.546875L396.04688 71.46875Q395.65625 72.015625 395.0 72.328125Q394.35938 72.625 393.5625 72.625ZM393.375 67.40625Q392.875 67.40625 392.5625 67.75Q392.25 68.09375 392.15625 68.71875L394.51562 68.71875L394.51562 68.59375Q394.5 68.03125 394.20312 67.71875Q393.92188 67.40625 393.375 67.40625ZM398.23438 66.15625L398.29688 66.875Q398.96875 66.046875 400.10938 66.046875Q401.34375 66.046875 401.79688 67.015625Q402.46875 66.046875 403.70312 66.046875Q404.73438 66.046875 405.23438 66.65625Q405.73438 67.25 405.73438 68.453125L405.73438 72.5L404.04688 72.5L404.04688 68.453125Q404.04688 67.921875 403.82812 67.671875Q403.625 67.421875 403.07812 67.421875Q402.32812 67.421875 402.03125 68.140625L402.03125 72.5L400.34375 72.5L400.34375 68.46875Q400.34375 67.90625 400.125 67.671875Q399.90625 67.421875 399.39062 67.421875Q398.67188 67.421875 398.34375 68.015625L398.34375 72.5L396.65625 72.5L396.65625 66.15625L398.23438 66.15625ZM408.4375 72.5L406.73438 72.5L406.73438 66.15625L408.4375 66.15625L408.4375 72.5ZM406.64062 64.515625Q406.64062 64.140625 406.89062 63.890625Q407.15625 63.640625 407.59375 63.640625Q408.01562 63.640625 408.26562 63.890625Q408.53125 64.140625 408.53125 64.515625Q408.53125 64.90625 408.26562 65.15625Q408.01562 65.390625 407.57812 65.390625Q407.15625 65.390625 406.89062 65.15625Q406.64062 64.90625 406.64062 64.515625ZM411.20312 66.15625L411.26562 66.890625Q411.9375 66.046875 413.07812 66.046875Q414.09375 66.046875 414.57812 66.640625Q415.07812 67.21875 415.09375 68.40625L415.09375 72.5L413.39062 72.5L413.39062 68.4375Q413.39062 67.90625 413.15625 67.671875Q412.92188 67.421875 412.375 67.421875Q411.67188 67.421875 411.3125 68.03125L411.3125 72.5L409.60938 72.5L409.60938 66.15625L411.20312 66.15625ZM418.4375 72.5L416.73438 72.5L416.73438 66.15625L418.4375 66.15625L418.4375 72.5ZM416.64062 64.515625Q416.64062 64.140625 416.89062 63.890625Q417.15625 63.640625 417.59375 63.640625Q418.01562 63.640625 418.26562 63.890625Q418.53125 64.140625 418.53125 64.515625Q418.53125 64.90625 418.26562 65.15625Q418.01562 65.390625 417.57812 65.390625Q417.15625 65.390625 416.89062 65.15625Q416.64062 64.90625 416.64062 64.515625ZM421.20312 66.15625L421.26562 66.890625Q421.9375 66.046875 423.07812 66.046875Q424.09375 66.046875 424.57812 66.640625Q425.07812 67.21875 425.09375 68.40625L425.09375 72.5L423.39062 72.5L423.39062 68.4375Q423.39062 67.90625 423.15625 67.671875Q422.92188 67.421875 422.375 67.421875Q421.67188 67.421875 421.3125 68.03125L421.3125 72.5L419.60938 72.5L419.60938 66.15625L421.20312 66.15625ZM426.39062 69.265625Q426.39062 68.328125 426.75 67.59375Q427.10938 66.84375 427.79688 66.453125Q428.48438 66.046875 429.375 66.046875Q430.67188 66.046875 431.46875 66.828125Q432.28125 67.609375 432.375 68.953125L432.39062 69.390625Q432.39062 70.859375 431.57812 71.75Q430.76562 72.625 429.39062 72.625Q428.01562 72.625 427.20312 71.75Q426.39062 70.859375 426.39062 69.34375L426.39062 69.265625ZM428.07812 69.390625Q428.07812 70.296875 428.42188 70.78125Q428.76562 71.25 429.39062 71.25Q430.01562 71.25 430.35938 70.78125Q430.70312 70.3125 430.70312 69.265625Q430.70312 68.390625 430.35938 67.90625Q430.01562 67.40625 429.375 67.40625Q428.76562 67.40625 428.42188 67.890625Q428.07812 68.375 428.07812 69.390625Z"
     fill-rule="nonzero"
     id="path171" />
  <path
     fill="#757575"
     d="M141.4375 36.165627Q141.26562 38.4625 139.73438 39.790627Q138.20312 41.103127 135.70312 41.103127Q132.96875 41.103127 131.40625 39.259377Q129.84375 37.415627 129.84375 34.196877L129.84375 33.3375Q129.84375 31.275002 130.5625 29.712502Q131.28125 28.150002 132.625 27.321877Q133.96875 26.478127 135.75 26.478127Q138.20312 26.478127 139.70312 27.806252Q141.21875 29.118752 141.45312 31.509377L138.51562 31.509377Q138.42188 30.134377 137.75 29.509377Q137.09375 28.884377 135.75 28.884377Q134.28125 28.884377 133.54688 29.946877Q132.82812 30.993752 132.8125 33.196877L132.8125 34.275Q132.8125 36.571877 133.5 37.634377Q134.20312 38.696877 135.70312 38.696877Q137.0625 38.696877 137.73438 38.0875Q138.40625 37.4625 138.5 36.165627L141.4375 36.165627ZM149.20312 40.9Q149.01562 40.525 148.92188 39.946877Q147.90625 41.103127 146.26562 41.103127Q144.70312 41.103127 143.6875 40.196877Q142.67188 39.290627 142.67188 37.93125Q142.67188 36.24375 143.90625 35.353127Q145.15625 34.446877 147.51562 34.446877L148.8125 34.446877L148.8125 33.8375Q148.8125 33.103127 148.4375 32.665627Q148.0625 32.228127 147.25 32.228127Q146.53125 32.228127 146.125 32.571877Q145.71875 32.915627 145.71875 33.509377L142.90625 33.509377Q142.90625 32.5875 143.46875 31.806252Q144.03125 31.025002 145.0625 30.587502Q146.10938 30.134377 147.39062 30.134377Q149.34375 30.134377 150.48438 31.118752Q151.64062 32.103127 151.64062 33.884377L151.64062 38.4625Q151.65625 39.9625 152.0625 40.728127L152.0625 40.9L149.20312 40.9ZM146.875 38.93125Q147.5 38.93125 148.01562 38.665627Q148.54688 38.384377 148.8125 37.915627L148.8125 36.0875L147.75 36.0875Q145.64062 36.0875 145.5 37.55625L145.48438 37.728127Q145.48438 38.259377 145.85938 38.603127Q146.23438 38.93125 146.875 38.93125ZM156.6875 30.337502L156.76562 31.556252Q157.90625 30.134377 159.8125 30.134377Q161.48438 30.134377 162.29688 31.118752Q163.125 32.103127 163.14062 34.071877L163.14062 40.9L160.32812 40.9L160.32812 34.134377Q160.32812 33.24375 159.9375 32.8375Q159.54688 32.43125 158.64062 32.43125Q157.4375 32.43125 156.84375 33.446877L156.84375 40.9L154.03125 40.9L154.03125 30.337502L156.6875 30.337502ZM164.64062 35.540627Q164.64062 33.071877 165.75 31.603127Q166.85938 30.134377 168.78125 30.134377Q170.32812 30.134377 171.32812 31.290627L171.32812 25.900002L174.17188 25.900002L174.17188 40.9L171.625 40.9L171.48438 39.775Q170.42188 41.103127 168.76562 41.103127Q166.90625 41.103127 165.76562 39.634377Q164.64062 38.15 164.64062 35.540627ZM167.46875 35.74375Q167.46875 37.228127 167.98438 38.025Q168.5 38.80625 169.48438 38.80625Q170.79688 38.80625 171.32812 37.7125L171.32812 33.540627Q170.8125 32.43125 169.51562 32.43125Q167.46875 32.43125 167.46875 35.74375ZM179.0625 40.9L176.23438 40.9L176.23438 30.337502L179.0625 30.337502L179.0625 40.9ZM176.0625 27.603127Q176.0625 26.962502 176.48438 26.556252Q176.92188 26.150002 177.64062 26.150002Q178.375 26.150002 178.79688 26.556252Q179.23438 26.962502 179.23438 27.603127Q179.23438 28.243752 178.79688 28.650002Q178.35938 29.056252 177.64062 29.056252Q176.9375 29.056252 176.5 28.650002Q176.0625 28.243752 176.0625 27.603127ZM180.64062 35.540627Q180.64062 33.071877 181.75 31.603127Q182.85938 30.134377 184.78125 30.134377Q186.32812 30.134377 187.32812 31.290627L187.32812 25.900002L190.17188 25.900002L190.17188 40.9L187.625 40.9L187.48438 39.775Q186.42188 41.103127 184.76562 41.103127Q182.90625 41.103127 181.76562 39.634377Q180.64062 38.15 180.64062 35.540627ZM183.46875 35.74375Q183.46875 37.228127 183.98438 38.025Q184.5 38.80625 185.48438 38.80625Q186.79688 38.80625 187.32812 37.7125L187.32812 33.540627Q186.8125 32.43125 185.51562 32.43125Q183.46875 32.43125 183.46875 35.74375ZM198.20312 40.9Q198.01562 40.525 197.92188 39.946877Q196.90625 41.103127 195.26562 41.103127Q193.70312 41.103127 192.6875 40.196877Q191.67188 39.290627 191.67188 37.93125Q191.67188 36.24375 192.90625 35.353127Q194.15625 34.446877 196.51562 34.446877L197.8125 34.446877L197.8125 33.8375Q197.8125 33.103127 197.4375 32.665627Q197.0625 32.228127 196.25 32.228127Q195.53125 32.228127 195.125 32.571877Q194.71875 32.915627 194.71875 33.509377L191.90625 33.509377Q191.90625 32.5875 192.46875 31.806252Q193.03125 31.025002 194.0625 30.587502Q195.10938 30.134377 196.39062 30.134377Q198.34375 30.134377 199.48438 31.118752Q200.64062 32.103127 200.64062 33.884377L200.64062 38.4625Q200.65625 39.9625 201.0625 40.728127L201.0625 40.9L198.20312 40.9ZM195.875 38.93125Q196.5 38.93125 197.01562 38.665627Q197.54688 38.384377 197.8125 37.915627L197.8125 36.0875L196.75 36.0875Q194.64062 36.0875 194.5 37.55625L194.48438 37.728127Q194.48438 38.259377 194.85938 38.603127Q195.23438 38.93125 195.875 38.93125ZM206.46875 27.728127L206.46875 30.337502L208.26562 30.337502L208.26562 32.4L206.46875 32.4L206.46875 37.68125Q206.46875 38.259377 206.6875 38.525Q206.90625 38.775 207.54688 38.775Q208.01562 38.775 208.375 38.696877L208.375 40.8375Q207.54688 41.103127 206.67188 41.103127Q203.70312 41.103127 203.64062 38.103127L203.64062 32.4L202.09375 32.4L202.09375 30.337502L203.64062 30.337502L203.64062 27.728127L206.46875 27.728127ZM209.64062 35.525Q209.64062 33.946877 210.25 32.7125Q210.85938 31.478127 211.98438 30.806252Q213.125 30.134377 214.64062 30.134377Q216.78125 30.134377 218.125 31.446877Q219.48438 32.759377 219.64062 34.99375L219.65625 35.728127Q219.65625 38.15 218.29688 39.634377Q216.9375 41.103127 214.65625 41.103127Q212.375 41.103127 211.0 39.634377Q209.64062 38.165627 209.64062 35.65L209.64062 35.525ZM212.46875 35.728127Q212.46875 37.228127 213.03125 38.025Q213.59375 38.821877 214.65625 38.821877Q215.6875 38.821877 216.25 38.040627Q216.82812 37.24375 216.82812 35.525Q216.82812 34.040627 216.25 33.228127Q215.6875 32.415627 214.64062 32.415627Q213.59375 32.415627 213.03125 33.228127Q212.46875 34.040627 212.46875 35.728127ZM226.8125 37.978127Q226.8125 37.4625 226.29688 37.165627Q225.78125 36.86875 224.65625 36.634377Q220.875 35.8375 220.875 33.43125Q220.875 32.025 222.04688 31.087502Q223.21875 30.134377 225.09375 30.134377Q227.10938 30.134377 228.3125 31.087502Q229.51562 32.025 229.51562 33.540627L226.70312 33.540627Q226.70312 32.946877 226.3125 32.55625Q225.92188 32.15 225.09375 32.15Q224.375 32.15 223.98438 32.478127Q223.59375 32.790627 223.59375 33.290627Q223.59375 33.759377 224.03125 34.05625Q224.48438 34.3375 225.53125 34.55625Q226.59375 34.759377 227.3125 35.025Q229.54688 35.8375 229.54688 37.86875Q229.54688 39.30625 228.3125 40.2125Q227.07812 41.103127 225.10938 41.103127Q223.78125 41.103127 222.75 40.634377Q221.71875 40.15 221.125 39.321877Q220.54688 38.49375 220.54688 37.540627L223.21875 37.540627Q223.26562 38.290627 223.78125 38.696877Q224.29688 39.0875 225.17188 39.0875Q225.98438 39.0875 226.39062 38.790627Q226.8125 38.478127 226.8125 37.978127ZM245.59375 35.7125Q245.59375 38.15 244.48438 39.634377Q243.375 41.103127 241.5 41.103127Q239.89062 41.103127 238.90625 39.978127L238.90625 44.9625L236.07812 44.9625L236.07812 30.337502L238.70312 30.337502L238.79688 31.368752Q239.82812 30.134377 241.46875 30.134377Q243.42188 30.134377 244.5 31.587502Q245.59375 33.025 245.59375 35.571877L245.59375 35.7125ZM242.78125 35.509377Q242.78125 34.040627 242.25 33.24375Q241.73438 32.43125 240.73438 32.43125Q239.40625 32.43125 238.90625 33.446877L238.90625 37.775Q239.42188 38.821877 240.75 38.821877Q242.78125 38.821877 242.78125 35.509377ZM246.64062 35.525Q246.64062 33.946877 247.25 32.7125Q247.85938 31.478127 248.98438 30.806252Q250.125 30.134377 251.64062 30.134377Q253.78125 30.134377 255.125 31.446877Q256.48438 32.759377 256.64062 34.99375L256.65625 35.728127Q256.65625 38.15 255.29688 39.634377Q253.9375 41.103127 251.65625 41.103127Q249.375 41.103127 248.0 39.634377Q246.64062 38.165627 246.64062 35.65L246.64062 35.525ZM249.46875 35.728127Q249.46875 37.228127 250.03125 38.025Q250.59375 38.821877 251.65625 38.821877Q252.6875 38.821877 253.25 38.040627Q253.82812 37.24375 253.82812 35.525Q253.82812 34.040627 253.25 33.228127Q252.6875 32.415627 251.64062 32.415627Q250.59375 32.415627 250.03125 33.228127Q249.46875 34.040627 249.46875 35.728127ZM264.01562 32.978127Q263.45312 32.9 263.0 32.9Q261.40625 32.9 260.90625 33.978127L260.90625 40.9L258.07812 40.9L258.07812 30.337502L260.75 30.337502L260.82812 31.587502Q261.67188 30.134377 263.1875 30.134377Q263.65625 30.134377 264.0625 30.259377L264.01562 32.978127ZM274.95312 41.103127Q272.625 41.103127 271.15625 39.68125Q269.70312 38.24375 269.70312 35.86875L269.70312 35.603127Q269.70312 34.009377 270.3125 32.759377Q270.9375 31.493752 272.0625 30.821877Q273.1875 30.134377 274.64062 30.134377Q276.79688 30.134377 278.04688 31.509377Q279.29688 32.86875 279.29688 35.384377L279.29688 36.540627L272.5625 36.540627Q272.70312 37.571877 273.39062 38.196877Q274.07812 38.821877 275.14062 38.821877Q276.76562 38.821877 277.6875 37.634377L279.0625 39.196877Q278.4375 40.0875 277.34375 40.603127Q276.26562 41.103127 274.95312 41.103127ZM274.625 32.415627Q273.78125 32.415627 273.25 32.99375Q272.73438 33.55625 272.59375 34.603127L276.51562 34.603127L276.51562 34.384377Q276.5 33.446877 276.01562 32.93125Q275.53125 32.415627 274.625 32.415627ZM286.8125 37.978127Q286.8125 37.4625 286.29688 37.165627Q285.78125 36.86875 284.65625 36.634377Q280.875 35.8375 280.875 33.43125Q280.875 32.025 282.04688 31.087502Q283.21875 30.134377 285.09375 30.134377Q287.10938 30.134377 288.3125 31.087502Q289.51562 32.025 289.51562 33.540627L286.70312 33.540627Q286.70312 32.946877 286.3125 32.55625Q285.92188 32.15 285.09375 32.15Q284.375 32.15 283.98438 32.478127Q283.59375 32.790627 283.59375 33.290627Q283.59375 33.759377 284.03125 34.05625Q284.48438 34.3375 285.53125 34.55625Q286.59375 34.759377 287.3125 35.025Q289.54688 35.8375 289.54688 37.86875Q289.54688 39.30625 288.3125 40.2125Q287.07812 41.103127 285.10938 41.103127Q283.78125 41.103127 282.75 40.634377Q281.71875 40.15 281.125 39.321877Q280.54688 38.49375 280.54688 37.540627L283.21875 37.540627Q283.26562 38.290627 283.78125 38.696877Q284.29688 39.0875 285.17188 39.0875Q285.98438 39.0875 286.39062 38.790627Q286.8125 38.478127 286.8125 37.978127ZM294.46875 27.728127L294.46875 30.337502L296.26562 30.337502L296.26562 32.4L294.46875 32.4L294.46875 37.68125Q294.46875 38.259377 294.6875 38.525Q294.90625 38.775 295.54688 38.775Q296.01562 38.775 296.375 38.696877L296.375 40.8375Q295.54688 41.103127 294.67188 41.103127Q291.70312 41.103127 291.64062 38.103127L291.64062 32.4L290.09375 32.4L290.09375 30.337502L291.64062 30.337502L291.64062 27.728127L294.46875 27.728127ZM304.20312 40.9Q304.01562 40.525 303.92188 39.946877Q302.90625 41.103127 301.26562 41.103127Q299.70312 41.103127 298.6875 40.196877Q297.67188 39.290627 297.67188 37.93125Q297.67188 36.24375 298.90625 35.353127Q300.15625 34.446877 302.51562 34.446877L303.8125 34.446877L303.8125 33.8375Q303.8125 33.103127 303.4375 32.665627Q303.0625 32.228127 302.25 32.228127Q301.53125 32.228127 301.125 32.571877Q300.71875 32.915627 300.71875 33.509377L297.90625 33.509377Q297.90625 32.5875 298.46875 31.806252Q299.03125 31.025002 300.0625 30.587502Q301.10938 30.134377 302.39062 30.134377Q304.34375 30.134377 305.48438 31.118752Q306.64062 32.103127 306.64062 33.884377L306.64062 38.4625Q306.65625 39.9625 307.0625 40.728127L307.0625 40.9L304.20312 40.9ZM301.875 38.93125Q302.5 38.93125 303.01562 38.665627Q303.54688 38.384377 303.8125 37.915627L303.8125 36.0875L302.75 36.0875Q300.64062 36.0875 300.5 37.55625L300.48438 37.728127Q300.48438 38.259377 300.85938 38.603127Q301.23438 38.93125 301.875 38.93125ZM308.64062 35.540627Q308.64062 33.071877 309.75 31.603127Q310.85938 30.134377 312.78125 30.134377Q314.32812 30.134377 315.32812 31.290627L315.32812 25.900002L318.17188 25.900002L318.17188 40.9L315.625 40.9L315.48438 39.775Q314.42188 41.103127 312.76562 41.103127Q310.90625 41.103127 309.76562 39.634377Q308.64062 38.15 308.64062 35.540627ZM311.46875 35.74375Q311.46875 37.228127 311.98438 38.025Q312.5 38.80625 313.48438 38.80625Q314.79688 38.80625 315.32812 37.7125L315.32812 33.540627Q314.8125 32.43125 313.51562 32.43125Q311.46875 32.43125 311.46875 35.74375ZM319.64062 35.525Q319.64062 33.946877 320.25 32.7125Q320.85938 31.478127 321.98438 30.806252Q323.125 30.134377 324.64062 30.134377Q326.78125 30.134377 328.125 31.446877Q329.48438 32.759377 329.64062 34.99375L329.65625 35.728127Q329.65625 38.15 328.29688 39.634377Q326.9375 41.103127 324.65625 41.103127Q322.375 41.103127 321.0 39.634377Q319.64062 38.165627 319.64062 35.65L319.64062 35.525ZM322.46875 35.728127Q322.46875 37.228127 323.03125 38.025Q323.59375 38.821877 324.65625 38.821877Q325.6875 38.821877 326.25 38.040627Q326.82812 37.24375 326.82812 35.525Q326.82812 34.040627 326.25 33.228127Q325.6875 32.415627 324.64062 32.415627Q323.59375 32.415627 323.03125 33.228127Q322.46875 34.040627 322.46875 35.728127ZM340.48438 38.821877Q341.26562 38.821877 341.75 38.4Q342.23438 37.9625 342.25 37.24375L344.90625 37.24375Q344.89062 38.321877 344.3125 39.2125Q343.73438 40.103127 342.73438 40.603127Q341.73438 41.103127 340.53125 41.103127Q338.26562 41.103127 336.95312 39.665627Q335.64062 38.2125 335.64062 35.68125L335.64062 35.49375Q335.64062 33.040627 336.9375 31.587502Q338.25 30.134377 340.51562 30.134377Q342.48438 30.134377 343.6875 31.275002Q344.89062 32.4 344.90625 34.275L342.25 34.275Q342.23438 33.446877 341.75 32.93125Q341.26562 32.415627 340.45312 32.415627Q339.46875 32.415627 338.96875 33.134377Q338.46875 33.853127 338.46875 35.4625L338.46875 35.759377Q338.46875 37.4 338.96875 38.11875Q339.46875 38.821877 340.48438 38.821877ZM349.0625 40.9L346.23438 40.9L346.23438 30.337502L349.0625 30.337502L349.0625 40.9ZM346.0625 27.603127Q346.0625 26.962502 346.48438 26.556252Q346.92188 26.150002 347.64062 26.150002Q348.375 26.150002 348.79688 26.556252Q349.23438 26.962502 349.23438 27.603127Q349.23438 28.243752 348.79688 28.650002Q348.35938 29.056252 347.64062 29.056252Q346.9375 29.056252 346.5 28.650002Q346.0625 28.243752 346.0625 27.603127ZM355.04688 37.446877L357.0 30.337502L359.95312 30.337502L356.39062 40.9L353.6875 40.9L350.125 30.337502L353.07812 30.337502L355.04688 37.446877ZM364.0625 40.9L361.23438 40.9L361.23438 30.337502L364.0625 30.337502L364.0625 40.9ZM361.0625 27.603127Q361.0625 26.962502 361.48438 26.556252Q361.92188 26.150002 362.64062 26.150002Q363.375 26.150002 363.79688 26.556252Q364.23438 26.962502 364.23438 27.603127Q364.23438 28.243752 363.79688 28.650002Q363.35938 29.056252 362.64062 29.056252Q361.9375 29.056252 361.5 28.650002Q361.0625 28.243752 361.0625 27.603127ZM369.0625 40.9L366.23438 40.9L366.23438 25.900002L369.0625 25.900002L369.0625 40.9ZM376.21875 35.11875Q376.21875 32.884377 376.8125 30.868752Q377.40625 28.837502 378.5625 27.290627Q379.73438 25.728127 381.07812 25.118752L381.625 26.634377Q380.20312 27.696877 379.40625 29.900002Q378.60938 32.103127 378.60938 35.05625L378.60938 35.36875Q378.60938 38.321877 379.39062 40.540627Q380.1875 42.759377 381.625 43.853127L381.07812 45.3375Q379.75 44.74375 378.60938 43.228127Q377.46875 41.728127 376.85938 39.759377Q376.25 37.790627 376.21875 35.634377L376.21875 35.11875ZM385.73438 30.337502L385.8125 31.509377Q386.9375 30.134377 388.85938 30.134377Q390.89062 30.134377 391.65625 31.743752Q392.76562 30.134377 394.82812 30.134377Q396.54688 30.134377 397.39062 31.134377Q398.23438 32.134377 398.23438 34.15L398.23438 40.9L395.40625 40.9L395.40625 34.165627Q395.40625 33.259377 395.04688 32.853127Q394.70312 32.43125 393.8125 32.43125Q392.53125 32.43125 392.04688 33.65L392.0625 40.9L389.23438 40.9L389.23438 34.165627Q389.23438 33.259377 388.875 32.853127Q388.51562 32.43125 387.64062 32.43125Q386.4375 32.43125 385.90625 33.43125L385.90625 40.9L383.07812 40.9L383.07812 30.337502L385.73438 30.337502ZM406.20312 40.9Q406.01562 40.525 405.92188 39.946877Q404.90625 41.103127 403.26562 41.103127Q401.70312 41.103127 400.6875 40.196877Q399.67188 39.290627 399.67188 37.93125Q399.67188 36.24375 400.90625 35.353127Q402.15625 34.446877 404.51562 34.446877L405.8125 34.446877L405.8125 33.8375Q405.8125 33.103127 405.4375 32.665627Q405.0625 32.228127 404.25 32.228127Q403.53125 32.228127 403.125 32.571877Q402.71875 32.915627 402.71875 33.509377L399.90625 33.509377Q399.90625 32.5875 400.46875 31.806252Q401.03125 31.025002 402.0625 30.587502Q403.10938 30.134377 404.39062 30.134377Q406.34375 30.134377 407.48438 31.118752Q408.64062 32.103127 408.64062 33.884377L408.64062 38.4625Q408.65625 39.9625 409.0625 40.728127L409.0625 40.9L406.20312 40.9ZM403.875 38.93125Q404.5 38.93125 405.01562 38.665627Q405.54688 38.384377 405.8125 37.915627L405.8125 36.0875L404.75 36.0875Q402.64062 36.0875 402.5 37.55625L402.48438 37.728127Q402.48438 38.259377 402.85938 38.603127Q403.23438 38.93125 403.875 38.93125ZM416.8125 37.978127Q416.8125 37.4625 416.29688 37.165627Q415.78125 36.86875 414.65625 36.634377Q410.875 35.8375 410.875 33.43125Q410.875 32.025 412.04688 31.087502Q413.21875 30.134377 415.09375 30.134377Q417.10938 30.134377 418.3125 31.087502Q419.51562 32.025 419.51562 33.540627L416.70312 33.540627Q416.70312 32.946877 416.3125 32.55625Q415.92188 32.15 415.09375 32.15Q414.375 32.15 413.98438 32.478127Q413.59375 32.790627 413.59375 33.290627Q413.59375 33.759377 414.03125 34.05625Q414.48438 34.3375 415.53125 34.55625Q416.59375 34.759377 417.3125 35.025Q419.54688 35.8375 419.54688 37.86875Q419.54688 39.30625 418.3125 40.2125Q417.07812 41.103127 415.10938 41.103127Q413.78125 41.103127 412.75 40.634377Q411.71875 40.15 411.125 39.321877Q410.54688 38.49375 410.54688 37.540627L413.21875 37.540627Q413.26562 38.290627 413.78125 38.696877Q414.29688 39.0875 415.17188 39.0875Q415.98438 39.0875 416.39062 38.790627Q416.8125 38.478127 416.8125 37.978127ZM425.48438 38.821877Q426.26562 38.821877 426.75 38.4Q427.23438 37.9625 427.25 37.24375L429.90625 37.24375Q429.89062 38.321877 429.3125 39.2125Q428.73438 40.103127 427.73438 40.603127Q426.73438 41.103127 425.53125 41.103127Q423.26562 41.103127 421.95312 39.665627Q420.64062 38.2125 420.64062 35.68125L420.64062 35.49375Q420.64062 33.040627 421.9375 31.587502Q423.25 30.134377 425.51562 30.134377Q427.48438 30.134377 428.6875 31.275002Q429.89062 32.4 429.90625 34.275L427.25 34.275Q427.23438 33.446877 426.75 32.93125Q426.26562 32.415627 425.45312 32.415627Q424.46875 32.415627 423.96875 33.134377Q423.46875 33.853127 423.46875 35.4625L423.46875 35.759377Q423.46875 37.4 423.96875 38.11875Q424.46875 38.821877 425.48438 38.821877ZM437.40625 39.821877Q436.375 41.103127 434.51562 41.103127Q432.82812 41.103127 431.92188 40.11875Q431.03125 39.134377 431.01562 37.259377L431.01562 30.337502L433.84375 30.337502L433.84375 37.165627Q433.84375 38.80625 435.34375 38.80625Q436.78125 38.80625 437.3125 37.80625L437.3125 30.337502L440.14062 30.337502L440.14062 40.9L437.48438 40.9L437.40625 39.821877ZM445.0625 40.9L442.23438 40.9L442.23438 25.900002L445.0625 25.900002L445.0625 40.9ZM450.0625 40.9L447.23438 40.9L447.23438 30.337502L450.0625 30.337502L450.0625 40.9ZM447.0625 27.603127Q447.0625 26.962502 447.48438 26.556252Q447.92188 26.150002 448.64062 26.150002Q449.375 26.150002 449.79688 26.556252Q450.23438 26.962502 450.23438 27.603127Q450.23438 28.243752 449.79688 28.650002Q449.35938 29.056252 448.64062 29.056252Q447.9375 29.056252 447.5 28.650002Q447.0625 28.243752 447.0625 27.603127ZM454.6875 30.337502L454.76562 31.556252Q455.90625 30.134377 457.8125 30.134377Q459.48438 30.134377 460.29688 31.118752Q461.125 32.103127 461.14062 34.071877L461.14062 40.9L458.32812 40.9L458.32812 34.134377Q458.32812 33.24375 457.9375 32.8375Q457.54688 32.43125 456.64062 32.43125Q455.4375 32.43125 454.84375 33.446877L454.84375 40.9L452.03125 40.9L452.03125 30.337502L454.6875 30.337502ZM462.64062 35.525Q462.64062 33.946877 463.25 32.7125Q463.85938 31.478127 464.98438 30.806252Q466.125 30.134377 467.64062 30.134377Q469.78125 30.134377 471.125 31.446877Q472.48438 32.759377 472.64062 34.99375L472.65625 35.728127Q472.65625 38.15 471.29688 39.634377Q469.9375 41.103127 467.65625 41.103127Q465.375 41.103127 464.0 39.634377Q462.64062 38.165627 462.64062 35.65L462.64062 35.525ZM465.46875 35.728127Q465.46875 37.228127 466.03125 38.025Q466.59375 38.821877 467.65625 38.821877Q468.6875 38.821877 469.25 38.040627Q469.82812 37.24375 469.82812 35.525Q469.82812 34.040627 469.25 33.228127Q468.6875 32.415627 467.64062 32.415627Q466.59375 32.415627 466.03125 33.228127Q465.46875 34.040627 465.46875 35.728127ZM483.95312 41.103127Q481.625 41.103127 480.15625 39.68125Q478.70312 38.24375 478.70312 35.86875L478.70312 35.603127Q478.70312 34.009377 479.3125 32.759377Q479.9375 31.493752 481.0625 30.821877Q482.1875 30.134377 483.64062 30.134377Q485.79688 30.134377 487.04688 31.509377Q488.29688 32.86875 488.29688 35.384377L488.29688 36.540627L481.5625 36.540627Q481.70312 37.571877 482.39062 38.196877Q483.07812 38.821877 484.14062 38.821877Q485.76562 38.821877 486.6875 37.634377L488.0625 39.196877Q487.4375 40.0875 486.34375 40.603127Q485.26562 41.103127 483.95312 41.103127ZM483.625 32.415627Q482.78125 32.415627 482.25 32.99375Q481.73438 33.55625 481.59375 34.603127L485.51562 34.603127L485.51562 34.384377Q485.5 33.446877 485.01562 32.93125Q484.53125 32.415627 483.625 32.415627ZM495.85938 40.9L495.85938 32.4L494.28125 32.4L494.28125 30.337502L495.85938 30.337502L495.85938 29.431252Q495.85938 27.650002 496.875 26.681252Q497.89062 25.696877 499.73438 25.696877Q500.3125 25.696877 501.17188 25.884377L501.14062 28.071877Q500.78125 27.993752 500.28125 27.993752Q498.6875 27.993752 498.6875 29.478127L498.6875 30.337502L500.78125 30.337502L500.78125 32.4L498.6875 32.4L498.6875 40.9L495.85938 40.9ZM506.95312 41.103127Q504.625 41.103127 503.15625 39.68125Q501.70312 38.24375 501.70312 35.86875L501.70312 35.603127Q501.70312 34.009377 502.3125 32.759377Q502.9375 31.493752 504.0625 30.821877Q505.1875 30.134377 506.64062 30.134377Q508.79688 30.134377 510.04688 31.509377Q511.29688 32.86875 511.29688 35.384377L511.29688 36.540627L504.5625 36.540627Q504.70312 37.571877 505.39062 38.196877Q506.07812 38.821877 507.14062 38.821877Q508.76562 38.821877 509.6875 37.634377L511.0625 39.196877Q510.4375 40.0875 509.34375 40.603127Q508.26562 41.103127 506.95312 41.103127ZM506.625 32.415627Q505.78125 32.415627 505.25 32.99375Q504.73438 33.55625 504.59375 34.603127L508.51562 34.603127L508.51562 34.384377Q508.5 33.446877 508.01562 32.93125Q507.53125 32.415627 506.625 32.415627ZM515.7344 30.337502L515.8125 31.509377Q516.9375 30.134377 518.8594 30.134377Q520.8906 30.134377 521.65625 31.743752Q522.7656 30.134377 524.8281 30.134377Q526.5469 30.134377 527.3906 31.134377Q528.2344 32.134377 528.2344 34.15L528.2344 40.9L525.40625 40.9L525.40625 34.165627Q525.40625 33.259377 525.0469 32.853127Q524.7031 32.43125 523.8125 32.43125Q522.53125 32.43125 522.0469 33.65L522.0625 40.9L519.2344 40.9L519.2344 34.165627Q519.2344 33.259377 518.875 32.853127Q518.5156 32.43125 517.6406 32.43125Q516.4375 32.43125 515.90625 33.43125L515.90625 40.9L513.0781 40.9L513.0781 30.337502L515.7344 30.337502ZM533.0625 40.9L530.2344 40.9L530.2344 30.337502L533.0625 30.337502L533.0625 40.9ZM530.0625 27.603127Q530.0625 26.962502 530.4844 26.556252Q530.9219 26.150002 531.6406 26.150002Q532.375 26.150002 532.7969 26.556252Q533.2344 26.962502 533.2344 27.603127Q533.2344 28.243752 532.7969 28.650002Q532.3594 29.056252 531.6406 29.056252Q530.9375 29.056252 530.5 28.650002Q530.0625 28.243752 530.0625 27.603127ZM537.6875 30.337502L537.7656 31.556252Q538.90625 30.134377 540.8125 30.134377Q542.4844 30.134377 543.2969 31.118752Q544.125 32.103127 544.1406 34.071877L544.1406 40.9L541.3281 40.9L541.3281 34.134377Q541.3281 33.24375 540.9375 32.8375Q540.5469 32.43125 539.6406 32.43125Q538.4375 32.43125 537.84375 33.446877L537.84375 40.9L535.03125 40.9L535.03125 30.337502L537.6875 30.337502ZM549.0625 40.9L546.2344 40.9L546.2344 30.337502L549.0625 30.337502L549.0625 40.9ZM546.0625 27.603127Q546.0625 26.962502 546.4844 26.556252Q546.9219 26.150002 547.6406 26.150002Q548.375 26.150002 548.7969 26.556252Q549.2344 26.962502 549.2344 27.603127Q549.2344 28.243752 548.7969 28.650002Q548.3594 29.056252 547.6406 29.056252Q546.9375 29.056252 546.5 28.650002Q546.0625 28.243752 546.0625 27.603127ZM553.6875 30.337502L553.7656 31.556252Q554.90625 30.134377 556.8125 30.134377Q558.4844 30.134377 559.2969 31.118752Q560.125 32.103127 560.1406 34.071877L560.1406 40.9L557.3281 40.9L557.3281 34.134377Q557.3281 33.24375 556.9375 32.8375Q556.5469 32.43125 555.6406 32.43125Q554.4375 32.43125 553.84375 33.446877L553.84375 40.9L551.03125 40.9L551.03125 30.337502L553.6875 30.337502ZM561.6406 35.525Q561.6406 33.946877 562.25 32.7125Q562.8594 31.478127 563.9844 30.806252Q565.125 30.134377 566.6406 30.134377Q568.78125 30.134377 570.125 31.446877Q571.4844 32.759377 571.6406 34.99375L571.65625 35.728127Q571.65625 38.15 570.2969 39.634377Q568.9375 41.103127 566.65625 41.103127Q564.375 41.103127 563.0 39.634377Q561.6406 38.165627 561.6406 35.65L561.6406 35.525ZM564.46875 35.728127Q564.46875 37.228127 565.03125 38.025Q565.59375 38.821877 566.65625 38.821877Q567.6875 38.821877 568.25 38.040627Q568.8281 37.24375 568.8281 35.525Q568.8281 34.040627 568.25 33.228127Q567.6875 32.415627 566.6406 32.415627Q565.59375 32.415627 565.03125 33.228127Q564.46875 34.040627 564.46875 35.728127ZM577.9531 35.3375Q577.9531 37.55625 577.3125 39.603127Q576.6719 41.634377 575.4844 43.196877Q574.2969 44.759377 572.9375 45.3375L572.3906 43.853127Q573.78125 42.80625 574.5781 40.634377Q575.375 38.446877 575.40625 35.61875L575.40625 35.103127Q575.40625 32.18125 574.6094 29.962502Q573.8125 27.728127 572.3906 26.618752L572.9375 25.118752Q574.2656 25.696877 575.4375 27.212502Q576.625 28.728127 577.2656 30.743752Q577.9219 32.74375 577.9531 34.9L577.9531 35.3375Z"
     fill-rule="nonzero"
     id="path173" />
  <text
     xml:space="preserve"
     style="font-style:normal;font-variant:normal;font-weight:normal;font-stretch:normal;font-size:12.8508px;line-height:1.25;font-family:Georgia;-inkscape-font-specification:Georgia;letter-spacing:0px;word-spacing:0px;opacity:0.338129;fill:#000000;stroke-width:0.150595"
     x="190.8463"
     y="435.04581"
     id="text897"
     transform="scale(1.0229029,0.9776099)"><tspan
       sodipodi:role="line"
       id="tspan895"
       x="190.8463"
       y="435.04581"
       style="font-style:normal;font-variant:normal;font-weight:normal;font-stretch:normal;font-family:'Andale Mono';-inkscape-font-specification:'Andale Mono';fill:#000000;stroke-width:0.150595">fonte: jhoonb.github.io/maracaju-eleicao-2020</tspan></text>
</svg>
